<svg width="3256" height="2511" viewBox="0 0 3256 2511" fill="none" xmlns="http://www.w3.org/2000/svg">
<g clip-path="url(#clip0_938_83818)">
<path d="M2067.41 0.267612C2068.03 -0.0895293 2068.79 -0.0895299 2069.41 0.267612L2541.61 272.888C2542.23 273.245 2542.61 273.906 2542.61 274.62V695.36C2542.61 696.075 2542.23 696.735 2541.61 697.092C2540.99 697.449 2540.23 697.449 2539.61 697.092L2067.41 424.472C2066.79 424.114 2066.41 423.455 2066.41 422.74V2.00003L2066.42 1.86722C2066.46 1.20445 2066.83 0.602623 2067.41 0.267612ZM2070.41 421.585L2538.61 691.896V275.774L2070.41 5.4639V421.585Z" fill="#231F20"/>
<path d="M2044.96 436.28V15.54L2517.16 288.16L2517.17 708.9L2044.96 436.28Z" fill="white"/>
<path d="M2043.96 13.8077C2044.58 13.4505 2045.34 13.4505 2045.96 13.8077L2518.16 286.428C2518.78 286.785 2519.16 287.446 2519.16 288.16L2519.17 708.9C2519.17 709.615 2518.79 710.275 2518.17 710.632C2517.55 710.989 2516.79 710.989 2516.17 710.632L2043.96 438.012C2043.34 437.655 2042.96 436.995 2042.96 436.28V15.5401L2042.96 15.4073C2043.01 14.7445 2043.38 14.1427 2043.96 13.8077ZM2046.96 435.125L2515.17 705.436L2515.16 289.314L2046.96 19.0039V435.125Z" fill="#231F20"/>
<path d="M2043.58 14.0889C2044.23 13.4794 2045.19 13.3649 2045.96 13.8077L2518.16 286.428C2518.87 286.839 2519.26 287.645 2519.14 288.458C2519.02 289.271 2518.41 289.927 2517.6 290.11L2218.93 358.27C2218.04 358.473 2217.12 358.044 2216.71 357.228L2043.18 16.4473C2042.78 15.6582 2042.94 14.6985 2043.58 14.0889ZM2219.56 354.023L2511.75 287.344L2049.8 20.6465L2219.56 354.023Z" fill="#231F20"/>
<path d="M2044.96 15.54L2068.41 2L2540.61 274.62V695.36L2517.17 708.9L2517.16 288.16L2044.96 15.54Z" fill="black"/>
<path d="M2067.53 0.205074C2068.12 -0.0880639 2068.83 -0.0673822 2069.41 0.267574L2541.61 272.888C2542.23 273.245 2542.61 273.906 2542.61 274.62V695.36C2542.61 696.075 2542.23 696.735 2541.61 697.092L2518.17 710.632C2517.55 710.989 2516.79 710.989 2516.17 710.632C2515.55 710.275 2515.17 709.615 2515.17 708.9L2515.16 289.313L2043.96 17.2725C2043.34 16.9152 2042.96 16.2546 2042.96 15.54C2042.96 14.8255 2043.34 14.1649 2043.96 13.8076L2067.41 0.267574L2067.53 0.205074ZM2048.96 15.5391L2518.16 286.428C2518.78 286.785 2519.16 287.446 2519.16 288.16L2519.17 705.435L2538.61 694.204V275.774L2068.41 4.30957L2048.96 15.5391Z" fill="#231F20"/>
<path d="M1949.36 68.4275C1949.98 68.0704 1950.74 68.0704 1951.36 68.4275L2423.56 341.048C2424.18 341.405 2424.56 342.066 2424.56 342.78V763.52C2424.56 764.235 2424.18 764.895 2423.56 765.252C2422.94 765.609 2422.18 765.609 2421.56 765.252L1949.36 492.632C1948.74 492.274 1948.36 491.615 1948.36 490.9V70.1599C1948.36 69.4454 1948.74 68.7848 1949.36 68.4275ZM1952.36 489.745L2420.56 760.055V343.934L1952.36 73.6238V489.745Z" fill="#231F20"/>
<path d="M1926.91 504.44V83.7L2399.11 356.32L2399.12 777.06L1926.91 504.44Z" fill="white"/>
<path d="M1925.91 81.9676C1926.53 81.6104 1927.29 81.6104 1927.91 81.9676L2400.11 354.588C2400.73 354.945 2401.11 355.606 2401.11 356.32L2401.12 777.06C2401.12 777.775 2400.74 778.435 2400.12 778.792C2399.5 779.149 2398.74 779.149 2398.12 778.792L1925.91 506.172C1925.29 505.814 1924.91 505.155 1924.91 504.44V83.7C1924.91 82.9855 1925.29 82.3248 1925.91 81.9676ZM1928.91 503.285L2397.12 773.596L2397.11 357.474L1928.91 87.1639V503.285Z" fill="#231F20"/>
<path d="M1925.53 82.2488C1926.18 81.6393 1927.14 81.5248 1927.91 81.9676L2400.11 354.588C2400.82 354.999 2401.21 355.805 2401.09 356.618C2400.97 357.431 2400.36 358.087 2399.56 358.27L2100.88 426.43C2099.99 426.633 2099.07 426.204 2098.66 425.388L1925.13 84.6072C1924.73 83.8181 1924.89 82.8584 1925.53 82.2488ZM2101.51 422.182L2393.7 355.504L1931.75 88.8065L2101.51 422.182Z" fill="#231F20"/>
<path d="M1926.91 83.6999L1950.36 70.1599L2422.56 342.78V763.52L2399.12 777.06L2399.11 356.32L1926.91 83.6999Z" fill="black"/>
<path d="M1949.48 68.365C1950.07 68.0718 1950.78 68.0925 1951.36 68.4275L2423.56 341.048C2424.18 341.405 2424.56 342.066 2424.56 342.78V763.52C2424.56 764.234 2424.18 764.894 2423.56 765.252L2400.12 778.792C2399.5 779.149 2398.74 779.149 2398.12 778.792C2397.5 778.435 2397.12 777.775 2397.12 777.06L2397.11 357.473L1925.91 85.4324C1925.29 85.0751 1924.91 84.4145 1924.91 83.6999C1924.91 82.9854 1925.29 82.3248 1925.91 81.9675L1949.36 68.4275L1949.48 68.365ZM1930.91 83.699L2400.11 354.588C2400.73 354.945 2401.11 355.606 2401.11 356.32L2401.12 773.594L2420.56 762.364V343.934L1950.36 72.4695L1930.91 83.699Z" fill="#231F20"/>
<path d="M1831.31 136.578C1831.93 136.221 1832.69 136.221 1833.31 136.578L2305.51 409.209C2306.13 409.566 2306.51 410.226 2306.51 410.94V831.68C2306.51 832.395 2306.13 833.054 2305.51 833.412C2304.89 833.769 2304.13 833.769 2303.51 833.412L1831.31 560.782C1830.69 560.425 1830.31 559.765 1830.31 559.05V138.31C1830.31 137.596 1830.69 136.935 1831.31 136.578ZM1834.31 557.895L2302.51 828.215V412.094L1834.31 141.774V557.895Z" fill="#231F20"/>
<path d="M1808.86 572.59V151.85L2281.06 424.48L2281.07 845.22L1808.86 572.59Z" fill="white"/>
<path d="M1807.86 150.118C1808.48 149.761 1809.24 149.761 1809.86 150.118L2282.06 422.749C2282.68 423.106 2283.06 423.766 2283.06 424.48L2283.07 845.22C2283.07 845.935 2282.69 846.594 2282.07 846.952C2281.45 847.309 2280.69 847.309 2280.07 846.952L1807.86 574.322C1807.24 573.965 1806.86 573.305 1806.86 572.59V151.85L1806.87 151.717C1806.91 151.055 1807.28 150.453 1807.86 150.118ZM1810.86 571.435L2279.07 841.755L2279.06 425.634L1810.86 155.314V571.435Z" fill="#231F20"/>
<path d="M1807.48 150.399C1808.13 149.789 1809.09 149.675 1809.86 150.118L2282.06 422.749C2282.77 423.16 2283.16 423.965 2283.04 424.778C2282.92 425.591 2282.31 426.247 2281.5 426.43L1982.84 494.58C1981.94 494.783 1981.02 494.354 1980.61 493.538L1807.08 152.757C1806.68 151.968 1806.84 151.009 1807.48 150.399ZM1983.46 490.333L2275.65 423.664L1813.71 156.957L1983.46 490.333Z" fill="#231F20"/>
<path d="M1808.86 151.85L1832.31 138.31L2304.51 410.94V831.68L2281.07 845.22L2281.06 424.48L1808.86 151.85Z" fill="black"/>
<path d="M1831.43 136.515C1832.02 136.222 1832.73 136.243 1833.31 136.578L2305.51 409.208C2306.13 409.566 2306.51 410.226 2306.51 410.94V831.68C2306.51 832.394 2306.13 833.054 2305.51 833.412L2282.07 846.952C2281.45 847.309 2280.69 847.31 2280.07 846.953C2279.45 846.595 2279.07 845.935 2279.07 845.22L2279.06 425.634L1807.86 153.583C1807.24 153.225 1806.86 152.565 1806.86 151.85C1806.86 151.136 1807.24 150.475 1807.86 150.118L1831.31 136.578L1831.43 136.515ZM1812.86 151.849L2282.06 422.748C2282.68 423.105 2283.06 423.766 2283.06 424.48L2283.07 841.754L2302.51 830.524V412.094L1832.31 140.62L1812.86 151.849Z" fill="#231F20"/>
<path d="M1713.26 204.738C1713.88 204.38 1714.64 204.38 1715.26 204.738L2187.46 477.358C2188.08 477.715 2188.46 478.376 2188.46 479.09V899.83C2188.46 900.545 2188.08 901.205 2187.46 901.562C2186.84 901.919 2186.08 901.919 2185.46 901.562L1713.26 628.942C1712.64 628.584 1712.26 627.925 1712.26 627.21V206.47L1712.27 206.337C1712.31 205.674 1712.68 205.073 1713.26 204.738ZM1716.26 626.055L2184.46 896.366V480.244L1716.26 209.934V626.055Z" fill="#231F20"/>
<path d="M1690.81 640.75V220.01L2163.01 492.63L2163.02 913.37L1690.81 640.75Z" fill="white"/>
<path d="M1689.81 218.278C1690.43 217.92 1691.19 217.92 1691.81 218.278L2164.01 490.898C2164.63 491.255 2165.01 491.916 2165.01 492.63L2165.02 913.37C2165.02 914.085 2164.64 914.745 2164.02 915.102C2163.44 915.437 2162.73 915.458 2162.14 915.165L2162.02 915.102L1689.81 642.482C1689.19 642.124 1688.81 641.465 1688.81 640.75V220.01L1688.82 219.877C1688.86 219.214 1689.23 218.613 1689.81 218.278ZM1692.81 639.595L2161.02 909.906L2161.01 493.784L1692.81 223.474V639.595Z" fill="#231F20"/>
<path d="M1689.43 218.559C1690.08 217.949 1691.04 217.835 1691.81 218.278L2164.01 490.898C2164.72 491.309 2165.11 492.115 2164.99 492.928C2164.87 493.741 2164.26 494.397 2163.46 494.58L1864.79 562.74C1863.89 562.943 1862.97 562.514 1862.56 561.698L1689.03 220.917C1688.63 220.128 1688.79 219.168 1689.43 218.559ZM1865.42 558.492L2157.6 491.814L1695.65 225.117L1865.42 558.492Z" fill="#231F20"/>
<path d="M1690.81 220.01L1714.26 206.47L2186.46 479.09V899.83L2163.02 913.37L2163.01 492.63L1690.81 220.01Z" fill="black"/>
<path d="M1713.38 204.675C1713.97 204.382 1714.68 204.403 1715.26 204.738L2187.46 477.358C2188.08 477.715 2188.46 478.376 2188.46 479.09V899.83C2188.46 900.544 2188.08 901.204 2187.46 901.562L2164.02 915.102C2163.4 915.459 2162.64 915.459 2162.02 915.102C2161.4 914.745 2161.02 914.085 2161.02 913.37L2161.01 493.783L1689.81 221.742C1689.19 221.385 1688.81 220.725 1688.81 220.01C1688.81 219.295 1689.19 218.635 1689.81 218.278L1713.26 204.738L1713.38 204.675ZM1694.81 220.009L2164.01 490.898C2164.63 491.255 2165.01 491.916 2165.01 492.63L2165.02 909.905L2184.46 898.674V480.244L1714.26 208.78L1694.81 220.009Z" fill="#231F20"/>
<path d="M1595.21 272.898C1595.83 272.541 1596.59 272.541 1597.21 272.898L2069.41 545.518C2070.03 545.875 2070.41 546.536 2070.41 547.25V967.991C2070.41 968.705 2070.03 969.365 2069.41 969.722C2068.79 970.079 2068.03 970.079 2067.41 969.722L1595.21 697.102C1594.59 696.745 1594.21 696.085 1594.21 695.37V274.63L1594.21 274.497C1594.26 273.835 1594.63 273.233 1595.21 272.898ZM1598.21 694.215L2066.41 964.526V548.405L1598.21 278.094V694.215Z" fill="#231F20"/>
<path d="M1572.76 708.91V288.17L2044.96 560.79L2044.97 981.53L1572.76 708.91Z" fill="white"/>
<path d="M1571.76 286.438C1572.38 286.081 1573.14 286.081 1573.76 286.438L2045.96 559.058C2046.58 559.415 2046.96 560.076 2046.96 560.79L2046.97 981.531C2046.97 982.245 2046.59 982.905 2045.97 983.262C2045.35 983.619 2044.59 983.619 2043.97 983.262L1571.76 710.642C1571.14 710.285 1570.76 709.625 1570.76 708.91V288.17L1570.76 288.037C1570.81 287.375 1571.18 286.773 1571.76 286.438ZM1574.76 707.755L2042.97 978.066L2042.96 561.944L1574.76 291.634V707.755Z" fill="#231F20"/>
<path d="M1571.38 286.719C1572.03 286.109 1572.99 285.995 1573.76 286.438L2045.96 559.058C2046.67 559.469 2047.06 560.275 2046.94 561.088C2046.81 561.902 2046.21 562.558 2045.4 562.741L1746.73 630.9C1745.84 631.103 1744.92 630.674 1744.51 629.858L1570.98 289.077C1570.58 288.288 1570.74 287.329 1571.38 286.719ZM1747.36 626.653L2039.55 559.973L1577.6 293.277L1747.36 626.653Z" fill="#231F20"/>
<path d="M1572.76 288.17L1596.21 274.63L2068.41 547.25V967.99L2044.97 981.53L2044.96 560.79L1572.76 288.17Z" fill="black"/>
<path d="M1595.33 272.835C1595.92 272.542 1596.63 272.563 1597.21 272.898L2069.41 545.518C2070.03 545.875 2070.41 546.536 2070.41 547.25V967.99C2070.41 968.705 2070.03 969.365 2069.41 969.722L2045.97 983.262C2045.35 983.619 2044.59 983.619 2043.97 983.262C2043.35 982.905 2042.97 982.245 2042.97 981.531L2042.96 561.944L1571.76 289.903C1571.14 289.545 1570.76 288.885 1570.76 288.17C1570.76 287.456 1571.14 286.795 1571.76 286.438L1595.21 272.898L1595.33 272.835ZM1576.76 288.169L2045.96 559.058C2046.58 559.415 2046.96 560.076 2046.96 560.79L2046.97 978.065L2066.41 966.834V548.405L1596.21 276.94L1576.76 288.169Z" fill="#231F20"/>
<path d="M1453.71 354.588C1454.33 354.231 1455.09 354.231 1455.71 354.588L1927.91 627.219C1928.53 627.576 1928.91 628.236 1928.91 628.95L1928.92 1049.69C1928.92 1050.4 1928.54 1051.06 1927.92 1051.42C1927.3 1051.78 1926.54 1051.78 1925.92 1051.42L1453.71 778.792C1453.09 778.435 1452.71 777.775 1452.71 777.06V356.32L1452.71 356.187C1452.76 355.525 1453.13 354.923 1453.71 354.588ZM1456.71 775.905L1924.92 1046.23L1924.91 630.104L1456.71 359.784V775.905Z" fill="#231F20"/>
<path d="M1431.26 790.6V369.86L1903.47 642.49V1063.23L1431.26 790.6Z" fill="white"/>
<path d="M1430.26 368.128C1430.88 367.771 1431.64 367.771 1432.26 368.128L1904.47 640.759C1905.09 641.116 1905.47 641.776 1905.47 642.49V1063.23C1905.47 1063.94 1905.09 1064.6 1904.47 1064.96C1903.85 1065.32 1903.09 1065.32 1902.47 1064.96L1430.26 792.332C1429.64 791.975 1429.26 791.315 1429.26 790.6V369.86L1429.26 369.727C1429.31 369.065 1429.68 368.463 1430.26 368.128ZM1433.26 789.445L1901.47 1059.77V643.644L1433.26 373.324V789.445Z" fill="#231F20"/>
<path d="M1429.88 368.409C1430.53 367.799 1431.49 367.685 1432.26 368.128L1904.47 640.759C1905.18 641.17 1905.57 641.975 1905.45 642.788C1905.32 643.601 1904.72 644.257 1903.92 644.44L1605.23 712.59C1604.34 712.793 1603.42 712.364 1603.01 711.548L1429.48 370.767C1429.08 369.978 1429.24 369.019 1429.88 368.409ZM1605.86 708.343L1898.05 641.674L1436.1 374.967L1605.86 708.343Z" fill="#231F20"/>
<path d="M1431.26 369.86L1454.71 356.32L1926.91 628.95L1926.92 1049.69L1903.47 1063.23V642.49L1431.26 369.86Z" fill="black"/>
<path d="M1453.83 354.525C1454.42 354.232 1455.13 354.253 1455.71 354.588L1927.91 627.219C1928.53 627.576 1928.91 628.236 1928.91 628.95L1928.92 1049.69C1928.92 1050.4 1928.54 1051.06 1927.92 1051.42L1904.47 1064.96C1903.85 1065.32 1903.09 1065.32 1902.47 1064.96C1901.85 1064.6 1901.47 1063.94 1901.47 1063.23V643.644L1430.26 371.593C1429.64 371.235 1429.26 370.575 1429.26 369.86C1429.26 369.146 1429.64 368.485 1430.26 368.128L1453.71 354.588L1453.83 354.525ZM1435.26 369.859L1904.47 640.758C1905.09 641.115 1905.47 641.775 1905.47 642.49V1059.77L1924.92 1048.53L1924.91 630.104L1454.71 358.63L1435.26 369.859Z" fill="#231F20"/>
<path d="M1335.66 422.748C1336.28 422.39 1337.04 422.39 1337.66 422.748L1809.86 695.368C1810.48 695.725 1810.86 696.386 1810.86 697.1L1810.87 1117.84C1810.87 1118.55 1810.49 1119.21 1809.87 1119.57C1809.25 1119.93 1808.49 1119.93 1807.87 1119.57L1335.66 846.952C1335.04 846.594 1334.66 845.935 1334.66 845.22V424.48L1334.67 424.347C1334.71 423.684 1335.08 423.083 1335.66 422.748ZM1338.66 844.065L1806.87 1114.38L1806.86 698.253L1338.66 427.944V844.065Z" fill="#231F20"/>
<path d="M1313.21 858.76V438.02L1785.42 710.64V1131.38L1313.21 858.76Z" fill="white"/>
<path d="M1312.21 436.288C1312.83 435.93 1313.59 435.93 1314.21 436.288L1786.42 708.908C1787.04 709.265 1787.42 709.926 1787.42 710.64V1131.38C1787.42 1132.09 1787.04 1132.75 1786.42 1133.11C1785.8 1133.47 1785.04 1133.47 1784.42 1133.11L1312.21 860.492C1311.59 860.134 1311.21 859.475 1311.21 858.76V438.02L1311.21 437.887C1311.26 437.224 1311.63 436.623 1312.21 436.288ZM1315.21 857.605L1783.42 1127.92V711.794L1315.21 441.484V857.605Z" fill="#231F20"/>
<path d="M1311.83 436.569C1312.48 435.959 1313.44 435.845 1314.21 436.287L1786.42 708.908C1787.13 709.319 1787.52 710.124 1787.4 710.938C1787.27 711.751 1786.67 712.407 1785.87 712.59L1487.18 780.749C1486.29 780.953 1485.37 780.524 1484.96 779.707L1311.43 438.927C1311.03 438.138 1311.19 437.178 1311.83 436.569ZM1487.81 776.502L1780 709.824L1318.05 443.126L1487.81 776.502Z" fill="#231F20"/>
<path d="M1313.21 438.02L1336.66 424.48L1808.86 697.1L1808.87 1117.84L1785.42 1131.38V710.64L1313.21 438.02Z" fill="black"/>
<path d="M1335.78 422.685C1336.37 422.392 1337.08 422.413 1337.66 422.748L1809.86 695.368C1810.48 695.725 1810.86 696.386 1810.86 697.1L1810.87 1117.84C1810.87 1118.51 1810.53 1119.13 1809.98 1119.5L1809.87 1119.57L1786.42 1133.11C1785.8 1133.47 1785.04 1133.47 1784.42 1133.11C1783.8 1132.75 1783.42 1132.09 1783.42 1131.38V711.793L1312.21 439.752C1311.59 439.395 1311.21 438.735 1311.21 438.02C1311.21 437.306 1311.59 436.645 1312.21 436.288L1335.66 422.748L1335.78 422.685ZM1317.21 438.019L1786.42 708.908C1787.04 709.265 1787.42 709.926 1787.42 710.64V1127.92L1806.87 1116.69L1806.86 698.253L1336.66 426.79L1317.21 438.019Z" fill="#231F20"/>
<path d="M1228.4 496.798C1229.02 496.44 1229.78 496.44 1230.4 496.798L1702.6 769.428C1703.22 769.785 1703.6 770.445 1703.6 771.16V1191.9C1703.6 1192.61 1703.22 1193.27 1702.6 1193.63C1701.98 1193.99 1701.22 1193.99 1700.6 1193.63L1228.4 921.002C1227.78 920.645 1227.4 919.985 1227.4 919.27V498.53C1227.4 497.816 1227.78 497.155 1228.4 496.798ZM1231.4 918.115L1699.6 1188.44V772.314L1231.4 501.994V918.115Z" fill="#231F20"/>
<path d="M1205.95 932.81V512.07L1678.15 784.7V1205.44L1205.95 932.81Z" fill="white"/>
<path d="M1204.95 510.338C1205.57 509.981 1206.33 509.981 1206.95 510.338L1679.15 782.969C1679.77 783.326 1680.15 783.986 1680.15 784.7V1205.44C1680.15 1206.15 1679.77 1206.81 1679.15 1207.17C1678.53 1207.53 1677.77 1207.53 1677.15 1207.17L1204.95 934.542C1204.33 934.185 1203.95 933.525 1203.95 932.81V512.07L1203.96 511.937C1204 511.275 1204.37 510.673 1204.95 510.338ZM1207.95 931.655L1676.15 1201.98V785.854L1207.95 515.534V931.655Z" fill="#231F20"/>
<path d="M1204.57 510.619C1205.22 510.009 1206.18 509.895 1206.95 510.338L1679.15 782.969C1679.86 783.38 1680.25 784.185 1680.13 784.998C1680.01 785.811 1679.4 786.467 1678.59 786.65L1379.92 854.8C1379.02 855.004 1378.1 854.574 1377.69 853.758L1204.17 512.977C1203.77 512.188 1203.93 511.228 1204.57 510.619ZM1380.54 850.553L1672.74 783.884L1210.79 517.177L1380.54 850.553Z" fill="#231F20"/>
<path d="M1205.95 512.07L1229.4 498.53L1701.6 771.16V1191.9L1678.15 1205.44V784.7L1205.95 512.07Z" fill="black"/>
<path d="M1228.52 496.735C1229.11 496.442 1229.82 496.463 1230.4 496.798L1702.6 769.427C1703.22 769.785 1703.6 770.445 1703.6 771.16V1191.9C1703.6 1192.61 1703.22 1193.27 1702.6 1193.63L1679.15 1207.17C1678.53 1207.53 1677.77 1207.53 1677.15 1207.17C1676.53 1206.81 1676.15 1206.15 1676.15 1205.44V785.854L1204.95 513.802C1204.33 513.445 1203.95 512.785 1203.95 512.07C1203.95 511.356 1204.33 510.695 1204.95 510.338L1228.4 496.798L1228.52 496.735ZM1209.95 512.069L1679.15 782.968C1679.77 783.325 1680.15 783.985 1680.15 784.7V1201.98L1699.6 1190.74V772.314L1229.4 500.84L1209.95 512.069Z" fill="#231F20"/>
<path d="M1110.35 564.958C1110.97 564.6 1111.73 564.6 1112.35 564.958L1584.55 837.578C1585.17 837.935 1585.55 838.596 1585.55 839.31V1260.05C1585.55 1260.76 1585.17 1261.42 1584.55 1261.78C1583.93 1262.14 1583.17 1262.14 1582.55 1261.78L1110.35 989.162C1109.73 988.804 1109.35 988.145 1109.35 987.43V566.69C1109.35 565.975 1109.73 565.315 1110.35 564.958ZM1113.35 986.275L1581.55 1256.59V840.464L1113.35 570.154V986.275Z" fill="#231F20"/>
<path d="M1087.9 1000.97V580.23L1560.1 852.85V1273.59L1087.9 1000.97Z" fill="white"/>
<path d="M1086.9 578.498C1087.52 578.14 1088.28 578.14 1088.9 578.498L1561.1 851.118C1561.72 851.475 1562.1 852.136 1562.1 852.85V1273.59C1562.1 1274.3 1561.72 1274.96 1561.1 1275.32C1560.48 1275.68 1559.72 1275.68 1559.1 1275.32L1086.9 1002.7C1086.28 1002.34 1085.9 1001.68 1085.9 1000.97V580.23L1085.91 580.097C1085.95 579.434 1086.32 578.833 1086.9 578.498ZM1089.9 999.815L1558.1 1270.13V854.004L1089.9 583.694V999.815Z" fill="#231F20"/>
<path d="M1086.52 578.779C1087.17 578.169 1088.13 578.055 1088.9 578.498L1561.1 851.118C1561.81 851.529 1562.2 852.335 1562.08 853.148C1561.96 853.961 1561.35 854.617 1560.54 854.8L1261.87 922.96C1260.97 923.163 1260.05 922.734 1259.64 921.918L1086.12 581.137C1085.72 580.348 1085.88 579.388 1086.52 578.779ZM1262.5 918.712L1554.69 852.034L1092.74 585.336L1262.5 918.712Z" fill="#231F20"/>
<path d="M1087.9 580.23L1111.35 566.69L1583.55 839.31V1260.05L1560.1 1273.59V852.85L1087.9 580.23Z" fill="black"/>
<path d="M1110.47 564.895C1111.06 564.602 1111.77 564.623 1112.35 564.958L1584.55 837.578C1585.17 837.935 1585.55 838.596 1585.55 839.31V1260.05C1585.55 1260.76 1585.17 1261.42 1584.55 1261.78L1561.1 1275.32C1560.48 1275.68 1559.72 1275.68 1559.1 1275.32C1558.48 1274.96 1558.1 1274.3 1558.1 1273.59V854.003L1086.9 581.962C1086.28 581.605 1085.9 580.944 1085.9 580.23C1085.9 579.515 1086.28 578.855 1086.9 578.498L1110.35 564.958L1110.47 564.895ZM1091.9 580.229L1561.1 851.118C1561.72 851.475 1562.1 852.136 1562.1 852.85V1270.13L1581.55 1258.9V840.464L1111.35 569L1091.9 580.229Z" fill="#231F20"/>
<path d="M992.3 633.118C992.919 632.761 993.681 632.761 994.3 633.118L1466.5 905.738C1467.12 906.095 1467.5 906.756 1467.5 907.47V1328.21C1467.5 1328.92 1467.12 1329.58 1466.5 1329.94C1465.88 1330.3 1465.12 1330.3 1464.5 1329.94L992.3 1057.32C991.681 1056.96 991.3 1056.3 991.3 1055.59V634.85C991.3 634.136 991.681 633.475 992.3 633.118ZM995.3 1054.44L1463.5 1324.75V908.625L995.3 638.314V1054.44Z" fill="#231F20"/>
<path d="M969.85 1069.13V648.39L1442.05 921.01V1341.75L969.85 1069.13Z" fill="white"/>
<path d="M968.85 646.658C969.468 646.301 970.231 646.301 970.85 646.658L1443.05 919.278C1443.67 919.635 1444.05 920.296 1444.05 921.01V1341.75C1444.05 1342.46 1443.67 1343.12 1443.05 1343.48C1442.43 1343.84 1441.67 1343.84 1441.05 1343.48L968.85 1070.86C968.231 1070.5 967.85 1069.84 967.85 1069.13V648.39C967.85 647.676 968.231 647.015 968.85 646.658ZM971.85 1067.98L1440.05 1338.29V922.165L971.85 651.854V1067.98Z" fill="#231F20"/>
<path d="M968.473 646.939C969.115 646.329 970.083 646.215 970.85 646.658L1443.05 919.278C1443.76 919.689 1444.15 920.495 1444.03 921.308C1443.9 922.121 1443.3 922.777 1442.5 922.961L1143.81 991.12C1142.92 991.324 1142 990.894 1141.59 990.078L968.067 649.297C967.666 648.508 967.83 647.549 968.473 646.939ZM1144.44 986.873L1436.63 920.194L974.693 653.497L1144.44 986.873Z" fill="#231F20"/>
<path d="M969.85 648.39L993.3 634.85L1465.5 907.47V1328.21L1442.05 1341.75V921.01L969.85 648.39Z" fill="black"/>
<path d="M992.417 633.055C993.013 632.762 993.72 632.783 994.3 633.118L1466.5 905.738C1467.12 906.095 1467.5 906.756 1467.5 907.47V1328.21C1467.5 1328.92 1467.12 1329.58 1466.5 1329.94L1443.05 1343.48C1442.43 1343.84 1441.67 1343.84 1441.05 1343.48C1440.43 1343.12 1440.05 1342.46 1440.05 1341.75V922.165L968.85 650.123C968.231 649.765 967.85 649.105 967.85 648.39C967.85 647.676 968.231 647.015 968.85 646.658L992.3 633.118L992.417 633.055ZM973.85 648.389L1443.05 919.278C1443.67 919.635 1444.05 920.296 1444.05 921.01V1338.29L1463.5 1327.06V908.625L993.3 637.16L973.85 648.389Z" fill="#231F20"/>
<path d="M874.25 701.278C874.869 700.92 875.631 700.92 876.25 701.278L1348.45 973.898C1349.07 974.255 1349.45 974.916 1349.45 975.63V1396.37C1349.45 1397.08 1349.07 1397.74 1348.45 1398.1C1347.83 1398.46 1347.07 1398.46 1346.45 1398.1L874.25 1125.48C873.631 1125.12 873.25 1124.46 873.25 1123.75V703.01L873.255 702.877C873.299 702.214 873.67 701.613 874.25 701.278ZM877.25 1122.6L1345.45 1392.91V976.784L877.25 706.474V1122.6Z" fill="#231F20"/>
<path d="M851.8 1137.28V716.54L1324 989.17V1409.91L851.8 1137.28Z" fill="white"/>
<path d="M850.8 714.808C851.419 714.451 852.181 714.451 852.8 714.808L1325 987.439C1325.62 987.796 1326 988.456 1326 989.17V1409.91C1326 1410.62 1325.62 1411.29 1325 1411.64C1324.38 1412 1323.62 1412 1323 1411.64L850.8 1139.01C850.181 1138.65 849.8 1137.99 849.8 1137.28V716.54C849.8 715.826 850.181 715.165 850.8 714.808ZM853.8 1136.13L1322 1406.45V990.324L853.8 720.004V1136.13Z" fill="#231F20"/>
<path d="M850.423 715.089C851.065 714.479 852.033 714.365 852.8 714.808L1325 987.439C1325.71 987.85 1326.1 988.655 1325.98 989.468C1325.85 990.281 1325.25 990.937 1324.44 991.12L1025.76 1059.28C1024.87 1059.48 1023.95 1059.05 1023.54 1058.24L850.018 717.447C849.616 716.658 849.781 715.698 850.423 715.089ZM1026.39 1055.03L1318.59 988.354L856.644 721.647L1026.39 1055.03Z" fill="#231F20"/>
<path d="M851.8 716.54L875.25 703.01L1347.45 975.63V1396.37L1324 1409.91V989.17L851.8 716.54Z" fill="black"/>
<path d="M874.368 701.215C874.964 700.922 875.67 700.943 876.25 701.278L1348.45 973.898C1349.07 974.255 1349.45 974.916 1349.45 975.63V1396.37C1349.45 1397.08 1349.07 1397.74 1348.45 1398.1L1325 1411.64C1324.38 1412 1323.62 1412 1323 1411.64C1322.38 1411.28 1322 1410.62 1322 1409.91V990.324L850.8 718.272C850.181 717.914 849.8 717.254 849.8 716.539C849.8 715.825 850.182 715.165 850.801 714.808L874.25 701.278L874.368 701.215ZM855.801 716.54L1325 987.438C1325.62 987.795 1326 988.456 1326 989.17V1406.45L1345.45 1395.21V976.784L875.249 705.319L855.801 716.54Z" fill="#231F20"/>
<path d="M756.2 769.428C756.819 769.07 757.581 769.07 758.2 769.428L1230.4 1042.05C1231.02 1042.4 1231.4 1043.07 1231.4 1043.78V1464.53C1231.4 1465.24 1231.02 1465.91 1230.4 1466.26C1229.78 1466.62 1229.02 1466.62 1228.4 1466.26L756.2 1193.63C755.582 1193.27 755.2 1192.61 755.2 1191.9V771.16L755.205 771.027C755.249 770.364 755.62 769.763 756.2 769.428ZM759.2 1190.74L1227.4 1461.07V1044.93L759.2 774.624V1190.74Z" fill="#231F20"/>
<path d="M733.75 1205.44V784.7L1205.95 1057.32V1478.06L733.75 1205.44Z" fill="white"/>
<path d="M732.75 782.968C733.369 782.61 734.131 782.61 734.75 782.968L1206.95 1055.59C1207.57 1055.94 1207.95 1056.61 1207.95 1057.32V1478.06C1207.95 1478.77 1207.57 1479.43 1206.95 1479.79C1206.33 1480.15 1205.57 1480.15 1204.95 1479.79L732.75 1207.17C732.131 1206.81 731.75 1206.15 731.75 1205.44V784.7L731.755 784.567C731.799 783.904 732.17 783.303 732.75 782.968ZM735.75 1204.28L1203.95 1474.6V1058.47L735.75 788.164V1204.28Z" fill="#231F20"/>
<path d="M732.373 783.249C733.016 782.639 733.983 782.525 734.75 782.968L1206.95 1055.59C1207.66 1056 1208.05 1056.8 1207.93 1057.62C1207.81 1058.43 1207.2 1059.09 1206.39 1059.27L907.715 1127.43C906.821 1127.63 905.903 1127.2 905.487 1126.39L731.968 785.607C731.566 784.818 731.731 783.858 732.373 783.249ZM908.345 1123.18L1200.54 1056.5L738.594 789.806L908.345 1123.18Z" fill="#231F20"/>
<path d="M733.75 784.7L757.2 771.16L1229.4 1043.78V1464.53L1205.95 1478.06V1057.32L733.75 784.7Z" fill="black"/>
<path d="M756.317 769.365C756.913 769.072 757.62 769.093 758.2 769.427L1230.4 1042.05C1231.02 1042.4 1231.4 1043.07 1231.4 1043.78V1464.53C1231.4 1465.24 1231.02 1465.91 1230.4 1466.26L1206.95 1479.79C1206.33 1480.15 1205.57 1480.15 1204.95 1479.79C1204.33 1479.43 1203.95 1478.77 1203.95 1478.06V1058.47L732.75 786.432C732.131 786.075 731.75 785.414 731.75 784.7C731.75 783.985 732.131 783.325 732.75 782.968L756.2 769.427L756.317 769.365ZM737.75 784.699L1206.95 1055.59C1207.57 1055.94 1207.95 1056.61 1207.95 1057.32V1474.6L1227.4 1463.37V1044.93L757.2 773.469L737.75 784.699Z" fill="#231F20"/>
<path d="M614.7 851.127C615.319 850.77 616.081 850.77 616.7 851.127L1088.9 1123.75C1089.52 1124.1 1089.9 1124.77 1089.9 1125.48V1546.22C1089.9 1546.93 1089.52 1547.59 1088.9 1547.95C1088.28 1548.31 1087.52 1548.31 1086.9 1547.95L614.7 1275.33C614.082 1274.97 613.7 1274.31 613.7 1273.6V852.86C613.7 852.145 614.081 851.485 614.7 851.127ZM617.7 1272.44L1085.9 1542.76V1126.63L617.7 856.324V1272.44Z" fill="#231F20"/>
<path d="M592.25 1287.14V866.4L1064.45 1139.02V1559.76L592.25 1287.14Z" fill="white"/>
<path d="M591.25 864.668C591.869 864.31 592.631 864.31 593.25 864.668L1065.45 1137.29C1066.07 1137.64 1066.45 1138.31 1066.45 1139.02V1559.76C1066.45 1560.47 1066.07 1561.13 1065.45 1561.49C1064.83 1561.85 1064.07 1561.85 1063.45 1561.49L591.25 1288.87C590.631 1288.51 590.25 1287.85 590.25 1287.14V866.4L590.255 866.267C590.299 865.604 590.67 865.003 591.25 864.668ZM594.25 1285.98L1062.45 1556.3V1140.17L594.25 869.864V1285.98Z" fill="#231F20"/>
<path d="M590.873 864.949C591.516 864.339 592.483 864.225 593.25 864.668L1065.45 1137.29C1066.16 1137.7 1066.55 1138.5 1066.43 1139.32C1066.31 1140.13 1065.7 1140.79 1064.89 1140.97L766.225 1209.13C765.331 1209.33 764.414 1208.9 763.998 1208.09L590.468 867.307C590.066 866.518 590.231 865.558 590.873 864.949ZM766.855 1204.88L1059.04 1138.2L597.094 871.506L766.855 1204.88Z" fill="#231F20"/>
<path d="M592.25 866.4L615.7 852.86L1087.9 1125.48V1546.22L1064.45 1559.76V1139.02L592.25 866.4Z" fill="black"/>
<path d="M614.817 851.065C615.413 850.772 616.12 850.792 616.7 851.127L1088.9 1123.75C1089.52 1124.1 1089.9 1124.77 1089.9 1125.48V1546.22C1089.9 1546.93 1089.52 1547.59 1088.9 1547.95L1065.45 1561.49C1064.83 1561.85 1064.07 1561.85 1063.45 1561.49C1062.83 1561.13 1062.45 1560.47 1062.45 1559.76V1140.17L591.25 868.132C590.631 867.775 590.25 867.114 590.25 866.4C590.25 865.685 590.631 865.025 591.25 864.667L614.7 851.127L614.817 851.065ZM596.25 866.399L1065.45 1137.29C1066.07 1137.64 1066.45 1138.31 1066.45 1139.02V1556.3L1085.9 1545.06V1126.63L615.7 855.169L596.25 866.399Z" fill="#231F20"/>
<path d="M496.65 919.288C497.269 918.93 498.032 918.93 498.65 919.288L970.851 1191.91C971.469 1192.27 971.851 1192.93 971.851 1193.64V1614.38C971.85 1615.09 971.469 1615.75 970.851 1616.11C970.232 1616.47 969.469 1616.47 968.851 1616.11L496.65 1343.49C496.032 1343.13 495.65 1342.47 495.65 1341.76V921.02L495.655 920.887C495.699 920.224 496.07 919.623 496.65 919.288ZM499.65 1340.61L967.851 1610.92V1194.79L499.65 924.484V1340.61Z" fill="#231F20"/>
<path d="M474.2 1355.29V934.56L946.4 1207.18V1627.92L474.2 1355.29Z" fill="white"/>
<path d="M473.2 932.828C473.819 932.471 474.581 932.471 475.2 932.828L947.4 1205.45C948.019 1205.81 948.4 1206.47 948.4 1207.18V1627.92C948.4 1628.63 948.019 1629.29 947.4 1629.65C946.782 1630.01 946.019 1630.01 945.4 1629.65L473.2 1357.02C472.582 1356.66 472.2 1356 472.2 1355.29V934.56L472.205 934.427C472.249 933.765 472.62 933.163 473.2 932.828ZM476.2 1354.14L944.4 1624.46V1208.33L476.2 938.024V1354.14Z" fill="#231F20"/>
<path d="M472.823 933.109C473.466 932.499 474.433 932.385 475.2 932.827L947.4 1205.45C948.113 1205.86 948.5 1206.66 948.378 1207.48C948.255 1208.29 947.647 1208.95 946.845 1209.13L648.175 1277.29C647.281 1277.49 646.364 1277.06 645.948 1276.25L472.418 935.467C472.016 934.678 472.181 933.718 472.823 933.109ZM648.805 1273.04L940.985 1206.36L479.044 939.666L648.805 1273.04Z" fill="#231F20"/>
<path d="M474.2 934.56L497.65 921.02L969.85 1193.64V1614.38L946.4 1627.92V1207.18L474.2 934.56Z" fill="black"/>
<path d="M496.768 919.225C497.364 918.932 498.07 918.953 498.65 919.288L970.851 1191.91C971.469 1192.27 971.851 1192.93 971.851 1193.64V1614.38C971.85 1615.09 971.469 1615.75 970.851 1616.11L947.4 1629.65C946.782 1630.01 946.019 1630.01 945.4 1629.65C944.782 1629.29 944.401 1628.63 944.4 1627.92V1208.33L473.2 936.292C472.581 935.935 472.2 935.275 472.2 934.56C472.2 933.846 472.581 933.185 473.2 932.828L496.65 919.288L496.768 919.225ZM478.2 934.559L947.4 1205.45C948.019 1205.81 948.4 1206.47 948.4 1207.18V1624.46L967.851 1613.22V1194.79L497.65 923.33L478.2 934.559Z" fill="#231F20"/>
<path d="M378.601 987.438C379.219 987.08 379.982 987.08 380.601 987.438L852.801 1260.06C853.42 1260.41 853.801 1261.08 853.801 1261.79V1682.54C853.801 1683.25 853.42 1683.92 852.801 1684.27C852.182 1684.63 851.42 1684.63 850.801 1684.27L378.601 1411.64C377.982 1411.28 377.601 1410.62 377.601 1409.91V989.17L377.605 989.037C377.649 988.374 378.02 987.773 378.601 987.438ZM381.601 1408.75L849.801 1679.08V1262.94L381.601 992.634V1408.75Z" fill="#231F20"/>
<path d="M356.15 1423.45V1002.71L828.35 1275.33V1696.07L356.15 1423.45Z" fill="white"/>
<path d="M355.15 1000.98C355.769 1000.62 356.532 1000.62 357.15 1000.98L829.351 1273.6C829.969 1273.95 830.351 1274.62 830.351 1275.33V1696.07C830.35 1696.78 829.969 1697.44 829.351 1697.8C828.732 1698.16 827.969 1698.16 827.351 1697.8L355.15 1425.18C354.532 1424.82 354.15 1424.16 354.15 1423.45V1002.71C354.15 1002 354.532 1001.33 355.15 1000.98ZM358.15 1422.29L826.351 1692.61V1276.48L358.15 1006.17V1422.29Z" fill="#231F20"/>
<path d="M354.774 1001.26C355.416 1000.65 356.383 1000.53 357.15 1000.98L829.351 1273.6C830.063 1274.01 830.451 1274.81 830.328 1275.63C830.206 1276.44 829.597 1277.1 828.795 1277.28L530.125 1345.44C529.232 1345.64 528.314 1345.21 527.899 1344.4L354.368 1003.62C353.967 1002.83 354.131 1001.87 354.774 1001.26ZM530.755 1341.19L822.937 1274.51L360.994 1007.82L530.755 1341.19Z" fill="#231F20"/>
<path d="M356.15 1002.71L379.6 989.17L851.8 1261.79V1682.54L828.35 1696.07V1275.33L356.15 1002.71Z" fill="black"/>
<path d="M378.718 987.375C379.314 987.082 380.02 987.103 380.601 987.438L852.801 1260.06C853.419 1260.41 853.801 1261.08 853.801 1261.79V1682.54C853.801 1683.25 853.419 1683.92 852.8 1684.27L829.35 1697.8C828.731 1698.16 827.969 1698.16 827.351 1697.8C826.732 1697.44 826.351 1696.78 826.351 1696.07V1276.48L355.15 1004.44C354.532 1004.09 354.15 1003.42 354.15 1002.71C354.15 1002 354.532 1001.33 355.15 1000.98L378.601 987.438L378.718 987.375ZM360.15 1002.71L829.351 1273.6C829.969 1273.95 830.351 1274.62 830.351 1275.33V1692.61L849.801 1681.38V1262.94L379.601 991.479L360.15 1002.71Z" fill="#231F20"/>
<path d="M260.55 1055.6C261.169 1055.24 261.931 1055.24 262.55 1055.6L734.75 1328.22C735.369 1328.58 735.75 1329.24 735.75 1329.95V1750.69C735.75 1751.4 735.369 1752.06 734.75 1752.42C734.131 1752.78 733.369 1752.78 732.75 1752.42L260.55 1479.8C259.931 1479.44 259.55 1478.78 259.55 1478.07V1057.33C259.55 1056.62 259.931 1055.95 260.55 1055.6ZM263.55 1476.92L731.75 1747.23V1331.1L263.55 1060.79V1476.92Z" fill="#231F20"/>
<path d="M238.1 1491.61V1070.87L710.3 1343.49V1764.23L238.1 1491.61Z" fill="white"/>
<path d="M237.1 1069.14C237.718 1068.78 238.481 1068.78 239.1 1069.14L711.3 1341.76C711.919 1342.12 712.3 1342.78 712.3 1343.49V1764.23C712.3 1764.94 711.918 1765.6 711.3 1765.96C710.681 1766.32 709.919 1766.32 709.3 1765.96L237.1 1493.34C236.481 1492.98 236.1 1492.32 236.1 1491.61V1070.87L236.104 1070.74C236.149 1070.07 236.519 1069.47 237.1 1069.14ZM240.1 1490.46L708.3 1760.77V1344.64L240.1 1074.33V1490.46Z" fill="#231F20"/>
<path d="M236.723 1069.42C237.365 1068.81 238.333 1068.7 239.1 1069.14L711.3 1341.76C712.012 1342.17 712.4 1342.97 712.277 1343.79C712.155 1344.6 711.546 1345.26 710.744 1345.44L412.074 1413.6C411.181 1413.8 410.264 1413.37 409.848 1412.56L236.317 1071.78C235.916 1070.99 236.08 1070.03 236.723 1069.42ZM412.704 1409.35L704.885 1342.67L242.943 1075.98L412.704 1409.35Z" fill="#231F20"/>
<path d="M238.1 1070.87L261.55 1057.33L733.75 1329.95V1750.69L710.3 1764.23V1343.49L238.1 1070.87Z" fill="black"/>
<path d="M260.667 1055.54C261.263 1055.24 261.97 1055.26 262.55 1055.6L734.75 1328.22C735.369 1328.58 735.75 1329.24 735.75 1329.95V1750.69C735.75 1751.4 735.368 1752.06 734.75 1752.42L711.3 1765.96C710.681 1766.32 709.919 1766.32 709.3 1765.96C708.681 1765.6 708.3 1764.94 708.3 1764.23V1344.64L237.1 1072.6C236.481 1072.25 236.1 1071.58 236.1 1070.87C236.1 1070.16 236.481 1069.49 237.1 1069.14L260.55 1055.6L260.667 1055.54ZM242.1 1070.87L711.3 1341.76C711.919 1342.12 712.3 1342.78 712.3 1343.49V1760.77L731.75 1749.54V1331.1L261.55 1059.64L242.1 1070.87Z" fill="#231F20"/>
<path d="M142.5 1123.76C143.119 1123.4 143.881 1123.4 144.5 1123.76L616.7 1396.38C617.319 1396.73 617.7 1397.4 617.7 1398.11V1818.85C617.7 1819.56 617.319 1820.22 616.7 1820.58C616.081 1820.94 615.319 1820.94 614.7 1820.58L142.5 1547.96C141.881 1547.6 141.5 1546.94 141.5 1546.23V1125.49C141.5 1124.78 141.881 1124.11 142.5 1123.76ZM145.5 1545.07L613.7 1815.39V1399.26L145.5 1128.95V1545.07Z" fill="#231F20"/>
<path d="M120.05 1559.77V1139.03L592.25 1411.65V1832.39L120.05 1559.77Z" fill="white"/>
<path d="M119.05 1137.3C119.669 1136.94 120.431 1136.94 121.05 1137.3L593.25 1409.92C593.869 1410.28 594.25 1410.94 594.25 1411.65V1832.39C594.25 1833.1 593.869 1833.76 593.25 1834.12C592.631 1834.48 591.869 1834.48 591.25 1834.12L119.05 1561.5C118.431 1561.14 118.05 1560.48 118.05 1559.77V1139.03C118.05 1138.32 118.431 1137.65 119.05 1137.3ZM122.05 1558.62L590.25 1828.93V1412.8L122.05 1142.49V1558.62Z" fill="#231F20"/>
<path d="M118.673 1137.58C119.315 1136.97 120.283 1136.85 121.05 1137.3L593.25 1409.92C593.962 1410.33 594.35 1411.13 594.228 1411.95C594.105 1412.76 593.496 1413.42 592.694 1413.6L294.024 1481.76C293.131 1481.96 292.214 1481.53 291.798 1480.72L118.268 1139.94C117.866 1139.15 118.031 1138.19 118.673 1137.58ZM294.654 1477.51L586.835 1410.83L124.894 1144.14L294.654 1477.51Z" fill="#231F20"/>
<path d="M120.05 1139.03L143.5 1125.49L615.7 1398.11V1818.85L592.25 1832.39V1411.65L120.05 1139.03Z" fill="black"/>
<path d="M142.617 1123.7C143.213 1123.4 143.92 1123.42 144.5 1123.76L616.7 1396.38C617.319 1396.73 617.7 1397.4 617.7 1398.11V1818.85C617.7 1819.56 617.319 1820.22 616.7 1820.58L593.25 1834.12C592.631 1834.48 591.869 1834.48 591.25 1834.12C590.631 1833.76 590.25 1833.1 590.25 1832.39V1412.8L119.05 1140.76C118.431 1140.41 118.05 1139.74 118.05 1139.03C118.05 1138.32 118.431 1137.65 119.05 1137.3L142.5 1123.76L142.617 1123.7ZM124.05 1139.03L593.25 1409.92C593.869 1410.27 594.25 1410.94 594.25 1411.65V1828.93L613.7 1817.7V1399.26L143.5 1127.8L124.05 1139.03Z" fill="#231F20"/>
<path d="M24.4502 987.438C25.0689 987.08 25.8315 987.08 26.4502 987.438L498.65 1260.06C499.269 1260.41 499.65 1261.08 499.65 1261.79V1682.54C499.65 1683.25 499.269 1683.92 498.65 1684.27C498.032 1684.63 497.269 1684.63 496.65 1684.27L24.4502 1411.64C23.8316 1411.28 23.4503 1410.62 23.4502 1409.91V989.17L23.4551 989.037C23.4991 988.374 23.8699 987.773 24.4502 987.438ZM27.4502 1408.75L495.65 1679.08V1262.94L27.4502 992.634V1408.75Z" fill="#231F20"/>
<path d="M2 1423.45V1002.71L474.2 1275.33V1696.07L2 1423.45Z" fill="white"/>
<path d="M1 1000.98C1.61872 1000.62 2.38128 1000.62 3 1000.98L475.2 1273.6C475.819 1273.95 476.2 1274.62 476.2 1275.33V1696.07C476.2 1696.78 475.819 1697.44 475.2 1697.8C474.581 1698.16 473.819 1698.16 473.2 1697.8L1 1425.18C0.381363 1424.82 0.000108515 1424.16 0 1423.45V1002.71L0.00488281 1002.58C0.0488953 1001.91 0.41975 1001.31 1 1000.98ZM4 1422.29L472.2 1692.61V1276.48L4 1006.17V1422.29Z" fill="#231F20"/>
<path d="M0.623119 1001.26C1.26561 1000.65 2.23306 1000.53 3.00007 1000.98L475.2 1273.6C475.913 1274.01 476.3 1274.81 476.178 1275.63C476.055 1276.44 475.447 1277.1 474.645 1277.28L175.975 1345.44C175.081 1345.64 174.164 1345.21 173.748 1344.4L0.217846 1003.62C-0.183879 1002.83 -0.0192727 1001.87 0.623119 1001.26ZM176.605 1341.19L468.786 1274.51L6.84382 1007.82L176.605 1341.19Z" fill="#231F20"/>
<path d="M2 1002.71L25.45 989.17L497.65 1261.79V1682.54L474.2 1696.07V1275.33L2 1002.71Z" fill="black"/>
<path d="M24.5674 987.375C25.1633 987.082 25.87 987.103 26.4502 987.438L498.65 1260.06C499.269 1260.41 499.65 1261.08 499.65 1261.79V1682.54C499.65 1683.25 499.268 1683.92 498.649 1684.27L475.199 1697.8C474.581 1698.16 473.819 1698.16 473.2 1697.8C472.582 1697.44 472.2 1696.78 472.2 1696.07V1276.48L1 1004.44C0.381204 1004.09 1.61868e-05 1003.42 0 1002.71C-7.25815e-08 1002 0.381234 1001.33 1 1000.98L24.4502 987.438L24.5674 987.375ZM6 1002.71L475.2 1273.6C475.819 1273.95 476.2 1274.62 476.2 1275.33V1692.61L495.65 1681.38V1262.94L25.4502 991.479L6 1002.71Z" fill="#231F20"/>
<path d="M3253.28 698.67L2755.75 418.12L2728.04 434.72L2755.75 838.86L2810.37 869.65L2782.66 1007.56L2810.37 990.96L2890.22 914.68L3225.58 1136L3253.28 1119.4V698.67Z" fill="#231F20"/>
<path d="M2754.84 416.34C2755.43 416.036 2756.14 416.047 2756.73 416.378L3254.26 696.928C3254.89 697.282 3255.28 697.948 3255.28 698.67V1119.4C3255.28 1120.1 3254.91 1120.75 3254.31 1121.12L3226.61 1137.72C3225.95 1138.11 3225.12 1138.09 3224.48 1137.67L2890.45 917.227L2811.75 992.406C2811.64 992.509 2811.52 992.599 2811.4 992.676L2783.69 1009.28C2783.01 1009.68 2782.15 1009.65 2781.51 1009.19C2780.86 1008.74 2780.54 1007.94 2780.7 1007.17L2808.12 870.68L2754.77 840.603C2754.18 840.272 2753.8 839.668 2753.75 838.997L2726.04 434.856C2725.99 434.106 2726.37 433.391 2727.01 433.005L2754.72 416.404L2754.84 416.34ZM2730.12 435.805L2757.67 837.646L2811.35 867.908C2812.11 868.333 2812.5 869.195 2812.33 870.044L2785.51 1003.52L2809.15 989.36L2888.84 913.234L2888.97 913.119C2889.64 912.58 2890.59 912.529 2891.32 913.011L3225.63 1133.64L3251.28 1118.27V699.838L2755.78 420.433L2730.12 435.805Z" fill="black"/>
<path d="M3225.58 715.27L2728.04 434.72V855.46L2782.66 886.26V1007.56L2862.51 931.28L3225.58 1136V715.27Z" fill="white"/>
<path d="M2727.03 432.993C2727.64 432.635 2728.4 432.629 2729.02 432.978L3226.56 713.528C3227.19 713.882 3227.58 714.548 3227.58 715.27V1136C3227.58 1136.71 3227.2 1137.37 3226.59 1137.73C3225.97 1138.09 3225.22 1138.09 3224.6 1137.74L2862.82 933.749L2784.04 1009.01C2783.46 1009.56 2782.61 1009.71 2781.87 1009.4C2781.14 1009.08 2780.66 1008.36 2780.66 1007.56V887.428L2727.06 857.202C2726.43 856.848 2726.04 856.182 2726.04 855.46V434.72L2726.04 434.587C2726.09 433.928 2726.45 433.33 2727.03 432.993ZM2730.04 854.291L2783.64 884.518C2784.27 884.872 2784.66 885.538 2784.66 886.26V1002.88L2861.13 929.834L2861.25 929.726C2861.88 929.213 2862.77 929.133 2863.49 929.538L3223.58 1132.58V716.438L2730.04 438.144V854.291Z" fill="#231F20"/>
<path d="M3135.23 766.82L2637.7 486.27L2609.99 502.88L2637.7 907.01L2692.32 937.81L2664.61 1075.72L2692.32 1059.11L2772.17 982.83L3107.53 1204.16L3135.23 1187.55V766.82Z" fill="#231F20"/>
<path d="M2636.79 484.49C2637.38 484.185 2638.09 484.197 2638.68 484.528L3136.21 765.078C3136.84 765.432 3137.23 766.098 3137.23 766.82V1187.55C3137.23 1188.25 3136.86 1188.9 3136.26 1189.27L3108.56 1205.88C3107.9 1206.27 3107.07 1206.25 3106.43 1205.83L2772.4 985.377L2693.7 1060.56C2693.59 1060.66 2693.47 1060.75 2693.35 1060.83L2665.64 1077.44C2664.96 1077.84 2664.1 1077.81 2663.46 1077.35C2662.81 1076.9 2662.49 1076.1 2662.65 1075.33L2690.07 938.838L2636.72 908.752C2636.13 908.422 2635.75 907.818 2635.7 907.147L2607.99 503.017C2607.94 502.267 2608.32 501.551 2608.96 501.165L2636.67 484.554L2636.79 484.49ZM2612.07 503.965L2639.62 905.797L2693.3 936.068C2694.06 936.493 2694.45 937.355 2694.28 938.204L2667.46 1071.68L2691.1 1057.51L2770.79 981.384L2770.92 981.27C2771.59 980.731 2772.54 980.679 2773.27 981.161L3107.58 1201.8L3133.23 1186.42V767.988L2637.73 488.583L2612.07 503.965Z" fill="black"/>
<path d="M3107.53 783.43L2609.99 502.88V923.62L2664.61 954.42V1075.72L2744.46 999.44L3107.53 1204.16V783.43Z" fill="white"/>
<path d="M2608.98 501.153C2609.59 500.795 2610.35 500.789 2610.97 501.138L3108.51 781.688C3109.14 782.042 3109.53 782.708 3109.53 783.43V1204.16C3109.53 1204.87 3109.15 1205.53 3108.54 1205.89C3107.92 1206.25 3107.17 1206.25 3106.55 1205.9L2744.77 1001.91L2665.99 1077.17C2665.41 1077.72 2664.56 1077.87 2663.82 1077.56C2663.09 1077.24 2662.61 1076.52 2662.61 1075.72V955.588L2609.01 925.362C2608.38 925.008 2607.99 924.342 2607.99 923.62V502.88L2607.99 502.747C2608.04 502.088 2608.41 501.49 2608.98 501.153ZM2611.99 922.451L2665.59 952.678C2666.22 953.032 2666.61 953.698 2666.61 954.42V1071.04L2743.08 997.994L2743.2 997.886C2743.83 997.373 2744.72 997.292 2745.44 997.697L3105.53 1200.74V784.598L2611.99 506.304V922.451Z" fill="#231F20"/>
<path d="M3017.18 834.98L2519.65 554.43L2491.94 571.04L2519.65 975.17L2574.27 1005.97L2546.56 1143.88L2574.27 1127.27L2654.12 1050.99L2989.48 1272.32L3017.18 1255.71V834.98Z" fill="#231F20"/>
<path d="M2518.74 552.65C2519.33 552.345 2520.04 552.357 2520.63 552.688L3018.16 833.238C3018.79 833.592 3019.18 834.258 3019.18 834.98V1255.71C3019.18 1256.41 3018.81 1257.06 3018.21 1257.43L2990.51 1274.04C2989.85 1274.43 2989.02 1274.41 2988.38 1273.99L2654.35 1053.54L2575.65 1128.72C2575.6 1128.77 2575.54 1128.82 2575.48 1128.86L2575.3 1128.99L2547.59 1145.6C2546.91 1146 2546.05 1145.97 2545.41 1145.51C2544.76 1145.06 2544.44 1144.26 2544.6 1143.49L2572.02 1007L2518.67 976.913C2518.08 976.582 2517.7 975.978 2517.65 975.307L2489.94 571.177C2489.89 570.427 2490.27 569.711 2490.91 569.325L2518.62 552.714L2518.74 552.65ZM2494.02 572.125L2521.57 973.957L2575.25 1004.23C2576.01 1004.65 2576.4 1005.52 2576.23 1006.36L2549.41 1139.84L2573.05 1125.67L2652.74 1049.54L2652.87 1049.43C2653.54 1048.89 2654.49 1048.84 2655.22 1049.32L2989.53 1269.96L3015.18 1254.58V836.148L2519.68 556.744L2494.02 572.125Z" fill="black"/>
<path d="M2989.48 851.59L2491.94 571.04V991.78L2546.56 1022.57V1143.88L2626.41 1067.6L2989.48 1272.32V851.59Z" fill="white"/>
<path d="M2490.93 569.314C2491.54 568.955 2492.3 568.949 2492.92 569.298L2990.46 849.848C2991.09 850.202 2991.48 850.868 2991.48 851.59V1272.32C2991.48 1273.03 2991.1 1273.69 2990.49 1274.05C2989.87 1274.41 2989.12 1274.41 2988.5 1274.06L2626.72 1070.07L2547.94 1145.33C2547.36 1145.88 2546.51 1146.03 2545.77 1145.72C2545.04 1145.4 2544.56 1144.68 2544.56 1143.88V1023.74L2490.96 993.523C2490.33 993.168 2489.94 992.502 2489.94 991.78V571.04L2489.94 570.907C2489.99 570.248 2490.36 569.65 2490.93 569.314ZM2493.94 990.611L2547.54 1020.83C2548.17 1021.18 2548.56 1021.85 2548.56 1022.57V1139.2L2625.03 1066.15L2625.15 1066.05C2625.78 1065.53 2626.67 1065.45 2627.39 1065.86L2987.48 1268.9V852.758L2493.94 574.464V990.611Z" fill="#231F20"/>
<path d="M2899.13 903.14L2401.6 622.59L2373.89 639.19L2401.6 1043.33L2456.22 1074.12L2428.51 1212.03L2456.22 1195.43L2536.07 1119.15L2871.43 1340.47L2899.13 1323.87V903.14Z" fill="#231F20"/>
<path d="M2400.69 620.81C2401.28 620.506 2401.99 620.517 2402.58 620.848L2900.11 901.398C2900.74 901.752 2901.13 902.418 2901.13 903.14V1323.87C2901.13 1324.57 2900.76 1325.22 2900.16 1325.59L2872.46 1342.19C2871.8 1342.58 2870.97 1342.56 2870.33 1342.14L2536.3 1121.7L2457.6 1196.88C2457.55 1196.93 2457.49 1196.98 2457.43 1197.02L2457.25 1197.15L2429.54 1213.75C2428.86 1214.15 2428 1214.12 2427.36 1213.66C2426.71 1213.21 2426.39 1212.41 2426.55 1211.64L2453.97 1075.15L2400.62 1045.07C2400.03 1044.74 2399.65 1044.14 2399.6 1043.47L2371.89 639.326C2371.84 638.576 2372.22 637.86 2372.86 637.474L2400.57 620.874L2400.69 620.81ZM2375.97 640.275L2403.52 1042.12L2457.2 1072.38C2457.96 1072.8 2458.35 1073.67 2458.18 1074.51L2431.36 1207.99L2455 1193.83L2534.69 1117.7L2534.82 1117.59C2535.49 1117.05 2536.44 1117 2537.17 1117.48L2871.48 1338.11L2897.13 1322.74V904.308L2401.63 624.903L2375.97 640.275Z" fill="black"/>
<path d="M2871.43 919.74L2373.89 639.19V1059.93L2428.51 1090.73V1212.03L2508.36 1135.75L2871.43 1340.47V919.74Z" fill="white"/>
<path d="M2372.88 637.463C2373.49 637.105 2374.25 637.099 2374.87 637.448L2872.41 917.998C2873.04 918.352 2873.43 919.018 2873.43 919.74V1340.47C2873.43 1341.18 2873.05 1341.84 2872.44 1342.2C2871.82 1342.56 2871.07 1342.56 2870.45 1342.21L2508.67 1138.22L2429.89 1213.48C2429.31 1214.03 2428.46 1214.18 2427.72 1213.87C2426.99 1213.55 2426.51 1212.83 2426.51 1212.03V1091.9L2372.91 1061.67C2372.28 1061.32 2371.89 1060.65 2371.89 1059.93V639.19L2371.89 639.057C2371.94 638.398 2372.31 637.8 2372.88 637.463ZM2375.89 1058.76L2429.49 1088.99C2430.12 1089.34 2430.51 1090.01 2430.51 1090.73V1207.35L2506.98 1134.3L2507.1 1134.2C2507.73 1133.68 2508.62 1133.6 2509.34 1134.01L2869.43 1337.05V920.908L2375.89 642.614V1058.76Z" fill="#231F20"/>
<path d="M2781.08 971.3L2283.55 690.74L2255.84 707.35L2283.55 1111.48L2338.17 1142.28L2310.46 1280.19L2338.17 1263.59L2418.02 1187.31L2753.38 1408.63L2781.08 1392.02V971.3Z" fill="#231F20"/>
<path d="M2282.64 688.96C2283.23 688.655 2283.94 688.667 2284.53 688.998L2782.06 969.559C2782.69 969.913 2783.08 970.578 2783.08 971.3V1392.02C2783.08 1392.72 2782.71 1393.37 2782.11 1393.74L2754.41 1410.35C2753.75 1410.74 2752.92 1410.72 2752.28 1410.3L2418.25 1189.86L2339.55 1265.04C2339.5 1265.09 2339.44 1265.14 2339.38 1265.18L2339.2 1265.31L2311.49 1281.91C2310.81 1282.31 2309.95 1282.28 2309.31 1281.82C2308.66 1281.37 2308.34 1280.57 2308.5 1279.8L2335.92 1143.31L2282.57 1113.22C2281.98 1112.89 2281.6 1112.29 2281.55 1111.62L2253.84 707.487C2253.79 706.737 2254.17 706.021 2254.81 705.635L2282.52 689.024L2282.64 688.96ZM2257.92 708.436L2285.47 1110.27L2339.15 1140.54C2339.91 1140.96 2340.3 1141.83 2340.13 1142.67L2313.31 1276.15L2336.95 1261.99L2416.64 1185.86L2416.77 1185.75C2417.44 1185.21 2418.39 1185.16 2419.12 1185.64L2753.43 1406.27L2779.08 1390.89V972.468L2283.58 693.054L2257.92 708.436Z" fill="black"/>
<path d="M2753.38 987.9L2255.84 707.35V1128.09L2310.46 1158.89V1280.19L2390.31 1203.91L2753.38 1408.63V987.9Z" fill="white"/>
<path d="M2254.83 705.624C2255.44 705.265 2256.2 705.259 2256.82 705.608L2754.36 986.158C2754.99 986.512 2755.38 987.178 2755.38 987.9V1408.63C2755.38 1409.34 2755 1410 2754.39 1410.36C2753.77 1410.72 2753.02 1410.72 2752.4 1410.37L2390.62 1206.38L2311.84 1281.64C2311.26 1282.19 2310.41 1282.34 2309.67 1282.03C2308.94 1281.71 2308.46 1280.99 2308.46 1280.19V1160.06L2254.86 1129.83C2254.23 1129.48 2253.84 1128.81 2253.84 1128.09V707.35L2253.84 707.217C2253.89 706.558 2254.26 705.96 2254.83 705.624ZM2257.84 1126.92L2311.44 1157.15C2312.07 1157.5 2312.46 1158.17 2312.46 1158.89V1275.51L2388.93 1202.46L2389.05 1202.36C2389.68 1201.84 2390.57 1201.76 2391.29 1202.17L2751.38 1405.21V989.068L2257.84 710.774V1126.92Z" fill="#231F20"/>
<path d="M2663.03 1039.45L2165.5 758.9L2137.79 775.51L2165.5 1179.64L2220.12 1210.44L2192.41 1348.35L2220.12 1331.74L2299.97 1255.46L2635.33 1476.79L2663.03 1460.18V1039.45Z" fill="#231F20"/>
<path d="M2164.59 757.12C2165.18 756.815 2165.9 756.827 2166.48 757.158L2664.01 1037.71C2664.64 1038.06 2665.03 1038.73 2665.03 1039.45V1460.18C2665.03 1460.88 2664.66 1461.53 2664.06 1461.9L2636.36 1478.51C2635.7 1478.9 2634.87 1478.88 2634.23 1478.46L2300.2 1258.01L2221.5 1333.19C2221.39 1333.29 2221.28 1333.38 2221.15 1333.46L2193.44 1350.07C2192.76 1350.47 2191.9 1350.44 2191.26 1349.98C2190.61 1349.53 2190.29 1348.73 2190.45 1347.96L2217.87 1211.47L2164.52 1181.38C2163.93 1181.05 2163.55 1180.45 2163.5 1179.78L2135.79 775.647C2135.74 774.897 2136.12 774.181 2136.76 773.795L2164.47 757.184L2164.59 757.12ZM2139.87 776.595L2167.42 1178.43L2221.1 1208.7C2221.86 1209.12 2222.25 1209.99 2222.08 1210.83L2195.26 1344.31L2218.9 1330.14L2298.59 1254.01L2298.72 1253.9C2299.39 1253.36 2300.34 1253.31 2301.07 1253.79L2635.38 1474.43L2661.03 1459.05V1040.62L2165.53 761.214L2139.87 776.595Z" fill="black"/>
<path d="M2635.33 1056.06L2137.79 775.51V1196.25L2192.41 1227.04V1348.35L2272.26 1272.07L2635.33 1476.79V1056.06Z" fill="white"/>
<path d="M2136.78 773.784C2137.4 773.425 2138.15 773.419 2138.77 773.768L2636.31 1054.32C2636.94 1054.67 2637.33 1055.34 2637.33 1056.06V1476.79C2637.33 1477.5 2636.95 1478.16 2636.34 1478.52C2635.73 1478.88 2634.97 1478.88 2634.35 1478.53L2272.57 1274.54L2193.79 1349.8C2193.21 1350.35 2192.36 1350.5 2191.62 1350.19C2190.89 1349.87 2190.41 1349.15 2190.41 1348.35V1228.21L2136.81 1197.99C2136.18 1197.64 2135.79 1196.97 2135.79 1196.25V775.51L2135.79 775.377C2135.84 774.718 2136.21 774.12 2136.78 773.784ZM2139.79 1195.08L2193.39 1225.3C2194.02 1225.65 2194.41 1226.32 2194.41 1227.04V1343.67L2270.88 1270.62L2271 1270.52C2271.63 1270 2272.52 1269.92 2273.24 1270.33L2633.33 1473.37V1057.23L2139.79 778.934V1195.08Z" fill="#231F20"/>
<path d="M2544.98 1107.61L2047.45 827.06L2019.74 843.66L2047.45 1247.8L2102.07 1278.59L2074.36 1416.51L2102.07 1399.9L2181.92 1323.62L2517.28 1544.94L2544.98 1528.34V1107.61Z" fill="#231F20"/>
<path d="M2046.54 825.28C2047.13 824.976 2047.84 824.987 2048.43 825.318L2545.96 1105.87C2546.59 1106.22 2546.98 1106.89 2546.98 1107.61V1528.34C2546.98 1529.04 2546.61 1529.69 2546.01 1530.06L2518.31 1546.66C2517.65 1547.05 2516.82 1547.03 2516.18 1546.61L2182.15 1326.17L2103.45 1401.35C2103.34 1401.45 2103.22 1401.54 2103.1 1401.62L2075.39 1418.23C2074.71 1418.63 2073.85 1418.6 2073.21 1418.14C2072.56 1417.69 2072.24 1416.89 2072.4 1416.12L2099.82 1279.62L2046.47 1249.54C2045.88 1249.21 2045.5 1248.61 2045.45 1247.94L2017.74 843.796C2017.69 843.046 2018.07 842.331 2018.71 841.945L2046.42 825.344L2046.54 825.28ZM2021.82 844.745L2049.37 1246.59L2103.05 1276.85C2103.76 1277.25 2104.15 1278.03 2104.06 1278.82L2104.03 1278.98L2077.21 1412.47L2100.85 1398.3L2180.54 1322.17L2180.67 1322.06C2181.34 1321.52 2182.29 1321.47 2183.02 1321.95L2517.33 1542.58L2542.98 1527.21V1108.78L2047.48 829.373L2021.82 844.745Z" fill="black"/>
<path d="M2517.28 1124.22L2019.74 843.66V1264.4L2074.36 1295.2V1416.51L2154.21 1340.23L2517.28 1544.94V1124.22Z" fill="white"/>
<path d="M2018.73 841.933C2019.34 841.575 2020.1 841.569 2020.72 841.918L2518.26 1122.48C2518.89 1122.83 2519.28 1123.5 2519.28 1124.22V1544.94C2519.28 1545.65 2518.9 1546.31 2518.29 1546.67C2517.67 1547.03 2516.92 1547.03 2516.3 1546.68L2154.52 1342.7L2075.74 1417.96C2075.16 1418.51 2074.31 1418.66 2073.57 1418.35C2072.84 1418.03 2072.36 1417.31 2072.36 1416.51V1296.37L2018.76 1266.14C2018.13 1265.79 2017.74 1265.12 2017.74 1264.4V843.66C2017.74 842.949 2018.12 842.292 2018.73 841.933ZM2021.74 1263.23L2075.34 1293.46C2075.97 1293.81 2076.36 1294.48 2076.36 1295.2V1411.83L2152.83 1338.78L2152.95 1338.68C2153.58 1338.16 2154.47 1338.08 2155.19 1338.49L2515.28 1541.52V1125.39L2021.74 847.084V1263.23Z" fill="#231F20"/>
<path d="M2439.48 1183.4L1941.95 902.85L1914.25 919.46L1941.95 1323.59L1996.57 1354.39L1968.86 1492.3L1996.57 1475.69L2076.42 1399.41L2411.78 1620.74L2439.48 1604.13V1183.4Z" fill="#231F20"/>
<path d="M1941.04 901.07C1941.63 900.765 1942.35 900.777 1942.93 901.108L2440.46 1181.66C2441.09 1182.01 2441.48 1182.68 2441.48 1183.4V1604.13C2441.48 1604.83 2441.11 1605.48 2440.51 1605.85L2412.81 1622.46C2412.15 1622.85 2411.32 1622.83 2410.68 1622.41L2076.65 1401.96L1997.95 1477.14C1997.84 1477.24 1997.73 1477.33 1997.6 1477.41L1969.89 1494.02C1969.21 1494.42 1968.35 1494.39 1967.71 1493.93C1967.06 1493.48 1966.74 1492.68 1966.9 1491.91L1994.32 1355.42L1940.97 1325.33C1940.38 1325 1940 1324.4 1939.95 1323.73L1912.25 919.597C1912.2 918.847 1912.58 918.131 1913.22 917.745L1940.92 901.135L1941.04 901.07ZM1916.33 920.544L1943.87 1322.38L1997.55 1352.65C1998.31 1353.07 1998.7 1353.94 1998.53 1354.78L1971.71 1488.26L1995.35 1474.09L2075.04 1397.96L2075.17 1397.85C2075.84 1397.31 2076.79 1397.26 2077.52 1397.74L2411.83 1618.38L2437.48 1603V1184.57L1941.98 905.163L1916.33 920.544Z" fill="black"/>
<path d="M2411.78 1200.01L1914.25 919.46V1340.2L1968.86 1370.99V1492.3L2048.72 1416.02L2411.78 1620.74V1200.01Z" fill="white"/>
<path d="M1913.24 917.733C1913.86 917.375 1914.61 917.369 1915.23 917.718L2412.76 1198.27C2413.39 1198.62 2413.78 1199.29 2413.78 1200.01V1620.74C2413.78 1621.45 2413.4 1622.11 2412.79 1622.47C2412.18 1622.83 2411.42 1622.83 2410.8 1622.48L2049.03 1418.49L1970.24 1493.75C1969.66 1494.3 1968.81 1494.45 1968.07 1494.14C1967.34 1493.82 1966.86 1493.1 1966.86 1492.3V1372.16L1913.27 1341.94C1912.64 1341.59 1912.25 1340.92 1912.25 1340.2V919.46L1912.25 919.327C1912.3 918.668 1912.67 918.07 1913.24 917.733ZM1916.25 1339.03L1969.84 1369.25C1970.47 1369.6 1970.86 1370.27 1970.86 1370.99V1487.62L2047.34 1414.57L2047.46 1414.47C2048.09 1413.95 2048.98 1413.87 2049.7 1414.28L2409.78 1617.32V1201.18L1916.25 922.884V1339.03Z" fill="#231F20"/>
<path d="M2321.43 1251.56L1823.9 971.01L1796.2 987.61L1823.9 1391.75L1878.52 1422.54L1850.81 1560.46L1878.52 1543.85L1958.37 1467.57L2293.73 1688.89L2321.43 1672.29V1251.56Z" fill="#231F20"/>
<path d="M1822.99 969.23C1823.58 968.925 1824.29 968.937 1824.88 969.268L2322.41 1249.82C2323.04 1250.17 2323.43 1250.84 2323.43 1251.56V1672.29C2323.43 1672.99 2323.06 1673.64 2322.46 1674.01L2294.76 1690.61C2294.1 1691 2293.27 1690.98 2292.63 1690.56L1958.6 1470.12L1879.9 1545.3C1879.85 1545.35 1879.79 1545.4 1879.73 1545.44L1879.55 1545.57L1851.84 1562.18C1851.16 1562.58 1850.3 1562.55 1849.66 1562.09C1849.01 1561.64 1848.69 1560.84 1848.85 1560.07L1876.27 1423.57L1822.92 1393.49C1822.33 1393.16 1821.95 1392.56 1821.9 1391.89L1794.2 987.747C1794.15 986.997 1794.53 986.281 1795.17 985.895L1822.87 969.294L1822.99 969.23ZM1798.28 988.696L1825.82 1390.54L1879.5 1420.8C1880.25 1421.22 1880.65 1422.09 1880.48 1422.93L1853.66 1556.42L1877.3 1542.25L1956.99 1466.12L1957.12 1466.01C1957.79 1465.47 1958.74 1465.42 1959.47 1465.9L2293.78 1686.53L2319.43 1671.16V1252.73L1823.93 973.324L1798.28 988.696Z" fill="black"/>
<path d="M2293.73 1268.17L1796.2 987.61V1408.35L1850.81 1439.15V1560.46L1930.67 1484.18L2293.73 1688.89V1268.17Z" fill="white"/>
<path d="M1795.19 985.884C1795.8 985.525 1796.56 985.519 1797.18 985.868L2294.71 1266.43C2295.34 1266.78 2295.73 1267.45 2295.73 1268.17V1688.89C2295.73 1689.6 2295.35 1690.26 2294.74 1690.62C2294.12 1690.98 2293.37 1690.98 2292.75 1690.63L1930.98 1486.65L1852.19 1561.91C1851.61 1562.46 1850.76 1562.61 1850.02 1562.3C1849.29 1561.98 1848.81 1561.26 1848.81 1560.46V1440.32L1795.22 1410.09C1794.59 1409.74 1794.2 1409.07 1794.2 1408.35V987.61L1794.2 987.477C1794.25 986.818 1794.62 986.22 1795.19 985.884ZM1798.2 1407.18L1851.79 1437.41C1852.42 1437.76 1852.81 1438.43 1852.81 1439.15V1555.78L1929.29 1482.73L1929.41 1482.63C1930.04 1482.11 1930.93 1482.03 1931.65 1482.44L2291.73 1685.47V1269.34L1798.2 991.034V1407.18Z" fill="#231F20"/>
<path d="M2203.38 1319.72L1705.85 1039.16L1678.15 1055.77L1705.85 1459.9L1760.47 1490.7L1732.76 1628.61L1760.47 1612.01L1840.32 1535.73L2175.68 1757.05L2203.38 1740.45V1319.72Z" fill="#231F20"/>
<path d="M1704.94 1037.38C1705.53 1037.08 1706.24 1037.09 1706.83 1037.42L2204.36 1317.98C2204.99 1318.33 2205.38 1319 2205.38 1319.72V1740.45C2205.38 1741.15 2205.01 1741.8 2204.41 1742.17L2176.71 1758.77C2176.05 1759.16 2175.22 1759.14 2174.58 1758.72L1840.55 1538.28L1761.85 1613.46C1761.8 1613.51 1761.74 1613.56 1761.68 1613.6L1761.5 1613.73L1733.79 1630.33C1733.11 1630.73 1732.25 1630.7 1731.61 1630.24C1730.96 1629.79 1730.64 1628.99 1730.8 1628.22L1758.22 1491.73L1704.87 1461.64C1704.32 1461.33 1703.95 1460.78 1703.87 1460.16L1703.85 1460.04L1676.15 1055.91C1676.1 1055.16 1676.48 1054.44 1677.12 1054.05L1704.82 1037.45L1704.94 1037.38ZM1680.23 1056.85L1707.77 1458.69L1761.45 1488.96C1762.21 1489.38 1762.6 1490.25 1762.43 1491.09L1735.61 1624.57L1759.25 1610.41L1838.94 1534.28L1839.07 1534.17C1839.74 1533.63 1840.69 1533.58 1841.42 1534.06L2175.73 1754.69L2201.38 1739.32V1320.89L1705.88 1041.47L1680.23 1056.85Z" fill="black"/>
<path d="M2175.68 1336.32L1678.15 1055.77V1476.51L1732.76 1507.31V1628.61L1812.62 1552.33L2175.68 1757.05V1336.32Z" fill="white"/>
<path d="M1677.14 1054.04C1677.75 1053.68 1678.51 1053.68 1679.13 1054.03L2176.66 1334.58C2177.29 1334.93 2177.68 1335.6 2177.68 1336.32V1757.05C2177.68 1757.76 2177.3 1758.42 2176.69 1758.78C2176.07 1759.14 2175.32 1759.14 2174.7 1758.79L1812.93 1554.8L1734.14 1630.06C1733.56 1630.61 1732.71 1630.76 1731.97 1630.45C1731.24 1630.13 1730.76 1629.41 1730.76 1628.61V1508.48L1677.17 1478.25C1676.54 1477.9 1676.15 1477.23 1676.15 1476.51V1055.77C1676.15 1055.06 1676.53 1054.4 1677.14 1054.04ZM1680.15 1475.34L1733.74 1505.57C1734.37 1505.92 1734.76 1506.59 1734.76 1507.31V1623.93L1811.24 1550.88L1811.36 1550.77C1811.99 1550.26 1812.88 1550.18 1813.6 1550.59L2173.68 1753.63V1337.49L1680.15 1059.19V1475.34Z" fill="#231F20"/>
<path d="M2085.33 1387.87L1587.8 1107.32L1560.1 1123.93L1587.8 1528.06L1642.42 1558.86L1614.71 1696.77L1642.42 1680.16L1722.27 1603.88L2057.63 1825.21L2085.33 1808.6V1387.87Z" fill="#231F20"/>
<path d="M1586.89 1105.54C1587.48 1105.24 1588.19 1105.25 1588.78 1105.58L2086.31 1386.13C2086.94 1386.48 2087.33 1387.15 2087.33 1387.87V1808.6C2087.33 1809.3 2086.96 1809.95 2086.36 1810.32L2058.66 1826.93C2058 1827.32 2057.17 1827.3 2056.53 1826.88L1722.5 1606.43L1643.8 1681.61C1643.69 1681.71 1643.58 1681.8 1643.45 1681.88L1615.74 1698.49C1615.06 1698.89 1614.2 1698.86 1613.56 1698.4C1612.91 1697.95 1612.59 1697.15 1612.75 1696.38L1640.17 1559.89L1586.82 1529.8C1586.23 1529.47 1585.85 1528.87 1585.8 1528.2L1558.1 1124.07C1558.05 1123.32 1558.43 1122.6 1559.07 1122.21L1586.77 1105.61L1586.89 1105.54ZM1562.18 1125.01L1589.72 1526.85L1643.4 1557.12C1644.16 1557.54 1644.55 1558.41 1644.38 1559.25L1617.56 1692.73L1641.2 1678.56L1720.89 1602.43L1721.02 1602.32C1721.69 1601.78 1722.64 1601.73 1723.37 1602.21L2057.68 1822.85L2083.33 1807.47V1389.04L1587.83 1109.63L1562.18 1125.01Z" fill="black"/>
<path d="M2057.63 1404.48L1560.1 1123.93V1544.67L1614.71 1575.46V1696.77L1694.57 1620.49L2057.63 1825.21V1404.48Z" fill="white"/>
<path d="M1559.09 1122.2C1559.7 1121.85 1560.46 1121.84 1561.08 1122.19L2058.61 1402.74C2059.24 1403.09 2059.63 1403.76 2059.63 1404.48V1825.21C2059.63 1825.92 2059.25 1826.58 2058.64 1826.94C2058.02 1827.3 2057.27 1827.3 2056.65 1826.95L1694.88 1622.96L1616.09 1698.22C1615.51 1698.77 1614.66 1698.92 1613.92 1698.61C1613.19 1698.29 1612.71 1697.57 1612.71 1696.77V1576.63L1559.12 1546.41C1558.49 1546.06 1558.1 1545.39 1558.1 1544.67V1123.93C1558.1 1123.22 1558.48 1122.56 1559.09 1122.2ZM1562.1 1543.5L1615.69 1573.72C1616.32 1574.07 1616.71 1574.74 1616.71 1575.46V1692.09L1693.19 1619.04L1693.31 1618.94C1693.94 1618.42 1694.83 1618.34 1695.55 1618.75L2055.63 1821.79V1405.65L1562.1 1127.35V1543.5Z" fill="#231F20"/>
<path d="M1967.28 1456.03L1469.75 1175.48L1442.05 1192.08L1469.75 1596.22L1524.37 1627.01L1496.66 1764.93L1524.37 1748.32L1604.22 1672.04L1939.58 1893.37L1967.28 1876.76V1456.03Z" fill="#231F20"/>
<path d="M1468.84 1173.7C1469.43 1173.4 1470.15 1173.41 1470.73 1173.74L1968.26 1454.29C1968.89 1454.64 1969.28 1455.31 1969.28 1456.03V1876.76C1969.28 1877.46 1968.91 1878.11 1968.31 1878.48L1940.61 1895.09C1939.95 1895.48 1939.12 1895.46 1938.48 1895.04L1604.45 1674.59L1525.75 1749.77C1525.64 1749.87 1525.53 1749.96 1525.4 1750.04L1497.69 1766.64C1497.01 1767.05 1496.15 1767.02 1495.51 1766.56C1494.86 1766.11 1494.54 1765.31 1494.7 1764.54L1522.12 1628.04L1468.77 1597.96C1468.18 1597.63 1467.8 1597.03 1467.75 1596.36L1440.05 1192.22C1440 1191.47 1440.38 1190.75 1441.02 1190.36L1468.72 1173.76L1468.84 1173.7ZM1444.13 1193.17L1471.67 1595.01L1525.35 1625.27C1526.06 1625.67 1526.45 1626.45 1526.36 1627.24L1526.33 1627.4L1499.51 1760.89L1523.15 1746.72L1602.84 1670.59L1602.97 1670.48C1603.64 1669.94 1604.59 1669.89 1605.32 1670.37L1939.63 1891.01L1965.28 1875.63V1457.2L1469.78 1177.79L1444.13 1193.17Z" fill="black"/>
<path d="M1939.58 1472.64L1442.05 1192.08V1612.82L1496.66 1643.62V1764.93L1576.52 1688.65L1939.58 1893.37V1472.64Z" fill="white"/>
<path d="M1441.04 1190.35C1441.65 1189.99 1442.41 1189.99 1443.03 1190.34L1940.56 1470.9C1941.19 1471.25 1941.58 1471.92 1941.58 1472.64V1893.37C1941.58 1894.08 1941.2 1894.74 1940.59 1895.1C1939.98 1895.46 1939.22 1895.46 1938.6 1895.11L1576.83 1691.12L1498.04 1766.38C1497.46 1766.93 1496.61 1767.08 1495.87 1766.77C1495.14 1766.45 1494.66 1765.73 1494.66 1764.93V1644.79L1441.07 1614.56C1440.44 1614.21 1440.05 1613.54 1440.05 1612.82V1192.08L1440.05 1191.95C1440.1 1191.29 1440.47 1190.69 1441.04 1190.35ZM1444.05 1611.65L1497.64 1641.88C1498.27 1642.23 1498.66 1642.9 1498.66 1643.62V1760.25L1575.14 1687.2L1575.26 1687.1C1575.89 1686.58 1576.78 1686.5 1577.5 1686.91L1937.58 1889.95L1937.58 1473.81L1444.05 1195.5V1611.65Z" fill="#231F20"/>
<path d="M1849.23 1524.19L1351.7 1243.63L1324 1260.24L1351.7 1664.38L1406.32 1695.17L1378.61 1833.08L1406.32 1816.48L1486.17 1740.2L1821.53 1961.52L1849.23 1944.92V1524.19Z" fill="#231F20"/>
<path d="M1350.79 1241.85C1351.38 1241.55 1352.1 1241.56 1352.68 1241.89L1850.21 1522.45C1850.84 1522.8 1851.23 1523.47 1851.23 1524.19V1944.92C1851.23 1945.62 1850.86 1946.27 1850.26 1946.64L1822.56 1963.24C1821.9 1963.63 1821.07 1963.61 1820.43 1963.19L1486.4 1742.75L1407.7 1817.93C1407.65 1817.98 1407.59 1818.03 1407.53 1818.07L1407.35 1818.2L1379.64 1834.8C1378.96 1835.2 1378.1 1835.17 1377.46 1834.71C1376.81 1834.26 1376.49 1833.46 1376.65 1832.69L1404.07 1696.2L1350.72 1666.12C1350.13 1665.79 1349.75 1665.19 1349.7 1664.52L1322 1260.38C1321.95 1259.63 1322.33 1258.91 1322.97 1258.52L1350.67 1241.92L1350.79 1241.85ZM1326.08 1261.32L1353.62 1663.17L1407.3 1693.43C1408.06 1693.85 1408.45 1694.71 1408.28 1695.56L1381.46 1829.04L1405.1 1814.88L1484.79 1738.75L1484.92 1738.64C1485.59 1738.1 1486.54 1738.05 1487.27 1738.53L1821.58 1959.16L1847.23 1943.79V1525.36L1351.73 1245.94L1326.08 1261.32Z" fill="black"/>
<path d="M1821.53 1540.79L1324 1260.24V1680.98L1378.61 1711.78V1833.08L1458.47 1756.8L1821.53 1961.52V1540.79Z" fill="white"/>
<path d="M1322.99 1258.51C1323.61 1258.15 1324.36 1258.15 1324.98 1258.5L1822.51 1539.05C1823.14 1539.4 1823.53 1540.07 1823.53 1540.79V1961.52C1823.53 1962.23 1823.15 1962.89 1822.54 1963.25C1821.93 1963.61 1821.17 1963.61 1820.55 1963.26L1458.78 1759.27L1379.99 1834.53C1379.41 1835.08 1378.56 1835.23 1377.82 1834.92C1377.09 1834.6 1376.61 1833.88 1376.61 1833.08V1712.95L1323.02 1682.72C1322.39 1682.37 1322 1681.7 1322 1680.98V1260.24L1322 1260.11C1322.05 1259.45 1322.42 1258.85 1322.99 1258.51ZM1326 1679.81L1379.59 1710.04C1380.22 1710.39 1380.61 1711.06 1380.61 1711.78V1828.4L1457.09 1755.35L1457.21 1755.25C1457.84 1754.73 1458.73 1754.65 1459.45 1755.06L1819.53 1958.1V1541.96L1326 1263.66V1679.81Z" fill="#231F20"/>
<path d="M1731.18 1592.34L1233.65 1311.79L1205.95 1328.4L1233.65 1732.53L1288.27 1763.33L1260.56 1901.24L1288.27 1884.63L1368.12 1808.35L1703.48 2029.68L1731.18 2013.07V1592.34Z" fill="#231F20"/>
<path d="M1232.74 1310.01C1233.33 1309.71 1234.04 1309.72 1234.63 1310.05L1732.16 1590.6C1732.79 1590.95 1733.18 1591.62 1733.18 1592.34V2013.07C1733.18 2013.77 1732.81 2014.42 1732.21 2014.79L1704.51 2031.4C1703.85 2031.79 1703.02 2031.77 1702.38 2031.35L1368.35 1810.9L1289.65 1886.08C1289.6 1886.13 1289.54 1886.18 1289.48 1886.22L1289.3 1886.35L1261.59 1902.96C1260.91 1903.36 1260.05 1903.33 1259.41 1902.87C1258.76 1902.42 1258.44 1901.62 1258.6 1900.85L1286.02 1764.36L1232.67 1734.27C1232.08 1733.94 1231.7 1733.34 1231.65 1732.67L1203.95 1328.54C1203.9 1327.79 1204.28 1327.07 1204.92 1326.68L1232.62 1310.08L1232.74 1310.01ZM1208.03 1329.48L1235.57 1731.32L1289.25 1761.59C1290.01 1762.01 1290.4 1762.88 1290.23 1763.72L1263.41 1897.2L1287.05 1883.03L1366.74 1806.9L1366.87 1806.79C1367.54 1806.25 1368.49 1806.2 1369.22 1806.68L1703.53 2027.32L1729.18 2011.94V1593.51L1233.68 1314.1L1208.03 1329.48Z" fill="black"/>
<path d="M1703.48 1608.95L1205.95 1328.4V1749.14L1260.56 1779.93V1901.24L1340.42 1824.96L1703.48 2029.68V1608.95Z" fill="white"/>
<path d="M1204.94 1326.67C1205.55 1326.31 1206.31 1326.31 1206.93 1326.66L1704.46 1607.21C1705.09 1607.56 1705.48 1608.23 1705.48 1608.95V2029.68C1705.48 2030.39 1705.1 2031.05 1704.49 2031.41C1703.87 2031.77 1703.12 2031.77 1702.5 2031.42L1340.73 1827.43L1261.94 1902.69C1261.36 1903.24 1260.51 1903.39 1259.77 1903.08C1259.04 1902.76 1258.56 1902.04 1258.56 1901.24V1781.1L1204.97 1750.88C1204.34 1750.53 1203.95 1749.86 1203.95 1749.14V1328.4L1203.95 1328.27C1204 1327.61 1204.37 1327.01 1204.94 1326.67ZM1207.95 1747.97L1261.54 1778.19C1262.17 1778.54 1262.56 1779.21 1262.56 1779.93V1896.56L1339.04 1823.51L1339.16 1823.4C1339.79 1822.89 1340.68 1822.81 1341.4 1823.22L1701.48 2026.26V1610.12L1207.95 1331.82V1747.97Z" fill="#231F20"/>
<path d="M1613.14 1662.05L1115.61 1381.5L1087.9 1398.11L1115.61 1802.24L1170.22 1833.04L1142.52 1970.95L1170.22 1954.34L1250.08 1878.06L1585.43 2099.39L1613.14 2082.78V1662.05Z" fill="#231F20"/>
<path d="M1114.7 1379.72C1115.29 1379.42 1116 1379.43 1116.59 1379.76L1614.12 1660.31C1614.75 1660.66 1615.14 1661.33 1615.14 1662.05V2082.78C1615.14 2083.48 1614.77 2084.13 1614.17 2084.5L1586.46 2101.11C1585.8 2101.5 1584.97 2101.48 1584.33 2101.06L1250.31 1880.61L1171.6 1955.79C1171.55 1955.84 1171.49 1955.89 1171.43 1955.93L1171.25 1956.06L1143.55 1972.67C1142.87 1973.07 1142.01 1973.04 1141.37 1972.58C1140.72 1972.13 1140.4 1971.33 1140.56 1970.56L1167.97 1834.07L1114.63 1803.98C1114.04 1803.65 1113.66 1803.05 1113.61 1802.38L1085.9 1398.25C1085.85 1397.5 1086.23 1396.78 1086.87 1396.39L1114.58 1379.78L1114.7 1379.72ZM1089.98 1399.2L1117.53 1801.03L1171.2 1831.3C1171.96 1831.72 1172.35 1832.59 1172.18 1833.43L1145.37 1966.91L1169 1952.74L1248.7 1876.61L1248.83 1876.5C1249.5 1875.96 1250.45 1875.91 1251.18 1876.39L1585.48 2097.03L1611.14 2081.65V1663.22L1115.64 1383.81L1089.98 1399.2Z" fill="black"/>
<path d="M1585.43 1678.66L1087.9 1398.11V1818.85L1142.52 1849.64V1970.95L1222.37 1894.67L1585.43 2099.39V1678.66Z" fill="white"/>
<path d="M1086.89 1396.38C1087.5 1396.02 1088.26 1396.02 1088.88 1396.37L1586.41 1676.92C1587.04 1677.27 1587.43 1677.94 1587.43 1678.66V2099.39C1587.43 2100.1 1587.05 2100.76 1586.44 2101.12C1585.82 2101.48 1585.07 2101.48 1584.45 2101.13L1222.68 1897.14L1143.9 1972.4C1143.32 1972.95 1142.47 1973.1 1141.73 1972.79C1141 1972.47 1140.52 1971.75 1140.52 1970.95V1850.81L1086.92 1820.59C1086.29 1820.24 1085.9 1819.57 1085.9 1818.85V1398.11L1085.9 1397.98C1085.95 1397.32 1086.32 1396.72 1086.89 1396.38ZM1089.9 1817.68L1143.5 1847.9C1144.13 1848.25 1144.52 1848.92 1144.52 1849.64V1966.27L1220.99 1893.22L1221.11 1893.12C1221.74 1892.6 1222.63 1892.52 1223.35 1892.93L1583.43 2095.97V1679.83L1089.9 1401.53V1817.68Z" fill="#231F20"/>
<path d="M1495.09 1730.21L997.56 1449.66L969.85 1466.26L997.56 1870.4L1052.17 1901.19L1024.47 2039.11L1052.17 2022.5L1132.03 1946.22L1467.38 2167.55L1495.09 2150.94V1730.21Z" fill="#231F20"/>
<path d="M996.649 1447.88C997.244 1447.58 997.955 1447.59 998.542 1447.92L1496.07 1728.47C1496.7 1728.82 1497.09 1729.49 1497.09 1730.21V2150.94C1497.09 2151.64 1496.72 2152.29 1496.12 2152.66L1468.41 2169.27C1467.75 2169.66 1466.92 2169.64 1466.28 2169.22L1132.26 1948.77L1053.55 2023.95C1053.44 2024.05 1053.33 2024.14 1053.2 2024.22L1025.5 2040.83C1024.82 2041.23 1023.96 2041.2 1023.32 2040.74C1022.67 2040.29 1022.35 2039.49 1022.51 2038.72L1049.92 1902.22L996.577 1872.14C996.027 1871.83 995.659 1871.28 995.577 1870.66L995.564 1870.54L967.854 1466.4C967.803 1465.65 968.177 1464.93 968.822 1464.54L996.532 1447.94L996.649 1447.88ZM971.928 1467.34L999.48 1869.19L1053.15 1899.45C1053.91 1899.87 1054.3 1900.74 1054.13 1901.58L1027.32 2035.07L1050.95 2020.9L1130.65 1944.77L1130.78 1944.66C1131.45 1944.12 1132.4 1944.07 1133.13 1944.55L1467.43 2165.19L1493.09 2149.81V1731.38L997.59 1451.97L971.928 1467.34Z" fill="black"/>
<path d="M1467.38 1746.82L969.85 1466.26V1887.01L1024.47 1917.8V2039.11L1104.32 1962.83L1467.38 2167.55V1746.82Z" fill="white"/>
<path d="M968.841 1464.53C969.455 1464.17 970.213 1464.17 970.832 1464.52L1468.36 1745.08C1468.99 1745.43 1469.38 1746.1 1469.38 1746.82V2167.55C1469.38 2168.26 1469 2168.92 1468.39 2169.28C1467.77 2169.64 1467.02 2169.64 1466.4 2169.29L1104.63 1965.3L1025.85 2040.56C1025.27 2041.11 1024.42 2041.26 1023.68 2040.95C1022.95 2040.63 1022.47 2039.91 1022.47 2039.11V1918.97L968.867 1888.75C968.238 1888.4 967.85 1887.73 967.85 1887.01V1466.26L967.854 1466.13C967.897 1465.47 968.265 1464.87 968.841 1464.53ZM971.85 1885.84L1025.45 1916.06C1026.08 1916.41 1026.47 1917.08 1026.47 1917.8V2034.43L1102.94 1961.38L1103.06 1961.28C1103.69 1960.76 1104.58 1960.68 1105.3 1961.09L1465.38 2164.13V1747.99L971.85 1469.68V1885.84Z" fill="#231F20"/>
<path d="M1377.04 1798.37L879.51 1517.82L851.8 1534.42L879.51 1938.56L934.12 1969.35L906.42 2107.26L934.12 2090.66L1013.98 2014.38L1349.33 2235.7L1377.04 2219.1V1798.37Z" fill="#231F20"/>
<path d="M878.599 1516.04C879.194 1515.74 879.905 1515.75 880.492 1516.08L1378.02 1796.63C1378.65 1796.98 1379.04 1797.65 1379.04 1798.37V2219.1C1379.04 2219.8 1378.67 2220.45 1378.07 2220.82L1350.36 2237.42C1349.7 2237.81 1348.87 2237.79 1348.23 2237.37L1014.21 2016.93L935.501 2092.11C935.447 2092.16 935.391 2092.21 935.332 2092.25L935.147 2092.38L907.448 2108.98C906.769 2109.38 905.913 2109.35 905.266 2108.89C904.62 2108.44 904.303 2107.64 904.459 2106.87L931.873 1970.38L878.527 1940.3C877.941 1939.97 877.561 1939.37 877.514 1938.7L849.805 1534.56C849.753 1533.81 850.127 1533.09 850.772 1532.7L878.482 1516.1L878.599 1516.04ZM853.878 1535.5L881.43 1937.35L935.102 1967.61C935.856 1968.03 936.251 1968.9 936.081 1969.74L909.271 2103.22L932.899 2089.06L1012.6 2012.93L1012.73 2012.82C1013.4 2012.28 1014.35 2012.23 1015.08 2012.71L1349.38 2233.34L1375.04 2217.97V1799.54L879.54 1520.13L853.878 1535.5Z" fill="black"/>
<path d="M1349.33 1814.97L851.8 1534.42V1955.16L906.42 1985.96V2107.26L986.27 2030.98L1349.33 2235.7V1814.97Z" fill="white"/>
<path d="M850.791 1532.69C851.405 1532.34 852.163 1532.33 852.782 1532.68L1350.31 1813.23C1350.94 1813.58 1351.33 1814.25 1351.33 1814.97V2235.7C1351.33 2236.41 1350.95 2237.07 1350.34 2237.43C1349.73 2237.79 1348.97 2237.79 1348.35 2237.44L986.578 2033.45L907.802 2108.71C907.223 2109.26 906.37 2109.41 905.634 2109.1C904.898 2108.78 904.42 2108.06 904.42 2107.26V1987.13L850.817 1956.9C850.189 1956.55 849.8 1955.88 849.8 1955.16V1534.42C849.8 1533.71 850.177 1533.05 850.791 1532.69ZM853.8 1953.99L907.402 1984.22C908.031 1984.57 908.42 1985.24 908.42 1985.96V2102.58L984.889 2029.53L985.012 2029.43C985.645 2028.91 986.533 2028.83 987.252 2029.24L1347.33 2232.28V1816.14L853.8 1537.84V1953.99Z" fill="#231F20"/>
<path d="M1258.99 1481.37L761.46 1200.82L733.75 1217.42L761.46 1621.56L816.07 1652.35L788.37 1790.27L816.07 1773.66L895.93 1697.38L1231.28 1918.71L1258.99 1902.1V1481.37Z" fill="#231F20"/>
<path d="M760.55 1199.04C761.144 1198.74 761.855 1198.75 762.442 1199.08L1259.97 1479.63C1260.6 1479.98 1260.99 1480.65 1260.99 1481.37V1902.1C1260.99 1902.8 1260.62 1903.45 1260.02 1903.82L1232.31 1920.43C1231.65 1920.82 1230.82 1920.8 1230.18 1920.38L896.158 1699.93L817.451 1775.11C817.397 1775.16 817.341 1775.21 817.282 1775.25L817.098 1775.38L789.398 1791.99C788.719 1792.39 787.864 1792.36 787.217 1791.9C786.57 1791.45 786.253 1790.65 786.409 1789.88L813.823 1653.38L760.477 1623.3C759.891 1622.97 759.511 1622.37 759.465 1621.7L731.755 1217.56C731.703 1216.81 732.077 1216.09 732.722 1215.7L760.432 1199.1L760.55 1199.04ZM735.828 1218.5L763.381 1620.35L817.053 1650.61C817.806 1651.03 818.201 1651.9 818.031 1652.74L791.221 1786.23L814.848 1772.06L894.549 1695.93L894.679 1695.82C895.35 1695.28 896.301 1695.23 897.031 1695.71L1231.33 1916.35L1256.99 1900.97V1482.54L761.49 1203.13L735.828 1218.5Z" fill="black"/>
<path d="M1231.28 1497.98L733.75 1217.42V1638.16L788.37 1668.96V1790.27L868.22 1713.99L1231.28 1918.71V1497.98Z" fill="white"/>
<path d="M732.741 1215.69C733.355 1215.34 734.113 1215.33 734.732 1215.68L1232.26 1496.24C1232.89 1496.59 1233.28 1497.26 1233.28 1497.98V1918.71C1233.28 1919.42 1232.9 1920.08 1232.29 1920.44C1231.68 1920.8 1230.92 1920.8 1230.3 1920.45L868.528 1716.46L789.752 1791.72C789.173 1792.27 788.32 1792.42 787.584 1792.11C786.848 1791.79 786.37 1791.07 786.37 1790.27V1670.13L732.768 1639.9C732.139 1639.55 731.75 1638.88 731.75 1638.16V1217.42L731.754 1217.29C731.798 1216.63 732.166 1216.03 732.741 1215.69ZM735.75 1636.99L789.353 1667.22C789.981 1667.57 790.37 1668.24 790.37 1668.96V1785.59L866.839 1712.54L866.962 1712.44C867.595 1711.92 868.483 1711.84 869.202 1712.25L1229.28 1915.29V1499.15L735.75 1220.84V1636.99Z" fill="#231F20"/>
<path d="M1140.94 1934.68L643.409 1654.13L615.699 1670.74L643.409 2074.87L698.019 2105.67L670.319 2243.58L698.019 2226.97L777.879 2150.69L1113.23 2372.02L1140.94 2355.41V1934.68Z" fill="#231F20"/>
<path d="M642.498 1652.35C643.093 1652.05 643.804 1652.06 644.391 1652.39L1141.92 1932.94C1142.55 1933.29 1142.94 1933.96 1142.94 1934.68V2355.41C1142.94 2356.11 1142.57 2356.76 1141.97 2357.13L1114.26 2373.74C1113.6 2374.13 1112.77 2374.11 1112.13 2373.69L778.107 2153.24L699.4 2228.42C699.293 2228.52 699.175 2228.61 699.048 2228.69L671.347 2245.3C670.668 2245.7 669.813 2245.67 669.166 2245.21C668.519 2244.76 668.202 2243.96 668.358 2243.19L695.772 2106.7L642.427 2076.61C641.877 2076.3 641.508 2075.75 641.427 2075.13L641.414 2075.01L613.704 1670.88C613.652 1670.13 614.026 1669.41 614.671 1669.02L642.381 1652.41L642.498 1652.35ZM617.777 1671.83L645.33 2073.66L699.002 2103.93L699.138 2104.01C699.802 2104.46 700.14 2105.27 699.98 2106.06L673.171 2239.54L696.798 2225.37L776.498 2149.24L776.628 2149.13C777.299 2148.59 778.251 2148.54 778.98 2149.02L1113.28 2369.66L1138.94 2354.28V1935.85L643.439 1656.44L617.777 1671.83Z" fill="black"/>
<path d="M1113.23 1951.29L615.699 1670.74V2091.48L670.319 2122.27V2243.58L750.169 2167.3L1113.23 2372.02V1951.29Z" fill="white"/>
<path d="M614.69 1669.01C615.304 1668.65 616.062 1668.65 616.682 1669L1114.21 1949.55C1114.84 1949.9 1115.23 1950.57 1115.23 1951.29V2372.02C1115.23 2372.73 1114.85 2373.39 1114.24 2373.75C1113.62 2374.11 1112.87 2374.11 1112.25 2373.76L750.478 2169.77L671.701 2245.03C671.122 2245.58 670.269 2245.73 669.533 2245.42C668.797 2245.1 668.319 2244.38 668.319 2243.58V2123.44L614.717 2093.22C614.088 2092.87 613.699 2092.2 613.699 2091.48V1670.74L613.703 1670.61C613.747 1669.95 614.115 1669.35 614.69 1669.01ZM617.699 2090.31L671.302 2120.53C671.93 2120.88 672.319 2121.55 672.319 2122.27V2238.9L748.788 2165.85L748.911 2165.75C749.544 2165.23 750.432 2165.15 751.151 2165.56L1111.23 2368.6V1952.46L617.699 1674.16V2090.31Z" fill="#231F20"/>
<path d="M1022.89 2002.84L525.359 1722.29L497.649 1738.89L525.359 2143.03L579.969 2173.82L552.269 2311.73L579.969 2295.13L659.829 2218.85L995.179 2440.17L1022.89 2423.57V2002.84Z" fill="#231F20"/>
<path d="M524.449 1720.51C525.044 1720.21 525.755 1720.22 526.342 1720.55L1023.87 2001.1L1023.99 2001.17C1024.55 2001.54 1024.89 2002.16 1024.89 2002.84V2423.57C1024.89 2424.27 1024.52 2424.92 1023.92 2425.29L996.207 2441.89C995.547 2442.28 994.72 2442.26 994.078 2441.84L660.057 2221.4L581.35 2296.58C581.297 2296.63 581.24 2296.68 581.181 2296.72L580.997 2296.85L553.298 2313.45C552.619 2313.85 551.763 2313.82 551.116 2313.36C550.469 2312.91 550.152 2312.11 550.308 2311.34L577.722 2174.85L524.377 2144.77C523.827 2144.46 523.459 2143.91 523.377 2143.29L523.364 2143.17L495.654 1739.03C495.603 1738.28 495.977 1737.56 496.622 1737.17L524.332 1720.57L524.449 1720.51ZM499.727 1739.97L527.28 2141.82L580.951 2172.08C581.705 2172.5 582.101 2173.37 581.93 2174.21L555.121 2307.69L578.749 2293.53L658.448 2217.4L658.578 2217.29C659.25 2216.75 660.201 2216.7 660.93 2217.18L995.23 2437.81L1020.89 2422.44V2004.01L525.389 1724.6L499.727 1739.97Z" fill="black"/>
<path d="M995.179 2019.44L497.649 1738.89V2159.63L552.269 2190.43V2311.73L632.119 2235.45L995.179 2440.17V2019.44Z" fill="white"/>
<path d="M496.641 1737.16C497.254 1736.8 498.013 1736.8 498.632 1737.15L996.162 2017.7C996.791 2018.05 997.18 2018.72 997.18 2019.44V2440.17C997.18 2440.88 996.802 2441.54 996.188 2441.9C995.575 2442.26 994.816 2442.26 994.197 2441.91L632.428 2237.92L553.651 2313.18C553.073 2313.73 552.219 2313.88 551.483 2313.57C550.747 2313.25 550.27 2312.53 550.27 2311.73V2191.6L496.667 2161.37C496.038 2161.02 495.65 2160.35 495.649 2159.63V1738.89L495.653 1738.76C495.697 1738.1 496.065 1737.5 496.641 1737.16ZM499.649 2158.46L553.252 2188.69C553.881 2189.04 554.27 2189.71 554.27 2190.43V2307.05L630.738 2234L630.861 2233.9C631.494 2233.38 632.382 2233.3 633.102 2233.71L993.18 2436.75V2020.61L499.649 1742.31V2158.46Z" fill="#231F20"/>
<path d="M904.84 2070.99L407.31 1790.44L379.6 1807.05L407.31 2211.18L461.92 2241.98L434.22 2379.89L461.92 2363.29L541.78 2287L877.13 2508.33L904.84 2491.72V2070.99Z" fill="#231F20"/>
<path d="M406.398 1788.66C406.993 1788.36 407.705 1788.37 408.292 1788.7L905.822 2069.25C906.451 2069.6 906.84 2070.27 906.84 2070.99V2491.72C906.84 2492.42 906.471 2493.07 905.868 2493.44L878.158 2510.05C877.498 2510.44 876.67 2510.42 876.028 2510L542.008 2289.55L463.301 2364.74C463.193 2364.84 463.075 2364.93 462.947 2365.01L435.248 2381.61C434.569 2382.01 433.713 2381.98 433.066 2381.52C432.419 2381.07 432.103 2380.27 432.259 2379.5L459.673 2243.01L406.327 2212.92C405.741 2212.59 405.36 2211.99 405.314 2211.32L377.604 1807.19C377.553 1806.44 377.926 1805.72 378.571 1805.33L406.281 1788.72L406.398 1788.66ZM381.678 1808.14L409.23 2209.97L462.902 2240.24C463.656 2240.66 464.051 2241.53 463.881 2242.37L437.071 2375.85L460.699 2361.69L540.398 2285.55L540.528 2285.44C541.2 2284.9 542.151 2284.85 542.881 2285.33L877.18 2505.97L902.84 2490.59V2072.16L407.34 1792.75L381.678 1808.14Z" fill="black"/>
<path d="M877.13 2087.6L379.6 1807.05V2227.79L434.22 2258.59V2379.89L514.07 2303.61L877.13 2508.33V2087.6Z" fill="white"/>
<path d="M378.591 1805.32C379.205 1804.97 379.963 1804.96 380.582 1805.31L878.112 2085.86C878.741 2086.21 879.13 2086.88 879.13 2087.6V2508.33C879.13 2509.04 878.752 2509.7 878.139 2510.06C877.525 2510.42 876.767 2510.42 876.147 2510.07L514.378 2306.08L435.602 2381.34C435.023 2381.89 434.17 2382.04 433.434 2381.73C432.697 2381.41 432.22 2380.69 432.22 2379.89V2259.76L378.617 2229.53C377.989 2229.18 377.6 2228.51 377.6 2227.79V1807.05C377.6 1806.34 377.977 1805.68 378.591 1805.32ZM381.6 2226.62L435.202 2256.85C435.831 2257.2 436.22 2257.87 436.22 2258.59V2375.21L512.688 2302.16L512.812 2302.06C513.445 2301.54 514.333 2301.46 515.052 2301.87L875.13 2504.91V2088.77L381.6 1810.47V2226.62Z" fill="#231F20"/>
</g>
<defs>
<clipPath id="clip0_938_83818">
<rect width="3255.28" height="2510.33" fill="white"/>
</clipPath>
</defs>
</svg>
