<svg width="24" height="24" viewBox="0 0 24 24" fill="none" xmlns="http://www.w3.org/2000/svg">
<path d="M23.3854 6.49689C23.2004 6.40275 22.9928 6.36168 22.7858 6.37823C22.5788 6.39477 22.3804 6.4683 22.2126 6.59065L19.8745 8.28946V6.74909C19.8745 6.25179 19.677 5.77486 19.3253 5.42322C18.9737 5.07157 18.4968 4.87402 17.9995 4.87402L2.99951 4.87402C2.50223 4.87402 2.02532 5.07157 1.67369 5.42322C1.32206 5.77486 1.12451 6.25179 1.12451 6.74909L1.12451 17.2495C1.12451 17.7468 1.32206 18.2237 1.67369 18.5753C2.02532 18.927 2.50223 19.1245 2.99951 19.1245L17.9995 19.1245C18.4968 19.1245 18.9737 18.927 19.3253 18.5753C19.677 18.2237 19.8745 17.7468 19.8745 17.2495L19.8745 15.7091L22.2126 17.4098C22.3805 17.5319 22.5789 17.6052 22.7858 17.6216C22.9928 17.638 23.2002 17.5967 23.3852 17.5025C23.5702 17.4083 23.7255 17.2647 23.8339 17.0877C23.9423 16.9106 23.9996 16.707 23.9995 16.4994L23.9995 7.49912C23.9995 7.29169 23.9421 7.0883 23.8338 6.91143C23.7254 6.73457 23.5702 6.5911 23.3854 6.49689ZM17.6245 16.8745H3.37451L3.37451 7.1241L17.6245 7.1241L17.6245 16.8745ZM21.7495 14.2897L19.8745 12.9265V11.0721L21.7495 9.70889V14.2897Z" fill="#00010C"/>
</svg>
