<svg width="16" height="16" viewBox="0 0 16 16" fill="none" xmlns="http://www.w3.org/2000/svg">
<path fill-rule="evenodd" clip-rule="evenodd" d="M4.8335 8.50065C4.8335 8.13246 5.13197 7.83398 5.50016 7.83398C6.12647 7.83398 6.73871 8.01971 7.25947 8.36766C7.78022 8.71562 8.1861 9.21019 8.42578 9.78882C8.66546 10.3675 8.72817 11.0042 8.60598 11.6184C8.4838 12.2327 8.1822 12.797 7.73933 13.2398C7.29647 13.6827 6.73222 13.9843 6.11795 14.1065C5.50368 14.2287 4.86696 14.1659 4.28833 13.9263C3.7097 13.6866 3.21513 13.2807 2.86718 12.76C2.51922 12.2392 2.3335 11.627 2.3335 11.0007V10.58C2.3335 10.2118 2.63197 9.91336 3.00016 9.91336C3.36835 9.91336 3.66683 10.2118 3.66683 10.58V11.0007C3.66683 11.3633 3.77435 11.7177 3.9758 12.0192C4.17725 12.3207 4.46358 12.5557 4.79858 12.6944C5.13357 12.8332 5.5022 12.8695 5.85783 12.7988C6.21346 12.728 6.54013 12.5534 6.79653 12.297C7.05292 12.0406 7.22753 11.7139 7.29827 11.3583C7.36901 11.0027 7.3327 10.6341 7.19394 10.2991C7.05518 9.96407 6.8202 9.67774 6.51871 9.47629C6.21722 9.27484 5.86276 9.16732 5.50016 9.16732C5.13197 9.16732 4.8335 8.86884 4.8335 8.50065Z" fill="#00010C"/>
<path fill-rule="evenodd" clip-rule="evenodd" d="M8.74086 8.36766C9.26161 8.01971 9.87386 7.83398 10.5002 7.83398C10.8684 7.83398 11.1668 8.13246 11.1668 8.50065C11.1668 8.86884 10.8684 9.16732 10.5002 9.16732C10.1376 9.16732 9.78311 9.27484 9.48162 9.47629C9.18013 9.67774 8.94515 9.96407 8.80639 10.2991C8.66762 10.6341 8.63132 11.0027 8.70206 11.3583C8.7728 11.7139 8.94741 12.0406 9.2038 12.297C9.4602 12.5534 9.78687 12.728 10.1425 12.7988C10.4981 12.8695 10.8668 12.8332 11.2018 12.6944C11.5367 12.5557 11.8231 12.3207 12.0245 12.0192C12.226 11.7177 12.3335 11.3633 12.3335 11.0007V10.58C12.3335 10.2118 12.632 9.91336 13.0002 9.91336C13.3684 9.91336 13.6668 10.2118 13.6668 10.58V11.0007C13.6668 11.627 13.4811 12.2392 13.1332 12.76C12.7852 13.2807 12.2906 13.6866 11.712 13.9263C11.1334 14.1659 10.4967 14.2287 9.88238 14.1065C9.2681 13.9843 8.70386 13.6827 8.26099 13.2398C7.81813 12.797 7.51653 12.2327 7.39434 11.6184C7.27216 11.0042 7.33487 10.3675 7.57455 9.78882C7.81422 9.21019 8.2201 8.71562 8.74086 8.36766Z" fill="#00010C"/>
<path fill-rule="evenodd" clip-rule="evenodd" d="M8.26099 2.26148C8.85486 1.66761 9.66031 1.33398 10.5002 1.33398C11.34 1.33398 12.1455 1.66761 12.7393 2.26148C13.3291 2.85125 13.6622 3.64969 13.6668 4.48326C14.2875 4.79934 14.8085 5.28748 15.1646 5.89384C15.6029 6.64018 15.7631 7.51752 15.6167 8.37059C15.4704 9.22367 15.027 9.99747 14.365 10.5551C13.703 11.1127 12.8651 11.4181 11.9996 11.4173H11.5002C11.132 11.4173 10.8335 11.1188 10.8335 10.7507C10.8335 10.3825 11.132 10.084 11.5002 10.084H12.0002C12.551 10.0845 13.0848 9.89011 13.506 9.53528C13.9273 9.18044 14.2095 8.68803 14.3026 8.14516C14.3957 7.6023 14.2938 7.04399 14.0149 6.56904C13.736 6.0941 13.298 5.73313 12.7785 5.55003C12.5119 5.45603 12.3335 5.20403 12.3335 4.92128V4.50065C12.3335 4.01442 12.1403 3.54811 11.7965 3.20429C11.4527 2.86047 10.9864 2.66732 10.5002 2.66732C10.0139 2.66732 9.54762 2.86047 9.2038 3.20429C8.85998 3.54811 8.66683 4.01442 8.66683 4.50065C8.66683 4.86884 8.36835 5.16732 8.00016 5.16732C7.63197 5.16732 7.3335 4.86884 7.3335 4.50065C7.3335 3.6608 7.66713 2.85534 8.26099 2.26148Z" fill="#00010C"/>
<path fill-rule="evenodd" clip-rule="evenodd" d="M7.73901 2.26148C7.14514 1.66761 6.33969 1.33398 5.49984 1.33398C4.65998 1.33398 3.85453 1.66761 3.26067 2.26148C2.6709 2.85125 2.33779 3.64969 2.33322 4.48326C1.71254 4.79934 1.1915 5.28748 0.835394 5.89384C0.397085 6.64018 0.23693 7.51752 0.38327 8.37059C0.529611 9.22367 0.973011 9.99747 1.635 10.5551C2.297 11.1127 3.1349 11.4181 4.00043 11.4173H4.49984C4.86803 11.4173 5.1665 11.1188 5.1665 10.7507C5.1665 10.3825 4.86803 10.084 4.49984 10.084H3.99984C3.44904 10.0845 2.91523 9.89011 2.49397 9.53528C2.0727 9.18044 1.79053 8.68803 1.69741 8.14516C1.60428 7.6023 1.7062 7.04399 1.98512 6.56904C2.26405 6.0941 2.70199 5.73313 3.22146 5.55003C3.48813 5.45603 3.6665 5.20403 3.6665 4.92128V4.50065C3.6665 4.01442 3.85966 3.54811 4.20347 3.20429C4.54729 2.86047 5.01361 2.66732 5.49984 2.66732C5.98607 2.66732 6.45238 2.86047 6.7962 3.20429C7.14002 3.54811 7.33317 4.01442 7.33317 4.50065C7.33317 4.86884 7.63165 5.16732 7.99984 5.16732C8.36803 5.16732 8.6665 4.86884 8.6665 4.50065C8.6665 3.6608 8.33287 2.85534 7.73901 2.26148Z" fill="#00010C"/>
<path fill-rule="evenodd" clip-rule="evenodd" d="M10.5002 4.33398C10.8684 4.33398 11.1668 4.63246 11.1668 5.00065V5.25065C11.1668 5.53797 11.281 5.81352 11.4841 6.01668C11.6873 6.21985 11.9628 6.33398 12.2502 6.33398H12.5002C12.8684 6.33398 13.1668 6.63246 13.1668 7.00065C13.1668 7.36884 12.8684 7.66732 12.5002 7.66732H12.2502C11.6092 7.66732 10.9945 7.41271 10.5413 6.95949C10.0881 6.50628 9.8335 5.89159 9.8335 5.25065V5.00065C9.8335 4.63246 10.132 4.33398 10.5002 4.33398Z" fill="#00010C"/>
<path fill-rule="evenodd" clip-rule="evenodd" d="M5.50016 4.33398C5.86835 4.33398 6.16683 4.63246 6.16683 5.00065V5.25065C6.16683 5.89159 5.91222 6.50628 5.459 6.95949C5.00579 7.4127 4.3911 7.66732 3.75016 7.66732H3.50016C3.13197 7.66732 2.8335 7.36884 2.8335 7.00065C2.8335 6.63246 3.13197 6.33398 3.50016 6.33398H3.75016C4.03748 6.33398 4.31303 6.21985 4.51619 6.01668C4.71936 5.81352 4.8335 5.53797 4.8335 5.25065V5.00065C4.8335 4.63246 5.13197 4.33398 5.50016 4.33398Z" fill="#00010C"/>
</svg>
