<svg width="16" height="16" viewBox="0 0 16 16" fill="none" xmlns="http://www.w3.org/2000/svg">
<path fill-rule="evenodd" clip-rule="evenodd" d="M14.8327 13.8036V7.65384C14.8327 6.90094 14.2223 6.29059 13.4694 6.29059L11.7557 6.29059V1.83778C11.7557 1.56689 11.6481 1.3071 11.4566 1.11556C11.2651 0.924017 11.0053 0.816408 10.7344 0.816408L5.32128 0.816406C5.05039 0.816406 4.7906 0.924015 4.59906 1.11556C4.40752 1.3071 4.29991 1.56689 4.29991 1.83777L4.29991 6.37606H2.52926C1.77636 6.37606 1.16602 6.98641 1.16602 7.73931V13.8036C1.16602 14.5565 1.77636 15.1668 2.52926 15.1668L13.4694 15.1668C14.2223 15.1668 14.8327 14.5565 14.8327 13.8036ZM13.4737 7.65384V13.8036C13.4737 13.8059 13.4718 13.8079 13.4694 13.8079L2.52926 13.8079C2.5269 13.8079 2.52499 13.8059 2.52499 13.8036L2.52499 7.73931C2.52499 7.73695 2.5269 7.73504 2.52926 7.73504H4.29991V8.33777H3.72585C3.35058 8.33777 3.04636 8.64199 3.04636 9.01726C3.04636 9.39253 3.35058 9.69675 3.72585 9.69675L11.931 9.69674C12.3062 9.69674 12.6105 9.39253 12.6105 9.01726C12.6105 8.64199 12.3062 8.33777 11.931 8.33777H11.7557V7.64956L13.4694 7.64956C13.4718 7.64956 13.4737 7.65148 13.4737 7.65384ZM5.65888 2.17538L10.3968 2.17538V8.24623L5.65888 8.24623L5.65888 2.17538Z" fill="#00010C"/>
</svg>
