<?xml version="1.0" encoding="UTF-8"?>
<svg id="Layer_1" xmlns="http://www.w3.org/2000/svg" version="1.1" viewBox="0 0 24 25">
  <!-- Generator: Adobe Illustrator 29.5.1, SVG Export Plug-In . SVG Version: 2.1.0 Build 141)  -->
  <path d="M3.2,16.7c.3,0,.6.1.8.4.2.2.4.5.4.8v2.4h2.4c.3,0,.6.1.8.4.2.2.4.5.4.8,0,.3-.1.6-.4.8-.2.2-.5.4-.8.4h-3.6c-.3,0-.6-.1-.8-.4-.2-.2-.4-.5-.4-.8v-3.6c0-.3.1-.6.4-.8.2-.2.5-.4.8-.4ZM20.8,16.7c.3,0,.6.1.8.4s.4.5.4.8v3.6c0,.3-.1.6-.4.8-.2.2-.5.4-.8.4h-3.6c-.3,0-.6-.1-.8-.4-.2-.2-.4-.5-.4-.8,0-.3.1-.6.4-.8.2-.2.5-.4.8-.4h2.4v-2.4c0-.3.1-.6.4-.8.2-.2.5-.4.8-.4ZM12,6c1.6,0,3.1.3,4.3,1,1.3.7,2,1.7,2,2.8v6c0,1.1-.7,2.1-2,2.8-1.1.6-2.7,1-4.3,1s-3.1-.3-4.2-1c-1.3-.7-2-1.7-2-2.8v-6c0-1.1.7-2.1,2-2.8,1.1-.6,2.7-1,4.2-1ZM16.7,15.2c-.2.1-.3.2-.5.3-1.1.6-2.7,1-4.3,1s-3.1-.3-4.2-1c-.2,0-.3-.2-.5-.3v.5c0,1.1,2,2.2,4.7,2.2s4.8-1.2,4.8-2.2v-.5ZM16.7,12.2c-.2.1-.3.2-.5.3-1.1.6-2.7,1-4.3,1s-3.1-.3-4.2-1c-.2,0-.3-.2-.5-.3v.5c0,1.1,2,2.2,4.7,2.2s4.8-1.2,4.8-2.2v-.5ZM12,7.5c-2.8,0-4.7,1.2-4.7,2.3s2,2.2,4.7,2.2,4.8-1.2,4.8-2.2-2-2.3-4.8-2.3ZM6.8,2.7c.3,0,.6.1.8.4.2.2.4.5.4.8,0,.3-.1.6-.4.8-.2.2-.5.4-.8.4h-2.4v2.4c0,.3-.1.6-.4.8-.2.2-.5.4-.8.4-.3,0-.6-.1-.8-.4-.2-.2-.4-.5-.4-.8v-3.6c0-.3.1-.6.4-.8.2-.2.5-.4.8-.4h3.6ZM20.8,2.7c.3,0,.6.1.8.4.2.2.4.5.4.8v3.6c0,.3-.1.6-.4.8-.2.2-.5.4-.8.4-.3,0-.6-.1-.8-.4-.2-.2-.4-.5-.4-.8v-2.4h-2.4c-.3,0-.6-.1-.8-.4-.2-.2-.4-.5-.4-.8,0-.3.1-.6.4-.8.2-.2.5-.4.8-.4h3.6Z"/>
</svg>