<svg width="24" height="25" viewBox="0 0 24 25" fill="none" xmlns="http://www.w3.org/2000/svg">
<path d="M3.19922 16.7285C3.51741 16.7286 3.82285 16.8551 4.04785 17.0801C4.27277 17.3051 4.39941 17.6105 4.39941 17.9287V20.3281H6.79883C7.117 20.3281 7.42244 20.4548 7.64746 20.6797C7.87246 20.9047 7.99897 21.2101 7.99902 21.5283C7.99902 21.8466 7.8725 22.1519 7.64746 22.377C7.42242 22.602 7.11709 22.7285 6.79883 22.7285H3.19922C2.88096 22.7285 2.57563 22.602 2.35059 22.377C2.12554 22.1519 1.99902 21.8466 1.99902 21.5283V17.9287C1.99902 17.6105 2.12554 17.3051 2.35059 17.0801C2.57563 16.855 2.88096 16.7285 3.19922 16.7285ZM20.7988 16.7285C21.1171 16.7285 21.4224 16.855 21.6475 17.0801C21.8725 17.3051 21.999 17.6105 21.999 17.9287V21.5283C21.999 21.8466 21.8725 22.1519 21.6475 22.377C21.4224 22.602 21.1171 22.7285 20.7988 22.7285H17.1992C16.881 22.7285 16.5756 22.602 16.3506 22.377C16.1255 22.1519 15.999 21.8466 15.999 21.5283C15.9991 21.2101 16.1256 20.9047 16.3506 20.6797C16.5756 20.4548 16.8811 20.3281 17.1992 20.3281H19.5986V17.9287C19.5986 17.6105 19.7253 17.3051 19.9502 17.0801C20.1752 16.8551 20.4806 16.7286 20.7988 16.7285ZM11.999 5.97852C13.5915 5.97852 15.1003 6.32266 16.249 6.94824C17.5384 7.65262 18.249 8.63977 18.249 9.72852V15.7285C18.249 16.8173 17.5403 17.8044 16.249 18.5088C15.1003 19.1344 13.5933 19.4785 11.999 19.4785C10.4047 19.4785 8.89588 19.1337 7.74902 18.5088C6.45965 17.8044 5.74902 16.8173 5.74902 15.7285V9.72852C5.74902 8.63977 6.45965 7.65262 7.74902 6.94824C8.89776 6.32266 10.4066 5.97852 11.999 5.97852ZM16.749 15.2002C16.588 15.3118 16.4209 15.4148 16.249 15.5088C15.1003 16.1344 13.5933 16.4785 11.999 16.4785C10.4047 16.4785 8.89588 16.1337 7.74902 15.5088C7.5771 15.4148 7.41007 15.3118 7.24902 15.2002V15.7285C7.24902 16.791 9.19965 17.9785 11.999 17.9785C14.7984 17.9785 16.749 16.791 16.749 15.7285V15.2002ZM16.749 12.2002C16.588 12.3118 16.4209 12.4148 16.249 12.5088C15.1003 13.1344 13.5933 13.4785 11.999 13.4785C10.4047 13.4785 8.89588 13.1337 7.74902 12.5088C7.5771 12.4148 7.41007 12.3118 7.24902 12.2002V12.7285C7.24902 13.791 9.19965 14.9785 11.999 14.9785C14.7984 14.9785 16.749 13.791 16.749 12.7285V12.2002ZM11.999 7.47852C9.19965 7.47852 7.24902 8.66602 7.24902 9.72852C7.24902 10.791 9.19965 11.9785 11.999 11.9785C14.7984 11.9785 16.749 10.791 16.749 9.72852C16.749 8.66602 14.7984 7.47852 11.999 7.47852ZM6.79883 2.72852C7.11709 2.72852 7.42242 2.85503 7.64746 3.08008C7.8725 3.30512 7.99902 3.61045 7.99902 3.92871C7.99897 4.2469 7.87246 4.55235 7.64746 4.77734C7.42244 5.00227 7.117 5.12891 6.79883 5.12891H4.39941V7.52832C4.39941 7.84649 4.27277 8.15193 4.04785 8.37695C3.82285 8.60195 3.51741 8.72846 3.19922 8.72852C2.88096 8.72852 2.57563 8.602 2.35059 8.37695C2.12554 8.15191 1.99902 7.84658 1.99902 7.52832V3.92871C1.99902 3.61045 2.12554 3.30512 2.35059 3.08008C2.57563 2.85503 2.88096 2.72852 3.19922 2.72852H6.79883ZM20.7988 2.72852C21.1171 2.72852 21.4224 2.85503 21.6475 3.08008C21.8725 3.30512 21.999 3.61045 21.999 3.92871V7.52832C21.999 7.84658 21.8725 8.15191 21.6475 8.37695C21.4224 8.602 21.1171 8.72852 20.7988 8.72852C20.4806 8.72846 20.1752 8.60195 19.9502 8.37695C19.7253 8.15193 19.5986 7.84649 19.5986 7.52832V5.12891H17.1992C16.8811 5.12891 16.5756 5.00227 16.3506 4.77734C16.1256 4.55235 15.9991 4.2469 15.999 3.92871C15.999 3.61045 16.1255 3.30512 16.3506 3.08008C16.5756 2.85503 16.881 2.72852 17.1992 2.72852H20.7988Z" fill="#F0F0FF"/>
</svg>
