<svg width="1605" height="1332" viewBox="0 0 1605 1332" fill="none" xmlns="http://www.w3.org/2000/svg">
<g clip-path="url(#clip0_938_100671)">
<path d="M2 175.2V117.47L202 232.94V290.67L2 175.2Z" fill="#5032E4"/>
<path d="M1 115.738C1.61872 115.38 2.38128 115.38 3 115.738L203 231.208C203.619 231.566 204 232.225 204 232.94V290.67C204 291.385 203.619 292.044 203 292.402C202.381 292.759 201.619 292.759 201 292.402L1 176.932C0.381368 176.575 0.00016819 175.915 0 175.2V117.47L0.00488281 117.337C0.0488955 116.674 0.419747 116.073 1 115.738ZM4 174.045L200 287.205V234.094L4 120.934V174.045Z" fill="white"/>
<path d="M402 117.47L202 232.94V290.67L402 175.2V117.47Z" fill="#5032E4"/>
<path d="M401.117 115.675C401.713 115.382 402.42 115.403 403 115.738C403.619 116.095 404 116.755 404 117.47V175.2C404 175.915 403.619 176.575 403 176.932L203 292.402C202.381 292.759 201.619 292.759 201 292.402C200.381 292.044 200 291.385 200 290.67V232.94C200 232.225 200.381 231.566 201 231.208L401 115.738L401.117 115.675ZM204 234.094V287.205L400 174.045V120.934L204 234.094Z" fill="white"/>
<path d="M2 117.47L202 2L402 117.47L202 232.94L2 117.47Z" fill="#5032E4"/>
<path d="M201.117 0.205077C201.713 -0.0881377 202.42 -0.0673332 203 0.267577L403 115.738C403.619 116.096 404 116.755 404 117.47C404 118.184 403.619 118.845 403 119.202L203 234.672C202.381 235.029 201.619 235.029 201 234.672L1 119.202C0.381198 118.845 0 118.184 0 117.47C9.76642e-05 116.755 0.381362 116.096 1 115.738L201 0.267577L201.117 0.205077ZM5.99902 117.47L202 230.63L398 117.47L202 4.30957L5.99902 117.47Z" fill="white"/>
<path d="M202 232.94V175.2L402.01 290.67V348.41L202 232.94Z" fill="white"/>
<path d="M201 173.468C201.619 173.11 202.381 173.11 203 173.468L403.01 288.938C403.629 289.295 404.01 289.955 404.01 290.67V348.41C404.01 349.124 403.629 349.785 403.01 350.142C402.391 350.499 401.628 350.5 401.01 350.142L201 234.672C200.381 234.314 200 233.655 200 232.94V175.2L200.005 175.067C200.049 174.404 200.42 173.803 201 173.468ZM204 231.785L400.01 344.945V291.824L204 178.664V231.785Z" fill="#231F20"/>
<path d="M602.01 175.2L402.01 290.67V348.41L602.01 232.94V175.2Z" fill="white"/>
<path d="M601.127 173.405C601.723 173.112 602.43 173.133 603.01 173.468C603.629 173.825 604.01 174.485 604.01 175.2V232.94C604.01 233.655 603.629 234.314 603.01 234.672L403.01 350.142C402.391 350.5 401.629 350.5 401.01 350.142C400.391 349.785 400.01 349.124 400.01 348.41V290.67C400.01 289.955 400.391 289.296 401.01 288.938L601.01 173.468L601.127 173.405ZM404.01 291.824V344.945L600.01 231.785V178.664L404.01 291.824Z" fill="#231F20"/>
<path d="M202 175.2L402 59.74L602.01 175.2L402.01 290.67L202 175.2Z" fill="white"/>
<path d="M401.118 57.9451C401.714 57.6523 402.42 57.6728 403 58.0076L603.01 173.468C603.629 173.825 604.01 174.485 604.01 175.2C604.01 175.915 603.629 176.575 603.01 176.932L403.01 292.402C402.391 292.759 401.628 292.759 401.01 292.402L201 176.932C200.381 176.575 200 175.915 200 175.2C200 174.485 200.381 173.825 201 173.468L401 58.0076L401.118 57.9451ZM206 175.2L402.009 288.36L598.009 175.2L402 62.0496L206 175.2Z" fill="#231F20"/>
<path d="M402.01 290.67V232.94L602.01 348.41V406.14L402.01 290.67Z" fill="white"/>
<path d="M401.01 231.208C401.629 230.85 402.391 230.85 403.01 231.208L603.01 346.678C603.629 347.036 604.01 347.695 604.01 348.41V406.14C604.01 406.855 603.629 407.514 603.01 407.872C602.391 408.229 601.629 408.229 601.01 407.872L401.01 292.402C400.391 292.045 400.01 291.385 400.01 290.67V232.94L400.015 232.807C400.059 232.144 400.43 231.543 401.01 231.208ZM404.01 289.515L600.01 402.675V349.564L404.01 236.404V289.515Z" fill="#231F20"/>
<path d="M802.01 232.94L602.01 348.41V406.14L802.01 290.67V232.94Z" fill="white"/>
<path d="M801.127 231.145C801.723 230.852 802.43 230.873 803.01 231.208C803.629 231.565 804.01 232.225 804.01 232.94V290.67C804.01 291.385 803.629 292.045 803.01 292.402L603.01 407.872C602.391 408.229 601.629 408.229 601.01 407.872C600.391 407.514 600.01 406.855 600.01 406.14V348.41C600.01 347.695 600.391 347.036 601.01 346.678L801.01 231.208L801.127 231.145ZM604.01 349.564V402.675L800.01 289.515V236.404L604.01 349.564Z" fill="#231F20"/>
<path d="M402.01 232.94L602.01 117.47L802.01 232.94L602.01 348.41L402.01 232.94Z" fill="white"/>
<path d="M601.127 115.675C601.723 115.382 602.43 115.403 603.01 115.738L803.01 231.208C803.629 231.566 804.01 232.225 804.01 232.94C804.01 233.654 803.629 234.315 803.01 234.672L603.01 350.142C602.391 350.499 601.629 350.499 601.01 350.142L401.01 234.672C400.391 234.315 400.01 233.654 400.01 232.94C400.01 232.225 400.391 231.566 401.01 231.208L601.01 115.738L601.127 115.675ZM406.009 232.94L602.01 346.1L798.01 232.94L602.01 119.78L406.009 232.94Z" fill="#231F20"/>
<path d="M602.01 348.41V290.67L802.02 406.14V463.88L602.01 348.41Z" fill="white"/>
<path d="M601.01 288.938C601.629 288.58 602.391 288.58 603.01 288.938L803.02 404.408C803.639 404.766 804.02 405.425 804.02 406.14V463.88C804.02 464.594 803.639 465.255 803.02 465.612C802.401 465.969 801.638 465.97 801.02 465.612L601.01 350.142C600.391 349.784 600.01 349.125 600.01 348.41V290.67L600.015 290.537C600.059 289.874 600.43 289.273 601.01 288.938ZM604.01 347.255L800.02 460.415V407.294L604.01 294.134V347.255Z" fill="#231F20"/>
<path d="M1002.02 290.67L802.02 406.14V463.88L1002.01 348.41L1002.02 290.67Z" fill="white"/>
<path d="M1001.02 288.938C1001.64 288.58 1002.4 288.58 1003.02 288.938C1003.64 289.295 1004.02 289.956 1004.02 290.67L1004.01 348.41C1004.01 349.125 1003.63 349.784 1003.01 350.142L803.02 465.612C802.401 465.97 801.639 465.97 801.02 465.612C800.401 465.255 800.02 464.595 800.02 463.88V406.14C800.02 405.425 800.401 404.766 801.02 404.408L1001.02 288.938ZM804.02 407.294V460.415L1000.01 347.255L1000.02 294.134L804.02 407.294Z" fill="#231F20"/>
<path d="M602.01 290.67L802.01 175.21L1002.02 290.67L802.02 406.14L602.01 290.67Z" fill="white"/>
<path d="M801.128 173.415C801.724 173.122 802.43 173.143 803.01 173.478L1003.02 288.938C1003.64 289.295 1004.02 289.955 1004.02 290.67C1004.02 291.385 1003.64 292.045 1003.02 292.402L803.02 407.872C802.401 408.229 801.639 408.229 801.02 407.872L601.01 292.402C600.391 292.045 600.01 291.385 600.01 290.67C600.01 289.955 600.391 289.295 601.01 288.938L801.01 173.478L801.128 173.415ZM606.01 290.67L802.019 403.83L998.019 290.67L802.01 177.52L606.01 290.67Z" fill="#231F20"/>
<path d="M802.02 406.14V348.41L1002.02 463.88V521.62L802.02 406.14Z" fill="white"/>
<path d="M801.02 346.678C801.639 346.32 802.401 346.32 803.02 346.678L1003.02 462.148C1003.64 462.506 1004.02 463.165 1004.02 463.88V521.62C1004.02 522.335 1003.64 522.995 1003.02 523.352C1002.4 523.71 1001.64 523.71 1001.02 523.352L801.02 407.872C800.401 407.515 800.02 406.855 800.02 406.14V348.41L800.025 348.277C800.069 347.614 800.44 347.013 801.02 346.678ZM804.02 404.985L1000.02 518.155V465.034L804.02 351.874V404.985Z" fill="#231F20"/>
<path d="M1202.02 348.41L1002.02 463.88V521.62L1202.02 406.14V348.41Z" fill="white"/>
<path d="M1201.14 346.615C1201.73 346.322 1202.44 346.343 1203.02 346.678C1203.64 347.035 1204.02 347.695 1204.02 348.41V406.14C1204.02 406.855 1203.64 407.515 1203.02 407.872L1003.02 523.352C1002.4 523.71 1001.64 523.71 1001.02 523.352C1000.4 522.995 1000.02 522.335 1000.02 521.62V463.88C1000.02 463.165 1000.4 462.506 1001.02 462.148L1201.02 346.678L1201.14 346.615ZM1004.02 465.034V518.155L1200.02 404.985V351.874L1004.02 465.034Z" fill="#231F20"/>
<path d="M802.02 348.41L1002.02 232.94L1202.02 348.41L1002.02 463.88L802.02 348.41Z" fill="white"/>
<path d="M1001.14 231.145C1001.73 230.852 1002.44 230.873 1003.02 231.208L1203.02 346.678C1203.64 347.036 1204.02 347.695 1204.02 348.41C1204.02 349.124 1203.64 349.785 1203.02 350.142L1003.02 465.612C1002.4 465.969 1001.64 465.969 1001.02 465.612L801.02 350.142C800.401 349.785 800.02 349.124 800.02 348.41C800.02 347.695 800.401 347.036 801.02 346.678L1001.02 231.208L1001.14 231.145ZM806.019 348.41L1002.02 461.57L1198.02 348.41L1002.02 235.25L806.019 348.41Z" fill="#231F20"/>
<path d="M1002.02 463.88V406.14L1202.02 521.61V579.35L1002.02 463.88Z" fill="white"/>
<path d="M1001.02 404.408C1001.64 404.05 1002.4 404.05 1003.02 404.408L1203.02 519.878C1203.64 520.236 1204.02 520.895 1204.02 521.61V579.35C1204.02 580.065 1203.64 580.725 1203.02 581.082C1202.4 581.44 1201.64 581.44 1201.02 581.082L1001.02 465.612C1000.4 465.254 1000.02 464.595 1000.02 463.88V406.14C1000.02 405.425 1000.4 404.765 1001.02 404.408ZM1004.02 462.725L1200.02 575.885V522.764L1004.02 409.604V462.725Z" fill="#231F20"/>
<path d="M1402.02 406.14L1202.02 521.61V579.35L1402.02 463.88V406.14Z" fill="white"/>
<path d="M1401.02 404.408C1401.64 404.05 1402.4 404.05 1403.02 404.408C1403.64 404.765 1404.02 405.425 1404.02 406.14V463.88C1404.02 464.595 1403.64 465.254 1403.02 465.612L1203.02 581.082C1202.4 581.44 1201.64 581.44 1201.02 581.082C1200.4 580.725 1200.02 580.065 1200.02 579.35V521.61L1200.02 521.477C1200.07 520.814 1200.44 520.213 1201.02 519.878L1401.02 404.408ZM1204.02 522.764V575.885L1400.02 462.725V409.604L1204.02 522.764Z" fill="#231F20"/>
<path d="M1002.02 406.14L1202.02 290.68L1402.02 406.14L1202.02 521.61L1002.02 406.14Z" fill="white"/>
<path d="M1201.14 288.885C1201.73 288.592 1202.44 288.613 1203.02 288.948L1403.02 404.408L1403.13 404.479C1403.68 404.848 1404.02 405.47 1404.02 406.14C1404.02 406.855 1403.64 407.515 1403.02 407.872L1203.02 523.342C1202.4 523.699 1201.64 523.699 1201.02 523.342L1001.02 407.872C1000.4 407.515 1000.02 406.855 1000.02 406.14C1000.02 405.425 1000.4 404.765 1001.02 404.408L1201.02 288.948L1201.14 288.885ZM1006.02 406.14L1202.02 519.3L1398.02 406.14L1202.02 292.99L1006.02 406.14Z" fill="#231F20"/>
<path d="M1202.02 521.61V463.88L1402.03 579.35V637.09L1202.02 521.61Z" fill="#5032E4"/>
<path d="M1201.02 462.148C1201.64 461.79 1202.4 461.79 1203.02 462.148L1403.03 577.618C1403.65 577.976 1404.03 578.635 1404.03 579.35V637.09C1404.03 637.805 1403.65 638.465 1403.03 638.822C1402.41 639.179 1401.65 639.18 1401.03 638.822L1201.02 523.342C1200.4 522.985 1200.02 522.325 1200.02 521.61V463.88L1200.02 463.747C1200.07 463.084 1200.44 462.483 1201.02 462.148ZM1204.02 520.455L1400.03 633.625V580.504L1204.02 467.344V520.455Z" fill="white"/>
<path d="M1602.03 463.88L1402.03 579.35V637.09L1602.03 521.61V463.88Z" fill="#5032E4"/>
<path d="M1601.03 462.148C1601.65 461.79 1602.41 461.79 1603.03 462.148C1603.65 462.505 1604.03 463.165 1604.03 463.88V521.61C1604.03 522.325 1603.65 522.985 1603.03 523.342L1403.03 638.822C1402.41 639.18 1401.65 639.18 1401.03 638.822C1400.41 638.465 1400.03 637.805 1400.03 637.09V579.35L1400.03 579.217C1400.08 578.554 1400.45 577.953 1401.03 577.618L1601.03 462.148ZM1404.03 580.504V633.625L1600.03 520.455V467.344L1404.03 580.504Z" fill="white"/>
<path d="M1202.02 463.88L1402.02 348.41L1602.03 463.88L1402.03 579.35L1202.02 463.88Z" fill="#5032E4"/>
<path d="M1401.14 346.615C1401.73 346.322 1402.44 346.343 1403.02 346.678L1603.03 462.148C1603.65 462.506 1604.03 463.165 1604.03 463.88C1604.03 464.594 1603.65 465.255 1603.03 465.612L1403.03 581.082C1402.41 581.439 1401.65 581.439 1401.03 581.082L1201.02 465.612C1200.4 465.255 1200.02 464.594 1200.02 463.88C1200.02 463.165 1200.4 462.506 1201.02 462.148L1401.02 346.678L1401.14 346.615ZM1206.02 463.88L1402.03 577.04L1598.03 463.88L1402.02 350.72L1206.02 463.88Z" fill="white"/>
<path d="M1002.02 579.35V521.61L1202.03 637.08V694.82L1002.02 579.35Z" fill="white"/>
<path d="M1001.02 519.878C1001.64 519.52 1002.4 519.52 1003.02 519.878L1203.03 635.348C1203.65 635.706 1204.03 636.365 1204.03 637.08V694.82C1204.03 695.535 1203.65 696.195 1203.03 696.552C1202.41 696.909 1201.65 696.91 1201.03 696.552L1001.02 581.082C1000.4 580.724 1000.02 580.065 1000.02 579.35V521.61L1000.02 521.477C1000.07 520.814 1000.44 520.213 1001.02 519.878ZM1004.02 578.195L1200.03 691.355V638.234L1004.02 525.074V578.195Z" fill="#231F20"/>
<path d="M1402.03 521.61L1202.03 637.08V694.82L1402.03 579.35V521.61Z" fill="white"/>
<path d="M1401.03 519.878C1401.65 519.52 1402.41 519.52 1403.03 519.878C1403.65 520.235 1404.03 520.895 1404.03 521.61V579.35C1404.03 580.02 1403.69 580.642 1403.14 581.011L1403.03 581.082L1203.03 696.552C1202.41 696.91 1201.65 696.91 1201.03 696.552C1200.41 696.195 1200.03 695.535 1200.03 694.82V637.08L1200.03 636.947C1200.08 636.284 1200.45 635.683 1201.03 635.348L1401.03 519.878ZM1204.03 638.234V691.355L1400.03 578.195V525.074L1204.03 638.234Z" fill="#231F20"/>
<path d="M1002.02 521.61L1202.03 406.14L1402.03 521.61L1202.03 637.08L1002.02 521.61Z" fill="white"/>
<path d="M1201.15 404.345C1201.74 404.052 1202.45 404.073 1203.03 404.408L1403.03 519.878C1403.65 520.236 1404.03 520.895 1404.03 521.61C1404.03 522.324 1403.65 522.985 1403.03 523.342L1203.03 638.812C1202.41 639.169 1201.65 639.169 1201.03 638.812L1001.02 523.342C1000.4 522.985 1000.02 522.324 1000.02 521.61C1000.02 520.895 1000.4 520.236 1001.02 519.878L1201.03 404.408L1201.15 404.345ZM1006.02 521.61L1202.03 634.77L1398.03 521.61L1202.03 408.45L1006.02 521.61Z" fill="#231F20"/>
<path d="M802.03 637.08V579.35L1002.03 694.82V752.55L802.03 637.08Z" fill="white"/>
<path d="M801.03 577.618C801.649 577.26 802.411 577.26 803.03 577.618L1003.03 693.088C1003.65 693.446 1004.03 694.105 1004.03 694.82V752.55C1004.03 753.265 1003.65 753.924 1003.03 754.282C1002.41 754.639 1001.65 754.639 1001.03 754.282L801.03 638.812C800.411 638.455 800.03 637.795 800.03 637.08V579.35C800.03 578.635 800.411 577.975 801.03 577.618ZM804.03 635.925L1000.03 749.085V695.974L804.03 582.814V635.925Z" fill="#231F20"/>
<path d="M1202.03 579.35L1002.03 694.82V752.55L1202.03 637.08V579.35Z" fill="white"/>
<path d="M1201.03 577.618C1201.65 577.26 1202.41 577.26 1203.03 577.618C1203.65 577.975 1204.03 578.635 1204.03 579.35V637.08C1204.03 637.795 1203.65 638.455 1203.03 638.812L1003.03 754.282C1002.41 754.639 1001.65 754.639 1001.03 754.282C1000.41 753.924 1000.03 753.265 1000.03 752.55V694.82L1000.03 694.687C1000.08 694.024 1000.45 693.423 1001.03 693.088L1201.03 577.618ZM1004.03 695.974V749.085L1200.03 635.925V582.814L1004.03 695.974Z" fill="#231F20"/>
<path d="M802.03 579.35L1002.03 463.88L1202.03 579.35L1002.03 694.82L802.03 579.35Z" fill="white"/>
<path d="M1001.15 462.085C1001.74 461.792 1002.45 461.813 1003.03 462.148L1203.03 577.618C1203.65 577.976 1204.03 578.635 1204.03 579.35C1204.03 580.064 1203.65 580.725 1203.03 581.082L1003.03 696.552C1002.41 696.909 1001.65 696.909 1001.03 696.552L801.03 581.082C800.411 580.725 800.03 580.064 800.03 579.35C800.03 578.635 800.411 577.976 801.03 577.618L1001.03 462.148L1001.15 462.085ZM806.029 579.35L1002.03 692.51L1198.03 579.35L1002.03 466.19L806.029 579.35Z" fill="#231F20"/>
<path d="M602.03 694.82V637.08L802.03 752.55V810.29L602.03 694.82Z" fill="white"/>
<path d="M601.03 635.348C601.649 634.99 602.411 634.99 603.03 635.348L803.03 750.818C803.649 751.176 804.03 751.835 804.03 752.55V810.29C804.03 811.004 803.649 811.665 803.03 812.022C802.411 812.38 801.649 812.38 801.03 812.022L601.03 696.552C600.411 696.194 600.03 695.535 600.03 694.82V637.08C600.03 636.365 600.411 635.705 601.03 635.348ZM604.03 693.665L800.03 806.825V753.704L604.03 640.544V693.665Z" fill="#231F20"/>
<path d="M1002.03 637.08L802.03 752.55V810.29L1002.03 694.82V637.08Z" fill="white"/>
<path d="M1001.03 635.348C1001.65 634.99 1002.41 634.99 1003.03 635.348C1003.65 635.705 1004.03 636.365 1004.03 637.08V694.82C1004.03 695.535 1003.65 696.194 1003.03 696.552L803.03 812.022C802.411 812.38 801.649 812.38 801.03 812.022C800.411 811.665 800.03 811.004 800.03 810.29V752.55L800.035 752.417C800.079 751.754 800.45 751.153 801.03 750.818L1001.03 635.348ZM804.03 753.704V806.825L1000.03 693.665V640.544L804.03 753.704Z" fill="#231F20"/>
<path d="M602.03 637.08L802.03 521.61L1002.03 637.08L802.03 752.55L602.03 637.08Z" fill="white"/>
<path d="M801.147 519.815C801.743 519.522 802.45 519.543 803.03 519.878L1003.03 635.348C1003.65 635.706 1004.03 636.365 1004.03 637.08C1004.03 637.794 1003.65 638.455 1003.03 638.812L803.03 754.282C802.411 754.639 801.649 754.639 801.03 754.282L601.03 638.812C600.411 638.455 600.03 637.794 600.03 637.08C600.03 636.365 600.411 635.706 601.03 635.348L801.03 519.878L801.147 519.815ZM606.029 637.08L802.03 750.24L998.03 637.08L802.03 523.92L606.029 637.08Z" fill="#231F20"/>
<path d="M402.03 752.55V694.82L602.03 810.29V868.02L402.03 752.55Z" fill="white"/>
<path d="M401.03 693.088C401.649 692.73 402.411 692.73 403.03 693.088L603.03 808.558C603.649 808.916 604.03 809.575 604.03 810.29V868.02C604.03 868.735 603.649 869.394 603.03 869.752C602.411 870.109 601.649 870.109 601.03 869.752L401.03 754.282C400.411 753.925 400.03 753.265 400.03 752.55V694.82L400.035 694.687C400.079 694.024 400.45 693.423 401.03 693.088ZM404.03 751.395L600.03 864.555V811.444L404.03 698.284V751.395Z" fill="#231F20"/>
<path d="M802.03 694.82L602.03 810.29V868.02L802.03 752.55V694.82Z" fill="white"/>
<path d="M801.03 693.088C801.649 692.73 802.411 692.73 803.03 693.088C803.649 693.445 804.03 694.105 804.03 694.82V752.55C804.03 753.22 803.695 753.842 803.143 754.212L803.03 754.282L603.03 869.752C602.411 870.109 601.649 870.109 601.03 869.752C600.411 869.394 600.03 868.735 600.03 868.02V810.29L600.035 810.157C600.079 809.494 600.45 808.893 601.03 808.558L801.03 693.088ZM604.03 811.444V864.555L800.03 751.395V698.284L604.03 811.444Z" fill="#231F20"/>
<path d="M402.03 694.82L602.03 579.35L802.03 694.82L602.03 810.29L402.03 694.82Z" fill="white"/>
<path d="M601.147 577.555C601.743 577.262 602.45 577.283 603.03 577.618L803.03 693.088C803.649 693.445 804.03 694.105 804.03 694.82C804.03 695.534 803.649 696.195 803.03 696.552L603.03 812.022C602.411 812.379 601.649 812.379 601.03 812.022L401.03 696.552C400.411 696.195 400.03 695.534 400.03 694.82C400.03 694.105 400.411 693.445 401.03 693.088L601.03 577.618L601.147 577.555ZM406.029 694.82L602.03 807.98L798.03 694.82L602.03 581.66L406.029 694.82Z" fill="#231F20"/>
<path d="M202.03 810.29V752.55L402.03 868.02V925.76L202.03 810.29Z" fill="white"/>
<path d="M201.03 750.818C201.649 750.46 202.411 750.46 203.03 750.818L403.03 866.288C403.649 866.645 404.03 867.305 404.03 868.02V925.76C404.03 926.474 403.649 927.135 403.03 927.492C402.411 927.85 401.649 927.85 401.03 927.492L201.03 812.022C200.411 811.664 200.03 811.005 200.03 810.29V752.55C200.03 751.835 200.411 751.175 201.03 750.818ZM204.03 809.135L400.03 922.295V869.174L204.03 756.014V809.135Z" fill="#231F20"/>
<path d="M602.03 752.55L402.03 868.02V925.76L602.03 810.29V752.55Z" fill="white"/>
<path d="M601.147 750.755C601.743 750.462 602.45 750.483 603.03 750.818C603.649 751.175 604.03 751.835 604.03 752.55V810.29C604.03 811.005 603.649 811.664 603.03 812.022L403.03 927.492C402.411 927.85 401.649 927.85 401.03 927.492C400.411 927.135 400.03 926.475 400.03 925.76V868.02L400.035 867.887C400.079 867.224 400.45 866.623 401.03 866.288L601.03 750.818L601.147 750.755ZM404.03 869.174V922.295L600.03 809.135V756.014L404.03 869.174Z" fill="#231F20"/>
<path d="M202.03 752.55L402.03 637.08L602.03 752.55L402.03 868.02L202.03 752.55Z" fill="white"/>
<path d="M401.147 635.285C401.743 634.992 402.45 635.013 403.03 635.348L603.03 750.818C603.649 751.176 604.03 751.835 604.03 752.55C604.03 753.264 603.649 753.925 603.03 754.282L403.03 869.752C402.411 870.109 401.649 870.109 401.03 869.752L201.03 754.282C200.411 753.925 200.03 753.264 200.03 752.55C200.03 751.835 200.411 751.176 201.03 750.818L401.03 635.348L401.147 635.285ZM206.029 752.55L402.03 865.71L598.03 752.55L402.03 639.39L206.029 752.55Z" fill="#231F20"/>
<path d="M2.03003 868.02V810.29L202.03 925.76V983.49L2.03003 868.02Z" fill="#5032E4"/>
<path d="M1.03003 808.558C1.64875 808.2 2.41131 808.2 3.03003 808.558L203.03 924.028C203.649 924.385 204.03 925.045 204.03 925.76V983.49C204.03 984.205 203.649 984.864 203.03 985.222C202.411 985.579 201.649 985.579 201.03 985.222L1.03003 869.752C0.411396 869.395 0.0301812 868.735 0.0300293 868.02V810.29C0.0300293 809.575 0.411227 808.915 1.03003 808.558ZM4.03003 866.865L200.03 980.025V926.914L4.03003 813.754V866.865Z" fill="white"/>
<path d="M402.03 810.29L202.03 925.76V983.49L402.03 868.02V810.29Z" fill="#5032E4"/>
<path d="M401.03 808.558C401.649 808.2 402.411 808.2 403.03 808.558C403.649 808.915 404.03 809.575 404.03 810.29V868.02C404.03 868.735 403.649 869.395 403.03 869.752L203.03 985.222C202.411 985.579 201.649 985.579 201.03 985.222C200.411 984.864 200.03 984.205 200.03 983.49V925.76L200.035 925.627C200.079 924.964 200.45 924.363 201.03 924.028L401.03 808.558ZM204.03 926.914V980.025L400.03 866.865V813.754L204.03 926.914Z" fill="white"/>
<path d="M2.03003 810.29L202.03 694.82L402.03 810.29L202.03 925.76L2.03003 810.29Z" fill="#5032E4"/>
<path d="M201.147 693.025C201.743 692.732 202.45 692.753 203.03 693.088L403.03 808.558C403.649 808.916 404.03 809.575 404.03 810.29C404.03 811.004 403.649 811.665 403.03 812.022L203.03 927.492C202.411 927.849 201.649 927.849 201.03 927.492L1.03003 812.022C0.411227 811.665 0.0300292 811.004 0.0300293 810.29C0.0301161 809.575 0.41139 808.916 1.03003 808.558L201.03 693.088L201.147 693.025ZM6.02905 810.29L202.03 923.45L398.03 810.29L202.03 697.13L6.02905 810.29Z" fill="white"/>
<path d="M202.03 925.76V868.02L402.04 983.49V1041.23L202.03 925.76Z" fill="white"/>
<path d="M201.03 866.288C201.649 865.93 202.411 865.93 203.03 866.288L403.04 981.758C403.659 982.116 404.04 982.775 404.04 983.49V1041.23C404.04 1041.94 403.659 1042.61 403.04 1042.96C402.421 1043.32 401.658 1043.32 401.04 1042.96L201.03 927.492C200.411 927.134 200.03 926.475 200.03 925.76V868.02L200.035 867.887C200.079 867.224 200.45 866.623 201.03 866.288ZM204.03 924.605L400.04 1037.77V984.644L204.03 871.484V924.605Z" fill="#231F20"/>
<path d="M602.04 868.02L402.04 983.49V1041.23L602.04 925.76V868.02Z" fill="white"/>
<path d="M601.157 866.225C601.753 865.932 602.46 865.953 603.04 866.288C603.659 866.645 604.04 867.305 604.04 868.02V925.76C604.04 926.475 603.659 927.134 603.04 927.492L403.04 1042.96C402.421 1043.32 401.659 1043.32 401.04 1042.96C400.421 1042.61 400.04 1041.94 400.04 1041.23V983.49L400.045 983.357C400.089 982.694 400.46 982.093 401.04 981.758L601.04 866.288L601.157 866.225ZM404.04 984.644V1037.77L600.04 924.605V871.484L404.04 984.644Z" fill="#231F20"/>
<path d="M202.03 868.02L402.03 752.55L602.04 868.02L402.04 983.49L202.03 868.02Z" fill="white"/>
<path d="M401.147 750.755C401.743 750.462 402.45 750.483 403.03 750.818L603.04 866.288C603.659 866.645 604.04 867.305 604.04 868.02C604.04 868.734 603.659 869.395 603.04 869.752L403.04 985.222C402.421 985.579 401.659 985.579 401.04 985.222L201.03 869.752C200.411 869.395 200.03 868.734 200.03 868.02C200.03 867.305 200.411 866.646 201.03 866.288L401.03 750.818L401.147 750.755ZM206.029 868.02L402.039 981.18L598.04 868.02L402.03 754.86L206.029 868.02Z" fill="#231F20"/>
<path d="M402.04 983.49V925.76L602.04 1041.23V1098.96L402.04 983.49Z" fill="white"/>
<path d="M401.04 924.028C401.659 923.67 402.421 923.67 403.04 924.028L603.04 1039.5C603.659 1039.86 604.04 1040.52 604.04 1041.23V1098.96C604.04 1099.67 603.659 1100.33 603.04 1100.69C602.421 1101.05 601.659 1101.05 601.04 1100.69L401.04 985.222C400.421 984.865 400.04 984.205 400.04 983.491V925.76L400.045 925.627C400.089 924.964 400.46 924.363 401.04 924.028ZM404.04 982.335L600.04 1095.5V1042.38L404.04 929.224V982.335Z" fill="#231F20"/>
<path d="M802.04 925.76L602.04 1041.23V1098.96L802.04 983.49V925.76Z" fill="white"/>
<path d="M801.04 924.028C801.659 923.67 802.421 923.67 803.04 924.028C803.659 924.385 804.04 925.046 804.04 925.76V983.491C804.04 984.205 803.659 984.865 803.04 985.222L603.04 1100.69C602.421 1101.05 601.659 1101.05 601.04 1100.69C600.421 1100.33 600.04 1099.67 600.04 1098.96V1041.23L600.045 1041.1C600.089 1040.43 600.46 1039.83 601.04 1039.5L801.04 924.028ZM604.04 1042.38V1095.5L800.04 982.335V929.224L604.04 1042.38Z" fill="#231F20"/>
<path d="M402.04 925.76L602.04 810.29L802.04 925.76L602.04 1041.23L402.04 925.76Z" fill="white"/>
<path d="M601.157 808.495C601.753 808.202 602.46 808.223 603.04 808.558L803.04 924.028C803.659 924.386 804.04 925.045 804.04 925.76C804.04 926.474 803.659 927.135 803.04 927.492L603.04 1042.96C602.421 1043.32 601.659 1043.32 601.04 1042.96L401.04 927.492C400.421 927.135 400.04 926.474 400.04 925.76C400.04 925.045 400.421 924.385 401.04 924.028L601.04 808.558L601.157 808.495ZM406.039 925.76L602.04 1038.92L798.04 925.76L602.04 812.6L406.039 925.76Z" fill="#231F20"/>
<path d="M602.04 1041.23V983.49L802.04 1098.96V1156.7L602.04 1041.23Z" fill="white"/>
<path d="M601.04 981.758C601.659 981.4 602.421 981.4 603.04 981.758L803.04 1097.23C803.659 1097.59 804.04 1098.25 804.04 1098.96V1156.7C804.04 1157.41 803.659 1158.08 803.04 1158.43C802.421 1158.79 801.659 1158.79 801.04 1158.43L601.04 1042.96C600.421 1042.6 600.04 1041.94 600.04 1041.23V983.49C600.04 982.775 600.421 982.115 601.04 981.758ZM604.04 1040.07L800.04 1153.24V1100.11L604.04 986.954V1040.07Z" fill="#231F20"/>
<path d="M1002.04 983.49L802.04 1098.96V1156.7L1002.04 1041.23V983.49Z" fill="white"/>
<path d="M1001.04 981.758C1001.66 981.4 1002.42 981.4 1003.04 981.758C1003.66 982.115 1004.04 982.775 1004.04 983.49V1041.23C1004.04 1041.94 1003.66 1042.6 1003.04 1042.96L803.04 1158.43C802.421 1158.79 801.659 1158.79 801.04 1158.43C800.421 1158.08 800.04 1157.41 800.04 1156.7V1098.96L800.045 1098.83C800.089 1098.16 800.46 1097.56 801.04 1097.23L1001.04 981.758ZM804.04 1100.11V1153.24L1000.04 1040.07V986.954L804.04 1100.11Z" fill="#231F20"/>
<path d="M602.04 983.49L802.04 868.02L1002.04 983.49L802.04 1098.96L602.04 983.49Z" fill="white"/>
<path d="M801.157 866.225C801.753 865.932 802.46 865.953 803.04 866.288L1003.04 981.758C1003.66 982.116 1004.04 982.775 1004.04 983.49C1004.04 984.204 1003.66 984.865 1003.04 985.222L803.04 1100.69C802.421 1101.05 801.659 1101.05 801.04 1100.69L601.04 985.222C600.421 984.865 600.04 984.204 600.04 983.49C600.04 982.775 600.421 982.116 601.04 981.758L801.04 866.288L801.157 866.225ZM606.039 983.49L802.04 1096.65L998.04 983.49L802.04 870.33L606.039 983.49Z" fill="#231F20"/>
<path d="M802.04 1098.96V1041.23L1002.05 1156.7V1214.43L802.04 1098.96Z" fill="white"/>
<path d="M801.04 1039.5C801.659 1039.14 802.421 1039.14 803.04 1039.5L1003.05 1154.97C1003.67 1155.33 1004.05 1155.99 1004.05 1156.7V1214.43C1004.05 1215.14 1003.67 1215.8 1003.05 1216.16C1002.43 1216.52 1001.67 1216.52 1001.05 1216.16L801.04 1100.69C800.421 1100.33 800.04 1099.67 800.04 1098.96V1041.23L800.045 1041.1C800.089 1040.43 800.46 1039.83 801.04 1039.5ZM804.04 1097.81L1000.05 1210.97V1157.85L804.04 1044.69V1097.81Z" fill="#231F20"/>
<path d="M1202.05 1041.23L1002.05 1156.7V1214.43L1202.05 1098.96V1041.23Z" fill="white"/>
<path d="M1201.17 1039.44C1201.76 1039.14 1202.47 1039.16 1203.05 1039.5C1203.67 1039.85 1204.05 1040.52 1204.05 1041.23V1098.96C1204.05 1099.67 1203.67 1100.33 1203.05 1100.69L1003.05 1216.16C1002.43 1216.52 1001.67 1216.52 1001.05 1216.16C1000.43 1215.8 1000.05 1215.14 1000.05 1214.43V1156.7L1000.05 1156.57C1000.1 1155.9 1000.47 1155.3 1001.05 1154.97L1201.05 1039.5L1201.17 1039.44ZM1004.05 1157.85V1210.97L1200.05 1097.81V1044.69L1004.05 1157.85Z" fill="#231F20"/>
<path d="M802.04 1041.23L1002.05 925.76L1202.05 1041.23L1002.05 1156.7L802.04 1041.23Z" fill="white"/>
<path d="M1001.17 923.965C1001.76 923.672 1002.47 923.693 1003.05 924.028L1203.05 1039.5C1203.67 1039.86 1204.05 1040.52 1204.05 1041.23C1204.05 1041.94 1203.67 1042.6 1203.05 1042.96L1003.05 1158.43C1002.43 1158.79 1001.67 1158.79 1001.05 1158.43L801.04 1042.96C800.421 1042.6 800.04 1041.94 800.04 1041.23C800.04 1040.52 800.421 1039.86 801.04 1039.5L1001.05 924.028L1001.17 923.965ZM806.039 1041.23L1002.05 1154.39L1198.05 1041.23L1002.05 928.07L806.039 1041.23Z" fill="#231F20"/>
<path d="M1002.05 1156.7V1098.96L1202.05 1214.43V1272.17L1002.05 1156.7Z" fill="white"/>
<path d="M1001.05 1097.23C1001.67 1096.87 1002.43 1096.87 1003.05 1097.23L1203.05 1212.7C1203.67 1213.06 1204.05 1213.72 1204.05 1214.43V1272.17C1204.05 1272.88 1203.67 1273.55 1203.05 1273.9C1202.43 1274.26 1201.67 1274.26 1201.05 1273.9L1001.05 1158.43C1000.43 1158.07 1000.05 1157.41 1000.05 1156.7V1098.96L1000.05 1098.83C1000.1 1098.16 1000.47 1097.56 1001.05 1097.23ZM1004.05 1155.54L1200.05 1268.71V1215.58L1004.05 1102.42V1155.54Z" fill="#231F20"/>
<path d="M1402.05 1098.96L1202.05 1214.43V1272.17L1402.05 1156.7V1098.96Z" fill="white"/>
<path d="M1401.17 1097.17C1401.76 1096.87 1402.47 1096.89 1403.05 1097.23C1403.67 1097.58 1404.05 1098.25 1404.05 1098.96V1156.7C1404.05 1157.41 1403.67 1158.07 1403.05 1158.43L1203.05 1273.9C1202.43 1274.26 1201.67 1274.26 1201.05 1273.9C1200.43 1273.55 1200.05 1272.88 1200.05 1272.17V1214.43L1200.05 1214.3C1200.1 1213.63 1200.47 1213.03 1201.05 1212.7L1401.05 1097.23L1401.17 1097.17ZM1204.05 1215.58V1268.71L1400.05 1155.54V1102.42L1204.05 1215.58Z" fill="#231F20"/>
<path d="M1002.05 1098.96L1202.05 983.49L1402.05 1098.96L1202.05 1214.43L1002.05 1098.96Z" fill="white"/>
<path d="M1201.17 981.695C1201.76 981.402 1202.47 981.423 1203.05 981.758L1403.05 1097.23C1403.67 1097.59 1404.05 1098.25 1404.05 1098.96C1404.05 1099.67 1403.67 1100.33 1403.05 1100.69L1203.05 1216.16C1202.43 1216.52 1201.67 1216.52 1201.05 1216.16L1001.05 1100.69C1000.43 1100.33 1000.05 1099.67 1000.05 1098.96C1000.05 1098.25 1000.43 1097.59 1001.05 1097.23L1201.05 981.758L1201.17 981.695ZM1006.05 1098.96L1202.05 1212.12L1398.05 1098.96L1202.05 985.8L1006.05 1098.96Z" fill="#231F20"/>
<path d="M1202.05 1214.43V1156.7L1402.06 1272.17V1329.9L1202.05 1214.43Z" fill="#5032E4"/>
<path d="M1201.05 1154.97C1201.67 1154.61 1202.43 1154.61 1203.05 1154.97L1403.06 1270.44C1403.68 1270.8 1404.06 1271.46 1404.06 1272.17V1329.9C1404.06 1330.61 1403.68 1331.27 1403.06 1331.63C1402.44 1331.99 1401.68 1331.99 1401.06 1331.63L1201.05 1216.16C1200.43 1215.8 1200.05 1215.14 1200.05 1214.43V1156.7L1200.05 1156.57C1200.1 1155.9 1200.47 1155.3 1201.05 1154.97ZM1204.05 1213.28L1400.06 1326.44V1273.32L1204.05 1160.16V1213.28Z" fill="white"/>
<path d="M1602.06 1156.7L1402.06 1272.17V1329.9L1602.05 1214.43L1602.06 1156.7Z" fill="#5032E4"/>
<path d="M1601.18 1154.91C1601.77 1154.61 1602.48 1154.63 1603.06 1154.97C1603.68 1155.32 1604.06 1155.99 1604.06 1156.7L1604.05 1214.43C1604.05 1215.14 1603.67 1215.8 1603.05 1216.16L1403.06 1331.63C1402.44 1331.99 1401.68 1331.99 1401.06 1331.63C1400.44 1331.28 1400.06 1330.61 1400.06 1329.9V1272.17C1400.06 1271.46 1400.44 1270.8 1401.06 1270.44L1601.06 1154.97L1601.18 1154.91ZM1404.06 1273.32V1326.44L1600.05 1213.28L1600.06 1160.16L1404.06 1273.32Z" fill="white"/>
<path d="M1202.05 1156.7L1402.05 1041.23L1602.06 1156.7L1402.06 1272.17L1202.05 1156.7Z" fill="#5032E4"/>
<path d="M1401.17 1039.44C1401.76 1039.14 1402.47 1039.16 1403.05 1039.5L1603.06 1154.97C1603.68 1155.33 1604.06 1155.99 1604.06 1156.7C1604.06 1157.41 1603.68 1158.07 1603.06 1158.43L1403.06 1273.9C1402.44 1274.26 1401.68 1274.26 1401.06 1273.9L1201.05 1158.43C1200.43 1158.07 1200.05 1157.41 1200.05 1156.7C1200.05 1155.99 1200.43 1155.33 1201.05 1154.97L1401.05 1039.5L1401.17 1039.44ZM1206.05 1156.7L1402.06 1269.86L1598.06 1156.7L1402.05 1043.54L1206.05 1156.7Z" fill="white"/>
</g>
<defs>
<clipPath id="clip0_938_100671">
<rect width="1604.06" height="1331.9" fill="white"/>
</clipPath>
</defs>
</svg>
