<svg width="1655" height="1904" viewBox="0 0 1655 1904" fill="none" xmlns="http://www.w3.org/2000/svg">
<path d="M479.76 904.05V790.93L577.76 847.51V960.62L479.76 904.05Z" fill="#594AED"/>
<path d="M478.76 789.197C479.378 788.84 480.141 788.84 480.76 789.197L578.76 845.778L578.873 845.848C579.425 846.217 579.76 846.84 579.76 847.51V960.62C579.76 961.335 579.378 961.995 578.76 962.352C578.141 962.709 577.379 962.709 576.76 962.352L478.76 905.782C478.141 905.425 477.76 904.765 477.76 904.05V790.93L477.765 790.797C477.809 790.134 478.18 789.532 478.76 789.197ZM481.76 902.895L575.76 957.155V848.664L481.76 794.394V902.895Z" fill="#231F20"/>
<path d="M577.76 847.51L675.46 790.93V904.25L577.76 960.62V847.51Z" fill="white"/>
<path d="M674.575 789.136C675.171 788.842 675.878 788.863 676.459 789.198C677.078 789.555 677.46 790.215 677.46 790.93V904.25C677.46 904.965 677.078 905.626 676.459 905.983L578.759 962.352C578.14 962.709 577.378 962.709 576.76 962.352C576.141 961.995 575.76 961.335 575.76 960.62V847.51L575.765 847.377C575.809 846.715 576.179 846.115 576.758 845.78L674.457 789.199L674.575 789.136ZM579.76 848.662V957.157L673.46 903.094V794.399L579.76 848.662Z" fill="#231F20"/>
<path d="M479.76 790.93L577.76 734.18L675.46 790.93L577.76 847.51L479.76 790.93Z" fill="white"/>
<path d="M576.876 732.386C577.474 732.091 578.183 732.113 578.765 732.45L676.464 789.2C677.08 789.559 677.46 790.218 677.46 790.931C677.46 791.644 677.079 792.303 676.462 792.66L578.762 849.24C578.143 849.599 577.379 849.6 576.76 849.242L478.76 792.662C478.141 792.305 477.76 791.645 477.76 790.931C477.759 790.217 478.14 789.557 478.758 789.199L576.758 732.449L576.876 732.386ZM483.755 790.926L577.759 845.199L671.473 790.927L577.757 736.491L483.755 790.926Z" fill="#231F20"/>
<path d="M381.92 1074.25V961.12L479.91 1017.71V1130.82L381.92 1074.25Z" fill="#594AED"/>
<path d="M380.92 959.388C381.539 959.03 382.301 959.031 382.92 959.389L480.91 1015.98C481.529 1016.34 481.91 1017 481.91 1017.71V1130.82C481.91 1131.53 481.529 1132.19 480.91 1132.55C480.291 1132.91 479.529 1132.91 478.91 1132.55L380.92 1075.98C380.301 1075.62 379.92 1074.96 379.92 1074.25V961.12L379.925 960.987C379.969 960.324 380.34 959.723 380.92 959.388ZM383.92 1073.09L477.91 1127.36V1018.86L383.92 964.584V1073.09Z" fill="#231F20"/>
<path d="M479.91 1017.71L577.61 961.12V1074.45L479.91 1130.82V1017.71Z" fill="white"/>
<path d="M576.726 959.326C577.321 959.032 578.029 959.053 578.609 959.388C579.229 959.745 579.61 960.405 579.61 961.12V1074.45C579.61 1075.16 579.228 1075.83 578.609 1076.18L480.909 1132.55C480.29 1132.91 479.529 1132.91 478.91 1132.55C478.292 1132.19 477.91 1131.53 477.91 1130.82V1017.71L477.915 1017.58C477.959 1016.92 478.329 1016.31 478.908 1015.98L576.607 959.389L576.726 959.326ZM481.91 1018.86V1127.36L575.61 1073.29V964.589L481.91 1018.86Z" fill="#231F20"/>
<path d="M381.92 961.12L479.91 904.38L577.61 961.12L479.91 1017.71L381.92 961.12Z" fill="white"/>
<path d="M479.025 902.586C479.623 902.291 480.333 902.313 480.914 902.65L578.614 959.391C579.231 959.749 579.611 960.408 579.61 961.121C579.61 961.834 579.229 962.493 578.612 962.851L480.912 1019.44C480.293 1019.8 479.53 1019.8 478.91 1019.44L380.92 962.852C380.302 962.495 379.92 961.835 379.92 961.121C379.92 960.407 380.3 959.747 380.918 959.389L478.908 902.649L479.025 902.586ZM385.915 961.117L479.908 1015.4L573.623 961.117L479.907 906.691L385.915 961.117Z" fill="#231F20"/>
<path d="M577.61 1414.16V1301.03L675.61 1357.62V1470.73L577.61 1414.16Z" fill="white"/>
<path d="M576.61 1299.3C577.229 1298.94 577.991 1298.94 578.61 1299.3L676.61 1355.89C677.229 1356.25 677.61 1356.91 677.61 1357.62V1470.73C677.61 1471.44 677.229 1472.1 676.61 1472.46C675.991 1472.82 675.229 1472.82 674.61 1472.46L576.61 1415.89C575.991 1415.54 575.61 1414.87 575.61 1414.16V1301.03C575.61 1300.32 575.991 1299.65 576.61 1299.3ZM579.61 1413L673.61 1467.27V1358.77L579.61 1304.49V1413Z" fill="#231F20"/>
<path d="M675.61 1357.62L773.31 1301.03V1414.36L675.61 1470.73V1357.62Z" fill="#594AED"/>
<path d="M772.425 1299.24C773.021 1298.94 773.728 1298.96 774.309 1299.3C774.928 1299.65 775.31 1300.32 775.31 1301.03V1414.36C775.31 1415.07 774.928 1415.74 774.309 1416.09L676.609 1472.46C675.99 1472.82 675.228 1472.82 674.61 1472.46C673.991 1472.1 673.61 1471.44 673.61 1470.73V1357.62C673.61 1356.91 673.991 1356.25 674.608 1355.89L772.307 1299.3L772.425 1299.24ZM677.61 1358.77V1467.27L771.31 1413.2V1304.5L677.61 1358.77Z" fill="#231F20"/>
<path d="M577.61 1301.03L675.61 1244.29L773.31 1301.03L675.61 1357.62L577.61 1301.03Z" fill="white"/>
<path d="M674.726 1242.5C675.324 1242.2 676.033 1242.22 676.615 1242.56L774.314 1299.3C774.931 1299.66 775.31 1300.32 775.31 1301.03C775.31 1301.74 774.929 1302.4 774.312 1302.76L676.612 1359.35C675.993 1359.71 675.229 1359.71 674.61 1359.35L576.61 1302.76C575.992 1302.4 575.61 1301.75 575.61 1301.03C575.609 1300.32 575.99 1299.66 576.608 1299.3L674.608 1242.56L674.726 1242.5ZM581.605 1301.03L675.609 1355.31L769.323 1301.03L675.607 1246.6L581.605 1301.03Z" fill="#231F20"/>
<path d="M479.76 677.82V564.69L577.76 621.28V734.39L479.76 677.82Z" fill="white"/>
<path d="M478.76 562.958C479.378 562.6 480.141 562.6 480.76 562.958L578.76 619.548C579.378 619.906 579.76 620.565 579.76 621.28V734.39C579.76 735.105 579.378 735.764 578.76 736.122C578.141 736.479 577.379 736.48 576.76 736.123L478.76 679.552C478.141 679.195 477.76 678.534 477.76 677.82V564.69C477.76 563.975 478.141 563.315 478.76 562.958ZM481.76 676.665L575.76 730.925V622.434L481.76 568.154V676.665Z" fill="#231F20"/>
<path d="M577.76 621.28L675.46 564.69V678.01L577.76 734.39V621.28Z" fill="#594AED"/>
<path d="M674.575 562.896C675.171 562.602 675.878 562.623 676.459 562.958C677.078 563.315 677.46 563.975 677.46 564.69V678.01C677.46 678.725 677.078 679.386 676.459 679.743L578.76 736.123C578.141 736.48 577.378 736.479 576.76 736.122C576.141 735.764 575.76 735.105 575.76 734.39V621.28L575.765 621.147C575.809 620.485 576.179 619.885 576.758 619.549L674.457 562.96L674.575 562.896ZM579.76 622.432V730.926L673.46 676.854V568.159L579.76 622.432Z" fill="#231F20"/>
<path d="M479.76 564.69L577.76 507.94L675.46 564.69L577.76 621.28L479.76 564.69Z" fill="white"/>
<path d="M576.876 506.146C577.474 505.851 578.183 505.873 578.765 506.21L676.464 562.96C677.08 563.319 677.46 563.978 677.46 564.691C677.46 565.404 677.079 566.063 676.462 566.42L578.762 623.01C578.143 623.369 577.379 623.37 576.76 623.012L478.76 566.422C478.141 566.065 477.76 565.405 477.76 564.691C477.759 563.977 478.14 563.317 478.758 562.959L576.758 506.209L576.876 506.146ZM483.755 564.687L577.758 618.969L671.473 564.687L577.757 510.251L483.755 564.687Z" fill="#231F20"/>
<path d="M773.46 847.4V734.28L871.46 790.86V903.97L773.46 847.4Z" fill="white"/>
<path d="M772.46 732.548C773.079 732.19 773.841 732.19 774.46 732.548L872.46 789.128C873.079 789.485 873.46 790.145 873.46 790.86V903.97C873.46 904.685 873.079 905.345 872.46 905.702C871.841 906.059 871.079 906.059 870.46 905.702L772.46 849.132C771.841 848.775 771.46 848.115 771.46 847.4V734.28L771.465 734.147C771.509 733.484 771.88 732.883 772.46 732.548ZM775.46 846.245L869.46 900.506V792.014L775.46 737.744V846.245Z" fill="#231F20"/>
<path d="M871.46 790.86L969.16 734.28V847.6L871.46 903.97V790.86Z" fill="#594AED"/>
<path d="M968.275 732.486C968.871 732.192 969.579 732.213 970.159 732.548C970.778 732.905 971.16 733.565 971.16 734.28V847.6C971.16 848.315 970.778 848.976 970.159 849.333L872.459 905.702C871.84 906.059 871.079 906.059 870.46 905.702C869.841 905.345 869.46 904.685 869.46 903.97V790.86C869.46 790.146 869.84 789.487 870.458 789.13L968.157 732.549L968.275 732.486ZM873.46 792.012V900.508L967.16 846.444V737.749L873.46 792.012Z" fill="#231F20"/>
<path d="M577.76 847.51V734.39L675.76 790.97V904.08L577.76 847.51Z" fill="white"/>
<path d="M576.76 732.658C577.378 732.3 578.141 732.3 578.76 732.658L676.76 789.238C677.379 789.595 677.76 790.255 677.76 790.97V904.08C677.76 904.795 677.378 905.455 676.76 905.812C676.141 906.169 675.379 906.169 674.76 905.812L576.76 849.242C576.141 848.885 575.76 848.225 575.76 847.51V734.39L575.765 734.257C575.809 733.594 576.18 732.993 576.76 732.658ZM579.76 846.355L673.76 900.616V792.123L579.76 737.854V846.355Z" fill="#231F20"/>
<path d="M675.76 790.97L773.46 734.39V847.71L675.76 904.08V790.97Z" fill="white"/>
<path d="M772.575 732.596C773.171 732.302 773.878 732.323 774.459 732.657C775.078 733.015 775.46 733.675 775.46 734.39V847.71C775.46 848.425 775.078 849.085 774.459 849.443L676.759 905.812C676.14 906.169 675.378 906.169 674.76 905.812C674.141 905.454 673.76 904.795 673.76 904.08V790.97L673.765 790.837C673.809 790.175 674.179 789.575 674.758 789.239L772.457 732.659L772.575 732.596ZM677.76 792.122V900.617L771.46 846.554V737.859L677.76 792.122Z" fill="#231F20"/>
<path d="M577.76 734.39L675.76 677.64L773.46 734.39L675.76 790.97L577.76 734.39Z" fill="white"/>
<path d="M674.876 675.846C675.474 675.551 676.183 675.573 676.765 675.91L774.464 732.66C775.08 733.018 775.46 733.678 775.46 734.391C775.46 735.104 775.079 735.763 774.462 736.12L676.762 792.7C676.143 793.059 675.379 793.059 674.76 792.701L576.76 736.122C576.141 735.765 575.76 735.105 575.76 734.391C575.759 733.677 576.14 733.017 576.758 732.659L674.758 675.909L674.876 675.846ZM581.755 734.386L675.759 788.659L769.473 734.387L675.757 679.951L581.755 734.386Z" fill="#231F20"/>
<path d="M969.16 960.73V847.6L1067.16 904.19V1017.3L969.16 960.73Z" fill="white"/>
<path d="M968.16 845.867C968.779 845.51 969.541 845.51 970.16 845.867L1068.16 902.458C1068.78 902.816 1069.16 903.475 1069.16 904.19V1017.3C1069.16 1018.01 1068.78 1018.67 1068.16 1019.03C1067.54 1019.39 1066.78 1019.39 1066.16 1019.03L968.16 962.462C967.541 962.105 967.16 961.444 967.16 960.73V847.6L967.165 847.467C967.209 846.804 967.58 846.202 968.16 845.867ZM971.16 959.574L1065.16 1013.84V905.344L971.16 851.064V959.574Z" fill="#231F20"/>
<path d="M1067.16 904.19L1164.86 847.6V960.93L1067.16 1017.3V904.19Z" fill="#594AED"/>
<path d="M1163.98 845.806C1164.57 845.512 1165.28 845.533 1165.86 845.867C1166.48 846.225 1166.86 846.885 1166.86 847.6V960.93C1166.86 961.645 1166.48 962.305 1165.86 962.662L1068.16 1019.03C1067.54 1019.39 1066.78 1019.39 1066.16 1019.03C1065.54 1018.67 1065.16 1018.01 1065.16 1017.3V904.19C1065.16 903.476 1065.54 902.817 1066.16 902.459L1163.86 845.869L1163.98 845.806ZM1069.16 905.342V1013.84L1162.86 959.774V851.069L1069.16 905.342Z" fill="#231F20"/>
<path d="M577.61 1187.92L675.32 1131.34V1244.66L577.61 1301.03V1187.92Z" fill="white"/>
<path d="M674.435 1129.55C675.031 1129.25 675.738 1129.27 676.319 1129.61C676.938 1129.96 677.32 1130.63 677.32 1131.34V1244.66C677.32 1245.37 676.938 1246.04 676.319 1246.39L578.609 1302.76C577.99 1303.12 577.228 1303.12 576.61 1302.76C575.991 1302.4 575.61 1301.74 575.61 1301.03V1187.92L575.615 1187.79C575.659 1187.13 576.029 1186.52 576.608 1186.19L674.318 1129.61L674.435 1129.55ZM579.61 1189.07V1297.57L673.32 1243.51V1134.81L579.61 1189.07Z" fill="#231F20"/>
<path d="M871.31 1244.03L969.01 1187.44V1300.76L871.31 1357.14V1244.03Z" fill="white"/>
<path d="M968.125 1185.65C968.721 1185.35 969.429 1185.37 970.009 1185.71C970.628 1186.06 971.01 1186.73 971.01 1187.44V1300.76C971.01 1301.47 970.628 1302.14 970.009 1302.49L872.31 1358.87C871.691 1359.23 870.929 1359.23 870.31 1358.87C869.691 1358.51 869.31 1357.85 869.31 1357.14V1244.03C869.31 1243.32 869.691 1242.66 870.308 1242.3L968.007 1185.71L968.125 1185.65ZM873.31 1245.18V1353.68L967.01 1299.6V1190.91L873.31 1245.18Z" fill="#231F20"/>
<path d="M773.31 1187.44L871.31 1130.69L969.01 1187.44L871.31 1244.03L773.31 1187.44Z" fill="#594AED"/>
<path d="M870.426 1128.9C871.024 1128.6 871.734 1128.62 872.315 1128.96L970.014 1185.71C970.631 1186.07 971.011 1186.73 971.01 1187.44C971.01 1188.15 970.629 1188.81 970.012 1189.17L872.312 1245.76C871.693 1246.12 870.93 1246.12 870.31 1245.76L772.31 1189.17C771.692 1188.82 771.31 1188.15 771.31 1187.44C771.31 1186.73 771.69 1186.07 772.308 1185.71L870.308 1128.96L870.426 1128.9ZM777.305 1187.44L871.308 1241.72L965.023 1187.44L871.307 1133L777.305 1187.44Z" fill="#231F20"/>
<path d="M577.61 1187.92L479.62 1131.34V1244.47L577.61 1301.03V1301.05L675.61 1357.62V1244.51L577.61 1187.92Z" fill="#594AED"/>
<path d="M478.62 1129.61C479.239 1129.25 480.001 1129.25 480.62 1129.61L676.61 1242.78C677.229 1243.14 677.61 1243.8 677.61 1244.51V1357.62C677.61 1358.33 677.229 1358.99 676.61 1359.35C675.992 1359.71 675.229 1359.71 674.61 1359.35L576.61 1302.78C576.532 1302.74 576.458 1302.69 576.388 1302.63L478.62 1246.2C478.001 1245.84 477.62 1245.18 477.62 1244.47V1131.34C477.62 1130.63 478.001 1129.96 478.62 1129.61ZM481.62 1243.31L578.61 1299.3C578.686 1299.34 578.758 1299.39 578.826 1299.44L673.61 1354.16V1245.66L481.62 1134.8V1243.31Z" fill="#231F20"/>
<path d="M675.61 1244.51L773.31 1187.92V1301.25L675.61 1357.62V1244.51Z" fill="white"/>
<path d="M772.426 1186.13C773.022 1185.83 773.729 1185.85 774.31 1186.19C774.929 1186.54 775.311 1187.21 775.311 1187.92V1301.25C775.311 1301.96 774.929 1302.63 774.31 1302.98L676.609 1359.35C675.991 1359.71 675.229 1359.71 674.61 1359.35C673.992 1358.99 673.61 1358.33 673.61 1357.62V1244.51C673.61 1243.8 673.991 1243.14 674.608 1242.78L772.308 1186.19L772.426 1186.13ZM677.61 1245.66V1354.16L771.311 1300.09V1191.39L677.61 1245.66Z" fill="#231F20"/>
<path d="M577.61 1187.92L675.61 1244.51L773.31 1187.92L675.61 1131.18L675.32 1131.34L577.61 1074.59L479.62 1131.34L577.61 1187.92Z" fill="white"/>
<path d="M576.726 1072.8C577.323 1072.5 578.033 1072.52 578.614 1072.86L675.584 1129.18C675.94 1129.18 676.296 1129.27 676.614 1129.45L774.314 1186.19C774.931 1186.55 775.311 1187.21 775.311 1187.92C775.31 1188.63 774.93 1189.29 774.312 1189.65L676.612 1246.24C675.993 1246.6 675.23 1246.6 674.61 1246.24L478.62 1133.07C478.002 1132.72 477.621 1132.05 477.62 1131.34C477.62 1130.63 478 1129.97 478.618 1129.61L576.607 1072.86L576.726 1072.8ZM483.615 1131.34L675.607 1242.2L769.323 1187.92L675.345 1133.34C674.989 1133.34 674.633 1133.25 674.315 1133.07L577.607 1076.9L483.615 1131.34Z" fill="#231F20"/>
<path d="M675.61 1017.6L577.61 961.01V1074.14L675.61 1130.71V1130.72L773.61 1187.29V1074.18L675.61 1017.6Z" fill="#594AED"/>
<path d="M576.61 959.278C577.229 958.92 577.991 958.92 578.61 959.278L774.61 1072.45C775.229 1072.8 775.61 1073.47 775.61 1074.18V1187.29C775.61 1188 775.229 1188.66 774.61 1189.02C773.991 1189.38 773.229 1189.38 772.61 1189.02L674.61 1132.45C674.559 1132.42 674.511 1132.39 674.463 1132.36L576.61 1075.87C575.991 1075.51 575.61 1074.85 575.61 1074.14V961.01C575.61 960.295 575.991 959.635 576.61 959.278ZM579.61 1072.98L676.61 1128.98C676.661 1129.01 676.71 1129.04 676.757 1129.07L771.61 1183.83V1075.33L579.61 964.474V1072.98Z" fill="#231F20"/>
<path d="M773.61 1074.18L871.31 1017.6V1130.92L773.61 1187.29V1074.18Z" fill="white"/>
<path d="M870.425 1015.81C871.021 1015.51 871.728 1015.53 872.309 1015.87C872.928 1016.22 873.31 1016.89 873.31 1017.6V1130.92C873.31 1131.63 872.928 1132.3 872.309 1132.65L774.609 1189.02C773.99 1189.38 773.228 1189.38 772.61 1189.02C771.991 1188.66 771.61 1188 771.61 1187.29V1074.18L771.615 1074.05C771.659 1073.39 772.029 1072.78 772.608 1072.45L870.307 1015.87L870.425 1015.81ZM775.61 1075.33V1183.83L869.31 1129.76V1021.07L775.61 1075.33Z" fill="#231F20"/>
<path d="M675.61 1017.6L773.61 1074.18L871.31 1017.6L773.61 960.85L773.31 961.01L675.61 904.27L577.61 961.01L675.61 1017.6Z" fill="white"/>
<path d="M674.726 902.476C675.324 902.181 676.033 902.203 676.615 902.54L773.574 958.851C773.933 958.844 774.294 958.934 774.615 959.121L872.314 1015.87C872.931 1016.23 873.31 1016.89 873.31 1017.6C873.31 1018.31 872.929 1018.97 872.312 1019.33L774.612 1075.91C773.993 1076.27 773.229 1076.27 772.61 1075.91L576.61 962.742C575.992 962.385 575.61 961.725 575.61 961.011C575.609 960.297 575.99 959.637 576.608 959.279L674.608 902.539L674.726 902.476ZM581.605 961.007L773.609 1071.87L867.323 1017.6L773.343 963.008C772.985 963.014 772.625 962.926 772.305 962.74L675.607 906.581L581.605 961.007Z" fill="#231F20"/>
<path d="M871.61 904.38L969.31 847.8V961.12L871.61 1017.49V904.38Z" fill="white"/>
<path d="M968.425 846.006C969.021 845.712 969.728 845.733 970.309 846.068C970.928 846.425 971.31 847.085 971.31 847.8V961.12C971.31 961.835 970.928 962.496 970.309 962.853L872.609 1019.22C871.99 1019.58 871.228 1019.58 870.61 1019.22C869.991 1018.86 869.61 1018.2 869.61 1017.49V904.38L869.615 904.247C869.659 903.585 870.029 902.985 870.608 902.65L968.307 846.069L968.425 846.006ZM873.61 905.532V1014.03L967.31 959.964V851.269L873.61 905.532Z" fill="#231F20"/>
<path d="M871.61 904.61V904.38L675.76 790.97L577.76 734.39V847.51L773.61 960.91V960.92L871.16 1017.24V1017.47L969.16 1074.04V960.93L871.61 904.61Z" fill="#594AED"/>
<path d="M576.76 732.658C577.378 732.3 578.141 732.3 578.76 732.658L676.76 789.238L676.762 789.24L872.612 902.649C872.877 902.802 873.098 903.011 873.264 903.255L970.16 959.198C970.779 959.555 971.16 960.215 971.16 960.93V1074.04C971.16 1074.75 970.779 1075.41 970.16 1075.77C969.541 1076.13 968.779 1076.13 968.16 1075.77L870.16 1019.2C869.895 1019.05 869.673 1018.84 869.506 1018.59L772.609 962.652C772.558 962.622 772.509 962.59 772.461 962.556L576.758 849.241C576.14 848.883 575.76 848.224 575.76 847.51V734.39L575.765 734.257C575.809 733.594 576.18 732.993 576.76 732.658ZM579.76 846.357L774.612 959.179C774.663 959.209 774.712 959.241 774.76 959.275L872.16 1015.51C872.425 1015.66 872.645 1015.87 872.812 1016.11L967.16 1070.58V962.084L870.609 906.342C870.343 906.188 870.122 905.978 869.955 905.733L674.758 792.7V792.699L579.76 737.854V846.357Z" fill="#231F20"/>
<path d="M969.16 960.93L1066.86 904.35V1017.67L969.16 1074.04V960.93Z" fill="white"/>
<path d="M1065.98 902.556C1066.57 902.262 1067.28 902.283 1067.86 902.617C1068.48 902.975 1068.86 903.635 1068.86 904.35V1017.67C1068.86 1018.38 1068.48 1019.05 1067.86 1019.4L970.159 1075.77C969.54 1076.13 968.779 1076.13 968.16 1075.77C967.542 1075.41 967.16 1074.75 967.16 1074.04V960.93L967.165 960.797C967.209 960.135 967.579 959.535 968.158 959.199L1065.86 902.619L1065.98 902.556ZM971.16 962.082V1070.58L1064.86 1016.51V907.819L971.16 962.082Z" fill="#231F20"/>
<path d="M871.31 1244.01L969.31 1187.26L1067.01 1244.01L969.31 1300.59L871.31 1244.01Z" fill="white"/>
<path d="M968.426 1185.47C969.024 1185.17 969.734 1185.19 970.315 1185.53L1068.01 1242.28C1068.63 1242.64 1069.01 1243.3 1069.01 1244.01C1069.01 1244.72 1068.63 1245.38 1068.01 1245.74L970.312 1302.32C969.693 1302.68 968.93 1302.68 968.31 1302.32L870.31 1245.74C869.692 1245.39 869.311 1244.72 869.31 1244.01C869.31 1243.3 869.69 1242.64 870.308 1242.28L968.308 1185.53L968.426 1185.47ZM875.305 1244.01L969.309 1298.28L1063.02 1244.01L969.307 1189.57L875.305 1244.01Z" fill="#231F20"/>
<path d="M969.16 1074.06V960.93L1067.16 1017.52V1130.63L969.16 1074.06Z" fill="white"/>
<path d="M968.16 959.198C968.779 958.84 969.541 958.84 970.16 959.198L1068.16 1015.79C1068.78 1016.15 1069.16 1016.81 1069.16 1017.52V1130.63C1069.16 1131.34 1068.78 1132 1068.16 1132.36C1067.54 1132.72 1066.78 1132.72 1066.16 1132.36L968.16 1075.79C967.541 1075.44 967.16 1074.77 967.16 1074.06V960.93L967.165 960.797C967.209 960.134 967.58 959.533 968.16 959.198ZM971.16 1072.9L1065.16 1127.17V1018.67L971.16 964.394V1072.9Z" fill="#231F20"/>
<path d="M871.31 1130.9L969.31 1074.15L1067.01 1130.9L969.31 1187.48L871.31 1130.9Z" fill="white"/>
<path d="M968.426 1072.36C969.024 1072.06 969.734 1072.08 970.315 1072.42L1068.01 1129.17C1068.63 1129.53 1069.01 1130.19 1069.01 1130.9C1069.01 1131.61 1068.63 1132.27 1068.01 1132.63L970.312 1189.21C969.693 1189.57 968.93 1189.57 968.31 1189.21L870.31 1132.63C869.692 1132.28 869.311 1131.62 869.31 1130.9C869.31 1130.19 869.69 1129.53 870.308 1129.17L968.308 1072.42L968.426 1072.36ZM875.305 1130.9L969.309 1185.17L1063.02 1130.9L969.307 1076.46L875.305 1130.9Z" fill="#231F20"/>
<path d="M1067.16 1243.75V1130.63L1165.16 1187.21V1300.32L1067.16 1243.75Z" fill="white"/>
<path d="M1066.16 1128.9C1066.78 1128.54 1067.54 1128.54 1068.16 1128.9L1166.16 1185.48L1166.27 1185.55C1166.83 1185.92 1167.16 1186.54 1167.16 1187.21V1300.32C1167.16 1301.03 1166.78 1301.69 1166.16 1302.05C1165.54 1302.41 1164.78 1302.41 1164.16 1302.05L1066.16 1245.48C1065.54 1245.13 1065.16 1244.46 1065.16 1243.75V1130.63L1065.17 1130.5C1065.21 1129.83 1065.58 1129.23 1066.16 1128.9ZM1069.16 1242.59L1163.16 1296.86V1188.36L1069.16 1134.09V1242.59Z" fill="#231F20"/>
<path d="M1165.16 1187.21L1262.86 1130.63V1243.95L1165.16 1300.32V1187.21Z" fill="#594AED"/>
<path d="M1261.98 1128.84C1262.57 1128.54 1263.28 1128.56 1263.86 1128.9C1264.48 1129.25 1264.86 1129.92 1264.86 1130.63V1243.95C1264.86 1244.66 1264.48 1245.33 1263.86 1245.68L1166.16 1302.05C1165.54 1302.41 1164.78 1302.41 1164.16 1302.05C1163.54 1301.69 1163.16 1301.03 1163.16 1300.32V1187.21L1163.17 1187.08C1163.21 1186.42 1163.58 1185.81 1164.16 1185.48L1261.86 1128.9L1261.98 1128.84ZM1167.16 1188.36V1296.86L1260.86 1242.79V1134.1L1167.16 1188.36Z" fill="#231F20"/>
<path d="M1067.16 1130.63L1165.16 1073.88L1262.86 1130.63L1165.16 1187.21L1067.16 1130.63Z" fill="white"/>
<path d="M1164.28 1072.09C1164.87 1071.79 1165.58 1071.81 1166.17 1072.15L1263.86 1128.9C1264.48 1129.26 1264.86 1129.92 1264.86 1130.63C1264.86 1131.34 1264.48 1132 1263.86 1132.36L1166.16 1188.94C1165.54 1189.3 1164.78 1189.3 1164.16 1188.94L1066.16 1132.36C1065.54 1132.01 1065.16 1131.34 1065.16 1130.63C1065.16 1129.92 1065.54 1129.26 1066.16 1128.9L1164.16 1072.15L1164.28 1072.09ZM1071.16 1130.63L1165.16 1184.9L1258.87 1130.63L1165.16 1076.19L1071.16 1130.63Z" fill="#231F20"/>
<path d="M969.16 1074.06L871.16 1017.47V1130.6L871.31 1244.01V1244.03L773.31 1187.44V1300.57L871.31 1357.14L969.31 1413.71V1300.59V1187.48L969.16 1074.06Z" fill="white"/>
<path d="M967.31 1187.48L967.16 1075.22L873.159 1020.93V1130.6L873.31 1244.01V1244.03C873.309 1244.74 872.928 1245.4 872.31 1245.76C871.691 1246.12 870.928 1246.12 870.31 1245.76L775.31 1190.9V1299.42L967.31 1410.25V1187.48ZM971.31 1413.71C971.309 1414.42 970.928 1415.08 970.31 1415.44C969.691 1415.8 968.928 1415.8 968.31 1415.44L772.31 1302.3C771.691 1301.94 771.31 1301.28 771.31 1300.57V1187.44L771.314 1187.31C771.359 1186.64 771.729 1186.04 772.31 1185.71C772.928 1185.35 773.691 1185.35 774.31 1185.71L869.305 1240.56L869.159 1130.6V1017.47L869.164 1017.34C869.208 1016.67 869.579 1016.07 870.159 1015.74C870.778 1015.38 871.541 1015.38 872.16 1015.74L970.16 1072.33L970.272 1072.4C970.823 1072.77 971.158 1073.39 971.159 1074.06L971.31 1187.48V1413.71Z" fill="#231F20"/>
<path d="M1067.16 1130.63L1164.86 1074.26V960.93L1067.16 1017.52L1066.86 1017.47L969.16 1074.06V1187.17L969.31 1300.59V1413.71L1067.01 1357.33V1244.22V1244.01L1066.86 1130.8" fill="#594AED"/>
<path d="M1065.01 1244.01L1064.86 1130.8L1067.26 1130.8L1067.16 1130.63L1066.16 1128.9L1162.86 1073.1V964.399L1068.16 1019.25C1067.9 1019.4 1067.62 1019.49 1067.32 1019.51L971.16 1075.21V1187.17L971.311 1300.59V1410.25L1065.01 1356.18V1244.01ZM1069.01 1357.33C1069.01 1358.04 1068.63 1358.7 1068.01 1359.06L970.31 1415.44C969.691 1415.8 968.928 1415.8 968.31 1415.44C967.691 1415.08 967.311 1414.42 967.311 1413.71V1300.59L967.16 1187.17V1074.06C967.16 1073.35 967.541 1072.69 968.158 1072.33L1065.86 1015.74L1066.01 1015.66C1066.23 1015.56 1066.46 1015.5 1066.7 1015.48L1163.86 959.2L1163.98 959.136C1164.57 958.842 1165.28 958.863 1165.86 959.198C1166.48 959.555 1166.86 960.215 1166.86 960.93V1074.26C1166.86 1074.97 1166.48 1075.64 1165.86 1075.99L1068.86 1131.96L1069.01 1244.01V1357.33Z" fill="#231F20"/>
<path d="M1164.86 847.6L1067.16 790.85L969.16 847.6L969.07 847.66L871.61 791.05L871.31 791.21L969.01 734.63L871.31 677.88L773.6 734.46L675.76 677.64L577.76 734.39L675.76 790.97L871.36 904.24L871.16 904.35L968.99 960.83L871.16 1017.47L969.16 1074.06L1066.86 1017.47L1067.16 1017.52L1164.86 960.93L1067.16 904.19L1164.86 847.6Z" fill="white"/>
<path d="M674.876 675.846C675.474 675.551 676.183 675.573 676.765 675.911L773.601 732.148L870.308 676.149L870.426 676.086C871.024 675.792 871.733 675.813 872.314 676.151L970.015 732.901C970.631 733.259 971.01 733.918 971.01 734.631C971.009 735.344 970.629 736.003 970.012 736.361L875.584 791.045L969.063 845.344L1066.16 789.12L1066.28 789.056C1066.87 788.761 1067.58 788.783 1068.16 789.121L1165.86 845.871C1166.48 846.229 1166.86 846.888 1166.86 847.601C1166.86 848.314 1166.48 848.973 1165.86 849.33L1071.15 904.192L1165.86 959.201C1166.48 959.559 1166.86 960.218 1166.86 960.931C1166.86 961.644 1166.48 962.303 1165.86 962.661L1068.16 1019.25C1067.9 1019.4 1067.62 1019.49 1067.32 1019.51L970.162 1075.79C969.543 1076.15 968.779 1076.15 968.159 1075.79L870.159 1019.2C869.541 1018.84 869.161 1018.18 869.16 1017.47C869.16 1016.76 869.539 1016.1 870.157 1015.74L964.993 960.831L870.16 906.082C869.897 905.93 869.677 905.723 869.511 905.481L674.758 792.701V792.7L576.76 736.122C576.141 735.765 575.76 735.105 575.76 734.391C575.759 733.677 576.14 733.017 576.758 732.66L674.758 675.91L674.876 675.846ZM581.755 734.386L676.76 789.238L676.762 789.24L872.362 902.509C872.623 902.66 872.84 902.865 873.005 903.105L969.989 959.098C970.608 959.455 970.989 960.115 970.989 960.829C970.99 961.543 970.61 962.203 969.992 962.561L875.155 1017.47L969.157 1071.75L1065.86 1015.74L1066.01 1015.66C1066.23 1015.56 1066.46 1015.5 1066.7 1015.48L1160.87 960.927L1066.16 905.919C1065.54 905.561 1065.16 904.902 1065.16 904.189C1065.16 903.476 1065.54 902.817 1066.16 902.459L1160.87 847.597L1067.16 793.162L970.219 849.296L970.18 849.324C969.545 849.747 968.725 849.772 968.065 849.389L871.344 793.208C870.629 793.22 869.932 792.849 869.562 792.182C869.031 791.229 869.364 790.026 870.308 789.479L965.022 734.627L871.308 680.192L774.602 736.191C773.981 736.55 773.216 736.55 772.596 736.19L675.757 679.952L581.755 734.386Z" fill="#231F20"/>
<path d="M675.61 1130.72V1017.6L773.61 1074.18V1187.29L675.61 1130.72Z" fill="white"/>
<path d="M674.61 1015.87C675.229 1015.51 675.991 1015.51 676.61 1015.87L774.61 1072.45L774.723 1072.52C775.275 1072.89 775.61 1073.51 775.61 1074.18V1187.29C775.61 1188 775.229 1188.66 774.61 1189.02C773.991 1189.38 773.229 1189.38 772.61 1189.02L674.61 1132.45C673.991 1132.1 673.61 1131.43 673.61 1130.72V1017.6L673.615 1017.47C673.659 1016.8 674.03 1016.2 674.61 1015.87ZM677.61 1129.56L771.61 1183.83V1075.33L677.61 1021.06V1129.56Z" fill="#231F20"/>
<path d="M773.61 1074.18L871.31 1017.6V1130.92L773.61 1187.29V1074.18Z" fill="#594AED"/>
<path d="M870.425 1015.81C871.021 1015.51 871.728 1015.53 872.309 1015.87C872.928 1016.22 873.31 1016.89 873.31 1017.6V1130.92C873.31 1131.63 872.928 1132.3 872.309 1132.65L774.609 1189.02C773.99 1189.38 773.228 1189.38 772.61 1189.02C771.991 1188.66 771.61 1188 771.61 1187.29V1074.18L771.615 1074.05C771.659 1073.39 772.029 1072.78 772.608 1072.45L870.307 1015.87L870.425 1015.81ZM775.61 1075.33V1183.83L869.31 1129.76V1021.07L775.61 1075.33Z" fill="#231F20"/>
<path d="M675.61 1017.6L773.61 960.85L871.31 1017.6L773.61 1074.18L675.61 1017.6Z" fill="white"/>
<path d="M772.726 959.056C773.324 958.761 774.033 958.783 774.615 959.12L872.314 1015.87C872.931 1016.23 873.31 1016.89 873.31 1017.6C873.31 1018.31 872.929 1018.97 872.312 1019.33L774.612 1075.91C773.993 1076.27 773.229 1076.27 772.61 1075.91L674.61 1019.33C673.991 1018.98 673.61 1018.31 673.61 1017.6C673.61 1016.89 673.99 1016.23 674.608 1015.87L772.608 959.119L772.726 959.056ZM679.605 1017.6L773.609 1071.87L867.323 1017.6L773.607 963.161L679.605 1017.6Z" fill="#231F20"/>
<path d="M1556.04 1298.59L1554.03 1302.05L1547.94 1298.51L1549.95 1295.05L1556.04 1298.59ZM1537.77 1287.98L1535.77 1291.44L1523.59 1284.37L1525.6 1280.91L1537.77 1287.98ZM1513.43 1273.84L1511.42 1277.3L1499.24 1270.23L1501.25 1266.77L1513.43 1273.84ZM1489.08 1259.7L1487.07 1263.16L1474.9 1256.09L1476.91 1252.63L1489.08 1259.7ZM1464.73 1245.56L1462.72 1249.02L1450.55 1241.95L1452.56 1238.49L1464.73 1245.56ZM1440.38 1231.42L1438.38 1234.88L1426.2 1227.81L1428.21 1224.35L1440.38 1231.42ZM1416.04 1217.28L1414.03 1220.74L1401.85 1213.67L1403.86 1210.21L1416.04 1217.28ZM1391.69 1203.14L1389.68 1206.6L1377.51 1199.53L1379.52 1196.07L1391.69 1203.14ZM1367.34 1189L1365.33 1192.46L1353.16 1185.39L1355.17 1181.93L1367.34 1189ZM1342.99 1174.86L1340.99 1178.32L1328.81 1171.25L1330.82 1167.79L1342.99 1174.86ZM1318.65 1160.72L1316.64 1164.18L1304.46 1157.11L1306.47 1153.65L1318.65 1160.72ZM1294.3 1146.58L1292.29 1150.04L1280.12 1142.96L1282.12 1139.51L1294.3 1146.58ZM1269.95 1132.44L1267.94 1135.89L1261.86 1132.36L1263.87 1128.9L1269.95 1132.44Z" fill="#594AED"/>
<path d="M1458.33 1468.29L1456.33 1471.75L1450.24 1468.21L1452.25 1464.76L1458.33 1468.29ZM1440.07 1457.68L1438.07 1461.14L1425.89 1454.07L1427.9 1450.61L1440.07 1457.68ZM1415.73 1443.54L1413.72 1447L1401.54 1439.93L1403.55 1436.47L1415.73 1443.54ZM1391.38 1429.4L1389.37 1432.86L1377.2 1425.79L1379.21 1422.33L1391.38 1429.4ZM1367.03 1415.26L1365.02 1418.72L1352.85 1411.65L1354.86 1408.19L1367.03 1415.26ZM1342.68 1401.12L1340.67 1404.58L1328.5 1397.51L1330.51 1394.05L1342.68 1401.12ZM1318.34 1386.98L1316.33 1390.44L1304.15 1383.36L1306.16 1379.9L1318.34 1386.98ZM1293.99 1372.83L1291.98 1376.29L1279.81 1369.22L1281.82 1365.76L1293.99 1372.83ZM1269.64 1358.69L1267.63 1362.15L1255.46 1355.08L1257.47 1351.62L1269.64 1358.69ZM1245.29 1344.55L1243.29 1348.01L1231.11 1340.94L1233.12 1337.48L1245.29 1344.55ZM1220.95 1330.41L1218.94 1333.87L1206.76 1326.8L1208.77 1323.34L1220.95 1330.41ZM1196.6 1316.27L1194.59 1319.73L1182.42 1312.66L1184.42 1309.2L1196.6 1316.27ZM1172.25 1302.13L1170.24 1305.58L1164.16 1302.05L1166.17 1298.59L1172.25 1302.13Z" fill="#594AED"/>
<path d="M1457.03 1470.2V1357.07L1555.03 1413.65V1526.77L1457.03 1470.2Z" fill="#594AED"/>
<path d="M1456.03 1355.34C1456.65 1354.98 1457.41 1354.98 1458.03 1355.34L1556.03 1411.92C1556.65 1412.27 1557.03 1412.94 1557.03 1413.65V1526.77C1557.03 1527.48 1556.65 1528.14 1556.03 1528.5C1555.41 1528.86 1554.65 1528.86 1554.03 1528.5L1456.03 1471.93C1455.41 1471.58 1455.03 1470.91 1455.03 1470.2V1357.07L1455.04 1356.94C1455.08 1356.27 1455.45 1355.67 1456.03 1355.34ZM1459.03 1469.04L1553.03 1523.31V1414.8L1459.03 1360.53V1469.04Z" fill="white"/>
<path d="M1555.03 1413.65L1652.73 1357.07V1470.39L1555.03 1526.77V1413.65Z" fill="#594AED"/>
<path d="M1651.85 1355.28C1652.44 1354.98 1653.15 1355 1653.73 1355.34C1654.35 1355.69 1654.73 1356.36 1654.73 1357.07V1470.39C1654.73 1471.1 1654.35 1471.77 1653.73 1472.12L1556.03 1528.5C1555.41 1528.86 1554.65 1528.86 1554.03 1528.5C1553.41 1528.14 1553.03 1527.48 1553.03 1526.77V1413.65L1553.04 1413.52C1553.08 1412.86 1553.45 1412.25 1554.03 1411.92L1651.73 1355.34L1651.85 1355.28ZM1557.03 1414.8V1523.31L1650.73 1469.23V1360.54L1557.03 1414.8Z" fill="white"/>
<path d="M1457.03 1357.07L1555.03 1300.32L1652.73 1357.07L1555.03 1413.65L1457.03 1357.07Z" fill="#594AED"/>
<path d="M1554.15 1298.53C1554.74 1298.23 1555.45 1298.25 1556.04 1298.59L1653.73 1355.34C1654.35 1355.7 1654.73 1356.36 1654.73 1357.07C1654.73 1357.78 1654.35 1358.44 1653.73 1358.8L1556.03 1415.38C1555.45 1415.72 1554.75 1415.74 1554.15 1415.44L1554.03 1415.38L1456.03 1358.8C1455.41 1358.45 1455.03 1357.78 1455.03 1357.07C1455.03 1356.36 1455.41 1355.7 1456.03 1355.34L1554.03 1298.59L1554.15 1298.53ZM1461.03 1357.07L1555.03 1411.34L1648.74 1357.07L1555.03 1302.63L1461.03 1357.07Z" fill="white"/>
<path d="M2 853.85V740.72L100 797.31V910.42L2 853.85Z" fill="#594AED"/>
<path d="M1 738.988C1.61872 738.63 2.38129 738.63 3 738.988L101 795.578C101.619 795.936 102 796.595 102 797.31V910.42C102 911.135 101.619 911.794 101 912.152C100.381 912.509 99.6188 912.509 99 912.152L1 855.582C0.38113 855.225 0 854.564 0 853.85V740.72C0 740.005 0.381162 739.345 1 738.988ZM4 852.695L98 906.955V798.464L4 744.184V852.695Z" fill="white"/>
<path d="M100 797.31L197.7 740.72V854.05L100 910.42V797.31Z" fill="#594AED"/>
<path d="M196.815 738.926C197.411 738.632 198.119 738.653 198.699 738.988C199.318 739.345 199.7 740.005 199.7 740.72V854.05C199.7 854.765 199.318 855.425 198.699 855.783L100.999 912.153C100.38 912.509 99.6185 912.509 99 912.152C98.3814 911.794 98.0001 911.135 98 910.42V797.31C98.0001 796.596 98.3807 795.937 98.998 795.579L196.697 738.99L196.815 738.926ZM102 798.462V906.957L195.7 852.894V744.189L102 798.462Z" fill="white"/>
<path d="M2 740.72L100 683.98L197.7 740.72L100 797.31L2 740.72Z" fill="#594AED"/>
<path d="M99.1162 682.186C99.714 681.891 100.424 681.913 101.005 682.251L198.704 738.991C199.321 739.349 199.701 740.008 199.7 740.721C199.7 741.434 199.319 742.093 198.702 742.451L101.002 799.041C100.383 799.399 99.6196 799.399 99 799.042L1 742.452C0.381663 742.095 0.000436021 741.435 3.30267e-07 740.721C-0.000409207 740.007 0.380082 739.347 0.998047 738.989L98.998 682.25L99.1162 682.186ZM5.99512 740.717L99.999 795L193.713 740.717L99.9971 686.292L5.99512 740.717Z" fill="white"/>
<path d="M675.46 171.87V58.75L773.46 115.33V228.44L675.46 171.87Z" fill="#594AED"/>
<path d="M674.46 57.0176C675.079 56.6605 675.841 56.6605 676.46 57.0176L774.46 113.598C775.079 113.955 775.46 114.616 775.46 115.33V228.44C775.46 229.155 775.079 229.815 774.46 230.172C773.841 230.529 773.079 230.529 772.46 230.172L674.46 173.603C673.841 173.245 673.46 172.585 673.46 171.87V58.75L673.465 58.6172C673.509 57.9544 673.88 57.3526 674.46 57.0176ZM677.46 170.715L771.46 224.976V116.484L677.46 62.2139V170.715Z" fill="white"/>
<path d="M773.46 115.33L871.16 58.75V172.07L773.46 228.44V115.33Z" fill="#594AED"/>
<path d="M870.275 56.956C870.871 56.6621 871.579 56.6828 872.159 57.0175C872.778 57.3747 873.16 58.0351 873.16 58.7499V172.07C873.16 172.785 872.778 173.446 872.159 173.803L774.459 230.172C773.84 230.529 773.079 230.529 772.46 230.172C771.841 229.815 771.46 229.155 771.46 228.44V115.33L771.465 115.197C771.509 114.535 771.879 113.935 772.458 113.6L870.157 57.0195L870.275 56.956ZM775.46 116.482V224.977L869.16 170.914V62.2187L775.46 116.482Z" fill="white"/>
<path d="M675.46 58.75L773.46 2L871.16 58.75L773.46 115.33L675.46 58.75Z" fill="#594AED"/>
<path d="M772.576 0.205998C773.174 -0.0886407 773.883 -0.0672633 774.465 0.270451L872.164 57.0205C872.781 57.3786 873.161 58.0379 873.16 58.7509C873.16 59.464 872.779 60.123 872.162 60.4804L774.462 117.06C773.843 117.419 773.079 117.42 772.46 117.062L674.46 60.4824C673.842 60.1253 673.46 59.465 673.46 58.7509C673.46 58.037 673.84 57.3773 674.458 57.0195L772.458 0.269475L772.576 0.205998ZM679.455 58.746L773.459 113.019L867.173 58.747L773.457 4.31147L679.455 58.746Z" fill="white"/>
<path d="M871.27 1844.88V1731.75L969.26 1788.33V1901.45L871.27 1844.88Z" fill="#594AED"/>
<path d="M870.27 1730.02C870.889 1729.66 871.651 1729.66 872.27 1730.02L970.26 1786.6C970.879 1786.95 971.26 1787.62 971.26 1788.33V1901.45C971.26 1902.16 970.879 1902.82 970.26 1903.18C969.641 1903.54 968.879 1903.54 968.26 1903.18L870.27 1846.61C869.651 1846.26 869.27 1845.59 869.27 1844.88V1731.75C869.27 1731.04 869.651 1730.37 870.27 1730.02ZM873.27 1843.72L967.26 1897.99V1789.48L873.27 1735.21V1843.72Z" fill="white"/>
<path d="M969.26 1788.33L1066.96 1731.75V1845.07L969.26 1901.45V1788.33Z" fill="#594AED"/>
<path d="M1066.08 1729.96C1066.67 1729.66 1067.38 1729.68 1067.96 1730.02C1068.58 1730.37 1068.96 1731.04 1068.96 1731.75V1845.07C1068.96 1845.78 1068.58 1846.44 1067.96 1846.8L970.26 1903.18C969.641 1903.54 968.878 1903.54 968.26 1903.18C967.641 1902.82 967.26 1902.16 967.26 1901.45V1788.33C967.26 1787.62 967.64 1786.96 968.258 1786.6L1065.96 1730.02L1066.08 1729.96ZM971.26 1789.48V1897.99L1064.96 1843.91V1735.22L971.26 1789.48Z" fill="white"/>
<path d="M871.27 1731.75L969.26 1675L1066.96 1731.75L969.26 1788.33L871.27 1731.75Z" fill="#594AED"/>
<path d="M968.375 1673.21C968.973 1672.91 969.683 1672.93 970.264 1673.27L1067.96 1730.02C1068.58 1730.38 1068.96 1731.04 1068.96 1731.75C1068.96 1732.46 1068.58 1733.12 1067.96 1733.48L970.262 1790.06C969.643 1790.42 968.88 1790.42 968.26 1790.06L870.27 1733.48C869.652 1733.13 869.27 1732.47 869.27 1731.75C869.27 1731.04 869.65 1730.38 870.268 1730.02L968.257 1673.27L968.375 1673.21ZM875.265 1731.75L969.258 1786.02L1062.97 1731.75L969.257 1677.31L875.265 1731.75Z" fill="white"/>
<path d="M480.915 902.651L478.906 906.11L473.03 902.697L475.039 899.238L480.915 902.651ZM463.286 892.411L461.277 895.87L449.524 889.044L451.534 885.585L463.286 892.411ZM439.781 878.759L437.772 882.218L426.019 875.392L428.029 871.933L439.781 878.759ZM416.276 865.107L414.267 868.565L402.514 861.739L404.523 858.28L416.276 865.107ZM392.771 851.453L390.762 854.912L379.009 848.086L381.018 844.627L392.771 851.453ZM369.266 837.801L367.257 841.26L355.504 834.434L357.513 830.975L369.266 837.801ZM345.761 824.149L343.751 827.608L332 820.781L334.008 817.323L345.761 824.149ZM322.256 810.496L320.247 813.955L308.495 807.129L310.503 803.67L322.256 810.496ZM298.75 796.844L296.742 800.303L284.99 793.477L286.999 790.018L298.75 796.844ZM275.246 783.192L273.237 786.65L261.484 779.823L263.494 776.365L275.246 783.192ZM251.741 769.538L249.732 772.997L237.979 766.171L239.989 762.712L251.741 769.538ZM228.236 755.886L226.227 759.345L214.474 752.519L216.483 749.06L228.236 755.886ZM204.731 742.234L202.722 745.693L196.845 742.28L198.855 738.821L204.731 742.234Z" fill="#594AED"/>
<path d="M382.924 1072.52L380.916 1075.98L375.04 1072.57L377.048 1069.11L382.924 1072.52ZM365.295 1062.28L363.287 1065.74L351.534 1058.91L353.542 1055.46L365.295 1062.28ZM341.79 1048.63L339.781 1052.09L328.028 1045.26L330.037 1041.8L341.79 1048.63ZM318.284 1034.98L316.275 1038.43L304.522 1031.61L306.531 1028.15L318.284 1034.98ZM294.778 1021.32L292.769 1024.78L281.016 1017.96L283.025 1014.5L294.778 1021.32ZM271.272 1007.67L269.263 1011.13L257.51 1004.3L259.519 1000.84L271.272 1007.67ZM247.766 994.019L245.757 997.478L234.004 990.651L236.013 987.192L247.766 994.019ZM224.26 980.366L222.251 983.825L210.499 976.999L212.507 973.54L224.26 980.366ZM200.754 966.714L198.746 970.173L186.993 963.347L189.001 959.888L200.754 966.714ZM177.249 953.062L175.24 956.52L163.487 949.693L165.496 946.234L177.249 953.062ZM153.743 939.408L151.734 942.867L139.981 936.041L141.99 932.582L153.743 939.408ZM130.237 925.756L128.228 929.215L116.475 922.389L118.484 918.93L130.237 925.756ZM106.731 912.104L104.722 915.563L98.8452 912.149L100.855 908.69L106.731 912.104Z" fill="#594AED"/>
<path d="M873.31 1008.01V1017.6H869.31V1008.01H873.31ZM873.31 969.669V988.842H869.31V969.669H873.31ZM873.31 931.323V950.496H869.31V931.323H873.31ZM873.31 892.977V912.15H869.31V892.977H873.31ZM873.31 854.632V873.805H869.31V854.632H873.31ZM873.31 816.286V835.459H869.31V816.286H873.31ZM873.31 777.94V797.113H869.31V777.94H873.31ZM873.31 739.596V758.769H869.31V739.596H873.31ZM873.31 701.251V720.423H869.31V701.251H873.31ZM873.31 662.905V682.078H869.31V662.905H873.31ZM873.31 624.559V643.732H869.31V624.559H873.31ZM873.31 586.214V605.386H869.31V586.214H873.31ZM873.31 547.868V567.041H869.31V547.868H873.31ZM873.31 509.522V528.695H869.31V509.522H873.31ZM873.31 471.177V490.35H869.31V471.177H873.31ZM873.31 432.832V452.005H869.31V432.832H873.31ZM873.31 394.487V413.66H869.31V394.487H873.31ZM873.31 356.141V375.314H869.31V356.141H873.31ZM873.31 317.795V336.968H869.31V317.795H873.31ZM873.31 279.45V298.623H869.31V279.45H873.31ZM873.31 241.104V260.277H869.31V241.104H873.31ZM873.31 202.759V221.931H869.31V202.759H873.31ZM873.31 174V183.586H869.31V174H873.31Z" fill="#594AED"/>
<path d="M677.61 1008.01V1017.6H673.61V1008.01H677.61ZM677.61 969.669V988.842H673.61V969.669H677.61ZM677.61 931.323V950.496H673.61V931.323H677.61ZM677.61 892.977V912.15H673.61V892.977H677.61ZM677.61 854.632V873.805H673.61V854.632H677.61ZM677.61 816.286V835.459H673.61V816.286H677.61ZM677.61 777.94V797.113H673.61V777.94H677.61ZM677.61 739.596V758.769H673.61V739.596H677.61ZM677.61 701.251V720.423H673.61V701.251H677.61ZM677.61 662.905V682.078H673.61V662.905H677.61ZM677.61 624.559V643.732H673.61V624.559H677.61ZM677.61 586.214V605.386H673.61V586.214H677.61ZM677.61 547.868V567.041H673.61V547.868H677.61ZM677.61 509.522V528.695H673.61V509.522H677.61ZM677.61 471.177V490.35H673.61V471.177H677.61ZM677.61 432.832V452.005H673.61V432.832H677.61ZM677.61 394.487V413.66H673.61V394.487H677.61ZM677.61 356.141V375.314H673.61V356.141H677.61ZM677.61 317.795V336.968H673.61V317.795H677.61ZM677.61 279.45V298.623H673.61V279.45H677.61ZM677.61 241.104V260.277H673.61V241.104H677.61ZM677.61 202.759V221.931H673.61V202.759H677.61ZM677.61 174V183.586H673.61V174H677.61Z" fill="#594AED"/>
<path d="M1069.41 1715.74V1732H1065.41V1715.74H1069.41ZM1069.41 1650.73V1683.24H1065.41V1650.73H1069.41ZM1069.41 1585.71V1618.22H1065.41V1585.71H1069.41ZM1069.41 1520.69V1553.2H1065.41V1520.69H1069.41ZM1069.41 1455.67V1488.18H1065.41V1455.67H1069.41ZM1069.41 1390.65V1423.16H1065.41V1390.65H1069.41ZM1069.41 1341.89V1358.14H1065.41V1341.89H1069.41Z" fill="#594AED"/>
<path d="M873.71 1715.74V1732H869.71V1715.74H873.71ZM873.71 1650.73V1683.24H869.71V1650.73H873.71ZM873.71 1585.71V1618.22H869.71V1585.71H873.71ZM873.71 1520.69V1553.2H869.71V1520.69H873.71ZM873.71 1455.67V1488.18H869.71V1455.67H873.71ZM873.71 1390.65V1423.16H869.71V1390.65H873.71ZM873.71 1341.89V1358.14H869.71V1341.89H873.71Z" fill="#594AED"/>
</svg>
