<svg width="1359" height="1815" viewBox="0 0 1359 1815" fill="none" xmlns="http://www.w3.org/2000/svg">
<g clip-path="url(#clip0_833_84151)">
<path d="M267.63 138.93L72.5402 28.9199L61.6802 35.4299L72.5402 193.9L93.9602 205.97L83.1002 260.05L93.9602 253.54L125.27 223.63L256.77 310.41L267.63 303.9V138.93Z" fill="#231F20"/>
<path d="M269.63 137.762V305.033L256.719 312.772L125.499 226.177L95.3413 254.986L95.1802 255.141L94.9888 255.255L80.2485 264.091L91.7134 206.999L70.6187 195.113L59.6011 34.3447L72.5093 26.6064L269.63 137.762ZM63.7583 36.5156L74.4614 192.687L96.2065 204.94L85.9507 256.009L92.7397 251.938L125.042 221.083L256.821 308.047L265.63 302.767V140.098L72.5708 31.2334L63.7583 36.5156Z" fill="black"/>
<path d="M256.77 145.44L61.6802 35.4297V200.41L83.1002 212.49V260.05L114.41 230.14L256.77 310.41V145.44Z" fill="#5032E4"/>
<path d="M258.77 144.271V313.833L114.719 232.609L81.1001 264.727V213.657L59.6802 201.578V32.0059L258.77 144.271ZM63.6802 199.241L85.1001 211.321V255.372L114.101 227.669L254.77 306.985V146.607L63.6802 38.8535V199.241Z" fill="#231F20"/>
<path d="M737.319 282.873L239.789 2.31348L212.079 18.9235L239.789 423.053L294.399 453.853L266.699 591.763L294.399 575.163L374.259 498.883L709.619 720.203L737.319 703.594V282.873Z" fill="#231F20"/>
<path d="M739.319 281.705V704.727L709.568 722.566L374.487 501.431L295.78 576.609L295.619 576.764L263.848 595.804L292.152 454.882L237.867 424.266L210 17.8379L239.759 0L739.319 281.705ZM214.157 20.0088L241.71 421.841L296.646 452.824L269.551 587.723L293.177 573.564L374.03 496.336L709.67 717.841L735.319 702.46V284.041L239.819 4.62695L214.157 20.0088Z" fill="black"/>
<path d="M709.619 299.473L212.079 18.9233V439.663L266.699 470.463V591.763L346.549 515.483L709.619 720.203V299.473Z" fill="white"/>
<path d="M711.619 298.305V723.627L346.857 517.953L264.699 596.44V471.631L210.079 440.832V15.4995L711.619 298.305ZM214.079 438.495L268.699 469.295V587.085L346.24 513.013L707.619 716.779V300.641L214.079 22.3472V438.495Z" fill="#231F20"/>
<path d="M1356.02 520.54L1107.26 380.26L1093.41 388.57L1107.26 590.63L1134.57 606.03L1120.71 674.99L1134.57 666.68L1174.49 628.54L1342.17 739.21L1356.02 730.9V520.54Z" fill="#231F20"/>
<path d="M1358.02 519.371V732.032L1342.12 741.572L1174.72 631.087L1135.95 668.126L1135.79 668.28L1135.6 668.396L1117.86 679.032L1132.32 607.058L1105.34 591.842L1091.33 387.484L1107.23 377.946L1358.02 519.371ZM1095.49 389.655L1109.18 589.417L1136.82 605.001L1123.56 670.947L1133.35 665.081L1174.26 625.992L1342.22 736.847L1354.02 729.767V521.708L1107.29 382.573L1095.49 389.655Z" fill="black"/>
<path d="M1342.17 528.84L1093.41 388.57V598.94L1120.71 614.33V674.99L1160.64 636.85L1342.17 739.21V528.84Z" fill="#5032E4"/>
<path d="M1344.17 527.671V742.633L1160.95 639.32L1118.71 679.666V615.498L1091.41 600.108V385.146L1344.17 527.671ZM1095.41 597.771L1122.71 613.162V670.314L1160.33 634.379L1340.17 735.785V530.007L1095.41 391.994V597.771Z" fill="#231F20"/>
<path d="M1285.2 888.61L383.7 380.26L333.5 410.35L383.7 1142.63L482.66 1198.43L432.46 1448.32L482.66 1418.23L627.34 1280.01L1235 1681.04L1285.2 1650.95V888.61Z" fill="#231F20"/>
<path d="M1287.2 887.441V1652.08L1234.95 1683.4L627.568 1282.56L484.042 1419.68L483.88 1419.83L483.688 1419.95L429.608 1452.36L480.413 1199.46L381.778 1143.84L331.421 409.265L383.669 377.946L1287.2 887.441ZM335.578 411.436L385.621 1141.42L484.906 1197.4L435.312 1444.28L481.437 1416.63L627.111 1277.46L1235.05 1678.68L1283.2 1649.82V889.777L383.73 382.573L335.578 411.436Z" fill="black"/>
<path d="M1235 918.7L333.5 410.35V1172.72L432.46 1228.52V1448.32L577.14 1310.1L1235 1681.04V918.7Z" fill="white"/>
<path d="M1237 917.531V1684.46L577.448 1312.57L430.46 1453V1229.69L331.5 1173.89V406.926L1237 917.531ZM335.5 1171.55L434.46 1227.35V1443.64L576.831 1307.63L1233 1677.62V919.867L335.5 413.773V1171.55Z" fill="#231F20"/>
<path d="M597.45 906.51L33.4801 588.5L2.08008 607.32L33.4801 1065.42L95.3901 1100.33L63.9901 1256.66L95.3901 1237.83L185.91 1151.36L566.05 1402.25L597.45 1383.42V906.51Z" fill="#231F20"/>
<path d="M599.45 905.342V1384.55L565.999 1404.61L186.139 1153.91L96.7715 1239.28L96.6104 1239.43L96.4189 1239.54L61.1387 1260.7L93.1436 1101.36L31.5586 1066.63L0.000976562 606.234L33.4492 586.187L599.45 905.342ZM4.1582 608.405L35.4014 1064.21L97.6367 1099.3L66.8418 1252.62L94.1719 1236.23L185.682 1148.81L566.101 1399.89L595.45 1382.29V907.678L33.5107 590.812L4.1582 608.405Z" fill="black"/>
<path d="M566.05 925.33L2.08008 607.32V1084.24L63.9901 1119.15V1256.66L154.5 1170.19L566.05 1402.25V925.33Z" fill="#5032E4"/>
<path d="M568.05 924.162V1405.67L154.809 1172.66L61.9902 1261.34V1120.32L0.0800781 1085.41V603.896L568.05 924.162ZM4.08008 1083.07L65.9902 1117.98V1251.98L154.19 1167.72L564.05 1398.82V926.498L4.08008 610.744V1083.07Z" fill="#231F20"/>
<path d="M1145.97 1520.51L815.08 1333.92L796.65 1344.97L815.08 1613.74L851.4 1634.22L832.97 1725.94L851.4 1714.9L904.51 1664.17L1127.54 1811.36L1145.97 1800.32V1520.51Z" fill="#231F20"/>
<path d="M1147.97 1519.34V1801.45L1127.49 1813.72L904.739 1666.72L852.782 1716.35L852.62 1716.5L852.427 1716.62L830.119 1729.98L849.153 1635.25L813.159 1614.95L794.571 1343.88L815.049 1331.61L1147.97 1519.34ZM798.728 1346.05L817.001 1612.53L853.647 1633.19L835.821 1721.9L850.178 1713.3L904.281 1661.62L1127.59 1809L1143.97 1799.19V1521.68L815.11 1336.23L798.728 1346.05Z" fill="black"/>
<path d="M1127.54 1531.55L796.65 1344.97V1624.79L832.97 1645.27V1725.94L886.08 1675.21L1127.54 1811.36V1531.55Z" fill="white"/>
<path d="M1129.54 1530.38V1814.78L886.388 1677.68L830.97 1730.62V1646.44L794.65 1625.96V1341.55L1129.54 1530.38ZM798.65 1623.62L834.97 1644.1V1721.26L885.771 1672.74L1125.54 1807.93V1532.72L798.65 1348.39V1623.62Z" fill="#231F20"/>
</g>
<defs>
<clipPath id="clip0_833_84151">
<rect width="1358.02" height="1814.79" fill="white"/>
</clipPath>
</defs>
</svg>
