<svg width="1449" height="1516" viewBox="0 0 1449 1516" fill="none" xmlns="http://www.w3.org/2000/svg">
<path opacity="0.1" d="M925.14 6.96918L165.49 5.15918L223.02 488.789L33.4399 595.219L620.34 1483.28L1026.21 1238.89L1444.55 1159.08V637.659L1207.39 201.479L925.14 6.96918Z" fill="#5032E4"/>
<path d="M896.31 337.41L849.3 43.4795C849.3 36.4195 899.93 11.0195 905.13 7.64955C910.82 3.95955 918.39 3.20955 925.14 6.96955L1431.99 291.47C1441.17 296.59 1446.85 306.28 1446.85 316.79V630.28C1446.85 632.64 1445.86 635.24 1444.55 637.65C1441.84 642.62 1437.75 646.7 1432.9 649.63L1385.45 678.29L911.17 362.72C901.99 357.6 896.3 347.91 896.3 337.4L896.31 337.41Z" fill="#5032E4"/>
<path d="M1444.85 316.791C1444.85 307.004 1439.56 297.982 1431.02 293.216L1431.01 293.214L924.161 8.71435V8.71338C918.109 5.34465 911.333 6.01027 906.218 9.32763V9.32861C904.83 10.2279 900.573 12.5086 895.165 15.436C889.689 18.4007 882.892 22.1015 876.262 25.9145C869.622 29.7337 863.197 33.6384 858.449 37.0083C856.069 38.6981 854.172 40.2101 852.891 41.4751C852.249 42.1091 851.813 42.6315 851.549 43.0386C851.413 43.2486 851.35 43.386 851.321 43.4595L898.285 337.094C898.312 337.261 898.316 337.427 898.301 337.589C898.369 347.301 903.652 356.237 912.144 360.973C912.189 360.999 912.234 361.026 912.278 361.055L1385.5 675.921L1431.87 647.918L1432.29 647.656C1436.68 644.913 1440.35 641.179 1442.79 636.693C1444.05 634.385 1444.85 632.14 1444.85 630.28V316.791ZM1448.85 630.28C1448.85 633.139 1447.67 636.094 1446.31 638.605L1446.31 638.608C1443.41 643.917 1439.06 648.247 1433.93 651.342L1386.48 680.002C1385.82 680.402 1384.99 680.384 1384.34 679.956L910.112 364.419C900.381 358.952 894.341 348.672 894.301 337.512L847.325 43.7954C847.309 43.6911 847.3 43.5856 847.3 43.48C847.3 42.4767 847.731 41.5729 848.191 40.8638C848.671 40.1215 849.328 39.3711 850.08 38.6284C851.588 37.1399 853.688 35.4833 856.135 33.7466C861.043 30.2631 867.601 26.2823 874.268 22.4478C880.946 18.6071 887.782 14.8847 893.261 11.9185C898.809 8.91505 902.83 6.75692 904.042 5.97119C910.109 2.03697 918.147 1.13056 925.412 4.84814L926.113 5.22314L926.119 5.22607L1432.96 289.723C1442.78 295.197 1448.85 305.557 1448.85 316.791V630.28Z" fill="#231F20"/>
<path d="M845.93 367.95V54.4396C845.93 39.6396 861.84 30.2996 874.76 37.5096L1381.61 322.01C1390.79 327.13 1396.47 336.82 1396.47 347.33V660.82C1396.47 675.62 1380.56 684.96 1367.64 677.75L860.79 393.27C851.61 388.15 845.92 378.46 845.92 367.95H845.93Z" fill="white"/>
<path d="M843.93 54.4396C843.93 38.1133 861.481 27.8092 875.734 35.7629L875.739 35.7658L1382.58 320.263C1392.4 325.737 1398.47 336.096 1398.47 347.329V660.82C1398.47 677.146 1380.92 687.45 1366.67 679.496L1366.66 679.493L859.815 395.017L859.358 394.756C849.814 389.219 843.92 379.009 843.92 367.949C843.92 367.887 843.924 367.825 843.93 367.764V54.4396ZM847.93 367.949C847.93 368.008 847.926 368.066 847.921 368.123C847.983 377.841 853.268 386.784 861.764 391.523L861.769 391.526L1368.61 676.003C1380.2 682.469 1394.47 674.093 1394.47 660.82V347.329C1394.47 337.543 1389.18 328.522 1380.64 323.756L1380.63 323.754L873.781 39.2541V39.2531C862.195 32.7918 847.93 41.1679 847.93 54.4396V367.949Z" fill="#231F20"/>
<path d="M922.35 314.499L1277.25 512.919C1312.47 532.689 1355.95 507.229 1355.95 466.839C1355.95 438.749 1340.79 412.859 1316.3 399.109L949.21 193.849C916.72 175.609 876.6 199.089 876.6 236.359C876.6 268.759 894.09 298.639 922.35 314.499Z" fill="#5032E4"/>
<path d="M874.6 236.359C874.6 197.562 916.363 173.119 950.185 192.103H950.186L1317.28 397.363L1317.28 397.365C1342.4 411.469 1357.95 438.026 1357.95 466.84C1357.95 508.757 1312.83 535.18 1276.27 514.664V514.665L921.374 316.245L921.371 316.243C892.481 300.029 874.6 269.482 874.6 236.359ZM878.6 236.359C878.6 268.036 895.7 297.249 923.328 312.755H923.328L1278.23 511.174L1278.23 511.176C1312.12 530.197 1353.95 505.701 1353.95 466.84C1353.95 439.474 1339.18 414.252 1315.32 400.855L948.234 195.594L948.231 195.593C917.074 178.102 878.6 200.618 878.6 236.359Z" fill="#231F20"/>
<path d="M156.67 373.579L109.66 40.9893C109.66 33.9293 160.29 8.52931 165.49 5.15931C171.18 1.46931 178.75 0.719312 185.5 4.47931L602.22 247.319C611.4 252.439 617.08 262.129 617.08 272.639V624.789C617.08 627.149 616.09 629.749 614.78 632.159C612.07 637.129 607.98 641.209 603.13 644.139L555.68 672.799L171.54 398.899C162.36 393.779 156.67 384.089 156.67 373.579Z" fill="#5032E4"/>
<path d="M615.08 272.639C615.08 262.853 609.791 253.832 601.246 249.066C601.235 249.06 601.224 249.053 601.213 249.046L184.518 6.22119C178.466 2.85412 171.693 3.51955 166.578 6.83643V6.8374C165.19 7.73664 160.933 10.0174 155.525 12.9448C150.049 15.9095 143.252 19.6103 136.622 23.4233C129.982 27.2425 123.557 31.1472 118.809 34.5171C116.429 36.2069 114.532 37.7189 113.251 38.9839C112.609 39.6179 112.173 40.1403 111.909 40.5474C111.768 40.7654 111.705 40.9049 111.678 40.9761L158.65 373.299C158.663 373.392 158.67 373.485 158.67 373.579C158.67 383.211 163.803 392.103 172.116 396.925L172.515 397.152L172.701 397.27L555.77 670.407L602.096 642.427C606.672 639.663 610.499 635.832 613.024 631.202C614.278 628.894 615.08 626.649 615.08 624.789V272.639ZM619.08 624.789C619.08 627.648 617.902 630.602 616.537 633.114L616.536 633.117C613.641 638.426 609.288 642.756 604.164 645.851L556.714 674.511C556.031 674.923 555.168 674.89 554.518 674.427L170.459 400.584C160.752 395.12 154.725 384.866 154.671 373.73L107.68 41.269C107.666 41.1763 107.66 41.0824 107.66 40.9888C107.66 39.9855 108.092 39.0817 108.551 38.3726C109.031 37.6303 109.688 36.8799 110.44 36.1372C111.948 34.6487 114.048 32.9921 116.495 31.2554C121.403 27.7719 127.961 23.7911 134.628 19.9565C141.306 16.1159 148.142 12.3935 153.621 9.42725C159.169 6.42384 163.19 4.26572 164.402 3.47998C170.469 -0.454232 178.507 -1.36066 185.772 2.35694L186.474 2.73194L186.507 2.75049L603.194 245.572L603.651 245.833C613.197 251.37 619.08 261.581 619.08 272.639V624.789Z" fill="#231F20"/>
<path d="M106.29 404.119V51.9493C106.29 37.1493 122.2 27.8093 135.12 35.0193L551.84 277.859C561.02 282.979 566.7 292.669 566.7 303.179V655.329C566.7 670.129 550.79 679.469 537.87 672.259L121.16 429.439C111.98 424.319 106.29 414.629 106.29 404.119Z" fill="white"/>
<path d="M104.29 404.119V51.9493C104.29 35.8781 121.297 25.6425 135.424 32.9131L136.095 33.2725L136.127 33.291L552.814 276.112L553.271 276.373C562.817 281.911 568.7 292.121 568.7 303.18V655.329C568.7 671.656 551.149 681.96 536.896 674.006C536.885 674 536.874 673.994 536.863 673.987L120.186 431.186C110.372 425.712 104.29 415.354 104.29 404.119ZM108.29 404.119C108.29 413.904 113.587 422.926 122.134 427.692C122.145 427.699 122.156 427.705 122.167 427.711L538.845 670.513L539.39 670.805C550.874 676.716 564.7 668.395 564.7 655.329V303.18C564.7 293.394 559.411 284.373 550.866 279.606C550.855 279.6 550.844 279.593 550.833 279.587L134.146 36.7657L133.601 36.4737C122.116 30.5627 108.29 38.8831 108.29 51.9493V404.119Z" fill="#231F20"/>
<path d="M1076.24 1186.51L1024.09 946.59C1024.09 938.76 1080.26 910.58 1086.02 906.84C1092.33 902.75 1100.73 901.91 1108.22 906.09L1428.07 1084.6C1438.25 1090.28 1444.56 1101.03 1444.56 1112.69V1374.31C1444.56 1376.93 1443.47 1379.81 1442.01 1382.49C1439 1388.01 1434.46 1392.53 1429.09 1395.78L1376.46 1427.58L1092.74 1214.6C1082.56 1208.92 1076.25 1198.17 1076.25 1186.51H1076.24Z" fill="#5032E4"/>
<path d="M1442.56 1112.69C1442.56 1101.75 1436.64 1091.67 1427.1 1086.35H1427.09L1107.25 907.835C1100.45 904.045 1092.85 904.797 1087.11 908.516C1085.58 909.509 1080.87 912.034 1074.87 915.286C1068.79 918.575 1061.25 922.683 1053.89 926.915C1046.52 931.152 1039.39 935.487 1034.11 939.232C1031.47 941.109 1029.35 942.794 1027.92 944.209C1027.2 944.919 1026.7 945.511 1026.4 945.981C1026.23 946.241 1026.15 946.415 1026.12 946.511L1078.15 1185.9C1078.22 1186.09 1078.25 1186.3 1078.25 1186.51C1078.25 1197.27 1083.98 1207.21 1093.27 1212.6L1093.71 1212.85L1093.83 1212.92C1093.87 1212.95 1093.9 1212.97 1093.94 1213L1376.58 1425.17L1428.05 1394.07L1428.53 1393.78C1433.26 1390.81 1437.25 1386.82 1439.99 1382.01L1440.25 1381.53C1441.66 1378.96 1442.56 1376.43 1442.56 1374.31V1112.69ZM1446.56 1374.31C1446.56 1377.43 1445.28 1380.66 1443.77 1383.45L1443.77 1383.45C1440.57 1389.31 1435.77 1394.08 1430.13 1397.49H1430.12L1377.49 1429.29C1376.8 1429.71 1375.91 1429.67 1375.26 1429.18L1091.64 1216.27C1080.98 1210.26 1074.35 1199.01 1074.25 1186.78L1022.14 947.014C1022.12 946.945 1022.11 946.874 1022.1 946.803L1022.09 946.589C1022.09 945.538 1022.54 944.578 1023.04 943.806C1023.56 943.001 1024.28 942.181 1025.11 941.363C1026.77 939.724 1029.09 937.894 1031.8 935.97C1037.23 932.112 1044.5 927.7 1051.9 923.447C1059.3 919.187 1066.88 915.059 1072.96 911.768C1079.11 908.44 1083.58 906.039 1084.93 905.162L1084.93 905.161C1091.81 900.7 1101.01 899.773 1109.19 904.342L1429.05 1082.85H1429.04C1439.86 1088.89 1446.56 1100.3 1446.56 1112.69V1374.31Z" fill="#231F20"/>
<path d="M1020.35 1220.39V958.76C1020.35 942.35 1038 931.99 1052.33 939.99L1372.18 1118.5C1382.36 1124.18 1388.67 1134.93 1388.67 1146.59V1408.21C1388.67 1424.62 1371.02 1434.98 1356.69 1426.99L1036.84 1248.5C1026.66 1242.82 1020.35 1232.07 1020.35 1220.41V1220.39Z" fill="white"/>
<path d="M1018.35 1220.41V958.76C1018.35 940.823 1037.64 929.499 1053.31 938.243L1373.15 1116.75L1373.66 1117.04C1384.18 1123.14 1390.67 1134.4 1390.67 1146.59V1408.21C1390.67 1426.15 1371.38 1437.47 1355.72 1428.74H1355.72L1035.87 1250.25C1025.05 1244.21 1018.35 1232.79 1018.35 1220.41ZM1022.35 1220.41C1022.35 1231.34 1028.27 1241.43 1037.81 1246.75L1357.66 1425.24H1357.66C1370.66 1432.49 1386.67 1423.09 1386.67 1408.21V1146.59C1386.67 1135.83 1380.94 1125.89 1371.65 1120.5L1371.21 1120.25L1051.35 941.736V941.735C1038.36 934.48 1022.35 943.877 1022.35 958.76V1220.41Z" fill="#231F20"/>
<path d="M1178.03 1145.9C1184.66 1143.3 1192.15 1144.65 1199.06 1148.98L1208.35 1051.6C1187.53 1041.77 1165.86 1039.66 1146.33 1047.34C1124.34 1055.98 1108.77 1075.54 1100.75 1101L1165.8 1159.1C1168.23 1152.88 1172.38 1148.13 1178.02 1145.91L1178.03 1145.9Z" fill="#635CA8"/>
<path d="M1145.6 1045.48C1165.75 1037.55 1188 1039.78 1209.2 1049.79C1209.97 1050.15 1210.42 1050.95 1210.34 1051.79L1201.05 1149.17C1200.98 1149.86 1200.57 1150.47 1199.94 1150.77C1199.32 1151.08 1198.59 1151.04 1198 1150.67C1191.49 1146.59 1184.69 1145.46 1178.83 1147.74C1178.8 1147.75 1178.78 1147.76 1178.75 1147.77C1173.75 1149.74 1169.94 1154 1167.66 1159.83C1167.42 1160.44 1166.9 1160.89 1166.26 1161.04C1165.63 1161.2 1164.96 1161.03 1164.47 1160.59L1099.42 1102.49C1098.83 1101.97 1098.61 1101.15 1098.84 1100.4C1106.87 1074.93 1122.41 1055.03 1144.54 1045.9L1145.6 1045.48ZM1206.22 1052.82C1186.5 1043.83 1166.23 1041.98 1147.95 1048.86L1147.06 1049.2C1126.13 1057.43 1111.05 1075.93 1103.05 1100.37L1165.08 1155.78C1167.74 1150.44 1171.8 1146.25 1177.16 1144.1C1177.21 1144.08 1177.25 1144.06 1177.3 1144.04C1183.76 1141.5 1190.82 1142.4 1197.36 1145.72L1206.22 1052.82Z" fill="#231F20"/>
<path d="M1219.02 1208.55C1216.54 1214.23 1212.55 1218.55 1207.25 1220.63C1196.18 1224.98 1182.69 1218.28 1173.53 1205.13C1164.75 1221.42 1149.57 1249.67 1139.86 1268.06C1171.49 1306.05 1213.81 1324.16 1249.15 1310.27C1274.43 1300.34 1291.24 1275.96 1297.82 1244.79L1219.02 1208.54V1208.55Z" fill="#BEB5DA"/>
<path d="M1173.42 1203.13C1174.11 1203.09 1174.77 1203.42 1175.17 1203.99C1184.11 1216.82 1196.73 1222.62 1206.52 1218.77H1206.52C1211.2 1216.93 1214.83 1213.09 1217.15 1207.84C1217.3 1207.44 1217.57 1207.09 1217.94 1206.85C1218.51 1206.49 1219.24 1206.44 1219.86 1206.72L1298.66 1242.97C1299.5 1243.36 1299.97 1244.29 1299.78 1245.2C1293.11 1276.8 1275.98 1301.88 1249.88 1312.13V1312.13C1213.38 1326.48 1170.21 1307.64 1138.32 1269.34C1137.8 1268.72 1137.71 1267.84 1138.09 1267.13C1147.81 1248.73 1162.99 1220.47 1171.77 1204.18L1171.83 1204.07C1172.18 1203.52 1172.77 1203.17 1173.42 1203.13ZM1173.8 1208.85C1165.07 1225.05 1151.44 1250.44 1142.26 1267.8C1173.52 1304.77 1214.55 1321.72 1248.42 1308.41L1249.56 1307.95C1272.98 1298.23 1288.92 1275.44 1295.52 1245.93L1219.98 1211.18C1217.39 1216.18 1213.55 1220.13 1208.53 1222.27L1207.98 1222.49C1196.44 1227.02 1183.15 1220.68 1173.8 1208.85Z" fill="#231F20"/>
<path d="M1167.21 1193.26C1162.38 1180.91 1162.18 1168.36 1165.81 1159.09L1100.76 1100.99C1090.76 1132.74 1092.51 1173.66 1108.27 1213.96C1116.36 1234.65 1127.27 1252.94 1139.87 1268.07C1149.58 1249.68 1164.77 1221.43 1173.54 1205.14C1171.08 1201.61 1168.93 1197.62 1167.22 1193.26H1167.21Z" fill="#5032E4"/>
<path d="M1100.23 1099.06C1100.88 1098.88 1101.59 1099.05 1102.09 1099.5L1167.14 1157.6C1167.77 1158.15 1167.98 1159.04 1167.67 1159.82C1164.27 1168.49 1164.39 1180.45 1169.01 1192.37C1169.04 1192.42 1169.06 1192.48 1169.08 1192.53C1170.74 1196.75 1172.81 1200.6 1175.18 1204C1175.61 1204.61 1175.66 1205.42 1175.3 1206.09C1166.53 1222.38 1151.34 1250.62 1141.64 1269C1141.33 1269.59 1140.74 1269.99 1140.08 1270.06C1139.41 1270.13 1138.76 1269.86 1138.33 1269.35C1125.59 1254.05 1114.57 1235.57 1106.41 1214.69C1090.51 1174.03 1088.69 1132.64 1098.85 1100.39L1098.89 1100.27C1099.12 1099.68 1099.62 1099.23 1100.23 1099.06ZM1101.77 1104.57C1092.95 1135.39 1095 1174.54 1110.13 1213.23C1117.74 1232.68 1127.85 1249.97 1139.51 1264.47C1149.02 1246.52 1162.78 1220.9 1171.2 1205.26C1168.98 1201.91 1167.02 1198.19 1165.43 1194.17C1165.4 1194.11 1165.37 1194.05 1165.35 1193.99C1160.59 1181.83 1160.14 1169.34 1163.47 1159.68L1101.77 1104.57Z" fill="#231F20"/>
<path d="M1298.73 1185.95C1296.55 1172.06 1292.75 1157.82 1287.21 1143.66C1285.38 1138.98 1283.4 1134.42 1281.29 1129.99L1209.35 1158.23C1212.82 1162.47 1215.82 1167.55 1218.06 1173.28C1219.43 1176.78 1220.42 1180.29 1221.06 1183.74C1222.78 1192.96 1221.99 1201.74 1219.01 1208.55L1297.81 1244.8C1301.59 1226.93 1302 1206.83 1298.72 1185.94L1298.73 1185.95Z" fill="#A193C7"/>
<path d="M1280.56 1128.13C1281.54 1127.74 1282.64 1128.18 1283.1 1129.13C1285.23 1133.6 1287.22 1138.21 1289.07 1142.93L1289.59 1144.27C1294.9 1158.12 1298.57 1172.04 1300.71 1185.64C1300.71 1185.7 1300.72 1185.76 1300.72 1185.82C1304.01 1206.86 1303.59 1227.13 1299.77 1245.21C1299.64 1245.81 1299.25 1246.31 1298.71 1246.59C1298.17 1246.86 1297.53 1246.87 1296.97 1246.62L1218.17 1210.37C1217.18 1209.91 1216.74 1208.75 1217.18 1207.75C1219.97 1201.38 1220.76 1193.02 1219.09 1184.11L1219.09 1184.1C1218.51 1180.99 1217.64 1177.81 1216.44 1174.64L1216.2 1174.01C1214.03 1168.47 1211.14 1163.57 1207.8 1159.5C1207.4 1159 1207.25 1158.34 1207.41 1157.72C1207.58 1157.11 1208.02 1156.6 1208.62 1156.37L1280.56 1128.13ZM1212.56 1159.12C1215.46 1163.05 1217.97 1167.57 1219.92 1172.55H1219.92C1221.34 1176.17 1222.36 1179.8 1223.03 1183.37H1223.03C1224.66 1192.12 1224.12 1200.59 1221.57 1207.53L1296.35 1241.92C1299.6 1224.94 1299.84 1205.97 1296.74 1186.25C1296.74 1186.19 1296.73 1186.14 1296.72 1186.08C1294.63 1172.82 1291.05 1159.23 1285.86 1145.7L1285.35 1144.39C1283.77 1140.34 1282.07 1136.39 1280.28 1132.53L1212.56 1159.12Z" fill="#231F20"/>
<path d="M1209.36 1158.23L1281.3 1129.99C1263.65 1092.89 1236.8 1065.03 1208.35 1051.6L1199.06 1148.98C1202.73 1151.28 1206.24 1154.41 1209.36 1158.23Z" fill="#8177B7"/>
<path d="M1207.36 1049.86C1207.93 1049.54 1208.61 1049.51 1209.2 1049.79C1238.15 1063.46 1265.3 1091.7 1283.11 1129.13C1283.34 1129.63 1283.36 1130.21 1283.16 1130.72C1282.96 1131.24 1282.55 1131.65 1282.03 1131.85L1210.09 1160.09C1209.28 1160.41 1208.36 1160.17 1207.81 1159.5C1204.81 1155.83 1201.47 1152.85 1198 1150.67C1197.36 1150.27 1197 1149.54 1197.07 1148.79L1206.36 1051.41C1206.42 1050.76 1206.79 1050.18 1207.36 1049.86ZM1201.17 1147.97C1204.29 1150.07 1207.26 1152.72 1209.96 1155.84L1278.56 1128.92C1261.61 1094.23 1236.58 1068.05 1210.07 1054.66L1201.17 1147.97Z" fill="#231F20"/>
<path d="M52.38 1145.1L5.37 618.049C5.37 610.989 56 585.589 61.2 582.219C66.89 578.529 74.46 577.779 81.21 581.539L619.43 891.989C628.61 897.109 634.29 906.799 634.29 917.309V1463.92C634.29 1466.28 633.3 1468.88 631.99 1471.29C629.28 1476.26 625.19 1480.34 620.34 1483.27L572.89 1511.93L67.24 1170.41C58.06 1165.29 52.37 1155.6 52.37 1145.09L52.38 1145.1Z" fill="#5032E4"/>
<path d="M632.29 917.308C632.29 907.522 627.001 898.501 618.456 893.735C618.448 893.73 618.439 893.726 618.431 893.721L80.2235 583.278C74.1728 579.914 67.4012 580.58 62.288 583.896C60.9004 584.795 56.6427 587.077 51.2352 590.004C45.7589 592.969 38.9616 596.67 32.3319 600.483C25.6916 604.302 19.2672 608.207 14.5194 611.577C12.1387 613.267 10.2421 614.779 8.96082 616.043C8.31864 616.677 7.88257 617.2 7.61902 617.607C7.45788 617.856 7.39912 618.003 7.37878 618.062L54.3719 1144.92C54.3825 1145.04 54.3809 1145.16 54.371 1145.27C54.4364 1154.99 59.7205 1163.92 68.2137 1168.66C68.2634 1168.69 68.3121 1168.72 68.3593 1168.75L572.95 1509.56L619.306 1481.56C623.739 1478.88 627.47 1475.2 629.994 1470.76L630.234 1470.33C631.488 1468.02 632.29 1465.78 632.29 1463.92V917.308ZM636.29 1463.92C636.29 1466.78 635.112 1469.73 633.747 1472.24L633.746 1472.25C630.851 1477.56 626.498 1481.88 621.374 1484.98L573.924 1513.64C573.257 1514.04 572.416 1514.02 571.77 1513.59L66.1835 1172.11C56.4187 1166.62 50.37 1156.29 50.37 1145.09C50.37 1145.08 50.37 1145.08 50.37 1145.08L3.37781 618.226C3.37254 618.167 3.37 618.108 3.37 618.048C3.37001 617.045 3.80147 616.141 4.26062 615.432C4.74122 614.69 5.39799 613.939 6.15027 613.197C7.65804 611.708 9.75808 610.052 12.205 608.315C17.1128 604.831 23.6707 600.851 30.3378 597.016C37.0155 593.175 43.8516 589.453 49.3309 586.487C54.8788 583.483 58.8998 581.325 60.1122 580.54C66.1792 576.605 74.2168 575.699 81.4823 579.417L82.1835 579.792L620.404 890.242C630.219 895.716 636.29 906.074 636.29 917.308V1463.92Z" fill="#231F20"/>
<path d="M2 1175.64V629.009C2 614.209 17.91 604.869 30.83 612.079L569.05 922.529C578.23 927.649 583.91 937.339 583.91 947.849V1494.46C583.91 1509.26 568 1518.6 555.08 1511.39L16.87 1200.96C7.69 1195.84 2 1186.15 2 1175.64Z" fill="white"/>
<path d="M0 1175.64V629.009C7.94002e-05 612.938 17.0069 602.702 31.1338 609.973L31.8047 610.332L31.8291 610.347L570.023 920.782C579.838 926.256 585.91 936.615 585.91 947.849V1494.46C585.91 1510.79 568.359 1521.09 554.105 1513.14C554.097 1513.13 554.089 1513.13 554.081 1513.12L15.8711 1202.69V1202.69C6.07258 1197.21 0 1186.86 0 1175.64ZM4 1175.64C4 1185.42 9.29736 1194.45 17.8438 1199.21C17.8521 1199.22 17.8608 1199.22 17.8691 1199.23L556.064 1509.65C567.649 1516.1 581.91 1507.73 581.91 1494.46V947.849C581.91 938.063 576.621 929.042 568.076 924.275C568.068 924.271 568.059 924.267 568.051 924.262L29.8447 613.819C18.26 607.365 4.00008 615.739 4 629.009V1175.64Z" fill="#231F20"/>
<path d="M193.478 2.48926V6.48926H185.5V2.48926H193.478ZM225.388 2.48926V6.48926H209.433V2.48926H225.388ZM257.298 2.48926V6.48926H241.343V2.48926H257.298ZM289.207 2.48926V6.48926H273.253V2.48926H289.207ZM321.117 2.48926V6.48926H305.162V2.48926H321.117ZM353.027 2.48926V6.48926H337.072V2.48926H353.027ZM384.938 2.48926V6.48926H368.982V2.48926H384.938ZM416.848 2.48926V6.48926H400.893V2.48926H416.848ZM448.758 2.48926V6.48926H432.803V2.48926H448.758ZM480.667 2.48926V6.48926H464.713V2.48926H480.667ZM512.577 2.48926V6.48926H496.622V2.48926H512.577ZM544.487 2.48926V6.48926H528.532V2.48926H544.487ZM576.397 2.48926V6.48926H560.442V2.48926H576.397ZM608.308 2.48926V6.48926H592.353V2.48926H608.308ZM640.218 2.48926V6.48926H624.263V2.48926H640.218ZM672.127 2.48926V6.48926H656.172V2.48926H672.127ZM704.037 2.48926V6.48926H688.082V2.48926H704.037ZM735.947 2.48926V6.48926H719.992V2.48926H735.947ZM767.857 2.48926V6.48926H751.902V2.48926H767.857ZM799.768 2.48926V6.48926H783.812V2.48926H799.768ZM831.678 2.48926V6.48926H815.723V2.48926H831.678ZM863.588 2.48926V6.48926H847.633V2.48926H863.588ZM895.497 2.48926V6.48926H879.542V2.48926H895.497ZM919.43 2.48926V6.48926H911.452V2.48926H919.43Z" fill="#5453A3"/>
<path d="M1446.55 1206.21V1214.22H1442.55V1206.21H1446.55ZM1446.55 1174.18V1190.2H1442.55V1174.18H1446.55ZM1446.55 1142.15V1158.17H1442.55V1142.15H1446.55ZM1446.55 1110.12V1126.13H1442.55V1110.12H1446.55ZM1446.55 1078.09V1094.1H1442.55V1078.09H1446.55ZM1446.55 1046.06V1062.07H1442.55V1046.06H1446.55ZM1446.55 1014.02V1030.04H1442.55V1014.02H1446.55ZM1446.55 981.994V998.01H1442.55V981.994H1446.55ZM1446.55 949.963V965.979H1442.55V949.963H1446.55ZM1446.55 917.932V933.947H1442.55V917.932H1446.55ZM1446.55 885.9V901.916H1442.55V885.9H1446.55ZM1446.55 853.869V869.885H1442.55V853.869H1446.55ZM1446.55 821.838V837.854H1442.55V821.838H1446.55ZM1446.55 789.807V805.822H1442.55V789.807H1446.55ZM1446.55 757.775V773.791H1442.55V757.775H1446.55ZM1446.55 725.745V741.761H1442.55V725.745H1446.55ZM1446.55 693.714V709.729H1442.55V693.714H1446.55ZM1446.55 661.683V677.698H1442.55V661.683H1446.55ZM1446.55 637.659V645.667H1442.55V637.659H1446.55Z" fill="#5453A3"/>
<path d="M68.9421 580.059L62.2 583.951L60.2 580.487L66.9421 576.594L68.9421 580.059ZM95.9128 564.486L82.4275 572.272L80.4275 568.809L93.9128 561.022L95.9128 564.486ZM122.883 548.915L109.397 556.7L107.397 553.236L120.883 545.451L122.883 548.915ZM149.852 533.343L136.368 541.129L134.367 537.665L147.852 529.879L149.852 533.343ZM176.822 517.771L163.338 525.558L161.338 522.094L174.822 514.308L176.822 517.771ZM203.793 502.2L190.307 509.985L188.307 506.521L201.793 498.735L203.793 502.2ZM224.02 490.521L217.277 494.414L215.277 490.95L222.02 487.057L224.02 490.521Z" fill="#5453A3"/>
<path d="M43.8101 1146.8V701.47C43.8101 689.42 56.7701 681.81 67.3001 687.68L129.63 722.92C137.11 727.09 141.74 734.98 141.74 743.55V1188.86C141.74 1200.91 128.78 1208.52 118.25 1202.65L55.9201 1167.43C48.4401 1163.26 43.8101 1155.36 43.8101 1146.8Z" fill="#5032E4"/>
<path d="M41.8101 1146.8V701.47C41.8101 688.104 55.9595 679.589 67.7163 685.634L68.2739 685.933L68.2847 685.939L130.615 721.179H130.614C138.722 725.704 143.74 734.259 143.74 743.55V1188.86C143.74 1202.44 129.138 1211.01 117.276 1204.4L117.266 1204.39L54.9458 1169.18C47.085 1164.79 42.1269 1156.61 41.8247 1147.67L41.8101 1146.8ZM45.8101 1146.8L45.8228 1147.53C46.0695 1154.84 49.9968 1161.54 56.2603 1165.32L56.894 1165.68L56.9038 1165.69L119.223 1200.9C128.421 1206.03 139.74 1199.38 139.74 1188.86V743.55C139.74 735.704 135.501 728.483 128.656 724.667L128.646 724.661L66.3267 689.427L65.894 689.194C56.7777 684.507 45.8101 691.112 45.8101 701.47V1146.8Z" fill="#231F20"/>
<path d="M175.93 1223.01V969.529C175.93 957.479 188.89 949.869 199.42 955.739L261.75 990.979C269.23 995.149 273.86 1003.04 273.86 1011.61V1265.08C273.86 1277.13 260.9 1284.74 250.37 1278.87L188.04 1243.65C180.56 1239.48 175.93 1231.58 175.93 1223.02V1223.01Z" fill="#635CA8"/>
<path d="M173.93 1223.02V969.529C173.93 956.164 188.079 947.649 199.836 953.693L200.394 953.992L200.405 953.998L262.735 989.238H262.734C270.842 993.763 275.86 1002.32 275.86 1011.61V1265.08C275.86 1278.66 261.258 1287.23 249.396 1280.62L249.386 1280.61L187.066 1245.4C178.951 1240.87 173.93 1232.3 173.93 1223.02ZM177.93 1223.02C177.93 1230.61 181.908 1237.63 188.38 1241.54L189.014 1241.9L189.024 1241.91L251.343 1277.12C260.541 1282.25 271.86 1275.6 271.86 1265.08V1011.61C271.86 1003.76 267.621 996.543 260.776 992.727L260.766 992.721L198.447 957.486L198.014 957.254C188.898 952.567 177.93 959.171 177.93 969.529V1223.02Z" fill="#231F20"/>
<path d="M307.32 1298.78V1143.04C307.32 1130.99 320.28 1123.38 330.81 1129.25L393.14 1164.49C400.62 1168.66 405.25 1176.55 405.25 1185.12V1340.85C405.25 1352.9 392.29 1360.51 381.76 1354.64L319.43 1319.42C311.95 1315.25 307.32 1307.35 307.32 1298.79V1298.78Z" fill="#8177B7"/>
<path d="M305.32 1298.79V1143.04C305.32 1129.67 319.469 1121.16 331.226 1127.2L331.784 1127.5L331.795 1127.51L394.125 1162.75H394.124C402.232 1167.27 407.25 1175.83 407.25 1185.12V1340.85C407.25 1354.43 392.648 1363 380.786 1356.39L380.776 1356.38L318.456 1321.17C310.341 1316.64 305.32 1308.07 305.32 1298.79ZM309.32 1298.79C309.32 1306.38 313.298 1313.4 319.77 1317.3L320.404 1317.67L320.414 1317.68L382.744 1352.9H382.743C391.939 1358.02 403.25 1351.37 403.25 1340.85V1185.12C403.25 1177.27 399.011 1170.05 392.166 1166.24L392.156 1166.23L329.837 1131L329.404 1130.76C320.288 1126.08 309.32 1132.68 309.32 1143.04V1298.79Z" fill="#231F20"/>
<path d="M445.18 1378.3V990.02C445.18 977.97 458.14 970.359 468.67 976.229L531 1011.47C538.48 1015.64 543.11 1023.53 543.11 1032.1V1420.37C543.11 1432.42 530.15 1440.03 519.62 1434.16L457.29 1398.94C449.81 1394.77 445.18 1386.87 445.18 1378.31V1378.3Z" fill="#A193C7"/>
<path d="M443.18 1378.31V990.02C443.18 976.654 457.329 968.139 469.086 974.184L469.644 974.482L469.655 974.488L531.985 1009.73H531.984C540.092 1014.25 545.11 1022.81 545.11 1032.1V1420.37C545.11 1433.95 530.508 1442.52 518.646 1435.91L518.636 1435.9L456.316 1400.69C448.201 1396.16 443.18 1387.59 443.18 1378.31ZM447.18 1378.31C447.18 1385.9 451.158 1392.92 457.63 1396.83L458.264 1397.19L458.274 1397.2L520.604 1432.42H520.603C529.799 1437.54 541.11 1430.89 541.11 1420.37V1032.1C541.11 1024.25 536.871 1017.03 530.026 1013.22L530.016 1013.21L467.697 977.977L467.264 977.744C458.148 973.057 447.18 979.661 447.18 990.02V1378.31Z" fill="#231F20"/>
<mask id="mask0_1119_16833" style="mask-type:luminance" maskUnits="userSpaceOnUse" x="106" y="32" width="461" height="643">
<path d="M106.29 404.119V51.9493C106.29 37.1493 122.2 27.8093 135.12 35.0193L551.84 277.859C561.02 282.979 566.7 292.669 566.7 303.179V655.329C566.7 670.129 550.79 679.469 537.87 672.259L121.16 429.439C111.98 424.319 106.29 414.629 106.29 404.119Z" fill="white"/>
</mask>
<g mask="url(#mask0_1119_16833)">
<path d="M142.11 251.749V119.819C142.11 110.909 151.69 105.289 159.47 109.629L410.36 255.829C415.89 258.909 419.31 264.749 419.31 271.069V402.989C419.31 411.899 409.73 417.519 401.95 413.179L151.06 266.989C145.53 263.909 142.11 258.069 142.11 251.749Z" fill="#5032E4"/>
<path d="M140.11 251.749V119.82C140.11 109.382 151.332 102.8 160.444 107.883C160.455 107.889 160.466 107.895 160.477 107.902L411.367 254.101H411.366C417.512 257.54 421.31 264.039 421.31 271.07V402.99C421.31 413.427 410.087 420.009 400.975 414.926C400.964 414.92 400.954 414.914 400.943 414.908L150.087 268.737L149.515 268.406C143.686 264.895 140.11 258.573 140.11 251.749ZM144.11 251.749C144.11 257.171 146.952 262.193 151.58 264.98L152.033 265.243L152.067 265.261L402.924 411.433L403.227 411.595C409.618 414.884 417.31 410.256 417.31 402.99V271.07C417.31 265.473 414.281 260.303 409.386 257.577C409.375 257.57 409.364 257.563 409.353 257.557L158.496 111.376L158.192 111.213C151.801 107.925 144.11 112.553 144.11 119.82V251.749Z" fill="#231F20"/>
<path d="M249.53 525.849V393.919C249.53 385.009 259.11 379.389 266.89 383.729L517.78 529.929C523.31 533.009 526.73 538.849 526.73 545.169V677.089C526.73 685.999 517.15 691.619 509.37 687.279L258.48 541.089C252.95 538.009 249.53 532.169 249.53 525.849Z" fill="white"/>
<path d="M247.53 525.849V393.919C247.53 383.481 258.752 376.9 267.864 381.983C267.875 381.989 267.886 381.995 267.897 382.001L518.787 528.201H518.786C524.932 531.639 528.73 538.138 528.73 545.169V677.089C528.73 687.527 517.507 694.109 508.395 689.026C508.384 689.02 508.374 689.013 508.363 689.007L257.507 542.836L256.936 542.505C251.107 538.995 247.53 532.673 247.53 525.849ZM251.53 525.849C251.53 531.271 254.372 536.293 259 539.079L259.453 539.342L259.487 539.361L510.344 685.533L510.647 685.695C517.038 688.983 524.73 684.356 524.73 677.089V545.169C524.73 539.573 521.702 534.402 516.807 531.676C516.796 531.67 516.784 531.663 516.773 531.657L265.916 385.476L265.612 385.313C259.221 382.025 251.53 386.653 251.53 393.919V525.849Z" fill="#231F20"/>
<path d="M263.49 424.809V421.879C263.49 416.249 269.54 412.699 274.45 415.439L499.11 547.359C502.6 549.309 504.76 552.989 504.76 556.989V559.909C504.76 565.539 498.71 569.089 493.8 566.349L269.14 434.429C265.65 432.479 263.49 428.799 263.49 424.799V424.809Z" fill="#231F20"/>
<path d="M263.49 469.419V466.489C263.49 460.859 269.54 457.309 274.45 460.049L499.11 591.969C502.6 593.919 504.76 597.599 504.76 601.599V604.519C504.76 610.149 498.71 613.699 493.8 610.959L269.14 479.039C265.65 477.089 263.49 473.409 263.49 469.409V469.419Z" fill="#231F20"/>
<path d="M263.49 512.969V510.039C263.49 504.409 269.54 500.859 274.45 503.599L499.11 635.519C502.6 637.469 504.76 641.149 504.76 645.149V648.069C504.76 653.699 498.71 657.249 493.8 654.509L269.14 522.589C265.65 520.639 263.49 516.959 263.49 512.959V512.969Z" fill="#231F20"/>
</g>
<path d="M104.29 404.119V51.9493C104.29 35.8781 121.297 25.6425 135.424 32.9131L136.095 33.2725L136.127 33.291L552.814 276.112L553.271 276.373C562.817 281.911 568.7 292.121 568.7 303.18V655.329C568.7 671.656 551.149 681.96 536.896 674.006C536.885 674 536.874 673.994 536.863 673.987L120.186 431.186C110.372 425.712 104.29 415.354 104.29 404.119ZM108.29 404.119C108.29 413.904 113.587 422.926 122.134 427.692C122.145 427.699 122.156 427.705 122.167 427.711L538.845 670.513L539.39 670.805C550.874 676.716 564.7 668.395 564.7 655.329V303.18C564.7 293.394 559.411 284.373 550.866 279.606C550.855 279.6 550.844 279.593 550.833 279.587L134.146 36.7657L133.601 36.4737C122.116 30.5627 108.29 38.8831 108.29 51.9493V404.119Z" fill="#231F20"/>
<path d="M158.46 148.979V146.049C158.46 140.419 164.51 136.869 169.42 139.609L394.08 271.529C397.57 273.479 399.73 277.159 399.73 281.159V284.079C399.73 289.709 393.68 293.259 388.77 290.519L164.11 158.599C160.62 156.649 158.46 152.969 158.46 148.969V148.979Z" fill="#231F20"/>
<path d="M158.46 194.92V191.99C158.46 186.36 164.51 182.81 169.42 185.55L394.08 317.47C397.57 319.42 399.73 323.1 399.73 327.1V330.02C399.73 335.65 393.68 339.2 388.77 336.46L164.11 204.54C160.62 202.59 158.46 198.91 158.46 194.91V194.92Z" fill="#231F20"/>
<path d="M158.46 238.689V235.759C158.46 230.129 164.51 226.579 169.42 229.319L394.08 361.239C397.57 363.189 399.73 366.869 399.73 370.869V373.789C399.73 379.419 393.68 382.969 388.77 380.229L164.11 248.309C160.62 246.359 158.46 242.679 158.46 238.679V238.689Z" fill="#231F20"/>
<path d="M640.046 1468.86L633.006 1473.01L630.974 1469.57L638.014 1465.42L640.046 1468.86ZM668.204 1452.26L654.125 1460.56L652.094 1457.12L666.173 1448.82L668.204 1452.26ZM696.362 1435.66L682.283 1443.96L680.252 1440.52L694.331 1432.22L696.362 1435.66ZM724.521 1419.06L710.442 1427.36L708.41 1423.92L722.49 1415.62L724.521 1419.06ZM752.679 1402.46L738.6 1410.76L736.569 1407.32L750.648 1399.02L752.679 1402.46ZM780.839 1385.86L766.759 1394.16L764.727 1390.72L778.806 1382.42L780.839 1385.86ZM808.997 1369.26L794.918 1377.56L792.886 1374.12L806.966 1365.82L808.997 1369.26ZM837.155 1352.66L823.076 1360.96L821.045 1357.52L835.124 1349.22L837.155 1352.66ZM865.314 1336.06L851.234 1344.36L849.203 1340.92L863.283 1332.62L865.314 1336.06ZM893.472 1319.46L879.393 1327.76L877.362 1324.32L891.441 1316.02L893.472 1319.46ZM921.631 1302.86L907.552 1311.16L905.52 1307.72L919.599 1299.42L921.631 1302.86ZM949.79 1286.26L935.711 1294.56L933.678 1291.12L947.759 1282.82L949.79 1286.26ZM977.948 1269.66L963.869 1277.96L961.838 1274.52L975.917 1266.22L977.948 1269.66ZM1006.11 1253.06L992.027 1261.36L989.996 1257.92L1004.07 1249.62L1006.11 1253.06ZM1027.23 1240.61L1020.19 1244.76L1018.16 1241.32L1025.19 1237.17L1027.23 1240.61Z" fill="#5453A3"/>
</svg>
