<svg width="24" height="25" viewBox="0 0 24 25" fill="none" xmlns="http://www.w3.org/2000/svg">
<path d="M20.3635 7.38592C19.9396 6.36759 19.3548 5.48662 18.6092 4.74287C17.8634 3.99912 16.9974 3.42192 16.0107 3.00998C15.0238 2.59816 13.9603 2.39258 12.8197 2.39258C11.4507 2.39258 10.1736 2.63567 8.9888 3.12084C7.80413 3.60664 6.76447 4.2956 5.86917 5.18848C4.974 6.08161 4.27178 7.13899 3.7629 8.36124C3.25389 9.58375 2.99951 10.923 2.99951 12.3795C2.99951 13.836 3.25389 15.1754 3.76303 16.3978C4.27191 17.6204 4.974 18.6779 5.8693 19.5709C6.7646 20.4638 7.80426 21.1569 8.98893 21.6514C10.1736 22.1458 11.4505 22.3926 12.8198 22.3926V19.0515C13.9602 19.0515 15.024 18.849 16.0107 18.4448C16.9975 18.0402 17.8636 17.4663 18.6092 16.7226C19.3548 15.9786 19.9396 15.0978 20.3635 14.0798C20.7875 13.0616 20.9995 11.9461 20.9995 10.7328C20.9995 9.51949 20.7875 8.40387 20.3635 7.38579V7.38592ZM12.8197 19.0513C12.2428 19.0513 11.7049 18.9474 11.2057 18.7391C10.7067 18.5309 10.2686 18.2389 9.89149 17.8626C9.5144 17.4864 9.21855 17.0409 9.00422 16.5258C8.78976 16.0108 8.68259 15.4465 8.68259 14.833C8.68259 14.2194 8.78976 13.6552 9.00422 13.1402C9.21855 12.6252 9.5144 12.1797 9.89149 11.8035C10.2687 11.4272 10.7067 11.137 11.2057 10.9324C11.7049 10.7279 12.2429 10.6255 12.8197 10.6255V19.0515V19.0513Z" fill="#F0F0FF"/>
</svg>
