<svg width="48" height="48" viewBox="0 0 48 48" fill="none" xmlns="http://www.w3.org/2000/svg">
<path d="M40.727 13.9833C39.8793 11.9466 38.7096 10.1847 37.2184 8.69716C35.7269 7.20967 33.9948 6.05526 32.0215 5.23138C30.0477 4.40775 27.9207 3.99658 25.6394 3.99658C22.9013 3.99658 20.3472 4.48277 17.9776 5.4531C15.6083 6.4247 13.5289 7.80262 11.7383 9.58838C9.948 11.3747 8.54355 13.4894 7.52579 15.9339C6.50777 18.3789 5.99902 21.0574 5.99902 23.9705C5.99902 26.8835 6.50777 29.5623 7.52605 32.007C8.54381 34.4523 9.948 36.5673 11.7386 38.3533C13.5292 40.1391 15.6085 41.5252 17.9779 42.5142C20.3472 43.503 22.9011 43.9966 25.6397 43.9966V37.3144C27.9204 37.3144 30.0479 36.9094 32.0215 36.1011C33.9951 35.2918 35.7271 34.1441 37.2184 32.6566C38.7096 31.1686 39.8793 29.4071 40.727 27.371C41.575 25.3346 41.999 23.1036 41.999 20.677C41.999 18.2504 41.575 16.0192 40.727 13.983V13.9833ZM25.6394 37.3141C24.4856 37.3141 23.4098 37.1062 22.4115 36.6897C21.4134 36.2731 20.5372 35.6892 19.783 34.9367C19.0288 34.1842 18.4371 33.2933 18.0084 32.2631C17.5795 31.2331 17.3652 30.1045 17.3652 28.8774C17.3652 27.6503 17.5795 26.5217 18.0084 25.4918C18.4371 24.4618 19.0288 23.5708 19.783 22.8184C20.5374 22.0659 21.4134 21.4855 22.4115 21.0761C23.4098 20.6673 24.4859 20.4624 25.6394 20.4624V37.3144V37.3141Z" fill="#00010C"/>
</svg>
