<svg width="1920" height="1920" viewBox="0 0 1920 1920" fill="none" xmlns="http://www.w3.org/2000/svg">
<mask id="mask0_1058_13716" style="mask-type:luminance" maskUnits="userSpaceOnUse" x="0" y="0" width="1920" height="1920">
<path d="M1920 0H0V1920H1920V0Z" fill="white"/>
</mask>
<g mask="url(#mask0_1058_13716)">
<path d="M-183.66 293.8V178.2L367.48 497.02V612.6L-183.66 293.8Z" fill="#5032E4"/>
<path d="M-184.659 176.468C-184.04 176.111 -183.278 176.111 -182.659 176.469L368.482 495.289C369.099 495.646 369.48 496.306 369.48 497.02V612.6C369.479 613.315 369.099 613.976 368.48 614.333C367.86 614.69 367.097 614.689 366.479 614.331L-184.661 295.531C-185.279 295.174 -185.66 294.514 -185.66 293.8V178.2L-185.655 178.066C-185.611 177.404 -185.239 176.802 -184.659 176.468ZM-181.66 292.646L365.48 609.132V498.173L-181.66 181.667V292.646Z" fill="white"/>
<path d="M367.48 497.02L467.32 439.2V555L367.48 612.6V497.02Z" fill="#120B47"/>
<path d="M466.318 437.47C466.937 437.111 467.699 437.111 468.319 437.468C468.938 437.825 469.32 438.485 469.32 439.2V555C469.32 555.714 468.939 556.375 468.32 556.732L368.479 614.333C367.86 614.69 367.098 614.689 366.48 614.332C365.861 613.975 365.48 613.315 365.48 612.6V497.02L365.485 496.887C365.529 496.225 365.899 495.624 366.478 495.289L466.318 437.47ZM369.48 498.173V609.138L465.32 553.845V442.669L369.48 498.173Z" fill="white"/>
<path d="M-183.66 178.2L-83.82 120.39L467.32 439.2L367.48 497.02L-183.66 178.2Z" fill="#5032E4"/>
<path d="M-84.704 118.596C-84.1073 118.302 -83.3992 118.323 -82.8182 118.659L468.321 437.469C468.939 437.827 469.319 438.486 469.319 439.2C469.32 439.913 468.94 440.573 468.322 440.931L368.483 498.75C367.863 499.109 367.098 499.11 366.479 498.751L-184.661 179.931C-185.279 179.574 -185.66 178.914 -185.66 178.201C-185.66 177.487 -185.28 176.827 -184.662 176.469L-84.8221 118.66L-84.704 118.596ZM-179.668 178.199L367.48 494.708L463.327 439.201L-83.8202 122.701L-179.668 178.199Z" fill="white"/>
<path d="M1301.34 1765.8V1650.2L1852.48 1969.02V2084.6L1301.34 1765.8Z" fill="#5032E4"/>
<path d="M1300.34 1648.47C1300.96 1648.11 1301.72 1648.11 1302.34 1648.47L1853.48 1967.29C1854.1 1967.65 1854.48 1968.31 1854.48 1969.02V2084.6C1854.48 2085.32 1854.1 2085.98 1853.48 2086.33C1852.86 2086.69 1852.1 2086.69 1851.48 2086.33L1300.34 1767.53C1299.72 1767.17 1299.34 1766.51 1299.34 1765.8V1650.2C1299.34 1649.49 1299.72 1648.82 1300.34 1648.47ZM1303.34 1764.65L1850.48 2081.13V1970.17L1303.34 1653.67V1764.65Z" fill="white"/>
<path d="M1852.48 1969.02L1952.32 1911.2V2027L1852.48 2084.6V1969.02Z" fill="#120B47"/>
<path d="M1951.32 1909.47C1951.94 1909.11 1952.7 1909.11 1953.32 1909.47C1953.94 1909.82 1954.32 1910.48 1954.32 1911.2V2027C1954.32 2027.71 1953.94 2028.37 1953.32 2028.73L1853.48 2086.33C1852.86 2086.69 1852.1 2086.69 1851.48 2086.33C1850.86 2085.97 1850.48 2085.31 1850.48 2084.6V1969.02C1850.48 1968.31 1850.86 1967.65 1851.48 1967.29L1951.32 1909.47ZM1854.48 1970.17V2081.14L1950.32 2025.84V1914.67L1854.48 1970.17Z" fill="white"/>
<path d="M1301.34 1650.2L1401.18 1592.39L1952.32 1911.2L1852.48 1969.02L1301.34 1650.2Z" fill="#5032E4"/>
<path d="M1400.3 1590.6C1400.89 1590.3 1401.6 1590.32 1402.18 1590.66L1953.32 1909.47C1953.94 1909.83 1954.32 1910.49 1954.32 1911.2C1954.32 1911.91 1953.94 1912.57 1953.32 1912.93L1853.48 1970.75C1852.86 1971.11 1852.1 1971.11 1851.48 1970.75L1300.34 1651.93C1299.72 1651.57 1299.34 1650.91 1299.34 1650.2C1299.34 1649.49 1299.72 1648.83 1300.34 1648.47L1400.18 1590.66L1400.3 1590.6ZM1305.33 1650.2L1852.48 1966.71L1948.33 1911.2L1401.18 1594.7L1305.33 1650.2Z" fill="white"/>
<path d="M1388.91 900.76V785.16L1489.05 842.98V958.56L1388.91 900.76Z" fill="#120B47"/>
<path d="M1387.91 783.428C1388.53 783.07 1389.29 783.07 1389.91 783.428L1490.05 841.248C1490.67 841.605 1491.05 842.266 1491.05 842.98V958.56C1491.05 959.275 1490.67 959.935 1490.05 960.292C1489.43 960.649 1488.67 960.649 1488.05 960.292L1387.91 902.492C1387.29 902.135 1386.91 901.474 1386.91 900.76V785.16C1386.91 784.445 1387.29 783.785 1387.91 783.428ZM1390.91 899.605L1487.05 955.095V844.134L1390.91 788.624V899.605Z" fill="white"/>
<path d="M1388.91 785.16L2039.74 410.35L2139.89 468.16L1489.05 842.98L1388.91 785.16Z" fill="#5032E4"/>
<path d="M2038.86 408.554C2039.45 408.262 2040.16 408.283 2040.74 408.618L2140.89 466.428C2141.51 466.785 2141.89 467.446 2141.89 468.161C2141.89 468.875 2141.51 469.536 2140.89 469.893L1490.05 844.713C1489.43 845.069 1488.67 845.069 1488.05 844.712L1387.91 786.892C1387.29 786.534 1386.91 785.873 1386.91 785.159C1386.91 784.444 1387.29 783.784 1387.91 783.427L2038.74 408.617L2038.86 408.554ZM1392.91 785.161L1489.05 840.67L2135.89 468.158L2039.74 412.659L1392.91 785.161Z" fill="white"/>
<path d="M2139.89 468.16L2137.99 581.79L1489.05 958.56V842.98L2139.89 468.16Z" fill="#5032E4"/>
<path d="M2138.89 466.427C2139.52 466.067 2140.28 466.072 2140.91 466.437C2141.53 466.803 2141.9 467.473 2141.89 468.193L2139.99 581.823C2139.98 582.524 2139.6 583.167 2138.99 583.519L1490.05 960.29C1489.44 960.649 1488.67 960.65 1488.05 960.293C1487.43 959.936 1487.05 959.276 1487.05 958.56V842.98C1487.05 842.265 1487.43 841.604 1488.05 841.247L2138.89 466.427ZM1491.05 844.136V955.086L2136.01 580.627L2137.83 471.653L1491.05 844.136Z" fill="white"/>
<path d="M835 309.43V-211.17L935.14 -153.35V367.23L835 309.43Z" fill="#5032E4"/>
<path d="M834 -212.902C834.619 -213.26 835.381 -213.26 836 -212.902L936.14 -155.082C936.758 -154.725 937.14 -154.064 937.14 -153.35V367.23C937.139 367.945 936.759 368.605 936.141 368.962C935.522 369.319 934.759 369.319 934.141 368.962L834 311.162C833.381 310.805 833 310.144 833 309.43V-211.17L833.005 -211.303C833.049 -211.966 833.42 -212.567 834 -212.902ZM837 308.275L933.14 363.766V-152.196L837 -207.706V308.275Z" fill="white"/>
<path d="M1034.98 -211.17V309.87L935.14 367.23V-153.35L1034.98 -211.17Z" fill="#5032E4"/>
<path d="M1033.98 -212.9C1034.6 -213.259 1035.36 -213.259 1035.98 -212.902C1036.6 -212.545 1036.98 -211.885 1036.98 -211.17V309.87C1036.98 310.586 1036.6 311.248 1035.98 311.604L936.136 368.964C935.517 369.319 934.756 369.318 934.138 368.961C933.52 368.603 933.14 367.944 933.14 367.23V-153.35C933.14 -154.063 933.521 -154.724 934.138 -155.081L1033.98 -212.9ZM937.14 -152.197V363.774L1032.98 308.712V-207.701L937.14 -152.197Z" fill="white"/>
<path d="M317 2038.43V1372.83L417.14 1430.65V2096.23L317 2038.43Z" fill="#5032E4"/>
<path d="M316 1371.1C316.619 1370.74 317.381 1370.74 318 1371.1L418.14 1428.92C418.758 1429.28 419.14 1429.94 419.14 1430.65V2096.23C419.139 2096.94 418.758 2097.6 418.14 2097.96C417.521 2098.32 416.759 2098.32 416.141 2097.96L316 2040.16C315.381 2039.8 315 2039.14 315 2038.43V1372.83C315 1372.12 315.381 1371.45 316 1371.1ZM319 2037.28L415.14 2092.77V1431.8L319 1376.29V2037.28Z" fill="white"/>
<path d="M317 1372.83L416.84 1315.02L516.98 1372.83L417.14 1430.65L317 1372.83Z" fill="#120B47"/>
<path d="M415.955 1313.23C416.551 1312.93 417.259 1312.95 417.84 1313.29L517.979 1371.1C518.598 1371.46 518.98 1372.11 518.98 1372.83C518.981 1373.54 518.6 1374.2 517.982 1374.56L418.143 1432.38C417.523 1432.74 416.759 1432.74 416.14 1432.38L316 1374.56C315.382 1374.21 315.001 1373.55 315 1372.83C315 1372.12 315.38 1371.46 315.998 1371.1L415.838 1313.29L415.955 1313.23ZM320.995 1372.83L417.138 1428.34L512.984 1372.83L416.84 1317.33L320.995 1372.83Z" fill="white"/>
<path d="M516.98 1372.83V2038.87L417.14 2096.23V1430.65L516.98 1372.83Z" fill="#5032E4"/>
<path d="M515.978 1371.1C516.597 1370.74 517.359 1370.74 517.979 1371.1C518.598 1371.45 518.98 1372.12 518.98 1372.83V2038.87C518.98 2039.59 518.597 2040.25 517.976 2040.6L418.136 2097.96C417.517 2098.32 416.756 2098.32 416.138 2097.96C415.52 2097.6 415.14 2096.94 415.14 2096.23V1430.65L415.145 1430.52C415.189 1429.85 415.559 1429.25 416.138 1428.92L515.978 1371.1ZM419.14 1431.8V2092.77L514.98 2037.71V1376.3L419.14 1431.8Z" fill="white"/>
<path d="M417 1082C472.228 1082 517 1037.23 517 982C517 926.772 472.228 882 417 882C361.771 882 317 926.772 317 982C317 1037.23 361.771 1082 417 1082Z" fill="white"/>
<path d="M515 982C515 927.876 471.124 884 417 884C362.876 884 319 927.876 319 982C319 1036.12 362.876 1080 417 1080C471.124 1080 515 1036.12 515 982ZM519 982C519 1038.33 473.333 1084 417 1084C360.667 1084 315 1038.33 315 982C315 925.667 360.667 880 417 880C473.333 880 519 925.667 519 982Z" fill="#231F20"/>
<path d="M1226 1095C1281.23 1095 1326 1050.23 1326 995C1326 939.772 1281.23 895 1226 895C1170.77 895 1126 939.772 1126 995C1126 1050.23 1170.77 1095 1226 1095Z" fill="white"/>
<path d="M1324 995C1324 940.876 1280.12 897 1226 897C1171.88 897 1128 940.876 1128 995C1128 1049.12 1171.88 1093 1226 1093C1280.12 1093 1324 1049.12 1324 995ZM1328 995C1328 1051.33 1282.33 1097 1226 1097C1169.67 1097 1124 1051.33 1124 995C1124 938.667 1169.67 893 1226 893C1282.33 893 1328 938.667 1328 995Z" fill="#231F20"/>
<path d="M935 1535C990.228 1535 1035 1490.23 1035 1435C1035 1379.77 990.228 1335 935 1335C879.772 1335 835 1379.77 835 1435C835 1490.23 879.772 1535 935 1535Z" fill="white"/>
<path d="M1033 1435C1033 1380.88 989.124 1337 935 1337C880.876 1337 837 1380.88 837 1435C837 1489.12 880.876 1533 935 1533C989.124 1533 1033 1489.12 1033 1435ZM1037 1435C1037 1491.33 991.333 1537 935 1537C878.667 1537 833 1491.33 833 1435C833 1378.67 878.667 1333 935 1333C991.333 1333 1037 1378.67 1037 1435Z" fill="#231F20"/>
<path d="M518.98 1364.83V1372.83H514.98V1364.83H518.98Z" fill="#5032E4"/>
<path d="M518.98 1341.76V1349.34H514.98V1341.76H518.98ZM518.98 1311.42V1326.59H514.98V1311.42H518.98ZM518.98 1281.09V1296.26H514.98V1281.09H518.98ZM518.98 1250.76V1265.92H514.98V1250.76H518.98ZM518.98 1220.42V1235.59H514.98V1220.42H518.98ZM518.98 1190.09V1205.26H514.98V1190.09H518.98ZM518.98 1159.76V1174.92H514.98V1159.76H518.98ZM518.98 1129.42V1144.59H514.98V1129.42H518.98ZM518.98 1099.09V1114.26H514.98V1099.09H518.98ZM518.98 1068.76V1083.92H514.98V1068.76H518.98ZM518.98 1038.42V1053.59H514.98V1038.42H518.98ZM518.98 1008.09V1023.26H514.98V1008.09H518.98ZM518.98 985.34V992.923H514.98V985.34H518.98Z" fill="#5032E4"/>
<path d="M518.98 969.6V977.6H514.98V969.6H518.98Z" fill="#5032E4"/>
<path d="M1036.98 1427V1435H1032.98V1427H1036.98Z" fill="#5032E4"/>
<path d="M1036.98 1402.94V1410.92H1032.98V1402.94H1036.98ZM1036.98 1371.02V1386.98H1032.98V1371.02H1036.98ZM1036.98 1339.1V1355.06H1032.98V1339.1H1036.98ZM1036.98 1307.18V1323.14H1032.98V1307.18H1036.98ZM1036.98 1275.26V1291.22H1032.98V1275.26H1036.98ZM1036.98 1243.34V1259.3H1032.98V1243.34H1036.98ZM1036.98 1211.42V1227.38H1032.98V1211.42H1036.98ZM1036.98 1179.5V1195.46H1032.98V1179.5H1036.98ZM1036.98 1147.58V1163.54H1032.98V1147.58H1036.98ZM1036.98 1115.66V1131.62H1032.98V1115.66H1036.98ZM1036.98 1083.74V1099.7H1032.98V1083.74H1036.98ZM1036.98 1051.82V1067.78H1032.98V1051.82H1036.98ZM1036.98 1019.9V1035.86H1032.98V1019.9H1036.98ZM1036.98 987.98V1003.94H1032.98V987.98H1036.98ZM1036.98 956.06V972.02H1032.98V956.06H1036.98ZM1036.98 924.14V940.1H1032.98V924.14H1036.98ZM1036.98 892.22V908.18H1032.98V892.22H1036.98ZM1036.98 860.3V876.26H1032.98V860.3H1036.98ZM1036.98 828.38V844.34H1032.98V828.38H1036.98ZM1036.98 796.46V812.42H1032.98V796.46H1036.98ZM1036.98 764.54V780.5H1032.98V764.54H1036.98ZM1036.98 732.619V748.58H1032.98V732.619H1036.98ZM1036.98 700.7V716.659H1032.98V700.7H1036.98ZM1036.98 668.78V684.74H1032.98V668.78H1036.98ZM1036.98 636.86V652.82H1032.98V636.86H1036.98ZM1036.98 604.94V620.9H1032.98V604.94H1036.98ZM1036.98 573.02V588.98H1032.98V573.02H1036.98ZM1036.98 541.1V557.06H1032.98V541.1H1036.98ZM1036.98 509.18V525.14H1032.98V509.18H1036.98ZM1036.98 477.26V493.22H1032.98V477.26H1036.98ZM1036.98 445.34V461.3H1032.98V445.34H1036.98ZM1036.98 413.42V429.38H1032.98V413.42H1036.98ZM1036.98 381.5V397.46H1032.98V381.5H1036.98ZM1036.98 349.58V365.54H1032.98V349.58H1036.98ZM1036.98 325.64V333.62H1032.98V325.64H1036.98Z" fill="#5032E4"/>
<path d="M1036.98 309.6V317.6H1032.98V309.6H1036.98Z" fill="#5032E4"/>
<path d="M837 1427V1435H833V1427H837Z" fill="#5032E4"/>
<path d="M837 1402.94V1410.92H833V1402.94H837ZM837 1371.02V1386.98H833V1371.02H837ZM836.999 1339.1V1355.06H832.999V1339.1H836.999ZM836.998 1307.18L836.999 1323.14H832.999L832.998 1307.18H836.998ZM836.998 1275.26V1291.22L832.998 1291.22V1275.26H836.998ZM836.997 1243.34L836.998 1259.3H832.998L832.997 1243.34H836.997ZM836.997 1211.42V1227.38H832.997V1211.42H836.997ZM836.996 1179.5V1195.46H832.996V1179.5H836.996ZM836.995 1147.58L836.996 1163.54H832.996L832.995 1147.58H836.995ZM836.995 1115.66V1131.62H832.995V1115.66H836.995ZM836.994 1083.74L836.995 1099.7H832.995L832.994 1083.74H836.994ZM836.994 1051.82V1067.78H832.994V1051.82H836.994ZM836.993 1019.9V1035.86L832.993 1035.86V1019.9H836.993ZM836.992 987.98L836.993 1003.94H832.993L832.992 987.98H836.992ZM836.992 956.06V972.02H832.992V956.06H836.992ZM836.991 924.14L836.992 940.1H832.992L832.991 924.14H836.991ZM836.991 892.22V908.18H832.991V892.22H836.991ZM836.99 860.3V876.26H832.99V860.3H836.99ZM836.989 828.38L836.99 844.34H832.99L832.989 828.38H836.989ZM836.989 796.46V812.42H832.989V796.46H836.989ZM836.988 764.54L836.989 780.5H832.989L832.988 764.54H836.988ZM836.988 732.619V748.579L832.988 748.58V732.62L836.988 732.619ZM836.987 700.7V716.659L832.987 716.66V700.7H836.987ZM836.986 668.78L836.987 684.74H832.987L832.986 668.78H836.986ZM836.986 636.86V652.82H832.986V636.86H836.986ZM836.985 604.94L836.986 620.9H832.986L832.985 604.94H836.985ZM836.985 573.02V588.98H832.985V573.02H836.985ZM836.984 541.1V557.06H832.984V541.1H836.984ZM836.983 509.18L836.984 525.14H832.984L832.983 509.18H836.983ZM836.983 477.26V493.22H832.983V477.26H836.983ZM836.982 445.34L836.983 461.3H832.983L832.982 445.34H836.982ZM836.982 413.42V429.38H832.982V413.42H836.982ZM836.981 381.5V397.46H832.981V381.5H836.981ZM836.98 349.58L836.981 365.54H832.981L832.98 349.58H836.98ZM836.98 325.64V333.619L832.98 333.62V325.64H836.98Z" fill="#5032E4"/>
<path d="M836.98 309.6V317.6H832.98V309.6H836.98Z" fill="#5032E4"/>
<path d="M319 1364.83V1372.83H315V1364.83H319Z" fill="#5032E4"/>
<path d="M319 1341.76V1349.34H315V1341.76H319ZM319 1311.42V1326.59H315V1311.42H319ZM319 1281.09V1296.26H315V1281.09H319ZM319 1250.76V1265.92H315V1250.76H319ZM319 1220.42V1235.59H315V1220.42H319ZM319 1190.09V1205.26H315V1190.09H319ZM319 1159.76V1174.92H315V1159.76H319ZM319 1129.42V1144.59H315V1129.42H319ZM319 1099.09V1114.26H315V1099.09H319ZM319 1068.76V1083.92H315V1068.76H319ZM319 1038.42V1053.59H315V1038.42H319ZM319 1008.09V1023.26H315V1008.09H319ZM319 985.34V992.923H315V985.34H319Z" fill="#5032E4"/>
<path d="M319 969.6V977.6H315V969.6H319Z" fill="#5032E4"/>
<path d="M10.9375 1332.74L3.99805 1336.73L2.00195 1333.27L8.94141 1329.27L10.9375 1332.74ZM38.6953 1316.75L24.8164 1324.75L22.8203 1321.28L36.7002 1313.29L38.6953 1316.75ZM66.4541 1300.77L52.5752 1308.76L50.5791 1305.3L64.458 1297.3L66.4541 1300.77ZM94.2119 1284.79L80.333 1292.78L78.3369 1289.31L92.2158 1281.32L94.2119 1284.79ZM121.971 1268.8L108.092 1276.79L106.096 1273.33L119.975 1265.34L121.971 1268.8ZM149.729 1252.82L135.85 1260.81L133.854 1257.35L147.732 1249.35L149.729 1252.82ZM177.487 1236.84L163.607 1244.83L161.612 1241.36L175.491 1233.37L177.487 1236.84ZM205.245 1220.85L191.366 1228.84L189.37 1225.38L203.249 1217.39L205.245 1220.85ZM233.004 1204.87L219.124 1212.86L217.128 1209.39L231.008 1201.4L233.004 1204.87ZM260.762 1188.89L246.883 1196.88L244.887 1193.41L258.766 1185.42L260.762 1188.89ZM288.52 1172.9L274.641 1180.89L272.645 1177.43L286.524 1169.44L288.52 1172.9ZM316.278 1156.92L302.399 1164.91L300.403 1161.44L314.282 1153.45L316.278 1156.92ZM344.036 1140.94L330.157 1148.93L328.161 1145.46L342.04 1137.47L344.036 1140.94ZM371.795 1124.95L357.916 1132.94L355.92 1129.48L369.799 1121.49L371.795 1124.95ZM399.553 1108.97L385.674 1116.96L383.678 1113.49L397.557 1105.5L399.553 1108.97ZM427.312 1092.98L413.432 1100.98L411.436 1097.51L425.315 1089.52L427.312 1092.98ZM455.069 1077L441.19 1084.99L439.194 1081.53L453.073 1073.53L455.069 1077ZM475.888 1065.01L468.948 1069.01L466.952 1065.54L473.892 1061.55L475.888 1065.01Z" fill="#5032E4"/>
<path d="M1295.21 1071.6L1287.99 1075.74L1286.01 1072.26L1293.22 1068.13L1295.21 1071.6ZM1324.05 1055.07L1309.63 1063.34L1307.64 1059.87L1322.06 1051.6L1324.05 1055.07ZM1352.89 1038.54L1338.47 1046.81L1336.48 1043.33L1350.9 1035.07L1352.89 1038.54ZM1381.73 1022.01L1367.31 1030.27L1365.32 1026.8L1379.74 1018.54L1381.73 1022.01ZM1410.57 1005.48L1396.15 1013.74L1394.16 1010.27L1408.58 1002.01L1410.57 1005.48ZM1439.41 988.945L1424.99 997.211L1423 993.741L1437.42 985.474L1439.41 988.945ZM1468.25 972.414L1453.83 980.679L1451.84 977.209L1466.26 968.943L1468.25 972.414ZM1489.88 960.015L1482.67 964.148L1480.69 960.677L1487.9 956.545L1489.88 960.015Z" fill="#5032E4"/>
<path d="M10.9961 1101.7L3.99902 1105.73L2.00098 1102.27L8.99902 1098.23L10.9961 1101.7ZM38.9883 1085.57L24.9922 1093.63L22.9951 1090.17L36.9912 1082.1L38.9883 1085.57ZM66.9795 1069.44L52.9834 1077.5L50.9863 1074.04L64.9824 1065.97L66.9795 1069.44ZM94.9707 1053.3L80.9756 1061.37L78.9785 1057.9L92.9736 1049.84L94.9707 1053.3ZM122.963 1037.17L108.967 1045.24L106.97 1041.77L120.966 1033.7L122.963 1037.17ZM150.954 1021.04L136.958 1029.1L134.961 1025.64L148.957 1017.57L150.954 1021.04ZM178.945 1004.91L164.95 1012.97L162.953 1009.51L176.948 1001.44L178.945 1004.91ZM206.938 988.773L192.941 996.84L190.944 993.374L204.94 985.308L206.938 988.773ZM234.929 972.641L220.934 980.708L218.936 977.242L232.932 969.176L234.929 972.641ZM262.921 956.509L248.925 964.575L246.928 961.109L260.923 953.044L262.921 956.509ZM290.912 940.377L276.916 948.443L274.919 944.977L288.915 936.911L290.912 940.377ZM318.903 924.244L304.908 932.31L302.91 928.844L316.906 920.779L318.903 924.244ZM346.896 908.112L332.899 916.178L330.902 912.713L344.897 904.646L346.896 908.112ZM367.889 896.012L360.891 900.046L358.894 896.58L365.892 892.548L367.889 896.012Z" fill="#5032E4"/>
<path d="M1171.05 912.68L1164 916.734L1162 913.265L1169.06 909.212L1171.05 912.68ZM1199.29 896.466L1185.17 904.573L1183.18 901.104L1197.3 892.997L1199.29 896.466ZM1227.53 880.251L1213.41 888.358L1211.42 884.889L1225.54 876.782L1227.53 880.251ZM1255.76 864.036L1241.65 872.143L1239.65 868.675L1253.77 860.567L1255.76 864.036ZM1284 847.821L1269.88 855.928L1267.89 852.46L1282.01 844.352L1284 847.821ZM1312.24 831.605L1298.12 839.713L1296.13 836.245L1310.24 828.136L1312.24 831.605ZM1340.47 815.39L1326.35 823.498L1324.36 820.029L1338.48 811.922L1340.47 815.39ZM1368.71 799.176L1354.59 807.283L1352.6 803.814L1366.72 795.707L1368.71 799.176ZM1389.89 787.014L1382.83 791.068L1380.83 787.599L1387.89 783.546L1389.89 787.014Z" fill="#5032E4"/>
<path d="M1167 1072.27L1165 1075.73L1158.11 1071.75L1160.11 1068.29L1167 1072.27ZM1146.34 1060.33L1144.34 1063.8L1130.57 1055.84L1132.57 1052.38L1146.34 1060.33ZM1118.8 1044.42L1116.8 1047.88L1103.02 1039.93L1105.03 1036.46L1118.8 1044.42ZM1091.25 1028.51L1089.25 1031.97L1075.48 1024.01L1077.48 1020.55L1091.25 1028.51ZM1063.71 1012.59L1061.71 1016.06L1047.94 1008.1L1049.94 1004.64L1063.71 1012.59ZM1036.16 996.681L1034.16 1000.15L1020.39 992.188L1022.39 988.724L1036.16 996.681ZM1008.62 980.768L1006.62 984.232L992.847 976.275L994.848 972.811L1008.62 980.768ZM981.075 964.855L979.074 968.319L965.302 960.362L967.303 956.898L981.075 964.855ZM953.531 948.942L951.53 952.406L937.758 944.449L939.759 940.985L953.531 948.942ZM925.986 933.029L923.985 936.493L910.213 928.536L912.214 925.072L925.986 933.029ZM898.442 917.116L896.441 920.58L882.669 912.623L884.67 909.159L898.442 917.116ZM870.897 901.203L868.896 904.666L855.124 896.709L857.125 893.246L870.897 901.203ZM843.353 885.29L841.352 888.752L827.58 880.796L829.581 877.333L843.353 885.29ZM815.809 869.376L813.808 872.839L800.035 864.883L802.036 861.419L815.809 869.376ZM788.264 853.463L786.263 856.926L772.491 848.97L774.492 845.506L788.264 853.463ZM760.72 837.55L758.719 841.013L744.946 833.057L746.947 829.593L760.72 837.55ZM733.175 821.637L731.174 825.1L717.401 817.144L719.402 813.68L733.175 821.637ZM705.631 805.724L703.63 809.187L689.857 801.231L691.858 797.767L705.631 805.724ZM678.086 789.811L676.085 793.274L662.312 785.318L664.313 781.854L678.086 789.811ZM650.541 773.898L648.54 777.361L634.769 769.405L636.77 765.941L650.541 773.898ZM622.997 757.985L620.996 761.448L607.224 753.492L609.225 750.028L622.997 757.985ZM595.452 742.072L593.451 745.535L579.68 737.579L581.681 734.115L595.452 742.072ZM567.908 726.159L565.907 729.622L552.135 721.666L554.136 718.202L567.908 726.159ZM540.363 710.246L538.362 713.708L524.59 705.752L526.591 702.289L540.363 710.246ZM512.819 694.333L510.818 697.795L497.046 689.839L499.047 686.375L512.819 694.333ZM485.274 678.418L483.273 681.882L469.501 673.926L471.502 670.462L485.274 678.418ZM457.73 662.505L455.729 665.969L441.957 658.013L443.958 654.549L457.73 662.505ZM430.186 646.592L428.185 650.056L414.412 642.1L416.413 638.636L430.186 646.592ZM402.641 630.679L400.64 634.143L386.868 626.187L388.869 622.723L402.641 630.679ZM375.097 614.766L373.096 618.23L366.21 614.251L368.21 610.789L375.097 614.766Z" fill="#5032E4"/>
<path d="M1266 899.269L1264 902.731L1257.12 898.752L1259.12 895.291L1266 899.269ZM1245.37 887.333L1243.37 890.796L1229.61 882.839L1231.61 879.377L1245.37 887.333ZM1217.86 871.42L1215.86 874.883L1202.1 866.926L1204.1 863.464L1217.86 871.42ZM1190.35 855.507L1188.35 858.97L1174.59 851.013L1176.59 847.551L1190.35 855.507ZM1162.84 839.594L1160.84 843.057L1147.08 835.1L1149.08 831.638L1162.84 839.594ZM1135.33 823.681L1133.33 827.144L1119.57 819.187L1121.57 815.725L1135.33 823.681ZM1107.82 807.768L1105.82 811.231L1092.06 803.274L1094.06 799.812L1107.82 807.768ZM1080.31 791.855L1078.31 795.318L1064.55 787.361L1066.55 783.899L1080.31 791.855ZM1052.8 775.942L1050.8 779.405L1037.04 771.448L1039.04 767.986L1052.8 775.942ZM1025.29 760.029L1023.29 763.492L1009.53 755.535L1011.53 752.073L1025.29 760.029ZM997.779 744.116L995.776 747.579L982.021 739.622L984.024 736.16L997.779 744.116ZM970.269 728.203L968.267 731.666L954.511 723.708L956.514 720.247L970.269 728.203ZM942.759 712.29L940.756 715.752L927.001 707.795L929.004 704.333L942.759 712.29ZM915.249 696.376L913.246 699.839L899.491 691.882L901.494 688.42L915.249 696.376ZM887.739 680.463L885.736 683.926L871.981 675.969L873.984 672.507L887.739 680.463ZM860.229 664.55L858.227 668.013L844.471 660.056L846.474 656.594L860.229 664.55ZM832.719 648.637L830.716 652.1L816.961 644.143L818.964 640.681L832.719 648.637ZM805.209 632.724L803.206 636.187L789.451 628.23L791.454 624.768L805.209 632.724ZM777.699 616.811L775.696 620.274L761.941 612.317L763.944 608.855L777.699 616.811ZM750.188 600.898L748.187 604.361L734.431 596.404L736.434 592.942L750.188 600.898ZM722.679 584.985L720.676 588.448L706.921 580.491L708.924 577.029L722.679 584.985ZM695.169 569.072L693.166 572.535L679.411 564.578L681.414 561.116L695.169 569.072ZM667.659 553.159L665.656 556.622L651.901 548.665L653.904 545.203L667.659 553.159ZM640.148 537.246L638.146 540.708L624.391 532.751L626.394 529.29L640.148 537.246ZM612.639 521.333L610.636 524.795L596.881 516.838L598.884 513.376L612.639 521.333ZM585.129 505.419L583.126 508.882L569.371 500.925L571.374 497.463L585.129 505.419ZM557.619 489.506L555.616 492.969L541.861 485.012L543.864 481.55L557.619 489.506ZM530.108 473.593L528.106 477.056L514.351 469.099L516.354 465.637L530.108 473.593ZM502.599 457.68L500.596 461.143L486.841 453.186L488.844 449.723L502.599 457.68ZM475.089 441.767L473.086 445.23L466.209 441.251L468.211 437.789L475.089 441.767Z" fill="#5032E4"/>
<path d="M1402 1590.27L1400 1593.73L1392.92 1589.63L1394.92 1586.17L1402 1590.27ZM1380.75 1577.97L1378.75 1581.43L1364.58 1573.23L1366.58 1569.77L1380.75 1577.97ZM1352.42 1561.57L1350.42 1565.03L1336.25 1556.83L1338.25 1553.37L1352.42 1561.57ZM1324.08 1545.17L1322.08 1548.63L1307.92 1540.43L1309.92 1536.97L1324.08 1545.17ZM1295.75 1528.77L1293.75 1532.23L1279.58 1524.03L1281.58 1520.57L1295.75 1528.77ZM1267.42 1512.37L1265.42 1515.83L1251.25 1507.63L1253.25 1504.17L1267.42 1512.37ZM1239.08 1495.97L1237.08 1499.43L1222.92 1491.23L1224.92 1487.77L1239.08 1495.97ZM1210.75 1479.57L1208.75 1483.03L1194.58 1474.83L1196.58 1471.37L1210.75 1479.57ZM1182.42 1463.17L1180.42 1466.63L1166.25 1458.43L1168.25 1454.97L1182.42 1463.17ZM1154.08 1446.77L1152.08 1450.23L1137.92 1442.03L1139.92 1438.57L1154.08 1446.77ZM1125.75 1430.37L1123.75 1433.83L1109.58 1425.63L1111.58 1422.17L1125.75 1430.37ZM1097.42 1413.97L1095.42 1417.43L1081.25 1409.23L1083.25 1405.77L1097.42 1413.97ZM1069.08 1397.57L1067.08 1401.03L1052.92 1392.83L1054.92 1389.37L1069.08 1397.57ZM1040.75 1381.17L1038.75 1384.63L1024.58 1376.43L1026.58 1372.97L1040.75 1381.17ZM1012.42 1364.77L1010.42 1368.23L996.248 1360.03L998.252 1356.57L1012.42 1364.77ZM984.085 1348.37L982.081 1351.83L974.998 1347.73L977.002 1344.27L984.085 1348.37Z" fill="#5032E4"/>
<path d="M1302 1764.27L1300 1767.73L1293.06 1763.71L1295.07 1760.25L1302 1764.27ZM1281.2 1752.22L1279.2 1755.68L1265.33 1747.65L1267.34 1744.19L1281.2 1752.22ZM1253.47 1736.15L1251.46 1739.61L1237.6 1731.58L1239.6 1728.12L1253.47 1736.15ZM1225.74 1720.09L1223.73 1723.55L1209.86 1715.51L1211.87 1712.05L1225.74 1720.09ZM1198 1704.02L1196 1707.48L1182.13 1699.45L1184.14 1695.99L1198 1704.02ZM1170.27 1687.95L1168.26 1691.41L1154.4 1683.38L1156.4 1679.92L1170.27 1687.95ZM1142.54 1671.89L1140.53 1675.35L1126.66 1667.31L1128.67 1663.85L1142.54 1671.89ZM1114.8 1655.82L1112.8 1659.28L1098.93 1651.25L1100.94 1647.79L1114.8 1655.82ZM1087.07 1639.75L1085.06 1643.21L1071.2 1635.18L1073.2 1631.72L1087.07 1639.75ZM1059.34 1623.69L1057.33 1627.15L1043.46 1619.11L1045.47 1615.65L1059.34 1623.69ZM1031.6 1607.62L1029.6 1611.08L1015.73 1603.05L1017.74 1599.59L1031.6 1607.62ZM1003.87 1591.55L1001.86 1595.01L987.997 1586.98L990.003 1583.52L1003.87 1591.55ZM976.136 1575.49L974.131 1578.95L960.264 1570.91L962.27 1567.45L976.136 1575.49ZM948.402 1559.42L946.397 1562.88L932.531 1554.85L934.536 1551.39L948.402 1559.42ZM920.669 1543.35L918.664 1546.81L904.798 1538.78L906.803 1535.32L920.669 1543.35ZM892.936 1527.29L890.931 1530.75L883.997 1526.73L886.003 1523.27L892.936 1527.29Z" fill="#5032E4"/>
</g>
</svg>
