<svg width="1509" height="1128" viewBox="0 0 1509 1128" fill="none" xmlns="http://www.w3.org/2000/svg">
<g clip-path="url(#clip0_1108_11849)">
<path d="M963.3 327.94V245.37L1034.83 286.67V369.24L963.3 327.94Z" fill="#5A5BA8" stroke="white" stroke-width="4" stroke-linejoin="round"/>
<path d="M963.3 327.94V245.37L1034.83 286.67V369.24L963.3 327.94Z" fill="#5A5BA8" stroke="white" stroke-width="4" stroke-linejoin="round"/>
<path d="M1034.83 286.67L1106.15 245.37V328.09L1034.83 369.24V286.67Z" fill="#5A5BA8" stroke="white" stroke-width="4" stroke-linejoin="round"/>
<path d="M1034.83 286.67L1106.15 245.37V328.09L1034.83 369.24V286.67Z" fill="#5A5BA8" stroke="white" stroke-width="4" stroke-linejoin="round"/>
<path d="M963.3 245.37L1034.62 204.07L1106.15 245.37L1034.83 286.67L963.3 245.37Z" fill="#5A5BA8" stroke="white" stroke-width="4" stroke-linejoin="round"/>
<path d="M963.3 245.37L1034.62 204.07L1106.15 245.37L1034.83 286.67L963.3 245.37Z" fill="#5A5BA8" stroke="white" stroke-width="4" stroke-linejoin="round"/>
<path d="M613.3 125.87V43.29L684.83 84.6V167.16L613.3 125.87Z" fill="#5A5BA8" stroke="white" stroke-width="4" stroke-linejoin="round"/>
<path d="M613.3 125.87V43.29L684.83 84.6V167.16L613.3 125.87Z" fill="#5A5BA8" stroke="white" stroke-width="4" stroke-linejoin="round"/>
<path d="M684.83 84.6L756.15 43.29V126.01L684.83 167.16V84.6Z" fill="#5A5BA8" stroke="white" stroke-width="4" stroke-linejoin="round"/>
<path d="M684.83 84.6L756.15 43.29V126.01L684.83 167.16V84.6Z" fill="#5A5BA8" stroke="white" stroke-width="4" stroke-linejoin="round"/>
<path d="M613.3 43.29L684.62 2L756.15 43.29L684.83 84.6L613.3 43.29Z" fill="#5A5BA8" stroke="white" stroke-width="4" stroke-linejoin="round"/>
<path d="M613.3 43.29L684.62 2L756.15 43.29L684.83 84.6L613.3 43.29Z" fill="#5A5BA8" stroke="white" stroke-width="4" stroke-linejoin="round"/>
<path d="M1363.3 558.88V476.31L1434.83 517.61V600.18L1363.3 558.88Z" fill="#5A5BA8" stroke="white" stroke-width="4" stroke-linejoin="round"/>
<path d="M1363.3 558.88V476.31L1434.83 517.61V600.18L1363.3 558.88Z" fill="#5A5BA8" stroke="white" stroke-width="4" stroke-linejoin="round"/>
<path d="M1434.83 517.61L1506.15 476.31V559.03L1434.83 600.18V517.61Z" fill="#5A5BA8" stroke="white" stroke-width="4" stroke-linejoin="round"/>
<path d="M1434.83 517.61L1506.15 476.31V559.03L1434.83 600.18V517.61Z" fill="#5A5BA8" stroke="white" stroke-width="4" stroke-linejoin="round"/>
<path d="M1363.3 476.31L1434.62 435.01L1506.15 476.31L1434.83 517.61L1363.3 476.31Z" fill="#5A5BA8" stroke="white" stroke-width="4" stroke-linejoin="round"/>
<path d="M1363.3 476.31L1434.62 435.01L1506.15 476.31L1434.83 517.61L1363.3 476.31Z" fill="#5A5BA8" stroke="white" stroke-width="4" stroke-linejoin="round"/>
<path d="M210.13 839.35L217.08 835.39" stroke="#5A5BA8" stroke-width="4" stroke-linejoin="round"/>
<path d="M230.82 827.56L1021.01 377.26" stroke="#5A5BA8" stroke-width="4" stroke-linejoin="round" stroke-dasharray="15.82 15.82"/>
<path d="M1027.88 373.34L1034.83 369.38" stroke="#5A5BA8" stroke-width="4" stroke-linejoin="round"/>
<path d="M1009.4 849.41L1016.3 845.36" stroke="#5A5BA8" stroke-width="4" stroke-linejoin="round"/>
<path d="M1030.49 837.05L1420.83 608.38" stroke="#5A5BA8" stroke-width="4" stroke-linejoin="round" stroke-dasharray="16.45 16.45"/>
<path d="M1427.93 604.22L1434.83 600.18" stroke="#5A5BA8" stroke-width="4" stroke-linejoin="round"/>
<path d="M1005.93 682.37L1012.86 678.37" stroke="#5A5BA8" stroke-width="4" stroke-linejoin="round"/>
<path d="M1026.6 670.45L1349.5 484.26" stroke="#5A5BA8" stroke-width="4" stroke-linejoin="round" stroke-dasharray="15.86 15.86"/>
<path d="M1356.37 480.3L1363.3 476.31" stroke="#5A5BA8" stroke-width="4" stroke-linejoin="round"/>
<path d="M152.03 713.16L158.96 709.17" stroke="#5A5BA8" stroke-width="4" stroke-linejoin="round"/>
<path d="M172.95 701.1L949.37 253.4" stroke="#5A5BA8" stroke-width="4" stroke-linejoin="round" stroke-dasharray="16.15 16.15"/>
<path d="M956.37 249.36L963.3 245.37" stroke="#5A5BA8" stroke-width="4" stroke-linejoin="round"/>
<path d="M606.15 616.59L1009.4 849.41" stroke="#5A5BA8" stroke-width="4" stroke-linejoin="round" stroke-dasharray="16 16"/>
<path d="M677.47 492.72L1005.93 682.37" stroke="#5A5BA8" stroke-width="4" stroke-linejoin="round" stroke-dasharray="16 16"/>
<path d="M401.29 333.27L408.19 329.23" stroke="#5A5BA8" stroke-width="4" stroke-linejoin="round"/>
<path d="M422.39 320.91L670.83 175.37" stroke="#5A5BA8" stroke-width="4" stroke-linejoin="round" stroke-dasharray="16.45 16.45"/>
<path d="M677.93 171.21L684.83 167.16" stroke="#5A5BA8" stroke-width="4" stroke-linejoin="round"/>
<path d="M125.15 324.77L132.08 320.77" stroke="#5A5BA8" stroke-width="4" stroke-linejoin="round"/>
<path d="M145.631 312.96L599.591 51.2" stroke="#5A5BA8" stroke-width="4" stroke-linejoin="round" stroke-dasharray="15.64 15.64"/>
<path d="M606.37 47.29L613.3 43.29" stroke="#5A5BA8" stroke-width="4" stroke-linejoin="round"/>
<path opacity="0.1" d="M677.47 492.72L1005.94 682.37C1005.94 682.37 1363.31 471.59 1363.31 476.31C1363.31 481.03 1434.84 600.18 1434.84 600.18L1009.41 849.41L606.16 616.6L677.48 492.73L677.47 492.72Z" fill="#5A5BA8" stroke="white" stroke-width="4" stroke-linejoin="round"/>
<path opacity="0.1" d="M684.83 167.16L401.28 333.27C401.28 333.27 610.65 451.43 605.93 451.43C601.21 451.43 534.61 575.3 534.61 575.3L125.15 324.77L613.3 43.29L684.83 167.16Z" fill="#5A5BA8" stroke="white" stroke-width="4" stroke-linejoin="round"/>
<path opacity="0.1" d="M963.3 245.37L1034.83 369.38L298.69 790.09L210.13 679.66L963.3 245.37Z" fill="#5A5BA8" stroke="white" stroke-width="4" stroke-linejoin="round"/>
<path d="M125.15 324.77L609.4 618.47" stroke="#5A5BA8" stroke-width="4" stroke-linejoin="round" stroke-dasharray="16 16"/>
<path d="M401.29 333.27L605.93 451.43" stroke="#5A5BA8" stroke-width="4" stroke-linejoin="round" stroke-dasharray="16 16"/>
<path d="M52.3801 946.91L5.37012 614.32C5.37012 607.26 56.0001 581.86 61.2001 578.49C66.8901 574.8 74.4601 574.05 81.2101 577.81L283.82 697.99C293 703.11 298.68 712.8 298.68 723.31V1075.46C298.68 1077.82 297.69 1080.42 296.38 1082.83C293.67 1087.8 289.58 1091.88 284.73 1094.81L237.28 1123.47L67.2401 972.22C58.0601 967.1 52.3701 957.41 52.3701 946.9L52.3801 946.91Z" fill="#5A5BA8" stroke="#231F20" stroke-width="4" stroke-linejoin="round"/>
<path d="M2.00023 977.45V625.28C2.00023 610.48 17.9102 601.14 30.8302 608.35L233.44 728.53C242.62 733.65 248.3 743.34 248.3 753.85V1106C248.3 1120.8 232.39 1130.14 219.47 1122.93L16.8602 1002.77C7.68023 997.65 1.99023 987.96 1.99023 977.45H2.00023Z" fill="white" stroke="#231F20" stroke-width="4" stroke-linejoin="round"/>
<path d="M27.3398 666.31V663.38C27.3398 657.75 33.3898 654.2 38.2998 656.94L210.13 763.68C213.62 765.63 215.78 769.31 215.78 773.31V776.23C215.78 781.86 209.73 785.41 204.82 782.67L32.9898 675.94C29.4998 673.99 27.3398 670.31 27.3398 666.31Z" fill="#231F20"/>
<path d="M27.3398 741.98V739.05C27.3398 733.42 33.3898 729.87 38.2998 732.61L210.13 839.35C213.62 841.3 215.78 844.98 215.78 848.98V851.9C215.78 857.53 209.73 861.08 204.82 858.34L32.9898 751.61C29.4998 749.66 27.3398 745.98 27.3398 741.98Z" fill="#231F20"/>
<path d="M27.3398 818.09V815.16C27.3398 809.53 33.3898 805.98 38.2998 808.72L210.13 915.46C213.62 917.41 215.78 921.09 215.78 925.09V928.01C215.78 933.64 209.73 937.19 204.82 934.45L32.9898 827.72C29.4998 825.77 27.3398 822.09 27.3398 818.09Z" fill="#231F20"/>
<path d="M27.3398 887.05V884.12C27.3398 878.49 33.3898 874.94 38.2998 877.68L210.13 984.42C213.62 986.37 215.78 990.05 215.78 994.05V996.97C215.78 1002.6 209.73 1006.15 204.82 1003.41L32.9898 896.68C29.4998 894.73 27.3398 891.05 27.3398 887.05Z" fill="#231F20"/>
<path d="M27.3398 954.86V951.93C27.3398 946.3 33.3898 942.75 38.2998 945.49L210.13 1052.23C213.62 1054.18 215.78 1057.86 215.78 1061.86V1064.78C215.78 1070.41 209.73 1073.96 204.82 1071.22L32.9898 964.49C29.4998 962.54 27.3398 958.86 27.3398 954.86Z" fill="#231F20"/>
<path d="M534.62 575.3V492.72L606.15 534.03V616.59L534.62 575.3Z" fill="white"/>
<path d="M534.62 575.3V492.72L606.15 534.03V616.59L534.62 575.3Z" stroke="#231F20" stroke-width="4" stroke-linejoin="round"/>
<path d="M606.15 534.03L677.47 492.72V575.44L606.15 616.59V534.03Z" fill="white"/>
<path d="M606.15 534.03L677.47 492.72V575.44L606.15 616.59V534.03Z" stroke="#231F20" stroke-width="4" stroke-linejoin="round"/>
<path d="M534.62 492.72L605.93 451.43L677.47 492.72L606.15 534.03L534.62 492.72Z" fill="white"/>
<path d="M534.62 492.72L605.93 451.43L677.47 492.72L606.15 534.03L534.62 492.72Z" stroke="#231F20" stroke-width="4" stroke-linejoin="round"/>
</g>
<defs>
<clipPath id="clip0_1108_11849">
<rect width="1508.15" height="1127.42" fill="white"/>
</clipPath>
</defs>
</svg>
