<svg width="1560" height="2097" viewBox="0 0 1560 2097" fill="none" xmlns="http://www.w3.org/2000/svg">
<g clip-path="url(#clip0_830_66654)">
<path d="M281.33 624.03V508.43L381.47 566.25V681.84L281.33 624.03Z" fill="#594AED"/>
<path d="M280.33 506.698C280.949 506.34 281.711 506.34 282.33 506.698L382.47 564.518C383.089 564.875 383.47 565.536 383.47 566.25V681.84C383.47 682.555 383.088 683.214 382.47 683.572C381.851 683.929 381.088 683.93 380.47 683.573L280.33 625.762C279.711 625.405 279.33 624.744 279.33 624.03V508.43L279.335 508.297C279.379 507.634 279.75 507.033 280.33 506.698ZM283.33 622.875L379.47 678.375V567.404L283.33 511.894V622.875Z" fill="white"/>
<path d="M381.47 566.25L481.31 508.43V624.23L381.47 681.84V566.25Z" fill="#594AED"/>
<path d="M480.425 506.636C481.021 506.342 481.728 506.363 482.309 506.698C482.928 507.055 483.31 507.715 483.31 508.43V624.23C483.31 624.944 482.929 625.605 482.31 625.962L382.47 683.573C381.851 683.93 381.089 683.929 380.47 683.572C379.852 683.214 379.47 682.555 379.47 681.84V566.25L379.475 566.116C379.519 565.455 379.889 564.854 380.468 564.519L480.308 506.699L480.425 506.636ZM383.47 567.403V678.376L479.31 623.074V511.899L383.47 567.403Z" fill="white"/>
<path d="M281.33 508.43L381.17 450.62L481.31 508.43L381.47 566.25L281.33 508.43Z" fill="#594AED"/>
<path d="M380.285 448.826C380.881 448.532 381.589 448.552 382.17 448.888L482.31 506.698C482.928 507.055 483.31 507.715 483.311 508.429C483.311 509.143 482.93 509.803 482.312 510.161L382.473 567.98C381.853 568.339 381.089 568.34 380.47 567.982L280.33 510.162C279.712 509.805 279.331 509.145 279.33 508.432C279.33 507.717 279.71 507.057 280.328 506.699L380.168 448.89L380.285 448.826ZM285.325 508.428L381.468 563.939L477.314 508.432L381.17 452.93L285.325 508.428Z" fill="white"/>
<path d="M380.206 391.446C380.802 391.152 381.509 391.173 382.09 391.508L531.94 478.008C532.559 478.365 532.94 479.026 532.94 479.74V653.02C532.94 653.735 532.558 654.396 531.939 654.753L382.55 740.952C381.931 741.309 381.169 741.309 380.551 740.952L230.7 654.452C230.082 654.095 229.7 653.435 229.7 652.72V479.74C229.7 479.026 230.081 478.367 230.698 478.01L380.088 391.51L380.206 391.446ZM233.7 480.892V651.565L381.55 736.911L528.94 651.864V480.894L381.091 395.55L233.7 480.892Z" fill="#594AED"/>
<path d="M1209.87 1313.19V1140.86L1359.16 1227.05V1399.36L1209.87 1313.19Z" fill="#594AED"/>
<path d="M1208.87 1139.13C1209.49 1138.77 1210.25 1138.77 1210.87 1139.13L1360.16 1225.32C1360.78 1225.68 1361.16 1226.34 1361.16 1227.05V1399.36C1361.16 1400.07 1360.78 1400.74 1360.16 1401.09C1359.54 1401.45 1358.78 1401.45 1358.16 1401.09L1208.87 1314.92C1208.25 1314.57 1207.87 1313.9 1207.87 1313.19V1140.86C1207.87 1140.15 1208.25 1139.48 1208.87 1139.13ZM1211.87 1312.03L1357.16 1395.9V1228.2L1211.87 1144.32V1312.03Z" fill="white"/>
<path d="M1359.16 1227.05L1508 1140.86V1313.49L1359.16 1399.36V1227.05Z" fill="#594AED"/>
<path d="M1507.12 1139.07C1507.71 1138.77 1508.42 1138.79 1509 1139.13C1509.62 1139.48 1510 1140.15 1510 1140.86V1313.49C1510 1314.2 1509.62 1314.87 1509 1315.22L1360.16 1401.09C1359.54 1401.45 1358.78 1401.45 1358.16 1401.09C1357.54 1400.73 1357.16 1400.07 1357.16 1399.36V1227.05L1357.17 1226.92C1357.21 1226.25 1357.58 1225.65 1358.16 1225.32L1507 1139.13L1507.12 1139.07ZM1361.16 1228.2V1395.9L1506 1312.33V1144.33L1361.16 1228.2Z" fill="white"/>
<path d="M1209.87 1140.86L1358.71 1054.68L1508 1140.86L1359.16 1227.05L1209.87 1140.86Z" fill="#594AED"/>
<path d="M1357.83 1052.89C1358.42 1052.59 1359.13 1052.61 1359.71 1052.95L1509 1139.13C1509.62 1139.49 1510 1140.14 1510 1140.86C1510 1141.57 1509.62 1142.23 1509 1142.59L1360.16 1228.78C1359.54 1229.14 1358.78 1229.14 1358.16 1228.78L1208.87 1142.59C1208.25 1142.24 1207.87 1141.58 1207.87 1140.86C1207.87 1140.15 1208.25 1139.49 1208.87 1139.13L1357.71 1052.95L1357.83 1052.89ZM1213.87 1140.86L1359.16 1224.74L1504 1140.86L1358.71 1056.99L1213.87 1140.86Z" fill="white"/>
<path d="M1357.75 995.496C1358.34 995.202 1359.05 995.222 1359.63 995.558L1558.63 1110.43C1559.25 1110.78 1559.63 1111.45 1559.63 1112.16V1342.28C1559.63 1342.99 1559.25 1343.66 1558.63 1344.01L1360.24 1458.48C1359.62 1458.84 1358.86 1458.84 1358.24 1458.48L1159.24 1343.61C1158.62 1343.25 1158.24 1342.59 1158.24 1341.88V1112.16C1158.24 1111.45 1158.62 1110.79 1159.24 1110.43L1357.63 995.559L1357.75 995.496ZM1162.24 1113.31V1340.72L1359.24 1454.44L1555.63 1341.12V1113.31L1358.63 999.6L1162.24 1113.31Z" fill="#594AED"/>
<path d="M52.5 1891.46V1602.44L302.87 1747.01V2035.99L52.5 1891.46Z" fill="#594AED"/>
<path d="M51.5 1600.71C52.1187 1600.35 52.8813 1600.35 53.5 1600.71L303.87 1745.28C304.489 1745.64 304.87 1746.3 304.87 1747.01V2035.99C304.87 2036.7 304.489 2037.36 303.87 2037.72C303.251 2038.08 302.489 2038.08 301.87 2037.72L51.5 1893.19C50.8814 1892.83 50.5002 1892.17 50.5 1891.46V1602.44C50.5 1601.73 50.8812 1601.06 51.5 1600.71ZM54.5 1890.31L300.87 2032.53V1748.16L54.5 1605.9V1890.31Z" fill="white"/>
<path d="M302.87 1747.01L552.48 1602.44V1891.97L302.87 2035.99V1747.01Z" fill="#594AED"/>
<path d="M551.596 1600.65C552.191 1600.35 552.898 1600.37 553.479 1600.71C554.098 1601.06 554.48 1601.72 554.48 1602.44V1891.97C554.48 1892.68 554.098 1893.35 553.479 1893.7L303.87 2037.72C303.251 2038.08 302.489 2038.08 301.87 2037.72C301.251 2037.36 300.87 2036.7 300.87 2035.99V1747.01C300.87 1746.3 301.251 1745.64 301.868 1745.28L551.478 1600.71L551.596 1600.65ZM304.87 1748.16V2032.53L550.48 1890.81V1605.91L304.87 1748.16Z" fill="white"/>
<path d="M52.5 1602.44L302.11 1457.91L552.48 1602.44L302.87 1747.01L52.5 1602.44Z" fill="#594AED"/>
<path d="M301.226 1456.12C301.822 1455.82 302.53 1455.84 303.11 1456.18L553.479 1600.71C554.098 1601.06 554.479 1601.72 554.479 1602.44C554.48 1603.15 554.1 1603.81 553.482 1604.17L303.872 1748.74C303.253 1749.1 302.49 1749.1 301.87 1748.74L51.5 1604.17C50.8817 1603.81 50.5005 1603.16 50.5 1602.44C50.4996 1601.73 50.8801 1601.07 51.498 1600.71L301.107 1456.18L301.226 1456.12ZM56.4951 1602.44L302.867 1744.7L548.484 1602.44L302.11 1460.22L56.4951 1602.44Z" fill="white"/>
<path d="M301.146 1397.8C301.742 1397.5 302.449 1397.52 303.03 1397.86L603.97 1571.58C604.588 1571.94 604.97 1572.6 604.97 1573.31V1921.31C604.97 1922.02 604.589 1922.68 603.97 1923.04L303.939 2096.15C303.321 2096.51 302.559 2096.51 301.94 2096.15L1 1922.43C0.381368 1922.07 0.000130216 1921.41 0 1920.7V1573.31C0.000130064 1572.6 0.380564 1571.94 0.998047 1571.58L301.028 1397.86L301.146 1397.8ZM4 1574.46V1919.55L302.939 2092.11L600.97 1920.15V1574.46L302.03 1401.9L4 1574.46Z" fill="#594AED"/>
<path d="M1211.72 256.93V200.38L1260.7 228.67V285.2L1211.72 256.93Z" fill="#594AED"/>
<path d="M1210.72 198.647C1211.34 198.29 1212.1 198.291 1212.72 198.648L1261.7 226.939C1262.32 227.296 1262.7 227.956 1262.7 228.67V285.2C1262.7 285.914 1262.32 286.574 1261.7 286.932C1261.08 287.289 1260.32 287.289 1259.7 286.932L1210.72 258.662C1210.1 258.305 1209.72 257.644 1209.72 256.93V200.38C1209.72 199.665 1210.1 199.005 1210.72 198.647ZM1213.72 255.774L1258.7 281.736V229.824L1213.72 203.844V255.774Z" fill="white"/>
<path d="M1260.7 228.67L1309.54 200.38V257.03L1260.7 285.2V228.67Z" fill="#594AED"/>
<path d="M1308.65 198.586C1309.25 198.292 1309.96 198.313 1310.54 198.647C1311.16 199.005 1311.54 199.665 1311.54 200.38V257.03C1311.54 257.745 1311.16 258.406 1310.54 258.763L1261.7 286.933C1261.08 287.289 1260.32 287.289 1259.7 286.932C1259.08 286.574 1258.7 285.914 1258.7 285.2V228.67C1258.7 227.957 1259.08 227.297 1259.7 226.939L1308.54 198.649L1308.65 198.586ZM1262.7 229.822V281.737L1307.54 255.875V203.85L1262.7 229.822Z" fill="white"/>
<path d="M1211.72 200.38L1260.56 172.11L1309.54 200.38L1260.7 228.67L1211.72 200.38Z" fill="#594AED"/>
<path d="M1259.68 170.316C1260.27 170.022 1260.98 170.042 1261.56 170.377L1310.54 198.648C1311.16 199.005 1311.54 199.665 1311.54 200.378C1311.54 201.092 1311.16 201.753 1310.54 202.111L1261.7 230.401C1261.08 230.76 1260.32 230.76 1259.7 230.402L1210.72 202.112C1210.1 201.755 1209.72 201.094 1209.72 200.38C1209.72 199.667 1210.1 199.007 1210.72 198.649L1259.56 170.379L1259.68 170.316ZM1215.71 200.377L1260.7 226.359L1305.54 200.382L1260.56 174.419L1215.71 200.377Z" fill="white"/>
<path d="M1259.68 113.296C1260.27 113.002 1260.98 113.022 1261.56 113.358L1359.93 170.148C1360.55 170.505 1360.93 171.165 1360.93 171.88V285.65C1360.93 286.364 1360.55 287.025 1359.93 287.382L1261.85 343.973C1261.23 344.329 1260.47 344.329 1259.85 343.972L1161.48 287.182C1160.86 286.825 1160.48 286.165 1160.48 285.45V171.88C1160.48 171.166 1160.86 170.507 1161.48 170.15L1259.56 113.36L1259.68 113.296ZM1164.48 173.032V284.295L1260.85 339.931L1356.93 284.494V173.034L1260.56 117.4L1164.48 173.032Z" fill="#594AED"/>
<path d="M88.8101 86.82V30.28L137.79 58.56V115.09L88.8101 86.82Z" fill="white"/>
<path d="M87.8101 28.5475C88.4288 28.1904 89.1913 28.1904 89.8101 28.5475L138.791 56.8278C139.409 57.1851 139.791 57.8458 139.791 58.5602V115.09C139.791 115.804 139.409 116.465 138.791 116.822C138.172 117.179 137.409 117.179 136.791 116.822L87.8101 88.5524C87.1912 88.1952 86.8101 87.5346 86.8101 86.82V30.2799L86.8149 30.1471C86.859 29.4843 87.2298 28.8825 87.8101 28.5475ZM90.8101 85.6647L135.791 111.627V59.7145L90.8101 33.7438V85.6647Z" fill="#231F20"/>
<path d="M137.79 58.56L186.63 30.28V86.92L137.79 115.09V58.56Z" fill="white"/>
<path d="M185.745 28.486C186.341 28.1919 187.048 28.2127 187.629 28.5475C188.248 28.9046 188.63 29.565 188.63 30.2799V86.9196C188.63 87.6344 188.248 88.2949 187.629 88.652L138.789 116.822C138.17 117.179 137.409 117.179 136.79 116.822C136.171 116.465 135.79 115.804 135.79 115.09V58.5602C135.79 57.8466 136.171 57.1864 136.788 56.8288L185.628 28.5495L185.745 28.486ZM139.79 59.7126V111.627L184.63 85.7643V33.7477L139.79 59.7126Z" fill="#231F20"/>
<path d="M88.8101 30.28L137.65 2L186.63 30.28L137.79 58.56L88.8101 30.28Z" fill="white"/>
<path d="M136.765 0.206062C137.361 -0.0881838 138.069 -0.0676775 138.65 0.267585L187.63 28.5479C188.249 28.9049 188.63 29.5645 188.63 30.2783C188.631 30.9924 188.25 31.6529 187.632 32.0107L138.792 60.291C138.173 60.6495 137.409 60.6497 136.79 60.292L87.8101 32.0117C87.1917 31.6547 86.8105 30.9953 86.8101 30.2813C86.8096 29.5672 87.1902 28.9067 87.8081 28.5488L136.648 0.269539L136.765 0.206062ZM92.8052 30.2774L137.788 56.249L182.634 30.2813L137.65 4.30958L92.8052 30.2774Z" fill="#231F20"/>
<path d="M232.71 1131.58V1075.04L281.7 1103.32V1159.86L232.71 1131.58Z" fill="white"/>
<path d="M231.71 1073.31C232.329 1072.95 233.091 1072.95 233.71 1073.31L282.7 1101.59C283.319 1101.95 283.7 1102.61 283.7 1103.32V1159.86C283.7 1160.57 283.319 1161.23 282.7 1161.59C282.081 1161.95 281.319 1161.95 280.7 1161.59L231.71 1133.31C231.091 1132.96 230.71 1132.29 230.71 1131.58V1075.04C230.71 1074.33 231.091 1073.66 231.71 1073.31ZM234.71 1130.42L279.7 1156.4V1104.47L234.71 1078.5V1130.42Z" fill="#231F20"/>
<path d="M281.7 1103.32L330.53 1075.04V1131.68L281.7 1159.86V1103.32Z" fill="white"/>
<path d="M329.646 1073.25C330.241 1072.95 330.949 1072.97 331.529 1073.31C332.149 1073.66 332.53 1074.33 332.53 1075.04V1131.68C332.53 1132.39 332.149 1133.05 331.53 1133.41L282.7 1161.59C282.081 1161.95 281.319 1161.95 280.7 1161.59C280.082 1161.23 279.7 1160.57 279.7 1159.86V1103.32C279.7 1102.61 280.081 1101.95 280.698 1101.59L329.528 1073.31L329.646 1073.25ZM283.7 1104.47V1156.4L328.53 1130.52V1078.51L283.7 1104.47Z" fill="#231F20"/>
<path d="M232.71 1075.04L281.55 1046.77L330.53 1075.04L281.7 1103.32L232.71 1075.04Z" fill="white"/>
<path d="M280.666 1044.98C281.262 1044.68 281.969 1044.7 282.55 1045.04L331.529 1073.31C332.148 1073.67 332.53 1074.32 332.53 1075.04C332.531 1075.75 332.15 1076.41 331.532 1076.77L282.702 1105.05C282.083 1105.41 281.32 1105.41 280.7 1105.05L231.71 1076.77C231.092 1076.41 230.71 1075.76 230.71 1075.04C230.71 1074.33 231.09 1073.67 231.708 1073.31L280.548 1045.04L280.666 1044.98ZM236.706 1075.04L281.698 1101.01L326.533 1075.04L281.55 1049.08L236.706 1075.04Z" fill="#231F20"/>
<path d="M1358.93 1833.41V1776.86L1407.92 1805.15V1861.68L1358.93 1833.41Z" fill="white"/>
<path d="M1357.93 1775.13C1358.55 1774.77 1359.31 1774.77 1359.93 1775.13L1408.92 1803.42C1409.54 1803.77 1409.92 1804.44 1409.92 1805.15V1861.68C1409.92 1862.39 1409.54 1863.05 1408.92 1863.41C1408.3 1863.77 1407.54 1863.77 1406.92 1863.41L1357.93 1835.14C1357.31 1834.78 1356.93 1834.12 1356.93 1833.41V1776.86L1356.94 1776.73C1356.98 1776.06 1357.35 1775.46 1357.93 1775.13ZM1360.93 1832.25L1405.92 1858.22V1806.3L1360.93 1780.32V1832.25Z" fill="#231F20"/>
<path d="M1407.92 1805.15L1456.75 1776.86V1833.51L1407.92 1861.68V1805.15Z" fill="white"/>
<path d="M1455.87 1775.07C1456.46 1774.77 1457.17 1774.79 1457.75 1775.13C1458.37 1775.48 1458.75 1776.15 1458.75 1776.86V1833.51C1458.75 1834.23 1458.37 1834.89 1457.75 1835.24L1408.92 1863.41C1408.3 1863.77 1407.54 1863.77 1406.92 1863.41C1406.3 1863.05 1405.92 1862.39 1405.92 1861.68V1805.15L1405.92 1805.02C1405.97 1804.36 1406.34 1803.75 1406.92 1803.42L1455.75 1775.13L1455.87 1775.07ZM1409.92 1806.3V1858.22L1454.75 1832.35V1780.33L1409.92 1806.3Z" fill="#231F20"/>
<path d="M1358.93 1776.86L1407.77 1748.59L1456.75 1776.86L1407.92 1805.15L1358.93 1776.86Z" fill="white"/>
<path d="M1406.89 1746.8C1407.48 1746.5 1408.19 1746.52 1408.77 1746.86L1457.75 1775.13C1458.37 1775.48 1458.75 1776.14 1458.75 1776.86C1458.75 1777.53 1458.42 1778.15 1457.87 1778.52L1457.75 1778.59L1408.92 1806.88C1408.3 1807.24 1407.54 1807.24 1406.92 1806.88L1357.93 1778.59C1357.31 1778.23 1356.93 1777.58 1356.93 1776.86C1356.93 1776.15 1357.31 1775.49 1357.93 1775.13L1406.77 1746.86L1406.89 1746.8ZM1362.93 1776.86L1407.92 1802.84L1452.75 1776.86L1407.77 1750.9L1362.93 1776.86Z" fill="#231F20"/>
<path d="M809.86 1594.68V1479.07L910.01 1536.9V1652.48L809.86 1594.68Z" fill="white"/>
<path d="M808.86 1477.34C809.479 1476.98 810.241 1476.98 810.86 1477.34L911.01 1535.17C911.629 1535.52 912.01 1536.19 912.01 1536.9V1652.48C912.01 1653.19 911.629 1653.85 911.01 1654.21C910.392 1654.57 909.629 1654.57 909.01 1654.21L808.86 1596.41C808.241 1596.06 807.86 1595.39 807.86 1594.68V1479.07L807.865 1478.94C807.909 1478.27 808.28 1477.67 808.86 1477.34ZM811.86 1593.52L908.01 1649.02V1538.05L811.86 1482.53V1593.52Z" fill="#231F20"/>
<path d="M910.01 1536.9L1009.84 1479.07V1594.88L910.01 1652.48V1536.9Z" fill="white"/>
<path d="M1008.96 1477.28C1009.55 1476.98 1010.26 1477 1010.84 1477.34C1011.46 1477.69 1011.84 1478.36 1011.84 1479.07V1594.88C1011.84 1595.6 1011.46 1596.25 1010.84 1596.61L911.01 1654.21C910.391 1654.57 909.628 1654.57 909.01 1654.21C908.391 1653.85 908.01 1653.19 908.01 1652.48V1536.9C908.01 1536.19 908.39 1535.53 909.007 1535.17L1008.84 1477.34L1008.96 1477.28ZM912.01 1538.05V1649.02L1007.84 1593.72V1482.54L912.01 1538.05Z" fill="#231F20"/>
<path d="M809.86 1479.07L909.7 1421.27L1009.84 1479.07L910.01 1536.9L809.86 1479.07Z" fill="white"/>
<path d="M908.816 1419.48C909.412 1419.18 910.119 1419.2 910.7 1419.54L1010.84 1477.34C1011.46 1477.69 1011.84 1478.35 1011.84 1479.07C1011.84 1479.78 1011.46 1480.44 1010.84 1480.8L911.012 1538.63C910.393 1538.99 909.63 1538.99 909.01 1538.63L808.86 1480.8C808.241 1480.45 807.86 1479.78 807.86 1479.07C807.86 1478.36 808.24 1477.7 808.858 1477.34L908.698 1419.54L908.816 1419.48ZM813.855 1479.07L910.007 1534.59L1005.84 1479.07L909.7 1423.58L813.855 1479.07Z" fill="#231F20"/>
<path d="M705.87 873.1V557.09L979.63 715.16V1031.13L705.87 873.1Z" fill="white"/>
<path d="M704.87 555.358C705.489 555.001 706.251 555.001 706.87 555.358L980.63 713.428C981.249 713.785 981.63 714.446 981.63 715.16V1031.13C981.63 1031.84 981.249 1032.51 980.63 1032.86C980.011 1033.22 979.249 1033.22 978.63 1032.86L704.87 874.832C704.251 874.475 703.87 873.814 703.87 873.1V557.09L703.875 556.957C703.919 556.295 704.29 555.693 704.87 555.358ZM707.87 871.945L977.63 1027.67V716.314L707.87 560.554V871.945Z" fill="#231F20"/>
<path d="M979.63 715.16L1252.55 557.09V873.66L979.63 1031.13V715.16Z" fill="white"/>
<path d="M1251.67 555.296C1252.26 555.002 1252.97 555.023 1253.55 555.358C1254.17 555.715 1254.55 556.375 1254.55 557.09V873.66C1254.55 874.375 1254.17 875.036 1253.55 875.393L980.63 1032.86C980.011 1033.22 979.249 1033.22 978.63 1032.86C978.011 1032.5 977.63 1031.84 977.63 1031.13V715.16C977.63 714.447 978.01 713.787 978.628 713.429L1251.55 555.36L1251.67 555.296ZM981.63 716.313V1027.67L1250.55 872.505V560.559L981.63 716.313Z" fill="#231F20"/>
<path d="M705.87 557.09L978.79 399.07L1252.55 557.09L979.63 715.16L705.87 557.09Z" fill="white"/>
<path d="M977.905 397.276C978.502 396.982 979.209 397.002 979.79 397.338L1253.55 555.358C1254.17 555.715 1254.55 556.375 1254.55 557.089C1254.55 557.803 1254.17 558.463 1253.55 558.821L980.633 716.89C980.014 717.249 979.25 717.25 978.63 716.892L704.87 558.822C704.252 558.465 703.871 557.806 703.87 557.092C703.87 556.377 704.25 555.717 704.868 555.359L977.788 397.34L977.905 397.276ZM709.865 557.088L979.628 712.849L1248.55 557.093L978.79 401.38L709.865 557.088Z" fill="#231F20"/>
</g>
<defs>
<clipPath id="clip0_830_66654">
<rect width="1559.63" height="2096.42" fill="white"/>
</clipPath>
</defs>
</svg>
