<?xml version="1.0" encoding="UTF-8"?>
<svg id="Layer_1" xmlns="http://www.w3.org/2000/svg" version="1.1" viewBox="0 0 16 16">
  <!-- Generator: Adobe Illustrator 29.5.1, SVG Export Plug-In . SVG Version: 2.1.0 Build 141)  -->
  <defs>
    <style>
      .st0 {
        fill: #fff;
      }
    </style>
  </defs>
  <path class="st0" d="M10.9,12.9h0c-.2,0-.4-.1-.5-.3l-1.9-3.4c0-.2-.3-.3-.4-.3h-1.7c-.3,0-.5.2-.5.5v3.5s-1.1,0-1.1,0V3.7c.4-.4.6-.6,1-1h2.5c.7,0,1.2.1,1.8.4.5.3.9.6,1.2,1.1.3.5.4,1,.4,1.6s-.2,1.3-.6,1.8c-.3.4-.6.7-1,.9s-.4.5-.2.7l1.6,2.8c.2.4,0,.8-.5.8ZM8.3,7.9c.4,0,.8,0,1.1-.3.3-.2.6-.4.8-.7.2-.3.3-.7.3-1.1s0-.8-.3-1.1c-.2-.3-.4-.5-.8-.7-.3-.2-.7-.3-1.1-.3h-2c-.3,0-.5.2-.5.5v3.2c0,.3.2.5.5.5h2Z"/>
  <path class="st0" d="M8,15.9C3.7,15.9.1,12.3.1,8S3.7.1,8,.1s7.9,3.5,7.9,7.9-3.5,7.9-7.9,7.9ZM8,1.1c-3.8,0-6.9,3.1-6.9,6.9s3.1,6.9,6.9,6.9,6.9-3.1,6.9-6.9S11.8,1.1,8,1.1Z"/>
</svg>