<svg width="1918" height="1920" viewBox="0 0 1918 1920" fill="none" xmlns="http://www.w3.org/2000/svg">
<mask id="mask0_767_36171" style="mask-type:luminance" maskUnits="userSpaceOnUse" x="0" y="0" width="1918" height="1920">
<path d="M1917.11 0H0V1920H1917.11V0Z" fill="white"/>
</mask>
<g mask="url(#mask0_767_36171)">
<g clip-path="url(#clip0_767_36171)">
<path d="M1689.68 -314.877C1691.14 -315.596 1692.87 -315.544 1694.29 -314.72L2059.73 -102.464C2061.23 -101.59 2062.16 -99.9811 2062.16 -98.2412C2062.15 -96.5011 2061.23 -94.8934 2059.72 -94.0214L1694.28 117.6C1692.77 118.474 1690.91 118.475 1689.4 117.603L1322.86 -94.0185C1321.35 -94.8897 1320.42 -96.499 1320.42 -98.2412C1320.42 -99.9835 1321.35 -101.595 1322.86 -102.468L1689.39 -314.723L1689.68 -314.877ZM1335.05 -98.2519L1691.83 107.739L2047.55 -98.2509L1691.83 -304.859L1335.05 -98.2519Z" fill="#D6D6D6"/>
</g>
<g clip-path="url(#clip1_767_36171)">
<path d="M2056.29 -102.577C2057.75 -103.297 2059.48 -103.244 2060.9 -102.42L2426.34 109.836C2427.84 110.71 2428.77 112.319 2428.77 114.059C2428.76 115.799 2427.84 117.406 2426.33 118.278L2060.89 329.899C2059.38 330.774 2057.52 330.775 2056.01 329.902L1689.47 118.281C1687.96 117.41 1687.03 115.801 1687.03 114.059C1687.03 112.316 1687.96 110.705 1689.47 109.832L2056 -102.423L2056.29 -102.577ZM1701.66 114.048L2058.44 320.039L2414.16 114.049L2058.44 -92.5595L1701.66 114.048Z" fill="#D6D6D6"/>
</g>
<g clip-path="url(#clip2_767_36171)">
<path d="M957.669 -316.107C959.128 -316.827 960.859 -316.774 962.278 -315.95L1327.72 -103.694C1329.22 -102.82 1330.15 -101.212 1330.15 -99.4716C1330.14 -97.7316 1329.22 -96.1239 1327.71 -95.2519L962.272 116.369C960.762 117.244 958.899 117.245 957.387 116.372L590.85 -95.249C589.341 -96.1202 588.411 -97.7295 588.41 -99.4716C588.409 -101.214 589.337 -102.825 590.845 -103.698L957.382 -315.953L957.669 -316.107ZM603.039 -99.4824L959.822 106.509L1315.54 -99.4814L959.822 -306.09L603.039 -99.4824Z" fill="#D6D6D6"/>
</g>
<g clip-path="url(#clip3_767_36171)">
<path d="M1324.28 -103.797C1325.74 -104.516 1327.47 -104.464 1328.89 -103.64L1694.33 108.616C1695.83 109.49 1696.76 111.099 1696.76 112.839C1696.75 114.579 1695.83 116.187 1694.32 117.059L1328.88 328.68C1327.37 329.555 1325.51 329.556 1324 328.683L957.46 117.062C955.951 116.19 955.021 114.581 955.02 112.839C955.019 111.097 955.947 109.485 957.455 108.612L1323.99 -103.643L1324.28 -103.797ZM969.649 112.828L1326.43 318.819L1682.15 112.829L1326.43 -93.7793L969.649 112.828Z" fill="#D6D6D6"/>
</g>
<g clip-path="url(#clip4_767_36171)">
<path d="M1690.89 108.503C1692.35 107.783 1694.08 107.836 1695.5 108.66L2060.94 320.916C2062.44 321.79 2063.37 323.399 2063.37 325.139C2063.36 326.879 2062.44 328.486 2060.93 329.358L1695.49 540.98C1693.98 541.854 1692.12 541.855 1690.61 540.982L1324.07 329.361C1322.56 328.49 1321.63 326.881 1321.63 325.139C1321.63 323.396 1322.56 321.785 1324.07 320.912L1690.6 108.657L1690.89 108.503ZM1336.26 325.128L1693.04 531.119L2048.76 325.129L1693.04 118.521L1336.26 325.128Z" fill="#D6D6D6"/>
</g>
<g clip-path="url(#clip5_767_36171)">
<path d="M2057.5 320.813C2058.96 320.093 2060.69 320.146 2062.11 320.97L2427.55 533.226C2429.05 534.1 2429.98 535.708 2429.98 537.448C2429.97 539.188 2429.05 540.796 2427.54 541.668L2062.1 753.289C2060.59 754.164 2058.73 754.165 2057.22 753.292L1690.68 541.671C1689.17 540.8 1688.24 539.19 1688.24 537.448C1688.24 535.706 1689.17 534.095 1690.68 533.222L2057.21 320.967L2057.5 320.813ZM1702.87 537.438L2059.65 743.429L2415.37 537.439L2059.65 330.83L1702.87 537.438Z" fill="#D6D6D6"/>
</g>
<g clip-path="url(#clip6_767_36171)">
<path d="M224.549 -317.607C226.008 -318.327 227.739 -318.274 229.158 -317.45L594.597 -105.194C596.101 -104.32 597.027 -102.712 597.025 -100.972C597.024 -99.2316 596.097 -97.6239 594.591 -96.7519L229.152 114.869C227.642 115.744 225.778 115.745 224.267 114.872L-142.271 -96.749C-143.779 -97.6202 -144.709 -99.2295 -144.71 -100.972C-144.711 -102.714 -143.783 -104.325 -142.275 -105.198L224.262 -317.453L224.549 -317.607ZM-130.081 -100.982L226.702 105.009L582.417 -100.981L226.702 -307.59L-130.081 -100.982Z" fill="#D6D6D6"/>
</g>
<g clip-path="url(#clip7_767_36171)">
<path d="M591.159 -105.308C592.618 -106.027 594.35 -105.975 595.769 -105.15L961.207 107.106C962.712 107.979 963.637 109.588 963.636 111.328C963.635 113.068 962.707 114.676 961.201 115.548L595.763 327.169C594.252 328.044 592.389 328.045 590.877 327.172L224.34 115.551C222.831 114.68 221.902 113.07 221.9 111.328C221.899 109.586 222.827 107.975 224.335 107.102L590.872 -105.153L591.159 -105.308ZM236.529 111.317L593.312 317.309L949.027 111.318L593.312 -95.29L236.529 111.317Z" fill="#D6D6D6"/>
</g>
<g clip-path="url(#clip8_767_36171)">
<path d="M957.769 107.003C959.228 106.283 960.959 106.336 962.378 107.16L1327.82 319.416C1329.32 320.29 1330.25 321.899 1330.25 323.639C1330.24 325.379 1329.32 326.986 1327.81 327.858L962.373 539.48C960.862 540.354 958.999 540.355 957.487 539.482L590.95 327.861C589.441 326.99 588.511 325.381 588.51 323.639C588.509 321.896 589.437 320.285 590.945 319.412L957.482 107.157L957.769 107.003ZM603.139 323.628L959.922 529.619L1315.64 323.629L959.922 117.021L603.139 323.628Z" fill="#D6D6D6"/>
</g>
<path d="M960 425.41L1327.17 212.81L1693.22 425.41L1327.17 637.42L960 425.41Z" fill="#543CE5"/>
<path d="M1326.29 211.016C1326.88 210.721 1327.59 210.742 1328.18 211.08L1694.22 423.681C1694.84 424.039 1695.22 424.698 1695.22 425.411C1695.22 426.124 1694.84 426.783 1694.22 427.141L1328.17 639.15C1327.55 639.509 1326.79 639.509 1326.17 639.151L959 427.142C958.382 426.785 958.001 426.125 958 425.411C958 424.697 958.38 424.036 958.998 423.679L1326.17 211.079L1326.29 211.016ZM963.995 425.407L1327.17 635.109L1689.23 425.406L1327.17 215.121L963.995 425.407Z" fill="#231F20"/>
<path d="M960 319.26L1327.17 106.65L1693.22 319.26L1327.17 531.26L960 319.26Z" fill="#543CE5"/>
<path d="M1326.29 104.856C1326.88 104.562 1327.59 104.583 1328.18 104.921L1694.22 317.531C1694.84 317.889 1695.22 318.549 1695.22 319.262C1695.22 319.975 1694.84 320.634 1694.22 320.991L1328.17 532.991C1327.55 533.35 1326.79 533.35 1326.17 532.992L959 320.992C958.382 320.635 958.001 319.976 958 319.262C958 318.548 958.38 317.887 958.998 317.529L1326.17 104.92L1326.29 104.856ZM963.995 319.258L1327.17 528.949L1689.23 319.258L1327.17 108.962L963.995 319.258Z" fill="#231F20"/>
<path d="M960 213.11L1327.17 0.5L1693.22 213.11L1327.17 425.11L960 213.11Z" fill="#543CE5"/>
<path d="M1326.29 -1.29401C1326.88 -1.58865 1327.59 -1.56725 1328.18 -1.22956L1694.22 211.381C1694.84 211.739 1695.22 212.398 1695.22 213.111C1695.22 213.824 1694.84 214.483 1694.22 214.841L1328.17 426.841C1327.55 427.199 1326.79 427.199 1326.17 426.842L959 214.842C958.382 214.485 958.001 213.825 958 213.111C958 212.397 958.38 211.737 958.998 211.379L1326.17 -1.23054L1326.29 -1.29401ZM963.995 213.107L1327.17 422.799L1689.23 213.107L1327.17 2.81145L963.995 213.107Z" fill="#231F20"/>
<g clip-path="url(#clip9_767_36171)">
<path d="M1690.98 531.612C1692.44 530.893 1694.17 530.945 1695.59 531.77L2061.03 744.025C2062.53 744.899 2063.46 746.508 2063.46 748.248C2063.45 749.988 2062.53 751.596 2061.02 752.468L1695.58 964.089C1694.07 964.964 1692.21 964.965 1690.7 964.092L1324.16 752.471C1322.65 751.6 1321.72 749.99 1321.72 748.248C1321.72 746.506 1322.65 744.895 1324.16 744.022L1690.69 531.767L1690.98 531.612ZM1336.35 748.237L1693.13 954.229L2048.85 748.238L1693.13 541.63L1336.35 748.237Z" fill="#D6D6D6"/>
</g>
<path d="M2059.5 690.086C2060.09 689.791 2060.8 689.813 2061.39 690.15L2427.44 902.761C2428.05 903.119 2428.43 903.778 2428.43 904.491C2428.43 905.204 2428.05 905.863 2427.43 906.221L2061.38 1118.22C2060.76 1118.58 2060 1118.58 2059.38 1118.22L1692.22 906.222C1691.6 905.865 1691.22 905.205 1691.22 904.491C1691.22 903.777 1691.6 903.117 1692.22 902.759L2059.38 690.149L2059.5 690.086ZM1697.22 904.487L2060.38 1114.18L2422.44 904.486L2060.38 694.191L1697.22 904.487Z" fill="#0F0F0F"/>
<g clip-path="url(#clip10_767_36171)">
<path d="M-140.851 -106.527C-139.392 -107.247 -137.661 -107.194 -136.242 -106.37L229.197 105.886C230.701 106.76 231.627 108.368 231.625 110.108C231.624 111.848 230.697 113.456 229.191 114.328L-136.248 325.949C-137.758 326.824 -139.621 326.825 -141.133 325.952L-507.67 114.331C-509.179 113.46 -510.109 111.851 -510.11 110.108C-510.111 108.366 -509.183 106.755 -507.675 105.882L-141.138 -106.373L-140.851 -106.527ZM-495.481 110.098L-138.698 316.089L217.017 110.099L-138.698 -96.5097L-495.481 110.098Z" fill="#D6D6D6"/>
</g>
<g clip-path="url(#clip11_767_36171)">
<path d="M225.759 105.773C227.218 105.053 228.949 105.106 230.368 105.93L595.807 318.186C597.311 319.06 598.237 320.668 598.235 322.408C598.234 324.148 597.307 325.756 595.801 326.628L230.362 538.249C228.852 539.124 226.988 539.125 225.477 538.252L-141.061 326.631C-142.569 325.76 -143.499 324.15 -143.5 322.408C-143.501 320.666 -142.573 319.055 -141.065 318.182L225.472 105.927L225.759 105.773ZM-128.871 322.398L227.912 528.389L583.627 322.398L227.912 115.79L-128.871 322.398Z" fill="#D6D6D6"/>
</g>
<g clip-path="url(#clip12_767_36171)">
<path d="M592.359 318.083C593.818 317.363 595.549 317.416 596.968 318.24L962.407 530.496C963.911 531.37 964.837 532.979 964.835 534.719C964.834 536.459 963.907 538.067 962.401 538.939L596.962 750.56C595.452 751.434 593.589 751.435 592.077 750.563L225.54 538.941C224.031 538.07 223.101 536.461 223.1 534.719C223.099 532.976 224.027 531.365 225.535 530.492L592.072 318.237L592.359 318.083ZM237.729 534.708L594.512 740.699L950.227 534.709L594.512 328.101L237.729 534.708Z" fill="#D6D6D6"/>
</g>
<g clip-path="url(#clip13_767_36171)">
<path d="M958.969 530.383C960.428 529.663 962.159 529.716 963.578 530.54L1329.02 742.796C1330.52 743.67 1331.45 745.279 1331.45 747.019C1331.44 748.759 1330.52 750.366 1329.01 751.238L963.572 962.859C962.062 963.734 960.198 963.735 958.687 962.862L592.149 751.241C590.641 750.37 589.711 748.761 589.71 747.019C589.709 745.276 590.637 743.665 592.145 742.792L958.682 530.537L958.969 530.383ZM604.339 747.008L961.122 952.999L1316.84 747.009L961.122 540.4L604.339 747.008Z" fill="#D6D6D6"/>
</g>
<g clip-path="url(#clip14_767_36171)">
<path d="M1325.58 742.692C1327.04 741.973 1328.77 742.025 1330.19 742.85L1695.63 955.106C1697.13 955.979 1698.06 957.588 1698.06 959.328C1698.05 961.068 1697.13 962.676 1695.62 963.548L1330.18 1175.17C1328.67 1176.04 1326.81 1176.04 1325.3 1175.17L958.76 963.551C957.251 962.68 956.321 961.07 956.32 959.328C956.319 957.586 957.247 955.975 958.755 955.102L1325.29 742.847L1325.58 742.692ZM970.949 959.317L1327.73 1165.31L1683.45 959.318L1327.73 752.71L970.949 959.317Z" fill="#D6D6D6"/>
</g>
<g clip-path="url(#clip15_767_36171)">
<path d="M1692.19 954.993C1693.65 954.274 1695.38 954.326 1696.8 955.15L2062.24 1167.41C2063.74 1168.28 2064.67 1169.89 2064.67 1171.63C2064.66 1173.37 2063.74 1174.98 2062.23 1175.85L1696.79 1387.47C1695.28 1388.34 1693.42 1388.35 1691.91 1387.47L1325.37 1175.85C1323.86 1174.98 1322.93 1173.37 1322.93 1171.63C1322.93 1169.89 1323.86 1168.28 1325.37 1167.4L1691.9 955.148L1692.19 954.993ZM1337.56 1171.62L1694.34 1377.61L2050.06 1171.62L1694.34 965.011L1337.56 1171.62Z" fill="#D6D6D6"/>
</g>
<g clip-path="url(#clip16_767_36171)">
<path d="M2058.79 1167.3C2060.25 1166.58 2061.98 1166.64 2063.4 1167.46L2428.84 1379.72C2430.34 1380.59 2431.27 1382.2 2431.27 1383.94C2431.26 1385.68 2430.34 1387.29 2428.83 1388.16L2063.39 1599.78C2061.88 1600.65 2060.02 1600.66 2058.51 1599.78L1691.97 1388.16C1690.46 1387.29 1689.53 1385.68 1689.53 1383.94C1689.53 1382.2 1690.46 1380.59 1691.97 1379.71L2058.5 1167.46L2058.79 1167.3ZM1704.16 1383.93L2060.94 1589.92L2416.66 1383.93L2060.94 1177.32L1704.16 1383.93Z" fill="#D6D6D6"/>
</g>
<g clip-path="url(#clip17_767_36171)">
<path d="M-141.601 318.732C-140.142 318.013 -138.411 318.065 -136.992 318.89L228.447 531.146C229.951 532.02 230.877 533.628 230.875 535.368C230.874 537.108 229.947 538.716 228.441 539.588L-136.998 751.209C-138.508 752.084 -140.371 752.085 -141.883 751.212L-508.42 539.591C-509.929 538.72 -510.859 537.11 -510.86 535.368C-510.861 533.626 -509.933 532.015 -508.425 531.142L-141.888 318.887L-141.601 318.732ZM-496.231 535.357L-139.448 741.349L216.267 535.358L-139.448 328.75L-496.231 535.357Z" fill="#D6D6D6"/>
</g>
<g clip-path="url(#clip18_767_36171)">
<path d="M225.009 531.032C226.468 530.313 228.199 530.365 229.618 531.189L595.057 743.445C596.561 744.319 597.487 745.928 597.485 747.668C597.484 749.408 596.557 751.016 595.051 751.888L229.612 963.509C228.102 964.384 226.238 964.385 224.727 963.512L-141.811 751.891C-143.319 751.019 -144.249 749.41 -144.25 747.668C-144.251 745.926 -143.323 744.315 -141.815 743.441L224.722 531.187L225.009 531.032ZM-129.621 747.657L227.162 953.648L582.877 747.658L227.162 541.05L-129.621 747.657Z" fill="#D6D6D6"/>
</g>
<g clip-path="url(#clip19_767_36171)">
<path d="M591.619 743.343C593.078 742.623 594.809 742.676 596.229 743.5L961.667 955.756C963.172 956.63 964.097 958.239 964.096 959.979C964.095 961.719 963.167 963.326 961.661 964.198L596.223 1175.82C594.712 1176.69 592.849 1176.7 591.337 1175.82L224.8 964.201C223.291 963.33 222.361 961.721 222.36 959.979C222.359 958.236 223.287 956.625 224.795 955.752L591.332 743.497L591.619 743.343ZM236.989 959.968L593.772 1165.96L949.487 959.969L593.772 753.36L236.989 959.968Z" fill="#D6D6D6"/>
</g>
<g clip-path="url(#clip20_767_36171)">
<path d="M1324.83 1167.95C1326.29 1167.23 1328.02 1167.29 1329.44 1168.11L1694.88 1380.37C1696.38 1381.24 1697.31 1382.85 1697.31 1384.59C1697.3 1386.33 1696.38 1387.94 1694.87 1388.81L1329.43 1600.43C1327.92 1601.3 1326.06 1601.31 1324.55 1600.43L958.01 1388.81C956.501 1387.94 955.571 1386.33 955.57 1384.59C955.569 1382.85 956.497 1381.24 958.005 1380.36L1324.54 1168.11L1324.83 1167.95ZM970.199 1384.58L1326.98 1590.57L1682.7 1384.58L1326.98 1177.97L970.199 1384.58Z" fill="#D6D6D6"/>
</g>
<g clip-path="url(#clip21_767_36171)">
<path d="M1691.44 1380.25C1692.9 1379.53 1694.63 1379.59 1696.05 1380.41L2061.49 1592.67C2062.99 1593.54 2063.92 1595.15 2063.92 1596.89C2063.91 1598.63 2062.99 1600.24 2061.48 1601.11L1696.04 1812.73C1694.53 1813.6 1692.67 1813.61 1691.16 1812.73L1324.62 1601.11C1323.11 1600.24 1322.18 1598.63 1322.18 1596.89C1322.18 1595.15 1323.11 1593.54 1324.62 1592.66L1691.15 1380.41L1691.44 1380.25ZM1336.81 1596.88L1693.59 1802.87L2049.31 1596.88L1693.59 1390.27L1336.81 1596.88Z" fill="#D6D6D6"/>
</g>
<g clip-path="url(#clip22_767_36171)">
<path d="M2058.05 1592.56C2059.51 1591.84 2061.24 1591.9 2062.66 1592.72L2428.1 1804.98C2429.6 1805.85 2430.53 1807.46 2430.53 1809.2C2430.52 1810.94 2429.6 1812.55 2428.09 1813.42L2062.65 2025.04C2061.14 2025.91 2059.28 2025.91 2057.77 2025.04L1691.23 1813.42C1689.72 1812.55 1688.79 1810.94 1688.79 1809.2C1688.79 1807.46 1689.72 1805.84 1691.23 1804.97L2057.76 1592.72L2058.05 1592.56ZM1703.42 1809.19L2060.2 2015.18L2415.92 1809.19L2060.2 1602.58L1703.42 1809.19Z" fill="#D6D6D6"/>
</g>
<g clip-path="url(#clip23_767_36171)">
<path d="M-140.391 742.123C-138.932 741.404 -137.201 741.456 -135.782 742.28L229.657 954.536C231.161 955.41 232.087 957.019 232.085 958.759C232.084 960.499 231.157 962.107 229.651 962.979L-135.788 1174.6C-137.298 1175.47 -139.161 1175.48 -140.673 1174.6L-507.21 962.981C-508.719 962.11 -509.649 960.501 -509.65 958.759C-509.651 957.017 -508.723 955.405 -507.215 954.532L-140.678 742.277L-140.391 742.123ZM-495.021 958.748L-138.238 1164.74L217.477 958.749L-138.238 752.141L-495.021 958.748Z" fill="#D6D6D6"/>
</g>
<g clip-path="url(#clip24_767_36171)">
<path d="M226.219 954.423C227.678 953.703 229.409 953.756 230.828 954.58L596.267 1166.84C597.771 1167.71 598.696 1169.32 598.695 1171.06C598.694 1172.8 597.767 1174.41 596.261 1175.28L230.822 1386.9C229.312 1387.77 227.448 1387.78 225.937 1386.9L-140.601 1175.28C-142.109 1174.41 -143.039 1172.8 -143.04 1171.06C-143.041 1169.32 -142.113 1167.71 -140.605 1166.83L225.932 954.577L226.219 954.423ZM-128.411 1171.05L228.372 1377.04L584.087 1171.05L228.372 964.44L-128.411 1171.05Z" fill="#D6D6D6"/>
</g>
<g clip-path="url(#clip25_767_36171)">
<path d="M592.819 1166.73C594.278 1166.01 596.01 1166.07 597.429 1166.89L962.867 1379.15C964.372 1380.02 965.297 1381.63 965.296 1383.37C965.295 1385.11 964.367 1386.72 962.861 1387.59L597.423 1599.21C595.912 1600.08 594.049 1600.09 592.537 1599.21L226 1387.59C224.491 1386.72 223.562 1385.11 223.561 1383.37C223.559 1381.63 224.487 1380.02 225.995 1379.14L592.532 1166.89L592.819 1166.73ZM238.189 1383.36L594.973 1589.35L950.688 1383.36L594.973 1176.75L238.189 1383.36Z" fill="#D6D6D6"/>
</g>
<g clip-path="url(#clip26_767_36171)">
<path d="M959.429 1379.03C960.888 1378.31 962.619 1378.37 964.038 1379.19L1329.48 1591.45C1330.98 1592.32 1331.91 1593.93 1331.91 1595.67C1331.9 1597.41 1330.98 1599.02 1329.47 1599.89L964.032 1811.51C962.522 1812.38 960.658 1812.38 959.146 1811.51L592.609 1599.89C591.101 1599.02 590.171 1597.41 590.17 1595.67C590.169 1593.93 591.097 1592.31 592.604 1591.44L959.142 1379.19L959.429 1379.03ZM604.799 1595.66L961.582 1801.65L1317.3 1595.66L961.582 1389.05L604.799 1595.66Z" fill="#D6D6D6"/>
</g>
<g clip-path="url(#clip27_767_36171)">
<path d="M1326.04 1593.21C1327.5 1592.49 1329.23 1592.55 1330.65 1593.37L1696.09 1805.63C1697.59 1806.5 1698.52 1808.11 1698.52 1809.85C1698.51 1811.59 1697.59 1813.2 1696.08 1814.07L1330.64 2025.69C1329.13 2026.56 1327.27 2026.57 1325.76 2025.69L959.22 1814.07C957.711 1813.2 956.781 1811.59 956.78 1809.85C956.779 1808.11 957.707 1806.5 959.215 1805.62L1325.75 1593.37L1326.04 1593.21ZM971.409 1809.84L1328.19 2015.83L1683.91 1809.84L1328.19 1603.23L971.409 1809.84Z" fill="#D6D6D6"/>
</g>
<path d="M1328.27 1687.03L1695.44 1474.43L2061.49 1687.03L1695.44 1899.04L1328.27 1687.03Z" fill="#543CE5"/>
<path d="M1694.56 1472.64C1695.15 1472.34 1695.86 1472.36 1696.45 1472.7L2062.5 1685.3C2063.11 1685.66 2063.49 1686.32 2063.49 1687.03C2063.49 1687.74 2063.11 1688.4 2062.49 1688.76L1696.44 1900.77C1695.82 1901.13 1695.06 1901.13 1694.44 1900.77L1327.27 1688.76C1326.65 1688.4 1326.27 1687.74 1326.27 1687.03C1326.27 1686.32 1326.65 1685.66 1327.27 1685.3L1694.44 1472.7L1694.56 1472.64ZM1332.27 1687.03L1695.44 1896.73L2057.5 1687.03L1695.44 1476.74L1332.27 1687.03Z" fill="#231F20"/>
<path d="M-139.454 887.645C-138.856 887.351 -138.146 887.372 -137.565 887.71L228.485 1100.32C229.101 1100.68 229.48 1101.34 229.48 1102.05C229.479 1102.76 229.1 1103.42 228.483 1103.78L-137.568 1315.78C-138.187 1316.14 -138.95 1316.14 -139.57 1315.78L-506.74 1103.78C-507.358 1103.42 -507.739 1102.76 -507.74 1102.05C-507.74 1101.34 -507.36 1100.68 -506.742 1100.32L-139.572 887.709L-139.454 887.645ZM-501.745 1102.05L-138.572 1311.74L223.494 1102.05L-138.573 891.751L-501.745 1102.05Z" fill="#0F0F0F"/>
<path d="M-501.745 1102.05L-138.572 1311.74L223.494 1102.05L42.4604 996.898L-138.573 891.751L-501.745 1102.05Z" fill="#5032E4"/>
<g clip-path="url(#clip28_767_36171)">
<path d="M225.239 1377.52C226.698 1376.8 228.43 1376.86 229.849 1377.68L595.287 1589.94C596.792 1590.81 597.717 1592.42 597.716 1594.16C597.715 1595.9 596.787 1597.51 595.281 1598.38L229.843 1810C228.332 1810.87 226.469 1810.87 224.957 1810L-141.58 1598.38C-143.089 1597.51 -144.018 1595.9 -144.02 1594.16C-144.021 1592.42 -143.093 1590.8 -141.585 1589.93L224.952 1377.68L225.239 1377.52ZM-129.391 1594.15L227.393 1800.14L583.107 1594.15L227.393 1387.54L-129.391 1594.15Z" fill="#D6D6D6"/>
</g>
<g clip-path="url(#clip29_767_36171)">
<path d="M591.849 1589.83C593.308 1589.11 595.039 1589.17 596.458 1589.99L961.896 1802.25C963.401 1803.12 964.326 1804.73 964.325 1806.47C964.324 1808.21 963.396 1809.82 961.891 1810.69L596.452 2022.31C594.941 2023.18 593.078 2023.19 591.566 2022.31L225.029 1810.69C223.521 1809.82 222.591 1808.21 222.59 1806.47C222.589 1804.73 223.517 1803.12 225.024 1802.24L591.562 1589.99L591.849 1589.83ZM237.219 1806.46L594.002 2012.45L949.717 1806.46L594.002 1599.85L237.219 1806.46Z" fill="#D6D6D6"/>
</g>
<g clip-path="url(#clip30_767_36171)">
<path d="M958.449 1802.13C959.908 1801.41 961.64 1801.47 963.059 1802.29L1328.5 2014.55C1330 2015.42 1330.93 2017.03 1330.93 2018.77C1330.92 2020.51 1330 2022.12 1328.49 2022.99L963.053 2234.61C961.542 2235.48 959.679 2235.49 958.167 2234.61L591.63 2022.99C590.121 2022.12 589.192 2020.51 589.19 2018.77C589.189 2017.03 590.117 2015.42 591.625 2014.54L958.162 1802.29L958.449 1802.13ZM603.819 2018.76L960.603 2224.75L1316.32 2018.76L960.603 1812.15L603.819 2018.76Z" fill="#D6D6D6"/>
</g>
<g clip-path="url(#clip31_767_36171)">
<path d="M-140.161 1588.61C-138.702 1587.89 -136.971 1587.95 -135.552 1588.77L229.887 1801.03C231.391 1801.9 232.317 1803.51 232.315 1805.25C232.314 1806.99 231.387 1808.6 229.881 1809.47L-135.558 2021.09C-137.068 2021.96 -138.932 2021.96 -140.443 2021.09L-506.98 1809.47C-508.489 1808.6 -509.419 1806.99 -509.42 1805.25C-509.421 1803.51 -508.493 1801.89 -506.985 1801.02L-140.448 1588.77L-140.161 1588.61ZM-494.791 1805.24L-138.008 2011.23L217.707 1805.24L-138.008 1598.63L-494.791 1805.24Z" fill="#D6D6D6"/>
</g>
<g clip-path="url(#clip32_767_36171)">
<path d="M226.439 1800.91C227.898 1800.19 229.629 1800.25 231.048 1801.07L596.487 2013.33C597.991 2014.2 598.917 2015.81 598.916 2017.55C598.914 2019.29 597.987 2020.9 596.481 2021.77L231.042 2233.39C229.532 2234.26 227.669 2234.27 226.157 2233.39L-140.38 2021.77C-141.889 2020.9 -142.819 2019.29 -142.82 2017.55C-142.821 2015.81 -141.893 2014.2 -140.385 2013.32L226.152 1801.07L226.439 1800.91ZM-128.191 2017.54L228.592 2223.53L584.307 2017.54L228.592 1810.93L-128.191 2017.54Z" fill="#D6D6D6"/>
</g>
<path d="M960.55 529.263V535.989H956.55V529.263H960.55ZM960.55 502.355V515.81H956.55V502.355H960.55ZM960.55 475.449V488.902H956.55V475.449H960.55ZM960.55 448.543V461.996H956.55V448.543H960.55ZM960.55 421.636V435.089H956.55V421.636H960.55ZM960.55 394.729V408.183H956.55V394.729H960.55ZM960.55 367.822V381.276H956.55V367.822H960.55ZM960.55 340.916V354.369H956.55V340.916H960.55ZM960.55 314.01V327.463H956.55V314.01H960.55ZM960.55 287.103V300.556H956.55V287.103H960.55ZM960.55 260.196V273.649H956.55V260.196H960.55ZM960.55 233.289V246.743H956.55V233.289H960.55ZM960.55 213.109V219.836H956.55V213.109H960.55Z" fill="#231F20"/>
<path d="M1695.22 529.263V535.989H1691.22V529.263H1695.22ZM1695.22 502.355V515.81H1691.22V502.355H1695.22ZM1695.22 475.449V488.902H1691.22V475.449H1695.22ZM1695.22 448.543V461.996H1691.22V448.543H1695.22ZM1695.22 421.636V435.089H1691.22V421.636H1695.22ZM1695.22 394.729V408.183H1691.22V394.729H1695.22ZM1695.22 367.822V381.276H1691.22V367.822H1695.22ZM1695.22 340.916V354.369H1691.22V340.916H1695.22ZM1695.22 314.01V327.463H1691.22V314.01H1695.22ZM1695.22 287.103V300.556H1691.22V287.103H1695.22ZM1695.22 260.196V273.649H1691.22V260.196H1695.22ZM1695.22 233.289V246.743H1691.22V233.289H1695.22ZM1695.22 213.109V219.836H1691.22V213.109H1695.22Z" fill="#231F20"/>
<path d="M700.06 1062.55L973.55 904.18L1246.2 1062.55L973.55 1220.46L700.06 1062.55Z" fill="#543CE5"/>
<path d="M972.666 902.386C973.264 902.091 973.973 902.113 974.554 902.45L1247.2 1060.82C1247.82 1061.18 1248.2 1061.84 1248.2 1062.55C1248.2 1063.26 1247.82 1063.92 1247.2 1064.28L974.552 1222.19C973.933 1222.55 973.17 1222.55 972.551 1222.19L699.06 1064.28C698.442 1063.92 698.061 1063.26 698.06 1062.55C698.06 1061.84 698.44 1061.18 699.058 1060.82L972.548 902.449L972.666 902.386ZM704.055 1062.55L973.549 1218.15L1242.21 1062.55L973.548 906.491L704.055 1062.55Z" fill="#231F20"/>
<path d="M7.0918 1786.02L1.00684 1789.57L-1.00684 1786.11L5.07812 1782.57L7.0918 1786.02ZM31.4307 1771.84L19.2607 1778.93L17.2471 1775.47L29.416 1768.38L31.4307 1771.84ZM55.7695 1757.65L43.5996 1764.75L41.5859 1761.29L53.7549 1754.2L55.7695 1757.65ZM80.1084 1743.47L67.9385 1750.56L65.9248 1747.1L78.0938 1740.01L80.1084 1743.47ZM104.446 1729.28L92.2773 1736.38L90.2637 1732.92L102.433 1725.83L104.446 1729.28ZM128.785 1715.1L116.616 1722.19L114.602 1718.74L126.771 1711.64L128.785 1715.1ZM153.124 1700.92L140.955 1708.01L138.94 1704.55L151.11 1697.46L153.124 1700.92ZM177.463 1686.73L165.294 1693.82L163.279 1690.37L175.449 1683.27L177.463 1686.73ZM201.802 1672.55L189.633 1679.64L187.618 1676.18L199.788 1669.09L201.802 1672.55ZM226.141 1658.36L213.971 1665.45L211.957 1662L224.126 1654.91L226.141 1658.36ZM250.479 1644.18L238.31 1651.27L236.296 1647.81L248.465 1640.72L250.479 1644.18ZM274.818 1629.99L262.648 1637.08L260.635 1633.63L272.804 1626.54L274.818 1629.99ZM299.157 1615.81L286.987 1622.9L284.974 1619.44L297.143 1612.35L299.157 1615.81ZM323.495 1601.62L311.326 1608.72L309.312 1605.26L321.481 1598.17L323.495 1601.62ZM347.834 1587.44L335.665 1594.53L333.65 1591.08L345.82 1583.98L347.834 1587.44ZM372.173 1573.25L360.004 1580.35L357.989 1576.89L370.159 1569.8L372.173 1573.25ZM396.512 1559.07L384.343 1566.16L382.328 1562.71L394.498 1555.61L396.512 1559.07ZM420.851 1544.88L408.682 1551.98L406.667 1548.52L418.837 1541.43L420.851 1544.88ZM445.189 1530.7L433.02 1537.79L431.006 1534.34L443.175 1527.25L445.189 1530.7ZM469.528 1516.52L457.358 1523.61L455.345 1520.15L467.514 1513.06L469.528 1516.52ZM493.867 1502.33L481.697 1509.42L479.684 1505.97L491.853 1498.88L493.867 1502.33ZM518.205 1488.15L506.036 1495.24L504.022 1491.78L516.191 1484.69L518.205 1488.15ZM542.544 1473.96L530.375 1481.05L528.36 1477.6L540.53 1470.51L542.544 1473.96ZM566.883 1459.78L554.714 1466.87L552.699 1463.42L564.869 1456.32L566.883 1459.78ZM591.222 1445.59L579.053 1452.69L577.038 1449.23L589.208 1442.14L591.222 1445.59ZM615.561 1431.41L603.391 1438.5L601.377 1435.05L613.546 1427.95L615.561 1431.41ZM639.899 1417.22L627.729 1424.32L625.716 1420.86L637.885 1413.77L639.899 1417.22ZM664.237 1403.04L652.068 1410.13L650.055 1406.68L662.224 1399.58L664.237 1403.04ZM688.576 1388.86L676.407 1395.95L674.393 1392.49L686.562 1385.4L688.576 1388.86ZM712.915 1374.67L700.746 1381.76L698.731 1378.31L710.901 1371.22L712.915 1374.67ZM737.254 1360.49L725.085 1367.58L723.07 1364.12L735.24 1357.03L737.254 1360.49ZM761.593 1346.3L749.423 1353.39L747.409 1349.94L759.578 1342.85L761.593 1346.3ZM785.932 1332.12L773.762 1339.21L771.748 1335.75L783.917 1328.66L785.932 1332.12ZM810.27 1317.93L798.101 1325.03L796.087 1321.57L808.256 1314.48L810.27 1317.93ZM834.608 1303.75L822.439 1310.84L820.425 1307.39L832.595 1300.29L834.608 1303.75ZM858.947 1289.56L846.778 1296.66L844.764 1293.2L856.934 1286.11L858.947 1289.56ZM883.286 1275.38L871.117 1282.47L869.103 1279.02L881.272 1271.92L883.286 1275.38ZM907.625 1261.2L895.455 1268.29L893.441 1264.83L905.61 1257.74L907.625 1261.2ZM931.964 1247.01L919.794 1254.1L917.78 1250.65L929.949 1243.56L931.964 1247.01ZM956.303 1232.83L944.133 1239.92L942.119 1236.46L954.288 1229.37L956.303 1232.83ZM974.557 1222.19L968.472 1225.73L966.458 1222.28L972.543 1218.73L974.557 1222.19Z" fill="#231F20"/>
<path d="M0.429688 1472.61L-5.66309 1476.16L-7.67676 1472.7L-1.58398 1469.15L0.429688 1472.61ZM24.7998 1458.4L12.6143 1465.51L10.6006 1462.05L22.7852 1454.95L24.7998 1458.4ZM49.1699 1444.2L36.9844 1451.3L34.9707 1447.85L47.1553 1440.75L49.1699 1444.2ZM73.54 1430L61.3545 1437.1L59.3408 1433.64L71.5254 1426.54L73.54 1430ZM97.9092 1415.8L85.7246 1422.9L83.7109 1419.44L95.8955 1412.34L97.9092 1415.8ZM122.279 1401.59L110.095 1408.69L108.08 1405.24L120.266 1398.14L122.279 1401.59ZM146.649 1387.39L134.465 1394.49L132.45 1391.04L144.636 1383.93L146.649 1387.39ZM171.02 1373.19L158.835 1380.29L156.82 1376.83L169.006 1369.73L171.02 1373.19ZM195.39 1358.99L183.205 1366.09L181.19 1362.63L193.376 1355.53L195.39 1358.99ZM219.76 1344.78L207.574 1351.88L205.561 1348.43L217.745 1341.33L219.76 1344.78ZM244.13 1330.58L231.944 1337.68L229.931 1334.22L242.115 1327.12L244.13 1330.58ZM268.5 1316.38L256.314 1323.48L254.301 1320.02L266.485 1312.92L268.5 1316.38ZM292.87 1302.17L280.685 1309.28L278.671 1305.82L290.855 1298.72L292.87 1302.17ZM317.239 1287.97L305.055 1295.07L303.041 1291.62L315.226 1284.52L317.239 1287.97ZM341.609 1273.77L329.425 1280.87L327.41 1277.41L339.596 1270.31L341.609 1273.77ZM365.979 1259.57L353.795 1266.67L351.78 1263.21L363.966 1256.11L365.979 1259.57ZM390.35 1245.36L378.165 1252.46L376.15 1249.01L388.336 1241.91L390.35 1245.36ZM414.72 1231.16L402.535 1238.26L400.521 1234.81L412.706 1227.7L414.72 1231.16ZM439.09 1216.96L426.904 1224.06L424.891 1220.6L437.075 1213.5L439.09 1216.96ZM463.46 1202.75L451.274 1209.86L449.261 1206.4L461.445 1199.3L463.46 1202.75ZM487.83 1188.55L475.645 1195.65L473.631 1192.2L485.815 1185.1L487.83 1188.55ZM512.2 1174.35L500.015 1181.45L498.001 1177.99L510.186 1170.89L512.2 1174.35ZM536.569 1160.15L524.385 1167.25L522.371 1163.79L534.556 1156.69L536.569 1160.15ZM560.939 1145.94L548.755 1153.04L546.74 1149.59L558.926 1142.49L560.939 1145.94ZM585.31 1131.74L573.125 1138.84L571.11 1135.39L583.296 1128.29L585.31 1131.74ZM609.68 1117.54L597.495 1124.64L595.48 1121.18L607.666 1114.08L609.68 1117.54ZM634.05 1103.33L621.865 1110.44L619.851 1106.98L632.036 1099.88L634.05 1103.33ZM658.42 1089.13L646.234 1096.23L644.221 1092.78L656.405 1085.68L658.42 1089.13ZM682.79 1074.93L670.604 1082.03L668.591 1078.58L680.775 1071.47L682.79 1074.93ZM701.067 1064.28L694.975 1067.83L692.961 1064.37L699.053 1060.82L701.067 1064.28Z" fill="#231F20"/>
<path d="M1699 905.61L2066.17 693L2432.22 905.61L2066.17 1117.61L1699 905.61Z" fill="#543CE5"/>
<path d="M2059.5 585.596C2060.09 585.301 2060.8 585.322 2061.39 585.66L2427.44 798.27C2428.05 798.629 2428.43 799.288 2428.43 800.001C2428.43 800.714 2428.05 801.373 2427.43 801.73L2061.38 1013.73C2060.76 1014.09 2060 1014.09 2059.38 1013.73L1692.22 801.731C1691.6 801.374 1691.22 800.715 1691.22 800.001C1691.22 799.287 1691.6 798.626 1692.22 798.268L2059.38 585.659L2059.5 585.596ZM1697.22 799.997L2060.38 1009.69L2422.44 799.996L2060.38 589.701L1697.22 799.997Z" fill="#0F0F0F"/>
<path d="M1330 2004.15V2010.88H1326V2004.15H1330ZM1330 1977.25V1990.7H1326V1977.25H1330ZM1330 1950.34V1963.79H1326V1950.34H1330ZM1330 1923.43V1936.89H1326V1923.43H1330ZM1330 1896.53V1909.98H1326V1896.53H1330ZM1330 1869.62V1883.07H1326V1869.62H1330ZM1330 1842.71V1856.17H1326V1842.71H1330ZM1330 1815.81V1829.26H1326V1815.81H1330ZM1330 1788.9V1802.35H1326V1788.9H1330ZM1330 1761.99V1775.45H1326V1761.99H1330ZM1330 1735.09V1748.54H1326V1735.09H1330ZM1330 1708.18V1721.63H1326V1708.18H1330ZM1330 1688V1694.73H1326V1688H1330Z" fill="#231F20"/>
</g>
<defs>
<clipPath id="clip0_767_36171">
<rect width="741.736" height="433.637" fill="white" transform="translate(1320.42 -315.38)"/>
</clipPath>
<clipPath id="clip1_767_36171">
<rect width="741.736" height="433.637" fill="white" transform="translate(1687.03 -103.08)"/>
</clipPath>
<clipPath id="clip2_767_36171">
<rect width="741.736" height="433.637" fill="white" transform="translate(588.41 -316.61)"/>
</clipPath>
<clipPath id="clip3_767_36171">
<rect width="741.736" height="433.637" fill="white" transform="translate(955.02 -104.3)"/>
</clipPath>
<clipPath id="clip4_767_36171">
<rect width="741.736" height="433.637" fill="white" transform="translate(1321.63 108)"/>
</clipPath>
<clipPath id="clip5_767_36171">
<rect width="741.736" height="433.637" fill="white" transform="translate(1688.24 320.31)"/>
</clipPath>
<clipPath id="clip6_767_36171">
<rect width="741.736" height="433.637" fill="white" transform="translate(-144.71 -318.11)"/>
</clipPath>
<clipPath id="clip7_767_36171">
<rect width="741.736" height="433.637" fill="white" transform="translate(221.9 -105.811)"/>
</clipPath>
<clipPath id="clip8_767_36171">
<rect width="741.736" height="433.637" fill="white" transform="translate(588.51 106.5)"/>
</clipPath>
<clipPath id="clip9_767_36171">
<rect width="741.736" height="433.637" fill="white" transform="translate(1321.72 531.109)"/>
</clipPath>
<clipPath id="clip10_767_36171">
<rect width="741.736" height="433.637" fill="white" transform="translate(-510.11 -107.03)"/>
</clipPath>
<clipPath id="clip11_767_36171">
<rect width="741.736" height="433.637" fill="white" transform="translate(-143.5 105.27)"/>
</clipPath>
<clipPath id="clip12_767_36171">
<rect width="741.736" height="433.637" fill="white" transform="translate(223.1 317.58)"/>
</clipPath>
<clipPath id="clip13_767_36171">
<rect width="741.736" height="433.637" fill="white" transform="translate(589.71 529.88)"/>
</clipPath>
<clipPath id="clip14_767_36171">
<rect width="741.736" height="433.637" fill="white" transform="translate(956.32 742.189)"/>
</clipPath>
<clipPath id="clip15_767_36171">
<rect width="741.736" height="433.637" fill="white" transform="translate(1322.93 954.49)"/>
</clipPath>
<clipPath id="clip16_767_36171">
<rect width="741.736" height="433.637" fill="white" transform="translate(1689.53 1166.8)"/>
</clipPath>
<clipPath id="clip17_767_36171">
<rect width="741.736" height="433.637" fill="white" transform="translate(-510.86 318.229)"/>
</clipPath>
<clipPath id="clip18_767_36171">
<rect width="741.736" height="433.637" fill="white" transform="translate(-144.25 530.529)"/>
</clipPath>
<clipPath id="clip19_767_36171">
<rect width="741.736" height="433.637" fill="white" transform="translate(222.36 742.84)"/>
</clipPath>
<clipPath id="clip20_767_36171">
<rect width="741.736" height="433.637" fill="white" transform="translate(955.57 1167.45)"/>
</clipPath>
<clipPath id="clip21_767_36171">
<rect width="741.736" height="433.637" fill="white" transform="translate(1322.18 1379.75)"/>
</clipPath>
<clipPath id="clip22_767_36171">
<rect width="741.736" height="433.637" fill="white" transform="translate(1688.79 1592.06)"/>
</clipPath>
<clipPath id="clip23_767_36171">
<rect width="741.736" height="433.637" fill="white" transform="translate(-509.65 741.62)"/>
</clipPath>
<clipPath id="clip24_767_36171">
<rect width="741.736" height="433.637" fill="white" transform="translate(-143.04 953.92)"/>
</clipPath>
<clipPath id="clip25_767_36171">
<rect width="741.736" height="433.637" fill="white" transform="translate(223.561 1166.23)"/>
</clipPath>
<clipPath id="clip26_767_36171">
<rect width="741.736" height="433.637" fill="white" transform="translate(590.17 1378.53)"/>
</clipPath>
<clipPath id="clip27_767_36171">
<rect width="741.736" height="433.637" fill="white" transform="translate(956.78 1592.71)"/>
</clipPath>
<clipPath id="clip28_767_36171">
<rect width="741.736" height="433.637" fill="white" transform="translate(-144.02 1377.02)"/>
</clipPath>
<clipPath id="clip29_767_36171">
<rect width="741.736" height="433.637" fill="white" transform="translate(222.59 1589.33)"/>
</clipPath>
<clipPath id="clip30_767_36171">
<rect width="741.736" height="433.637" fill="white" transform="translate(589.19 1801.63)"/>
</clipPath>
<clipPath id="clip31_767_36171">
<rect width="741.736" height="433.637" fill="white" transform="translate(-509.42 1588.11)"/>
</clipPath>
<clipPath id="clip32_767_36171">
<rect width="741.736" height="433.637" fill="white" transform="translate(-142.82 1800.41)"/>
</clipPath>
</defs>
</svg>
