<svg width="2000" height="2000" viewBox="0 0 2000 2000" fill="none" xmlns="http://www.w3.org/2000/svg">
<path d="M675.629 1054.34L1231.81 1375.47L1024.79 1496.31L470.375 1178.49L675.629 1054.34Z" fill="white" stroke="#231F20" stroke-linejoin="round"/>
<path d="M470.375 1178.49V1212.02L1024.79 1529.83V1496.31L470.375 1178.49Z" fill="white" stroke="#231F20" stroke-linejoin="round"/>
<path d="M1231.81 1375.47V1408.99L1024.79 1529.83V1496.31L1231.81 1375.47Z" fill="white" stroke="#231F20" stroke-linejoin="round"/>
<path d="M656.814 1091.96V1073.67L690.021 1091.96V1110.22L656.814 1091.96Z" fill="white" stroke="#231F20" stroke-linejoin="round"/>
<path d="M656.814 1073.67L690.021 1054.35L723.293 1072.51L690.021 1091.96L656.814 1073.67Z" fill="white" stroke="#231F20" stroke-linejoin="round"/>
<path d="M690.021 1110.22L723.293 1091.13V1072.5L690.021 1091.96V1110.22Z" fill="white" stroke="#231F20" stroke-linejoin="round"/>
<path d="M608.162 1119.89V1101.61L641.369 1119.89V1138.16L608.162 1119.89Z" fill="white" stroke="#231F20" stroke-linejoin="round"/>
<path d="M608.162 1101.61L641.369 1082.29L674.641 1100.44L641.369 1119.89L608.162 1101.61Z" fill="white" stroke="#231F20" stroke-linejoin="round"/>
<path d="M641.369 1138.16L674.641 1119.06V1100.44L641.369 1119.89V1138.16Z" fill="white" stroke="#231F20" stroke-linejoin="round"/>
<path d="M560.641 1147.83V1129.54L593.859 1147.83V1166.09L560.641 1147.83Z" fill="white" stroke="#231F20" stroke-linejoin="round"/>
<path d="M560.641 1129.54L593.859 1110.22L627.131 1128.38L593.859 1147.83L560.641 1129.54Z" fill="white" stroke="#231F20" stroke-linejoin="round"/>
<path d="M593.859 1166.09L627.131 1147V1128.38L593.859 1147.83V1166.09Z" fill="white" stroke="#231F20" stroke-linejoin="round"/>
<path d="M512.615 1175.77V1157.48L545.822 1175.77V1194.03L512.615 1175.77Z" fill="white" stroke="#231F20" stroke-linejoin="round"/>
<path d="M512.615 1157.48L545.822 1138.16L579.105 1156.32L545.822 1175.77L512.615 1157.48Z" fill="white" stroke="#231F20" stroke-linejoin="round"/>
<path d="M545.822 1194.02L579.105 1174.94V1156.32L545.822 1175.77V1194.02Z" fill="white" stroke="#231F20" stroke-linejoin="round"/>
<path d="M561.322 1204.29V1186L594.529 1204.29V1222.54L561.322 1204.29Z" fill="white" stroke="#231F20" stroke-linejoin="round"/>
<path d="M561.322 1186L594.529 1166.67L627.812 1184.84L594.529 1204.29L561.322 1186Z" fill="white" stroke="#231F20" stroke-linejoin="round"/>
<path d="M594.529 1222.54L627.812 1203.45V1184.84L594.529 1204.29V1222.54Z" fill="white" stroke="#231F20" stroke-linejoin="round"/>
<path d="M704.248 1117.11V1098.82L737.454 1117.11V1135.37L704.248 1117.11Z" fill="white" stroke="#231F20" stroke-linejoin="round"/>
<path d="M704.248 1098.82L737.454 1079.5L770.738 1097.67L737.454 1117.11L704.248 1098.82Z" fill="white" stroke="#231F20" stroke-linejoin="round"/>
<path d="M737.454 1135.37L770.738 1116.28V1097.67L737.454 1117.11V1135.37Z" fill="white" stroke="#231F20" stroke-linejoin="round"/>
<path d="M655.596 1145.04V1126.76L688.803 1145.04V1163.31L655.596 1145.04Z" fill="white" stroke="#231F20" stroke-linejoin="round"/>
<path d="M655.596 1126.76L688.803 1107.44L722.086 1125.59L688.803 1145.04L655.596 1126.76Z" fill="white" stroke="#231F20" stroke-linejoin="round"/>
<path d="M688.803 1163.31L722.086 1144.22V1125.59L688.803 1145.04V1163.31Z" fill="white" stroke="#231F20" stroke-linejoin="round"/>
<path d="M608.086 1172.98V1154.69L641.292 1172.98V1191.25L608.086 1172.98Z" fill="white" stroke="#231F20" stroke-linejoin="round"/>
<path d="M608.086 1154.69L641.292 1135.37L674.565 1153.53L641.292 1172.98L608.086 1154.69Z" fill="white" stroke="#231F20" stroke-linejoin="round"/>
<path d="M641.292 1191.25L674.565 1172.15V1153.53L641.292 1172.98V1191.25Z" fill="white" stroke="#231F20" stroke-linejoin="round"/>
<path d="M752.373 1146.9V1128.61L785.579 1146.9V1165.17L752.373 1146.9Z" fill="white" stroke="#231F20" stroke-linejoin="round"/>
<path d="M752.373 1128.61L785.579 1109.29L818.851 1127.46L785.579 1146.9L752.373 1128.61Z" fill="white" stroke="#231F20" stroke-linejoin="round"/>
<path d="M785.579 1165.17L818.851 1146.08V1127.46L785.579 1146.9V1165.17Z" fill="white" stroke="#231F20" stroke-linejoin="round"/>
<path d="M703.721 1174.84V1156.55L736.927 1174.84V1193.1L703.721 1174.84Z" fill="white" stroke="#231F20" stroke-linejoin="round"/>
<path d="M703.721 1156.55L736.927 1137.23L770.2 1155.39L736.927 1174.84L703.721 1156.55Z" fill="white" stroke="#231F20" stroke-linejoin="round"/>
<path d="M736.927 1193.1L770.2 1174.01V1155.38L736.927 1174.84V1193.1Z" fill="white" stroke="#231F20" stroke-linejoin="round"/>
<path d="M656.2 1202.77V1184.49L689.406 1202.77V1221.04L656.2 1202.77Z" fill="white" stroke="#231F20" stroke-linejoin="round"/>
<path d="M656.2 1184.49L689.406 1165.17L722.69 1183.32L689.406 1202.77L656.2 1184.49Z" fill="white" stroke="#231F20" stroke-linejoin="round"/>
<path d="M689.406 1221.04L722.69 1201.95V1183.32L689.406 1202.77V1221.04Z" fill="white" stroke="#231F20" stroke-linejoin="round"/>
<path d="M608.174 1230.71V1212.42L641.38 1230.71V1248.98L608.174 1230.71Z" fill="white" stroke="#231F20" stroke-linejoin="round"/>
<path d="M608.174 1212.42L641.38 1193.1L674.653 1211.26L641.38 1230.71L608.174 1212.42Z" fill="white" stroke="#231F20" stroke-linejoin="round"/>
<path d="M641.38 1248.98L674.653 1229.88V1211.26L641.38 1230.71V1248.98Z" fill="white" stroke="#231F20" stroke-linejoin="round"/>
<path d="M658.099 1260.15V1241.86L691.305 1260.15V1278.42L658.099 1260.15Z" fill="white" stroke="#231F20" stroke-linejoin="round"/>
<path d="M658.099 1241.86L691.305 1222.54L724.578 1240.7L691.305 1260.15L658.099 1241.86Z" fill="white" stroke="#231F20" stroke-linejoin="round"/>
<path d="M691.305 1278.42L724.578 1259.33V1240.7L691.305 1260.15V1278.42Z" fill="white" stroke="#231F20" stroke-linejoin="round"/>
<path d="M801.024 1172.98V1154.69L834.23 1172.98V1191.25L801.024 1172.98Z" fill="white" stroke="#231F20" stroke-linejoin="round"/>
<path d="M801.024 1154.69L834.23 1135.37L867.503 1153.53L834.23 1172.98L801.024 1154.69Z" fill="white" stroke="#231F20" stroke-linejoin="round"/>
<path d="M834.23 1191.25L867.503 1172.15V1153.53L834.23 1172.98V1191.25Z" fill="white" stroke="#231F20" stroke-linejoin="round"/>
<path d="M752.373 1200.92V1182.63L785.579 1200.92V1219.19L752.373 1200.92Z" fill="white" stroke="#231F20" stroke-linejoin="round"/>
<path d="M752.373 1182.63L785.579 1163.31L818.851 1181.47L785.579 1200.92L752.373 1182.63Z" fill="white" stroke="#231F20" stroke-linejoin="round"/>
<path d="M785.579 1219.19L818.851 1200.08V1181.47L785.579 1200.92V1219.19Z" fill="white" stroke="#231F20" stroke-linejoin="round"/>
<path d="M704.851 1228.86V1210.57L738.058 1228.86V1247.11L704.851 1228.86Z" fill="white" stroke="#231F20" stroke-linejoin="round"/>
<path d="M704.851 1210.57L738.058 1191.25L771.341 1209.4L738.058 1228.86L704.851 1210.57Z" fill="white" stroke="#231F20" stroke-linejoin="round"/>
<path d="M738.058 1247.11L771.341 1228.02V1209.4L738.058 1228.86V1247.11Z" fill="white" stroke="#231F20" stroke-linejoin="round"/>
<path d="M849.138 1202.77V1184.49L882.344 1202.77V1221.04L849.138 1202.77Z" fill="white" stroke="#231F20" stroke-linejoin="round"/>
<path d="M849.138 1184.49L882.344 1165.17L915.628 1183.32L882.344 1202.77L849.138 1184.49Z" fill="white" stroke="#231F20" stroke-linejoin="round"/>
<path d="M882.344 1221.04L915.628 1201.95V1183.32L882.344 1202.77V1221.04Z" fill="white" stroke="#231F20" stroke-linejoin="round"/>
<path d="M800.486 1230.71V1212.42L833.693 1230.71V1248.98L800.486 1230.71Z" fill="white" stroke="#231F20" stroke-linejoin="round"/>
<path d="M800.486 1212.42L833.693 1193.1L866.976 1211.26L833.693 1230.71L800.486 1212.42Z" fill="white" stroke="#231F20" stroke-linejoin="round"/>
<path d="M833.693 1248.98L866.976 1229.88V1211.26L833.693 1230.71V1248.98Z" fill="white" stroke="#231F20" stroke-linejoin="round"/>
<path d="M752.965 1258.65V1240.36L786.182 1258.65V1276.9L752.965 1258.65Z" fill="white" stroke="#231F20" stroke-linejoin="round"/>
<path d="M752.965 1240.36L786.182 1221.04L819.455 1239.2L786.182 1258.65L752.965 1240.36Z" fill="white" stroke="#231F20" stroke-linejoin="round"/>
<path d="M786.183 1276.9L819.455 1257.81V1239.2L786.183 1258.65V1276.9Z" fill="white" stroke="#231F20" stroke-linejoin="round"/>
<path d="M704.939 1286.59V1268.3L738.146 1286.59V1304.84L704.939 1286.59Z" fill="white" stroke="#231F20" stroke-linejoin="round"/>
<path d="M704.939 1268.3L738.146 1248.98L771.429 1267.13L738.146 1286.59L704.939 1268.3Z" fill="white" stroke="#231F20" stroke-linejoin="round"/>
<path d="M738.146 1304.84L771.429 1285.75V1267.13L738.146 1286.59V1304.84Z" fill="white" stroke="#231F20" stroke-linejoin="round"/>
<path d="M753.646 1315.1V1296.82L786.863 1315.1V1333.36L753.646 1315.1Z" fill="white" stroke="#231F20" stroke-linejoin="round"/>
<path d="M753.646 1296.82L786.863 1277.49L820.136 1295.65L786.863 1315.1L753.646 1296.82Z" fill="white" stroke="#231F20" stroke-linejoin="round"/>
<path d="M786.863 1333.36L820.136 1314.27V1295.65L786.863 1315.11V1333.36Z" fill="white" stroke="#231F20" stroke-linejoin="round"/>
<path d="M896.571 1227.92V1209.63L929.788 1227.92V1246.19L896.571 1227.92Z" fill="white" stroke="#231F20" stroke-linejoin="round"/>
<path d="M896.571 1209.63L929.788 1190.31L963.061 1208.48L929.788 1227.92L896.571 1209.63Z" fill="white" stroke="#231F20" stroke-linejoin="round"/>
<path d="M929.789 1246.19L963.061 1227.1V1208.48L929.789 1227.92V1246.19Z" fill="white" stroke="#231F20" stroke-linejoin="round"/>
<path d="M847.919 1255.86V1237.57L881.137 1255.86V1274.13L847.919 1255.86Z" fill="white" stroke="#231F20" stroke-linejoin="round"/>
<path d="M847.919 1237.57L881.137 1218.25L914.409 1236.41L881.137 1255.86L847.919 1237.57Z" fill="white" stroke="#231F20" stroke-linejoin="round"/>
<path d="M881.137 1274.13L914.41 1255.04V1236.41L881.137 1255.86V1274.13Z" fill="white" stroke="#231F20" stroke-linejoin="round"/>
<path d="M800.409 1283.8V1265.51L833.616 1283.8V1302.06L800.409 1283.8Z" fill="white" stroke="#231F20" stroke-linejoin="round"/>
<path d="M800.409 1265.51L833.616 1246.19L866.899 1264.35L833.616 1283.8L800.409 1265.51Z" fill="white" stroke="#231F20" stroke-linejoin="round"/>
<path d="M833.616 1302.06L866.899 1282.96V1264.35L833.616 1283.8V1302.06Z" fill="white" stroke="#231F20" stroke-linejoin="round"/>
<path d="M944.696 1257.72V1239.43L977.902 1257.72V1275.98L944.696 1257.72Z" fill="white" stroke="#231F20" stroke-linejoin="round"/>
<path d="M944.696 1239.43L977.902 1220.11L1011.17 1238.27L977.902 1257.72L944.696 1239.43Z" fill="white" stroke="#231F20" stroke-linejoin="round"/>
<path d="M977.902 1275.98L1011.17 1256.89V1238.27L977.902 1257.72V1275.98Z" fill="white" stroke="#231F20" stroke-linejoin="round"/>
<path d="M896.044 1285.65V1267.36L929.251 1285.65V1303.92L896.044 1285.65Z" fill="white" stroke="#231F20" stroke-linejoin="round"/>
<path d="M896.044 1267.36L929.251 1248.04L962.523 1266.2L929.251 1285.65L896.044 1267.36Z" fill="white" stroke="#231F20" stroke-linejoin="round"/>
<path d="M929.25 1303.92L962.523 1284.83V1266.2L929.25 1285.65V1303.92Z" fill="white" stroke="#231F20" stroke-linejoin="round"/>
<path d="M848.523 1313.59V1295.3L881.73 1313.59V1331.86L848.523 1313.59Z" fill="white" stroke="#231F20" stroke-linejoin="round"/>
<path d="M848.523 1295.3L881.73 1275.98L915.013 1294.14L881.73 1313.59L848.523 1295.3Z" fill="white" stroke="#231F20" stroke-linejoin="round"/>
<path d="M881.729 1331.86L915.013 1312.76V1294.14L881.729 1313.59V1331.86Z" fill="white" stroke="#231F20" stroke-linejoin="round"/>
<path d="M800.497 1341.53V1323.24L833.704 1341.53V1359.79L800.497 1341.53Z" fill="white" stroke="#231F20" stroke-linejoin="round"/>
<path d="M800.497 1323.24L833.704 1303.92L866.987 1322.08L833.704 1341.53L800.497 1323.24Z" fill="white" stroke="#231F20" stroke-linejoin="round"/>
<path d="M833.704 1359.79L866.987 1340.69V1322.08L833.704 1341.53V1359.79Z" fill="white" stroke="#231F20" stroke-linejoin="round"/>
<path d="M849.138 1369.62V1351.33L882.344 1369.62V1387.87L849.138 1369.62Z" fill="white" stroke="#231F20" stroke-linejoin="round"/>
<path d="M849.138 1351.33L882.344 1332L915.628 1350.17L882.344 1369.62L849.138 1351.33Z" fill="white" stroke="#231F20" stroke-linejoin="round"/>
<path d="M882.344 1387.87L915.628 1368.78V1350.17L882.344 1369.62V1387.87Z" fill="white" stroke="#231F20" stroke-linejoin="round"/>
<path d="M992.063 1282.44V1264.15L1025.27 1282.44V1300.7L992.063 1282.44Z" fill="white" stroke="#231F20" stroke-linejoin="round"/>
<path d="M992.063 1264.15L1025.27 1244.83L1058.55 1263L1025.27 1282.44L992.063 1264.15Z" fill="white" stroke="#231F20" stroke-linejoin="round"/>
<path d="M1025.27 1300.7L1058.55 1281.61V1263L1025.27 1282.44V1300.7Z" fill="white" stroke="#231F20" stroke-linejoin="round"/>
<path d="M943.412 1310.37V1292.09L976.618 1310.37V1328.64L943.412 1310.37Z" fill="white" stroke="#231F20" stroke-linejoin="round"/>
<path d="M943.412 1292.09L976.618 1272.77L1009.9 1290.92L976.618 1310.37L943.412 1292.09Z" fill="white" stroke="#231F20" stroke-linejoin="round"/>
<path d="M976.618 1328.64L1009.9 1309.55V1290.92L976.618 1310.37V1328.64Z" fill="white" stroke="#231F20" stroke-linejoin="round"/>
<path d="M895.891 1338.31V1320.02L929.108 1338.31V1356.58L895.891 1338.31Z" fill="white" stroke="#231F20" stroke-linejoin="round"/>
<path d="M895.891 1320.02L929.108 1300.7L962.381 1318.86L929.108 1338.31L895.891 1320.02Z" fill="white" stroke="#231F20" stroke-linejoin="round"/>
<path d="M929.108 1356.58L962.381 1337.48V1318.86L929.108 1338.31V1356.58Z" fill="white" stroke="#231F20" stroke-linejoin="round"/>
<path d="M1040.18 1312.23V1293.94L1073.39 1312.23V1330.5L1040.18 1312.23Z" fill="white" stroke="#231F20" stroke-linejoin="round"/>
<path d="M1040.18 1293.94L1073.39 1274.62L1106.67 1292.79L1073.39 1312.23L1040.18 1293.94Z" fill="white" stroke="#231F20" stroke-linejoin="round"/>
<path d="M1073.39 1330.5L1106.67 1311.41V1292.79L1073.39 1312.23V1330.5Z" fill="white" stroke="#231F20" stroke-linejoin="round"/>
<path d="M991.525 1340.17V1321.88L1024.74 1340.17V1358.43L991.525 1340.17Z" fill="white" stroke="#231F20" stroke-linejoin="round"/>
<path d="M991.525 1321.88L1024.74 1302.56L1058.02 1320.72L1024.74 1340.17L991.525 1321.88Z" fill="white" stroke="#231F20" stroke-linejoin="round"/>
<path d="M1024.74 1358.43L1058.02 1339.34V1320.71L1024.74 1340.17V1358.43Z" fill="white" stroke="#231F20" stroke-linejoin="round"/>
<path d="M944.015 1368.1V1349.82L977.222 1368.1V1386.37L944.015 1368.1Z" fill="white" stroke="#231F20" stroke-linejoin="round"/>
<path d="M944.015 1349.82L977.222 1330.5L1010.49 1348.65L977.222 1368.1L944.015 1349.82Z" fill="white" stroke="#231F20" stroke-linejoin="round"/>
<path d="M977.222 1386.37L1010.49 1367.28V1348.65L977.222 1368.1V1386.37Z" fill="white" stroke="#231F20" stroke-linejoin="round"/>
<path d="M895.989 1396.04V1377.75L929.196 1396.04V1414.31L895.989 1396.04Z" fill="white" stroke="#231F20" stroke-linejoin="round"/>
<path d="M895.989 1377.75L929.196 1358.43L962.468 1376.59L929.196 1396.04L895.989 1377.75Z" fill="white" stroke="#231F20" stroke-linejoin="round"/>
<path d="M929.196 1414.31L962.468 1395.21V1376.59L929.196 1396.04V1414.31Z" fill="white" stroke="#231F20" stroke-linejoin="round"/>
<path d="M944.696 1424.56V1406.27L977.902 1424.56V1442.82L944.696 1424.56Z" fill="white" stroke="#231F20" stroke-linejoin="round"/>
<path d="M944.696 1406.27L977.902 1386.94L1011.17 1405.11L977.902 1424.56L944.696 1406.27Z" fill="white" stroke="#231F20" stroke-linejoin="round"/>
<path d="M977.902 1442.81L1011.17 1423.73V1405.11L977.902 1424.56V1442.81Z" fill="white" stroke="#231F20" stroke-linejoin="round"/>
<path d="M1087.62 1337.39V1319.1L1120.83 1337.39V1355.64L1087.62 1337.39Z" fill="white" stroke="#231F20" stroke-linejoin="round"/>
<path d="M1087.62 1319.1L1120.83 1299.77L1154.1 1317.94L1120.83 1337.39L1087.62 1319.1Z" fill="white" stroke="#231F20" stroke-linejoin="round"/>
<path d="M1120.83 1355.64L1154.1 1336.56V1317.94L1120.83 1337.39V1355.64Z" fill="white" stroke="#231F20" stroke-linejoin="round"/>
<path d="M1038.97 1365.33V1347.04L1072.18 1365.33V1383.58L1038.97 1365.33Z" fill="white" stroke="#231F20" stroke-linejoin="round"/>
<path d="M1038.97 1347.04L1072.18 1327.71L1105.45 1345.87L1072.18 1365.33L1038.97 1347.04Z" fill="white" stroke="#231F20" stroke-linejoin="round"/>
<path d="M1072.18 1383.58L1105.45 1364.49V1345.88L1072.18 1365.33V1383.58Z" fill="white" stroke="#231F20" stroke-linejoin="round"/>
<path d="M991.448 1393.25V1374.96L1024.65 1393.25V1411.52L991.448 1393.25Z" fill="white" stroke="#231F20" stroke-linejoin="round"/>
<path d="M991.448 1374.96L1024.65 1355.64L1057.94 1373.81L1024.65 1393.25L991.448 1374.96Z" fill="white" stroke="#231F20" stroke-linejoin="round"/>
<path d="M1024.65 1411.52L1057.94 1392.43V1373.81L1024.65 1393.25V1411.52Z" fill="white" stroke="#231F20" stroke-linejoin="round"/>
<path d="M1135.73 1367.18V1348.89L1168.94 1367.18V1385.44L1135.73 1367.18Z" fill="white" stroke="#231F20" stroke-linejoin="round"/>
<path d="M1135.73 1348.89L1168.94 1329.56L1202.22 1347.73L1168.94 1367.18L1135.73 1348.89Z" fill="white" stroke="#231F20" stroke-linejoin="round"/>
<path d="M1168.94 1385.44L1202.22 1366.35V1347.73L1168.94 1367.18V1385.44Z" fill="white" stroke="#231F20" stroke-linejoin="round"/>
<path d="M1087.08 1395.12V1376.83L1120.29 1395.12V1413.37L1087.08 1395.12Z" fill="white" stroke="#231F20" stroke-linejoin="round"/>
<path d="M1087.08 1376.83L1120.29 1357.5L1153.57 1375.67L1120.29 1395.12L1087.08 1376.83Z" fill="white" stroke="#231F20" stroke-linejoin="round"/>
<path d="M1120.29 1413.38L1153.57 1394.29V1375.67L1120.29 1395.12V1413.38Z" fill="white" stroke="#231F20" stroke-linejoin="round"/>
<path d="M1039.57 1423.05V1404.76L1072.78 1423.05V1441.31L1039.57 1423.05Z" fill="white" stroke="#231F20" stroke-linejoin="round"/>
<path d="M1039.57 1404.76L1072.78 1385.44L1106.05 1403.6L1072.78 1423.05L1039.57 1404.76Z" fill="white" stroke="#231F20" stroke-linejoin="round"/>
<path d="M1072.78 1441.31L1106.05 1422.22V1403.6L1072.78 1423.05V1441.31Z" fill="white" stroke="#231F20" stroke-linejoin="round"/>
<path d="M991.536 1450.98V1432.69L1024.74 1450.98V1469.25L991.536 1450.98Z" fill="white" stroke="#231F20" stroke-linejoin="round"/>
<path d="M991.536 1432.69L1024.74 1413.37L1058.03 1431.53L1024.74 1450.98L991.536 1432.69Z" fill="white" stroke="#231F20" stroke-linejoin="round"/>
<path d="M1024.74 1469.25L1058.03 1450.16V1431.53L1024.74 1450.98V1469.25Z" fill="white" stroke="#231F20" stroke-linejoin="round"/>
<path d="M675.63 1054.34L682.853 1058.51L690.01 1054.34L723.282 1072.49V1081.85L728.354 1084.78L737.443 1079.49L770.716 1097.64V1109.24L778.202 1113.56L785.557 1109.28L818.829 1127.44V1137.02L825.108 1140.64L834.198 1135.35L867.47 1153.51V1165.1L874.957 1169.42L882.312 1165.14L915.584 1183.3V1192.88L920.458 1195.69L929.745 1190.29L963.017 1208.45V1220.27L970.306 1224.48L977.859 1220.07L1011.13 1238.23V1248.04L1015.4 1250.5L1025.23 1244.78L1058.5 1262.94V1275.38L1065.25 1279.27L1073.34 1274.57L1106.61 1292.72V1303.15L1110.75 1305.54L1120.77 1299.71L1154.05 1317.87V1330.54L1160.6 1334.33L1168.89 1329.51L1202.16 1347.66V1358.32L1231.75 1375.4V1408.93L1024.72 1529.77L470.309 1211.95V1178.43L675.564 1054.27M675.586 1049.24L673.368 1050.58L468.113 1174.74L465.995 1176.02V1214.56L468.201 1215.83L1022.61 1533.64L1024.82 1534.9L1027.02 1533.62L1234.05 1412.78L1236.22 1411.51V1372.93L1234.03 1371.67L1206.63 1355.85V1345.12L1204.34 1343.87L1171.07 1325.71L1168.9 1324.52L1166.76 1325.76L1160.66 1329.31L1158.51 1328.07V1315.32L1156.23 1314.07L1122.96 1295.92L1120.78 1294.73L1118.64 1295.97L1111.08 1300.37V1290.18L1108.8 1288.92L1075.52 1270.77L1073.35 1269.58L1071.21 1270.82L1065.32 1274.25L1062.97 1272.89V1260.37L1060.68 1259.12L1027.41 1240.96L1025.24 1239.78L1023.1 1241.02L1015.6 1245.38V1235.65L1013.32 1234.4L980.043 1216.24L977.87 1215.06L975.729 1216.3L970.372 1219.42L967.485 1217.75V1205.86L965.202 1204.61L931.929 1186.45L929.756 1185.26L927.615 1186.5L920.524 1190.63L920.052 1190.36V1180.7L917.768 1179.45L884.496 1161.29L882.323 1160.1L880.182 1161.34L875.023 1164.34L871.938 1162.56V1150.89L869.655 1149.64L836.382 1131.49L834.209 1130.3L832.068 1131.54L825.174 1135.55L823.297 1134.46V1124.81L821.014 1123.56L787.741 1105.4L785.568 1104.22L783.427 1105.46L778.268 1108.46L775.183 1106.68V1095.02L772.9 1093.77L739.628 1075.61L737.454 1074.43L735.313 1075.67L728.42 1079.67L727.75 1079.29V1069.87L725.467 1068.62L692.194 1050.46L690.021 1049.28L687.88 1050.52L682.919 1053.4L677.891 1050.51L675.641 1049.21L675.586 1049.24Z" fill="#231F20"/>
<path d="M819.554 1070.75V1014.42L868.151 986.465V628.328L1144.73 467.389L1475.02 657.231V722.788L1531.5 753.558V943.949L1475.02 976.838V1013.04L1521.86 1039.85V1098.4L1193.81 1286.14L819.554 1070.75Z" fill="white"/>
<path d="M1144.74 469.924L1472.83 658.504V724.083L1529.31 754.864V942.687L1472.83 975.575V1014.31L1519.67 1041.12V1097.13L1193.81 1283.61L821.738 1069.49V1015.71L870.335 987.749V629.601L1144.73 469.935M1144.73 464.853L1142.53 466.126L868.14 625.792L865.955 627.065V985.191L819.554 1011.89L817.347 1013.15V1072.01L819.543 1073.27L1191.61 1287.4L1193.79 1288.66L1195.98 1287.41L1521.84 1100.93L1524.05 1099.66V1038.56L1521.84 1037.3L1477.21 1011.77V978.1L1531.5 946.474L1533.69 945.2V752.251L1531.39 751L1477.21 721.47V655.958L1475 654.695L1146.91 466.115L1144.7 464.853H1144.73Z" fill="#231F20"/>
<path d="M1519.67 1041.12L1193.81 1232.46V1283.6L1519.67 1097.12V1041.12Z" fill="white" stroke="#231F20" stroke-miterlimit="10"/>
<path d="M821.749 1015.7L1147.59 828.226L1519.67 1041.12L1193.81 1232.46L821.749 1015.7Z" fill="white" stroke="#231F20" stroke-miterlimit="10"/>
<path d="M821.749 1069.48V1015.7L1193.81 1232.46V1283.6L821.749 1069.48Z" fill="white" stroke="#231F20" stroke-miterlimit="10"/>
<path d="M884.089 637.549L1197.88 819.224V1198.01L869.479 1007.94V987.057" fill="white"/>
<path d="M884.089 637.549L1197.88 819.224V1198.01L869.479 1007.94V987.057" stroke="#231F20" stroke-miterlimit="10"/>
<path d="M1472.83 658.505L1197.88 819.225L888.557 640.14" fill="white"/>
<path d="M1472.83 658.505L1197.88 819.225L888.557 640.14" stroke="#231F20" stroke-miterlimit="10"/>
<path d="M1197.88 1198.01L1472.83 1040.25V658.505L1197.88 819.225V1198.01Z" fill="white" stroke="#231F20" stroke-miterlimit="10"/>
<path d="M1472.83 788.575L1529.31 754.864L1472.83 724.083V788.575Z" fill="white" stroke="#231F20" stroke-miterlimit="10"/>
<path d="M1472.83 975.575L1529.31 942.687V754.864L1472.83 788.576V975.575Z" fill="white" stroke="#231F20" stroke-miterlimit="10"/>
<path d="M897.504 992.887V676.738L1170.71 834.911V1150.86L897.504 992.887Z" fill="#5032E4" stroke="#231F20" stroke-miterlimit="10"/>
<path d="M1170.71 1138.81L907.493 986.608V682.523L897.504 676.738V992.887L1170.71 1150.86V1138.81Z" fill="#231F20"/>
<path d="M1111.61 862.665C1113.08 860.124 1116.28 859.205 1118.86 860.531L1119.11 860.668L1137.51 871.327L1137.75 871.474C1140.19 873.056 1140.98 876.287 1139.51 878.827C1137.99 881.45 1134.63 882.344 1132.01 880.825L1113.61 870.166L1113.37 870.018C1110.93 868.437 1110.14 865.206 1111.61 862.665Z" fill="white"/>
<path d="M1085.63 847.589C1087.1 845.049 1090.3 844.133 1092.88 845.461L1093.13 845.597L1103.44 851.58C1106.06 853.102 1106.95 856.461 1105.43 859.082C1103.91 861.704 1100.55 862.596 1097.93 861.074L1087.62 855.091L1087.38 854.943C1084.95 853.36 1084.16 850.129 1085.63 847.589Z" fill="white"/>
<path d="M1061.33 833.509C1062.81 830.968 1066 830.049 1068.59 831.375L1068.83 831.511L1077.42 836.483L1077.66 836.631C1080.1 838.212 1080.89 841.443 1079.42 843.984C1077.95 846.525 1074.75 847.444 1072.17 846.117L1071.92 845.982L1063.33 841.009L1063.09 840.862C1060.66 839.282 1059.86 836.051 1061.33 833.509Z" fill="white"/>
<path d="M988.578 791.322C990.051 788.781 993.249 787.863 995.831 789.191L996.079 789.327L1053.82 822.808C1056.44 824.328 1057.34 827.686 1055.82 830.309C1054.29 832.931 1050.94 833.824 1048.31 832.304L990.573 798.823L990.332 798.675C987.897 797.093 987.105 793.862 988.578 791.322Z" fill="white"/>
<path d="M936.249 760.969C937.722 758.429 940.919 757.511 943.502 758.838L943.75 758.974L984.871 782.817C987.493 784.337 988.386 787.695 986.866 790.318C985.345 792.94 981.987 793.834 979.365 792.314L938.244 768.47L938.003 768.322C935.568 766.74 934.776 763.51 936.249 760.969Z" fill="white"/>
<path d="M1111.61 969.683C1113.08 967.143 1116.28 966.224 1118.86 967.55L1119.11 967.686L1137.51 978.345L1137.75 978.493C1140.19 980.074 1140.98 983.305 1139.51 985.846C1137.99 988.469 1134.63 989.362 1132.01 987.843L1113.61 977.184L1113.37 977.036C1110.93 975.455 1110.14 972.224 1111.61 969.683Z" fill="white"/>
<path d="M1085.63 954.608C1087.1 952.068 1090.3 951.151 1092.88 952.48L1093.13 952.616L1103.44 958.599C1106.06 960.121 1106.95 963.479 1105.43 966.101C1103.91 968.723 1100.55 969.614 1097.93 968.093L1087.62 962.11L1087.38 961.962C1084.95 960.379 1084.16 957.147 1085.63 954.608Z" fill="white"/>
<path d="M1061.33 940.528C1062.81 937.987 1066 937.067 1068.59 938.394L1068.83 938.53L1077.42 943.502L1077.66 943.65C1080.1 945.231 1080.89 948.462 1079.42 951.003C1077.95 953.544 1074.75 954.462 1072.17 953.136L1071.92 953.001L1063.33 948.028L1063.09 947.881C1060.66 946.3 1059.86 943.069 1061.33 940.528Z" fill="white"/>
<path d="M988.578 898.34C990.051 895.8 993.249 894.882 995.831 896.209L996.079 896.345L1053.82 929.826C1056.44 931.347 1057.34 934.705 1055.82 937.327C1054.29 939.95 1050.94 940.843 1048.31 939.322L990.573 905.841L990.332 905.693C987.897 904.111 987.105 900.881 988.578 898.34Z" fill="white"/>
<path d="M936.247 867.999C937.72 865.459 940.918 864.54 943.501 865.867L943.748 866.002L984.869 889.834L985.111 889.982C987.546 891.563 988.339 894.794 986.867 897.335C985.394 899.876 982.196 900.794 979.613 899.467L979.366 899.332L938.245 875.5L938.003 875.352C935.568 873.771 934.775 870.54 936.247 867.999Z" fill="white"/>
<path d="M1102.18 891.589C1103.66 889.049 1106.85 888.131 1109.44 889.458L1109.68 889.594L1137.51 905.731C1140.13 907.252 1141.03 910.61 1139.51 913.232C1137.99 915.854 1134.63 916.748 1132 915.227L1104.18 899.09L1103.94 898.942C1101.5 897.36 1100.71 894.13 1102.18 891.589Z" fill="white"/>
<path d="M1078.97 878.13C1080.44 875.59 1083.64 874.672 1086.22 875.999L1086.47 876.135L1096.08 881.712L1096.32 881.86C1098.76 883.442 1099.55 886.672 1098.08 889.213C1096.56 891.835 1093.2 892.728 1090.58 891.208L1080.96 885.631L1080.72 885.483C1078.28 883.901 1077.49 880.671 1078.97 878.13Z" fill="white"/>
<path d="M1004.47 834.933C1005.95 832.393 1009.14 831.477 1011.73 832.804L1011.97 832.939L1037.09 847.507L1037.33 847.654C1039.77 849.236 1040.56 852.467 1039.08 855.008C1037.61 857.548 1034.41 858.466 1031.83 857.138L1031.58 857.002L1006.47 842.435L1006.23 842.287C1003.79 840.705 1003 837.474 1004.47 834.933Z" fill="white"/>
<path d="M936.248 795.373C937.721 792.832 940.919 791.914 943.501 793.241L943.749 793.378L996.078 823.719C998.701 825.239 999.594 828.598 998.073 831.221C996.553 833.842 993.194 834.736 990.572 833.216L938.243 802.873L938.002 802.725C935.567 801.144 934.775 797.913 936.248 795.373Z" fill="white"/>
<path d="M1081.96 914.268C1083.44 911.728 1086.63 910.809 1089.22 912.137L1089.46 912.273L1137.51 940.134L1137.75 940.281C1140.19 941.863 1140.98 945.094 1139.51 947.634C1138.03 950.175 1134.83 951.093 1132.25 949.766L1132 949.629L1083.96 921.769L1083.72 921.621C1081.28 920.039 1080.49 916.808 1081.96 914.268Z" fill="white"/>
<path d="M977.348 853.607C978.821 851.067 982.019 850.148 984.601 851.476L984.849 851.612L1073.13 902.799L1073.37 902.947C1075.8 904.529 1076.6 907.76 1075.12 910.3C1073.65 912.841 1070.45 913.759 1067.87 912.431L1067.62 912.295L979.343 861.108L979.102 860.96C976.667 859.378 975.875 856.147 977.348 853.607Z" fill="white"/>
<path d="M936.248 829.775C937.721 827.235 940.919 826.316 943.501 827.644L943.749 827.78L965.199 840.217L965.44 840.365C967.875 841.947 968.667 845.178 967.194 847.718C965.721 850.259 962.523 851.177 959.941 849.849L959.693 849.713L938.243 837.276L938.002 837.128C935.567 835.546 934.775 832.315 936.248 829.775Z" fill="white"/>
<path d="M1102.18 1003.19C1103.66 1000.64 1106.85 999.726 1109.44 1001.05L1109.68 1001.19L1137.51 1017.33C1140.13 1018.85 1141.03 1022.21 1139.51 1024.83C1137.99 1027.45 1134.63 1028.34 1132 1026.82L1104.18 1010.69L1103.94 1010.54C1101.5 1008.96 1100.71 1005.73 1102.18 1003.19Z" fill="white"/>
<path d="M1078.96 989.73C1080.43 987.189 1083.63 986.269 1086.21 987.594L1086.46 987.73L1096.08 993.295C1098.7 994.813 1099.6 998.171 1098.08 1000.79C1096.56 1003.42 1093.2 1004.31 1090.58 1002.8L1080.96 997.23L1080.72 997.083C1078.29 995.503 1077.49 992.272 1078.96 989.73Z" fill="white"/>
<path d="M1004.47 946.518C1005.95 943.978 1009.14 943.062 1011.73 944.389L1011.97 944.524L1037.09 959.092L1037.33 959.239C1039.77 960.821 1040.56 964.052 1039.08 966.593C1037.61 969.133 1034.41 970.05 1031.83 968.723L1031.58 968.587L1006.47 954.02L1006.23 953.872C1003.79 952.29 1003 949.059 1004.47 946.518Z" fill="white"/>
<path d="M936.248 906.968C937.721 904.428 940.919 903.51 943.501 904.837L943.749 904.973L996.078 935.314C998.7 936.835 999.594 940.193 998.073 942.815C996.553 945.438 993.195 946.332 990.572 944.811L938.243 914.469L938.002 914.321C935.567 912.739 934.775 909.509 936.248 906.968Z" fill="white"/>
<path d="M1081.96 1025.86C1083.44 1023.32 1086.63 1022.41 1089.22 1023.73L1089.46 1023.87L1137.51 1051.73L1137.75 1051.88C1140.19 1053.46 1140.98 1056.69 1139.51 1059.23C1138.03 1061.77 1134.83 1062.69 1132.25 1061.36L1132 1061.23L1083.96 1033.36L1083.72 1033.22C1081.28 1031.63 1080.49 1028.4 1081.96 1025.86Z" fill="white"/>
<path d="M977.348 965.204C978.821 962.663 982.019 961.745 984.601 963.072L984.849 963.209L1073.13 1014.4L1073.37 1014.54C1075.8 1016.13 1076.6 1019.36 1075.12 1021.9C1073.65 1024.44 1070.45 1025.36 1067.87 1024.03L1067.62 1023.89L979.343 972.704L979.102 972.557C976.667 970.975 975.875 967.744 977.348 965.204Z" fill="white"/>
<path d="M936.248 941.372C937.721 938.831 940.919 937.913 943.501 939.24L943.749 939.377L965.199 951.814L965.44 951.962C967.875 953.544 968.667 956.775 967.194 959.315C965.721 961.855 962.523 962.773 959.941 961.446L959.693 961.31L938.243 948.872L938.002 948.725C935.567 947.143 934.775 943.912 936.248 941.372Z" fill="white"/>
</svg>
