<svg width="1644" height="1647" viewBox="0 0 1644 1647" fill="none" xmlns="http://www.w3.org/2000/svg">
<g clip-path="url(#clip0_1058_12558)">
<path d="M2 1565.54V1449.94L102.14 1507.76V1623.34L2 1565.54Z" fill="white"/>
<path d="M1 1448.21C1.61872 1447.85 2.38128 1447.85 3 1448.21L103.14 1506.03C103.758 1506.39 104.14 1507.05 104.14 1507.76V1623.34C104.14 1624.05 103.758 1624.71 103.14 1625.07C102.521 1625.43 101.759 1625.43 101.141 1625.07L1 1567.27C0.381374 1566.91 0.000173616 1566.25 0 1565.54V1449.94L0.00488281 1449.81C0.0488962 1449.14 0.419731 1448.54 1 1448.21ZM4 1564.39L100.14 1619.88V1508.91L4 1453.4V1564.39Z" fill="#231F20"/>
<path d="M102.14 1507.76L201.98 1449.93V1565.74L102.14 1623.34V1507.76Z" fill="white"/>
<path d="M200.978 1448.2C201.597 1447.84 202.359 1447.84 202.979 1448.2C203.598 1448.55 203.98 1449.22 203.98 1449.93V1565.74C203.98 1566.45 203.599 1567.11 202.98 1567.47L103.139 1625.07C102.52 1625.43 101.758 1625.43 101.14 1625.07C100.521 1624.71 100.14 1624.05 100.14 1623.34V1507.76C100.14 1507.05 100.521 1506.39 101.138 1506.03L200.978 1448.2ZM104.14 1508.91V1619.88L199.98 1564.58V1453.4L104.14 1508.91Z" fill="#231F20"/>
<path d="M2 1449.93L101.84 1392.13L201.98 1449.93L102.14 1507.76L2 1449.93Z" fill="white"/>
<path d="M100.838 1390.4C101.457 1390.04 102.22 1390.04 102.84 1390.4L202.979 1448.2C203.598 1448.56 203.98 1449.21 203.98 1449.93C203.981 1450.64 203.6 1451.3 202.982 1451.66L103.143 1509.49C102.523 1509.85 101.759 1509.85 101.14 1509.49L1 1451.66C0.381634 1451.31 0.000384301 1450.64 1.35243e-07 1449.93C-0.000261865 1449.22 0.380165 1448.56 0.998047 1448.2L100.838 1390.4ZM5.99512 1449.93L102.138 1505.45L197.984 1449.93L101.84 1394.44L5.99512 1449.93Z" fill="#231F20"/>
<path d="M313.64 175.41L413.48 117.59V575.53L313.64 633.14V175.41Z" fill="#5032E4"/>
<path d="M412.478 115.86C413.097 115.501 413.859 115.501 414.479 115.858C415.098 116.215 415.48 116.875 415.48 117.59V575.53C415.48 576.245 415.099 576.905 414.48 577.262L314.64 634.872C314.021 635.229 313.259 635.229 312.64 634.872C312.021 634.515 311.64 633.854 311.64 633.14V175.41C311.64 174.697 312.021 174.037 312.638 173.679L412.478 115.86ZM315.64 176.563V629.676L411.48 574.375V121.059L315.64 176.563Z" fill="white"/>
<path d="M213.5 117.59L313.34 59.78L413.48 117.59L313.64 175.41L213.5 117.59Z" fill="#5032E4"/>
<path d="M312.455 57.9861C313.051 57.6918 313.759 57.7124 314.34 58.0476L414.479 115.858C415.098 116.215 415.48 116.875 415.48 117.589C415.481 118.303 415.1 118.963 414.482 119.321L314.643 177.14C314.023 177.499 313.259 177.5 312.64 177.142L212.5 119.322C211.882 118.965 211.501 118.306 211.5 117.592C211.5 116.877 211.88 116.217 212.498 115.859L312.338 58.0496L312.455 57.9861ZM217.495 117.588L313.638 173.099L409.484 117.592L313.34 62.0896L217.495 117.588Z" fill="white"/>
<path d="M101.84 1392.13V1276.53L201.98 1334.35V1449.94L101.84 1392.13Z" fill="#5032E4"/>
<path d="M100.84 1274.8C101.459 1274.44 102.221 1274.44 102.84 1274.8L202.98 1332.62C203.598 1332.98 203.98 1333.64 203.98 1334.35V1449.94C203.98 1450.65 203.598 1451.31 202.98 1451.67C202.361 1452.03 201.598 1452.03 200.98 1451.67L100.84 1393.86C100.221 1393.5 99.84 1392.84 99.84 1392.13V1276.53L99.8448 1276.4C99.8889 1275.73 100.26 1275.13 100.84 1274.8ZM103.84 1390.98L199.98 1446.48V1335.5L103.84 1279.99V1390.98Z" fill="white"/>
<path d="M201.98 1334.35L301.82 1276.53V1392.33L201.98 1449.93V1334.35Z" fill="#5032E4"/>
<path d="M300.818 1274.8C301.437 1274.44 302.199 1274.44 302.819 1274.8C303.438 1275.15 303.82 1275.82 303.82 1276.53V1392.33C303.82 1393.04 303.439 1393.7 302.82 1394.06L202.979 1451.66C202.36 1452.02 201.598 1452.02 200.98 1451.66C200.361 1451.3 199.98 1450.64 199.98 1449.93V1334.35C199.98 1333.64 200.361 1332.98 200.978 1332.62L300.818 1274.8ZM203.98 1335.5V1446.47L299.82 1391.17V1280L203.98 1335.5Z" fill="white"/>
<path d="M101.84 1276.53L201.67 1218.72L301.82 1276.53L201.98 1334.35L101.84 1276.53Z" fill="#5032E4"/>
<path d="M200.785 1216.93C201.382 1216.63 202.089 1216.65 202.67 1216.99L302.819 1274.8C303.438 1275.16 303.82 1275.81 303.82 1276.53C303.821 1277.24 303.44 1277.9 302.822 1278.26L202.983 1336.08C202.363 1336.44 201.599 1336.44 200.98 1336.08L100.84 1278.26C100.222 1277.9 99.8405 1277.25 99.84 1276.53C99.8395 1275.82 100.22 1275.16 100.838 1274.8L200.668 1216.99L200.785 1216.93ZM105.835 1276.53L201.978 1332.04L297.823 1276.53L201.67 1221.03L105.835 1276.53Z" fill="white"/>
<path d="M201.67 1218.72V1103.12L301.82 1160.94V1276.53L201.67 1218.72Z" fill="#5032E4"/>
<path d="M200.67 1101.39C201.289 1101.03 202.051 1101.03 202.67 1101.39L302.82 1159.21C303.439 1159.57 303.82 1160.23 303.82 1160.94V1276.53C303.82 1277.24 303.439 1277.9 302.82 1278.26C302.202 1278.62 301.439 1278.62 300.82 1278.26L200.67 1220.45C200.051 1220.09 199.67 1219.43 199.67 1218.72V1103.12L199.675 1102.99C199.719 1102.32 200.09 1101.72 200.67 1101.39ZM203.67 1217.57L299.82 1273.07V1162.09L203.67 1106.58V1217.57Z" fill="white"/>
<path d="M301.82 1160.94L401.65 1103.12V1218.92L301.82 1276.53V1160.94Z" fill="#5032E4"/>
<path d="M400.647 1101.39C401.266 1101.03 402.03 1101.03 402.649 1101.39C403.268 1101.74 403.65 1102.41 403.65 1103.12V1218.92C403.65 1219.63 403.269 1220.29 402.65 1220.65L302.82 1278.26C302.201 1278.62 301.439 1278.62 300.82 1278.26C300.201 1277.9 299.82 1277.24 299.82 1276.53V1160.94C299.82 1160.23 300.201 1159.57 300.818 1159.21L400.647 1101.39ZM303.82 1162.09V1273.07L399.65 1217.76V1106.59L303.82 1162.09Z" fill="white"/>
<path d="M201.67 1103.12L301.51 1045.31L401.65 1103.12L301.82 1160.94L201.67 1103.12Z" fill="#5032E4"/>
<path d="M300.625 1043.52C301.221 1043.22 301.929 1043.24 302.51 1043.58L402.65 1101.39C403.268 1101.75 403.65 1102.4 403.651 1103.12C403.651 1103.83 403.27 1104.49 402.652 1104.85L302.822 1162.67C302.203 1163.03 301.44 1163.03 300.82 1162.67L200.67 1104.85C200.052 1104.5 199.671 1103.84 199.67 1103.12C199.67 1102.41 200.05 1101.75 200.668 1101.39L300.508 1043.58L300.625 1043.52ZM205.665 1103.12L301.818 1158.63L397.654 1103.12L301.51 1047.62L205.665 1103.12Z" fill="white"/>
<path d="M1340.67 835.42V719.82L1440.81 777.64V893.23L1340.67 835.42Z" fill="#5032E4"/>
<path d="M1339.67 718.088C1340.29 717.73 1341.05 717.73 1341.67 718.088L1441.81 775.908C1442.43 776.265 1442.81 776.926 1442.81 777.64V893.23C1442.81 893.945 1442.43 894.604 1441.81 894.962C1441.19 895.319 1440.43 895.319 1439.81 894.962L1339.67 837.152C1339.05 836.795 1338.67 836.134 1338.67 835.42V719.82C1338.67 719.105 1339.05 718.445 1339.67 718.088ZM1342.67 834.265L1438.81 889.765V778.794L1342.67 723.284V834.265Z" fill="white"/>
<path d="M1440.81 777.64L1540.64 719.82V835.62L1440.81 893.22V777.64Z" fill="#5032E4"/>
<path d="M1539.64 718.09C1540.26 717.731 1541.02 717.731 1541.64 718.088C1542.26 718.445 1542.64 719.105 1542.64 719.82V835.62C1542.64 836.335 1542.26 836.995 1541.64 837.352L1441.81 894.952C1441.19 895.309 1440.43 895.309 1439.81 894.952C1439.19 894.595 1438.81 893.935 1438.81 893.22V777.64C1438.81 776.927 1439.19 776.267 1439.81 775.909L1539.64 718.09ZM1442.81 778.793V889.757L1538.64 834.464V723.289L1442.81 778.793Z" fill="white"/>
<path d="M1340.67 719.82L1440.5 662.01L1540.64 719.82L1440.81 777.64L1340.67 719.82Z" fill="#5032E4"/>
<path d="M1439.62 660.216C1440.21 659.922 1440.92 659.942 1441.5 660.278L1541.64 718.088C1542.26 718.445 1542.64 719.105 1542.64 719.819C1542.64 720.533 1542.26 721.193 1541.64 721.551L1441.81 779.37C1441.19 779.729 1440.43 779.73 1439.81 779.372L1339.67 721.552C1339.05 721.195 1338.67 720.535 1338.67 719.822C1338.67 719.107 1339.05 718.447 1339.67 718.089L1439.5 660.28L1439.62 660.216ZM1344.67 719.817L1440.81 775.329L1536.64 719.823L1440.5 664.32L1344.67 719.817Z" fill="white"/>
<path d="M891.23 850.03L991.07 792.2V908.01L891.23 965.61V850.03Z" fill="#5032E4"/>
<path d="M990.068 790.47C990.687 790.111 991.449 790.111 992.069 790.468C992.688 790.825 993.07 791.485 993.07 792.2V908.01C993.07 908.724 992.689 909.385 992.07 909.742L892.229 967.343C891.61 967.699 890.848 967.699 890.23 967.342C889.611 966.984 889.23 966.325 889.23 965.61V850.03L889.235 849.897C889.279 849.236 889.649 848.635 890.228 848.3L990.068 790.47ZM893.23 851.183V962.147L989.07 906.854V795.67L893.23 851.183Z" fill="white"/>
<path d="M891.34 849.84L313.64 517.59V175.41L213.5 117.59V575.33L313.64 633.14L891.43 965.42L891.34 849.84Z" fill="#5032E4"/>
<path d="M212.5 115.858C213.119 115.501 213.881 115.501 214.5 115.858L314.64 173.678C315.258 174.035 315.64 174.696 315.64 175.41V516.433L892.337 848.107L892.45 848.177C893.003 848.546 893.339 849.168 893.34 849.838L893.43 965.418C893.43 966.132 893.05 966.793 892.433 967.151C891.815 967.509 891.052 967.51 890.433 967.154L312.643 634.874L312.64 634.872L212.5 577.062C211.881 576.705 211.5 576.045 211.5 575.33V117.59C211.5 116.876 211.881 116.215 212.5 115.858ZM215.5 574.175L314.637 631.407L889.427 961.961L889.34 850.996L312.643 519.324C312.022 518.967 311.64 518.306 311.64 517.59V176.564L215.5 121.054V574.175Z" fill="white"/>
<path d="M313.55 517.54L413.34 459.65L991.13 791.94L891.34 849.84L313.55 517.54Z" fill="#5032E4"/>
<path d="M412.336 457.921C412.954 457.562 413.717 457.56 414.337 457.917L992.127 790.207C992.746 790.563 993.129 791.222 993.13 791.936C993.131 792.65 992.752 793.311 992.134 793.67L892.344 851.57C891.726 851.929 890.963 851.93 890.343 851.574L312.553 519.274C311.934 518.918 311.551 518.258 311.55 517.544C311.549 516.829 311.928 516.169 312.546 515.81L412.336 457.921ZM317.548 517.532L891.335 847.53L987.132 791.947L413.344 461.959L317.548 517.532Z" fill="white"/>
<path d="M301.51 1045.31V929.71L1341.58 1529.08V1644.66L301.51 1045.31Z" fill="#5032E4"/>
<path d="M300.509 927.979C301.127 927.621 301.89 927.621 302.509 927.978L1342.58 1527.35C1343.2 1527.7 1343.58 1528.37 1343.58 1529.08V1644.66C1343.58 1645.37 1343.2 1646.03 1342.58 1646.39C1341.96 1646.75 1341.2 1646.75 1340.58 1646.39L300.511 1047.04C299.892 1046.69 299.51 1046.02 299.51 1045.31V929.71L299.515 929.577C299.559 928.915 299.929 928.314 300.509 927.979ZM303.51 1044.15L1339.58 1641.2V1530.24L303.51 933.17V1044.15Z" fill="white"/>
<path d="M1341.58 1529.07L1441.42 1471.25V1587.05L1341.58 1644.66V1529.07Z" fill="#5032E4"/>
<path d="M1440.42 1469.52C1441.04 1469.16 1441.8 1469.16 1442.42 1469.52C1443.04 1469.87 1443.42 1470.54 1443.42 1471.25V1587.05C1443.42 1587.76 1443.04 1588.43 1442.42 1588.78L1342.58 1646.39C1341.96 1646.75 1341.2 1646.75 1340.58 1646.39C1339.96 1646.03 1339.58 1645.37 1339.58 1644.66V1529.07C1339.58 1528.36 1339.96 1527.7 1340.58 1527.34L1440.42 1469.52ZM1343.58 1530.22V1641.2L1439.42 1585.89V1474.72L1343.58 1530.22Z" fill="white"/>
<path d="M301.51 929.71L401.35 871.91L1441.42 1471.25L1341.58 1529.07L301.51 929.71Z" fill="#5032E4"/>
<path d="M400.348 870.18C400.966 869.821 401.73 869.821 402.349 870.178L1442.42 1469.52C1443.04 1469.87 1443.42 1470.53 1443.42 1471.25C1443.42 1471.96 1443.04 1472.62 1442.42 1472.98L1342.58 1530.8C1341.96 1531.16 1341.2 1531.16 1340.58 1530.8L300.511 931.443C299.892 931.086 299.511 930.426 299.51 929.712C299.509 928.997 299.89 928.337 300.508 927.979L400.348 870.18ZM305.508 929.706L1341.58 1526.76L1437.42 1471.25L401.352 874.219L305.508 929.706Z" fill="white"/>
<path d="M1440.81 893.23V777.63L1540.95 835.45V951.03L1440.81 893.23Z" fill="white"/>
<path d="M1439.81 775.898C1440.43 775.54 1441.19 775.54 1441.81 775.898L1541.95 833.718C1542.57 834.075 1542.95 834.736 1542.95 835.45V951.03C1542.95 951.745 1542.57 952.405 1541.95 952.762C1541.33 953.119 1540.57 953.119 1539.95 952.762L1439.81 894.962C1439.19 894.605 1438.81 893.944 1438.81 893.23V777.63C1438.81 776.915 1439.19 776.255 1439.81 775.898ZM1442.81 892.075L1538.95 947.566V836.604L1442.81 781.094V892.075Z" fill="#231F20"/>
<path d="M1540.95 835.45L1640.79 777.62V893.43L1540.95 951.03V835.45Z" fill="white"/>
<path d="M1639.79 775.89C1640.41 775.531 1641.17 775.531 1641.79 775.888C1642.41 776.245 1642.79 776.905 1642.79 777.62V893.43C1642.79 894.144 1642.41 894.805 1641.79 895.162L1541.95 952.763C1541.33 953.119 1540.57 953.119 1539.95 952.762C1539.33 952.404 1538.95 951.745 1538.95 951.03V835.45C1538.95 834.737 1539.33 834.077 1539.95 833.72L1639.79 775.89ZM1542.95 836.603V947.567L1638.79 892.274V781.09L1542.95 836.603Z" fill="#231F20"/>
<path d="M1440.81 777.62L1540.64 719.82L1640.79 777.62L1540.95 835.45L1440.81 777.62Z" fill="white"/>
<path d="M1539.76 718.026C1540.35 717.732 1541.06 717.752 1541.64 718.088L1641.79 775.887C1642.41 776.244 1642.79 776.905 1642.79 777.619C1642.79 778.333 1642.41 778.992 1641.79 779.35L1541.95 837.18C1541.33 837.539 1540.57 837.54 1539.95 837.182L1439.81 779.352C1439.19 778.995 1438.81 778.335 1438.81 777.621C1438.81 776.907 1439.19 776.247 1439.81 775.889L1539.64 718.09L1539.76 718.026ZM1444.81 777.618L1540.95 833.139L1636.79 777.623L1540.64 722.13L1444.81 777.618Z" fill="#231F20"/>
<path d="M880.29 958.72V843.66L979.96 901.21V1016.25L880.29 958.72Z" fill="white"/>
<path d="M879.29 841.928C879.909 841.57 880.671 841.57 881.29 841.928L980.96 899.478C981.579 899.836 981.96 900.495 981.96 901.21V1016.25C981.96 1016.96 981.579 1017.62 980.96 1017.98C980.341 1018.34 979.579 1018.34 978.96 1017.98L879.29 960.452C878.671 960.095 878.29 959.434 878.29 958.72V843.66C878.29 842.945 878.671 842.285 879.29 841.928ZM882.29 957.565L977.96 1012.78V902.364L882.29 847.124V957.565Z" fill="#231F20"/>
<path d="M979.96 901.21L1079.32 843.66V958.92L979.96 1016.25V901.21Z" fill="white"/>
<path d="M1078.32 841.93C1078.94 841.571 1079.7 841.571 1080.32 841.928C1080.94 842.285 1081.32 842.945 1081.32 843.66V958.92C1081.32 959.634 1080.94 960.295 1080.32 960.652L980.96 1017.98C980.341 1018.34 979.579 1018.34 978.96 1017.98C978.341 1017.62 977.96 1016.96 977.96 1016.25V901.21C977.96 900.496 978.341 899.837 978.958 899.479L1078.32 841.93ZM981.96 902.362V1012.79L1077.32 957.764V847.129L981.96 902.362Z" fill="#231F20"/>
<path d="M880.29 843.66L979.65 786.13L1079.32 843.66L979.96 901.21L880.29 843.66Z" fill="white"/>
<path d="M978.647 784.399C979.266 784.041 980.03 784.04 980.649 784.398L1080.32 841.928C1080.94 842.285 1081.32 842.944 1081.32 843.658C1081.32 844.372 1080.94 845.033 1080.32 845.391L980.963 902.94C980.344 903.299 979.58 903.3 978.96 902.942L879.29 845.392C878.672 845.035 878.29 844.375 878.29 843.661C878.29 842.947 878.67 842.287 879.288 841.929L978.647 784.399ZM884.285 843.657L979.959 898.899L1075.32 843.662L979.65 788.44L884.285 843.657Z" fill="#231F20"/>
<path d="M979.49 510.1L1079.32 452.28V843.61L979.49 901.21V510.1Z" fill="#5032E4"/>
<path d="M1078.32 450.55C1078.94 450.191 1079.7 450.191 1080.32 450.548C1080.94 450.905 1081.32 451.565 1081.32 452.28V843.61C1081.32 844.325 1080.94 844.985 1080.32 845.342L980.49 902.942C979.871 903.299 979.109 903.299 978.49 902.942C977.871 902.585 977.49 901.924 977.49 901.21V510.1C977.49 509.387 977.871 508.727 978.488 508.369L1078.32 450.55ZM981.49 511.253V897.746L1077.32 842.454V455.749L981.49 511.253Z" fill="white"/>
<path d="M879.34 452.28L979.18 394.47L1079.32 452.28L979.49 510.1L879.34 452.28Z" fill="#5032E4"/>
<path d="M978.295 392.676C978.891 392.382 979.599 392.402 980.18 392.738L1080.32 450.548C1080.94 450.905 1081.32 451.565 1081.32 452.279C1081.32 452.993 1080.94 453.653 1080.32 454.011L980.492 511.83C979.873 512.189 979.11 512.19 978.49 511.832L878.34 454.012C877.722 453.655 877.341 452.995 877.34 452.282C877.34 451.567 877.72 450.907 878.338 450.549L978.178 392.74L978.295 392.676ZM883.335 452.277L979.488 507.788L1075.32 452.282L979.18 396.78L883.335 452.277Z" fill="white"/>
<path d="M313.64 175.41V59.8101L413.78 117.63V233.21L313.64 175.41Z" fill="white"/>
<path d="M312.64 58.0777C313.259 57.7205 314.021 57.7205 314.64 58.0777L414.78 115.898C415.398 116.255 415.78 116.916 415.78 117.63V233.21C415.78 233.925 415.398 234.585 414.78 234.942C414.161 235.299 413.399 235.299 412.781 234.942L312.64 177.142C312.021 176.785 311.64 176.124 311.64 175.41V59.8101C311.64 59.0956 312.021 58.4349 312.64 58.0777ZM315.64 174.255L411.78 229.746V118.784L315.64 63.274V174.255Z" fill="#231F20"/>
<path d="M413.78 117.63L513.62 59.8101V175.61L413.78 233.21V117.63Z" fill="white"/>
<path d="M512.618 58.0796C513.237 57.7212 513.999 57.7205 514.619 58.0776C515.238 58.4347 515.62 59.0951 515.62 59.81V175.61C515.62 176.324 515.239 176.985 514.62 177.342L414.779 234.943C414.16 235.3 413.398 235.299 412.78 234.942C412.161 234.585 411.78 233.925 411.78 233.21V117.63C411.78 116.917 412.161 116.257 412.778 115.899L512.618 58.0796ZM415.78 118.783V229.748L511.62 174.455V63.2788L415.78 118.783Z" fill="#231F20"/>
<path d="M313.64 59.81L413.48 2L513.62 59.81L413.78 117.63L313.64 59.81Z" fill="white"/>
<path d="M412.595 0.206062C413.191 -0.0881827 413.899 -0.0676787 414.48 0.267585L514.62 58.0781C515.238 58.4351 515.619 59.0945 515.62 59.8086C515.62 60.5227 515.24 61.1832 514.622 61.541L414.783 119.36C414.163 119.719 413.399 119.72 412.78 119.362L312.64 61.542C312.022 61.185 311.641 60.5255 311.64 59.8115C311.64 59.0975 312.02 58.4369 312.638 58.0791L412.478 0.269539L412.595 0.206062ZM317.635 59.8076L413.778 115.319L509.624 59.8115L413.48 4.30958L317.635 59.8076Z" fill="#231F20"/>
<path d="M1340.67 604.23L879.34 336.68V452.28L879.46 452.35L879.34 452.28V843.4L979.49 901.21V510.36L1340.67 719.82V604.23Z" fill="#5032E4"/>
<path d="M878.342 334.947C878.962 334.59 879.724 334.591 880.343 334.949L1341.67 602.5C1342.29 602.858 1342.67 603.517 1342.67 604.23V719.82C1342.67 720.535 1342.29 721.196 1341.67 721.553C1341.05 721.91 1340.29 721.909 1339.67 721.55L981.49 513.831V901.21C981.49 901.924 981.109 902.584 980.49 902.942C979.872 903.299 979.109 903.299 978.49 902.942L878.34 845.132C877.721 844.775 877.34 844.114 877.34 843.4V336.68L877.345 336.546C877.389 335.883 877.761 335.281 878.342 334.947ZM881.34 451.67C881.495 452.101 881.502 452.581 881.34 453.029V842.245L977.49 897.746V510.36C977.491 509.645 977.872 508.984 978.491 508.627C979.111 508.27 979.875 508.271 980.493 508.63L1338.67 716.348V605.382L881.34 340.152V451.67Z" fill="white"/>
<path d="M1340.67 604.23L1440.5 546.41V662.21L1340.67 719.82V604.23Z" fill="#5032E4"/>
<path d="M1439.5 544.68C1440.12 544.321 1440.88 544.321 1441.5 544.678C1442.12 545.035 1442.5 545.695 1442.5 546.41V662.21C1442.5 662.924 1442.12 663.585 1441.5 663.942L1341.67 721.553C1341.05 721.91 1340.29 721.909 1339.67 721.552C1339.05 721.194 1338.67 720.535 1338.67 719.82V604.23L1338.67 604.097C1338.72 603.435 1339.09 602.834 1339.67 602.499L1439.5 544.68ZM1342.67 605.383V716.356L1438.5 661.054V549.879L1342.67 605.383Z" fill="white"/>
<path d="M879.34 336.68L979.18 278.87L1440.5 546.41L1340.67 604.23L879.34 336.68Z" fill="#5032E4"/>
<path d="M978.296 277.076C978.893 276.782 979.603 276.802 980.184 277.14L1441.5 544.68C1442.12 545.037 1442.5 545.698 1442.5 546.411C1442.5 547.124 1442.12 547.783 1441.5 548.14L1341.67 605.961C1341.05 606.32 1340.29 606.319 1339.67 605.96L878.337 338.41C877.72 338.052 877.34 337.393 877.34 336.68C877.34 335.966 877.721 335.307 878.338 334.949L978.178 277.14L978.296 277.076ZM883.328 336.681L1340.67 601.918L1436.51 546.409L979.178 281.181L883.328 336.681Z" fill="white"/>
<path d="M1341.28 1413.45V1297.85L1441.42 1355.67V1471.25L1341.28 1413.45Z" fill="#5032E4"/>
<path d="M1340.28 1296.12C1340.9 1295.76 1341.66 1295.76 1342.28 1296.12L1442.42 1353.94C1443.04 1354.3 1443.42 1354.96 1443.42 1355.67V1471.25C1443.42 1471.96 1443.04 1472.62 1442.42 1472.98C1441.8 1473.34 1441.04 1473.34 1440.42 1472.98L1340.28 1415.18C1339.66 1414.82 1339.28 1414.16 1339.28 1413.45V1297.85C1339.28 1297.14 1339.66 1296.47 1340.28 1296.12ZM1343.28 1412.3L1439.42 1467.79V1356.82L1343.28 1301.31V1412.3Z" fill="white"/>
<path d="M1441.42 1355.67L1541.25 1297.85V1413.65L1441.42 1471.25V1355.67Z" fill="#5032E4"/>
<path d="M1540.25 1296.12C1540.87 1295.76 1541.63 1295.76 1542.25 1296.12C1542.87 1296.47 1543.25 1297.14 1543.25 1297.85V1413.65C1543.25 1414.36 1542.87 1415.02 1542.25 1415.38L1442.42 1472.98C1441.8 1473.34 1441.04 1473.34 1440.42 1472.98C1439.8 1472.62 1439.42 1471.96 1439.42 1471.25V1355.67C1439.42 1354.96 1439.8 1354.3 1440.42 1353.94L1540.25 1296.12ZM1443.42 1356.82V1467.79L1539.25 1412.49V1301.32L1443.42 1356.82Z" fill="white"/>
<path d="M1341.28 1297.85L1441.11 1240.04L1541.25 1297.85L1441.42 1355.67L1341.28 1297.85Z" fill="#5032E4"/>
<path d="M1440.23 1238.25C1440.82 1237.95 1441.53 1237.97 1442.11 1238.31L1542.25 1296.12C1542.87 1296.48 1543.25 1297.13 1543.25 1297.85C1543.25 1298.56 1542.87 1299.22 1542.25 1299.58L1442.42 1357.4C1441.8 1357.76 1441.04 1357.76 1440.42 1357.4L1340.28 1299.58C1339.66 1299.23 1339.28 1298.57 1339.28 1297.85C1339.28 1297.14 1339.66 1296.48 1340.28 1296.12L1440.11 1238.31L1440.23 1238.25ZM1345.28 1297.85L1441.42 1353.36L1537.25 1297.85L1441.11 1242.35L1345.28 1297.85Z" fill="white"/>
<path d="M1441.11 1240.04V1124.44L1541.25 1182.26V1297.85L1441.11 1240.04Z" fill="#5032E4"/>
<path d="M1440.11 1122.71C1440.73 1122.35 1441.49 1122.35 1442.11 1122.71L1542.25 1180.53C1542.87 1180.89 1543.25 1181.55 1543.25 1182.26V1297.85C1543.25 1298.56 1542.87 1299.22 1542.25 1299.58C1541.63 1299.94 1540.87 1299.94 1540.25 1299.58L1440.11 1241.77C1439.49 1241.41 1439.11 1240.75 1439.11 1240.04V1124.44C1439.11 1123.73 1439.49 1123.06 1440.11 1122.71ZM1443.11 1238.89L1539.25 1294.39V1183.41L1443.11 1127.9V1238.89Z" fill="white"/>
<path d="M1541.25 1182.26L1641.09 1124.44V1240.24L1541.25 1297.85V1182.26Z" fill="#5032E4"/>
<path d="M1640.09 1122.71C1640.71 1122.35 1641.47 1122.35 1642.09 1122.71C1642.71 1123.06 1643.09 1123.72 1643.09 1124.44V1240.24C1643.09 1240.95 1642.71 1241.61 1642.09 1241.97L1542.25 1299.58C1541.63 1299.94 1540.87 1299.94 1540.25 1299.58C1539.63 1299.22 1539.25 1298.56 1539.25 1297.85V1182.26C1539.25 1181.55 1539.63 1180.89 1540.25 1180.53L1640.09 1122.71ZM1543.25 1183.41V1294.39L1639.09 1239.08V1127.91L1543.25 1183.41Z" fill="white"/>
<path d="M1441.11 1124.44L1540.95 1066.63L1641.09 1124.44L1541.25 1182.26L1441.11 1124.44Z" fill="#5032E4"/>
<path d="M1540.07 1064.84C1540.66 1064.54 1541.37 1064.56 1541.95 1064.9L1642.09 1122.71C1642.71 1123.07 1643.09 1123.72 1643.09 1124.44C1643.09 1125.15 1642.71 1125.81 1642.09 1126.17L1542.25 1183.99C1541.63 1184.35 1540.87 1184.35 1540.25 1183.99L1440.11 1126.17C1439.49 1125.82 1439.11 1125.16 1439.11 1124.44C1439.11 1123.73 1439.49 1123.07 1440.11 1122.71L1539.95 1064.9L1540.07 1064.84ZM1445.11 1124.44L1541.25 1179.95L1637.09 1124.44L1540.95 1068.94L1445.11 1124.44Z" fill="white"/>
<path d="M1340.97 1066.63V951.03L1441.11 1008.85V1124.44L1340.97 1066.63Z" fill="#5032E4"/>
<path d="M1339.97 949.298C1340.59 948.94 1341.35 948.941 1341.97 949.298L1442.11 1007.12C1442.73 1007.48 1443.11 1008.14 1443.11 1008.85V1124.44C1443.11 1125.15 1442.73 1125.81 1442.11 1126.17C1441.49 1126.53 1440.73 1126.53 1440.11 1126.17L1339.97 1068.36C1339.35 1068 1338.97 1067.34 1338.97 1066.63V951.03C1338.97 950.316 1339.35 949.655 1339.97 949.298ZM1342.97 1065.48L1439.11 1120.98V1010L1342.97 954.494V1065.48Z" fill="white"/>
<path d="M1441.11 1008.85L1540.95 951.03V1066.83L1441.11 1124.44V1008.85Z" fill="#5032E4"/>
<path d="M1539.95 949.3C1540.57 948.941 1541.33 948.94 1541.95 949.298C1542.57 949.655 1542.95 950.315 1542.95 951.03V1066.83C1542.95 1067.54 1542.57 1068.2 1541.95 1068.56L1442.11 1126.17C1441.49 1126.53 1440.73 1126.53 1440.11 1126.17C1439.49 1125.81 1439.11 1125.15 1439.11 1124.44V1008.85C1439.11 1008.14 1439.49 1007.48 1440.11 1007.12L1539.95 949.3ZM1443.11 1010V1120.98L1538.95 1065.67V954.499L1443.11 1010Z" fill="white"/>
<path d="M1340.97 951.03L1440.81 893.22L1540.95 951.03L1441.11 1008.85L1340.97 951.03Z" fill="#5032E4"/>
<path d="M1439.81 891.49C1440.43 891.131 1441.19 891.13 1441.81 891.488L1541.95 949.298C1542.57 949.655 1542.95 950.315 1542.95 951.029C1542.95 951.743 1542.57 952.403 1541.95 952.761L1442.11 1010.58C1441.49 1010.94 1440.73 1010.94 1440.11 1010.58L1339.97 952.762C1339.35 952.405 1338.97 951.746 1338.97 951.032C1338.97 950.317 1339.35 949.657 1339.97 949.299L1439.81 891.49ZM1344.97 951.028L1441.11 1006.54L1536.95 951.032L1440.81 895.53L1344.97 951.028Z" fill="white"/>
</g>
<defs>
<clipPath id="clip0_1058_12558">
<rect width="1643.09" height="1646.66" fill="white"/>
</clipPath>
</defs>
</svg>
