<svg width="1520" height="1924" viewBox="0 0 1520 1924" fill="none" xmlns="http://www.w3.org/2000/svg">
<g clip-path="url(#clip0_938_98855)">
<path opacity="0.05" d="M1299.39 1196.29V1311.89L1399.53 1369.7L442.79 1921.73H42.1104L1299.39 1196.29Z" fill="black"/>
<path opacity="0.05" d="M1298.51 1194.5C1299.1 1194.2 1299.81 1194.22 1300.39 1194.56C1301.01 1194.92 1301.39 1195.58 1301.39 1196.29V1310.74L1400.53 1367.97C1401.15 1368.33 1401.53 1368.99 1401.53 1369.7C1401.53 1370.41 1401.15 1371.08 1400.53 1371.43L443.79 1923.46C443.486 1923.64 443.141 1923.73 442.79 1923.73H42.1102C41.2049 1923.73 40.4128 1923.12 40.1786 1922.25C39.9446 1921.37 40.3265 1920.45 41.1102 1920L1298.39 1194.56L1298.51 1194.5ZM49.577 1919.73H442.255L1395.53 1369.7L1298.39 1313.62C1297.77 1313.26 1297.39 1312.6 1297.39 1311.89V1199.75L49.577 1919.73Z" fill="#231F20"/>
<path d="M1517.79 841.84L1120.52 617.95L1020.68 675.77L920.54 733.55L1002.86 1052.88L1317.93 1261.43L1418.07 1203.43L1517.79 841.84Z" fill="#5032E4"/>
<path d="M1119.63 616.157C1120.22 615.865 1120.92 615.882 1121.5 616.208L1518.77 840.097C1519.57 840.548 1519.96 841.487 1519.72 842.372L1420 1203.96C1419.86 1204.47 1419.53 1204.9 1419.07 1205.16L1318.93 1263.16C1318.28 1263.54 1317.46 1263.52 1316.83 1263.1L1001.76 1054.55C1001.34 1054.27 1001.05 1053.86 1000.92 1053.38L918.604 734.05C918.379 733.18 918.762 732.266 919.54 731.817L1019.68 674.039L1119.52 616.22L1119.63 616.157ZM1021.68 677.501L1021.68 677.503L922.856 734.522L1004.6 1051.64L1318 1259.08L1416.36 1202.11L1515.45 842.815L1120.53 620.253L1021.68 677.501Z" fill="white"/>
<path d="M1299.39 1311.89V1196.29L1399.53 1254.12V1369.7L1299.39 1311.89Z" fill="#5032E4"/>
<path d="M1298.39 1194.56C1299.01 1194.2 1299.77 1194.2 1300.39 1194.56L1400.53 1252.39C1401.15 1252.75 1401.53 1253.41 1401.53 1254.12V1369.7C1401.53 1370.41 1401.15 1371.07 1400.53 1371.43C1399.91 1371.79 1399.15 1371.79 1398.53 1371.43L1298.39 1313.62C1297.77 1313.26 1297.39 1312.6 1297.39 1311.89V1196.29L1297.39 1196.16C1297.44 1195.49 1297.81 1194.89 1298.39 1194.56ZM1301.39 1310.74L1397.53 1366.24V1255.27L1301.39 1199.75V1310.74Z" fill="white"/>
<path d="M1399.53 1254.12L1499.37 1196.29V1312.1L1399.53 1369.7V1254.12Z" fill="#5032E4"/>
<path d="M1498.48 1194.5C1499.08 1194.2 1499.79 1194.22 1500.37 1194.56C1500.99 1194.91 1501.37 1195.58 1501.37 1196.29V1312.1C1501.37 1312.81 1500.99 1313.47 1500.37 1313.83L1400.53 1371.43C1399.91 1371.79 1399.15 1371.79 1398.53 1371.43C1397.91 1371.07 1397.53 1370.41 1397.53 1369.7V1254.12C1397.53 1253.41 1397.91 1252.75 1398.53 1252.39L1498.37 1194.56L1498.48 1194.5ZM1401.53 1255.27V1366.24L1497.37 1310.94V1199.76L1401.53 1255.27Z" fill="white"/>
<path d="M1299.39 1196.29L1399.23 1138.49L1499.37 1196.29L1399.53 1254.12L1299.39 1196.29Z" fill="#5032E4"/>
<path d="M1398.35 1136.7C1398.94 1136.4 1399.65 1136.42 1400.23 1136.76L1500.37 1194.56C1500.99 1194.92 1501.37 1195.57 1501.37 1196.29C1501.37 1197 1500.99 1197.66 1500.37 1198.02L1400.53 1255.85C1399.91 1256.21 1399.15 1256.21 1398.53 1255.85L1298.39 1198.02C1297.77 1197.67 1297.39 1197 1297.39 1196.29C1297.39 1195.58 1297.77 1194.92 1298.39 1194.56L1398.23 1136.76L1398.35 1136.7ZM1303.38 1196.29L1399.53 1251.81L1495.37 1196.29L1399.23 1140.8L1303.38 1196.29Z" fill="white"/>
<path d="M893.26 685.14V569.54L993.41 627.36V742.94L893.26 685.14Z" fill="#5032E4"/>
<path d="M892.26 567.808C892.878 567.45 893.641 567.45 894.26 567.808L994.41 625.628C995.029 625.985 995.41 626.646 995.41 627.36V742.94C995.41 743.655 995.029 744.315 994.41 744.672C993.791 745.029 993.029 745.029 992.41 744.672L892.26 686.872C891.641 686.515 891.26 685.854 891.26 685.14V569.54L891.265 569.407C891.309 568.744 891.68 568.143 892.26 567.808ZM895.26 683.984L991.41 739.477V628.514L895.26 573.004V683.984Z" fill="white"/>
<path d="M993.41 627.36L1093.24 569.54V685.34L993.41 742.94V627.36Z" fill="#5032E4"/>
<path d="M1092.36 567.746C1092.95 567.452 1093.66 567.473 1094.24 567.808C1094.86 568.165 1095.24 568.825 1095.24 569.54V685.34C1095.24 686.055 1094.86 686.715 1094.24 687.072L994.41 744.673C993.791 745.03 993.029 745.029 992.41 744.672C991.792 744.315 991.41 743.655 991.41 742.94V627.36C991.41 626.647 991.791 625.986 992.408 625.629L1092.24 567.81L1092.36 567.746ZM995.41 628.513V739.477L1091.24 684.184V573.009L995.41 628.513Z" fill="white"/>
<path d="M893.26 569.54L993.1 511.73L1093.24 569.54L993.41 627.36L893.26 569.54Z" fill="#5032E4"/>
<path d="M992.215 509.936C992.811 509.642 993.519 509.662 994.1 509.998L1094.24 567.808C1094.86 568.165 1095.24 568.825 1095.24 569.539C1095.24 570.253 1094.86 570.913 1094.24 571.271L994.412 629.09C993.793 629.449 993.03 629.45 992.41 629.092L892.26 571.272C891.641 570.915 891.26 570.256 891.26 569.542C891.259 568.827 891.64 568.167 892.258 567.809L992.098 510L992.215 509.936ZM897.255 569.537L993.408 625.048L1089.24 569.543L993.1 514.04L897.255 569.537Z" fill="white"/>
<path d="M1120.52 617.95L1020.68 675.77L1418.07 898.5L1517.79 841.84L1120.52 617.95Z" fill="#5032E4"/>
<path d="M1119.63 616.157C1120.22 615.865 1120.92 615.882 1121.5 616.208L1518.77 840.097C1519.4 840.451 1519.79 841.116 1519.79 841.837C1519.79 842.557 1519.4 843.223 1518.78 843.579L1419.06 900.239C1418.45 900.585 1417.7 900.587 1417.09 900.245L1019.7 677.514C1019.08 677.163 1018.68 676.503 1018.68 675.784C1018.67 675.065 1019.06 674.399 1019.68 674.039L1119.52 616.22L1119.63 616.157ZM1024.72 675.741L1418.06 896.203L1513.73 841.847L1120.53 620.253L1024.72 675.741Z" fill="white"/>
<path d="M1418.07 898.5L1517.79 841.84L1517.91 1145.83L1418.07 1203.43V898.5Z" fill="#5032E4"/>
<path d="M1516.92 840.039C1517.52 839.751 1518.22 839.776 1518.8 840.112C1519.41 840.469 1519.79 841.127 1519.79 841.839L1519.91 1145.83C1519.91 1146.54 1519.53 1147.21 1518.91 1147.56L1419.07 1205.16C1418.45 1205.52 1417.69 1205.52 1417.07 1205.16C1416.45 1204.8 1416.07 1204.14 1416.07 1203.43V898.5L1416.07 898.365C1416.12 897.699 1416.5 897.094 1417.08 896.761L1516.8 840.101L1516.92 840.039ZM1420.07 899.663V1199.97L1515.91 1144.67L1515.79 845.276L1420.07 899.663Z" fill="white"/>
<path d="M1418.07 898.5L1020.68 675.77V791.36L920.54 733.55V1038.69L975.15 1069.49V1190.79L1055.01 1114.51L1278.65 1239.48L1299.39 1251.07V1196.29L1317.93 1185.56V1145.83L1418.07 1203.43V898.5Z" fill="#5032E4"/>
<path d="M1019.67 674.044C1020.28 673.686 1021.04 673.678 1021.66 674.025L1419.05 896.755C1419.68 897.109 1420.07 897.777 1420.07 898.5V1203.43C1420.07 1204.14 1419.69 1204.8 1419.07 1205.16C1418.45 1205.52 1417.69 1205.52 1417.07 1205.16L1319.93 1149.29V1185.56C1319.93 1186.27 1319.55 1186.93 1318.93 1187.29L1301.39 1197.44V1251.07C1301.39 1251.78 1301.01 1252.44 1300.4 1252.8C1299.79 1253.15 1299.03 1253.16 1298.41 1252.82L1055.32 1116.98L976.531 1192.24C975.952 1192.79 975.099 1192.94 974.363 1192.63C973.628 1192.31 973.151 1191.59 973.15 1190.79V1070.66L919.558 1040.43C918.929 1040.08 918.54 1039.41 918.54 1038.69V733.55L918.545 733.417C918.589 732.754 918.96 732.153 919.54 731.818C920.159 731.461 920.921 731.461 921.54 731.818L1018.68 787.895V675.77L1018.68 675.637C1018.73 674.979 1019.09 674.381 1019.67 674.044ZM1022.68 791.36C1022.68 792.074 1022.3 792.735 1021.68 793.092C1021.06 793.449 1020.3 793.449 1019.68 793.092L922.54 737.013V1037.52L976.133 1067.75C976.761 1068.1 977.15 1068.77 977.15 1069.49V1186.11L1053.63 1113.06L1053.75 1112.96C1054.38 1112.44 1055.27 1112.36 1055.99 1112.76L1297.39 1247.66V1196.29C1297.39 1195.58 1297.77 1194.92 1298.39 1194.56L1315.93 1184.41V1145.83C1315.93 1145.12 1316.31 1144.46 1316.93 1144.1C1317.55 1143.74 1318.31 1143.74 1318.93 1144.1L1416.07 1199.97V899.671L1022.68 679.183V791.36Z" fill="white"/>
<path d="M1400.53 1371.43L1395.33 1374.43L1393.33 1370.97L1398.53 1367.97L1400.53 1371.43Z" fill="#5032E4"/>
<path d="M459.35 1914.48L454.18 1917.46L452.18 1914L457.351 1911.01L459.35 1914.48ZM480.033 1902.54L469.691 1908.51L467.692 1905.05L478.034 1899.08L480.033 1902.54ZM500.717 1890.61L490.375 1896.58L488.376 1893.11L498.718 1887.15L500.717 1890.61ZM521.4 1878.68L511.059 1884.64L509.06 1881.18L519.401 1875.21L521.4 1878.68ZM542.083 1866.74L531.742 1872.71L529.742 1869.24L540.084 1863.28L542.083 1866.74ZM562.767 1854.81L552.425 1860.78L550.426 1857.31L560.768 1851.34L562.767 1854.81ZM583.45 1842.87L573.108 1848.84L571.109 1845.38L581.451 1839.41L583.45 1842.87ZM604.134 1830.94L593.792 1836.91L591.793 1833.44L602.135 1827.48L604.134 1830.94ZM624.816 1819.01L614.475 1824.97L612.476 1821.51L622.817 1815.54L624.816 1819.01ZM645.5 1807.07L635.158 1813.04L633.159 1809.57L643.501 1803.61L645.5 1807.07ZM666.184 1795.14L655.842 1801.11L653.843 1797.64L664.185 1791.67L666.184 1795.14ZM686.867 1783.2L676.525 1789.17L674.526 1785.71L684.867 1779.74L686.867 1783.2ZM707.55 1771.27L697.208 1777.24L695.209 1773.77L705.551 1767.81L707.55 1771.27ZM728.233 1759.34L717.892 1765.3L715.893 1761.84L726.234 1755.87L728.233 1759.34ZM748.917 1747.4L738.575 1753.37L736.576 1749.91L746.918 1743.94L748.917 1747.4ZM769.6 1735.47L759.259 1741.44L757.26 1737.97L767.601 1732L769.6 1735.47ZM790.283 1723.53L779.941 1729.5L777.942 1726.04L788.284 1720.07L790.283 1723.53ZM810.967 1711.6L800.625 1717.57L798.626 1714.1L808.968 1708.14L810.967 1711.6ZM831.65 1699.67L821.309 1705.63L819.31 1702.17L829.651 1696.2L831.65 1699.67ZM852.333 1687.73L841.991 1693.7L839.992 1690.24L850.334 1684.27L852.333 1687.73ZM873.017 1675.8L862.675 1681.77L860.676 1678.3L871.018 1672.33L873.017 1675.8ZM893.7 1663.86L883.358 1669.83L881.359 1666.37L891.701 1660.4L893.7 1663.86ZM914.383 1651.93L904.042 1657.9L902.043 1654.43L912.384 1648.47L914.383 1651.93ZM935.066 1640L924.725 1645.96L922.726 1642.5L933.067 1636.53L935.066 1640ZM955.75 1628.06L945.408 1634.03L943.409 1630.57L953.751 1624.6L955.75 1628.06ZM976.434 1616.13L966.092 1622.1L964.093 1618.63L974.435 1612.66L976.434 1616.13ZM997.116 1604.2L986.774 1610.16L984.775 1606.7L995.117 1600.73L997.116 1604.2ZM1017.8 1592.26L1007.46 1598.23L1005.46 1594.76L1015.8 1588.8L1017.8 1592.26ZM1038.48 1580.33L1028.14 1586.29L1026.14 1582.83L1036.48 1576.86L1038.48 1580.33ZM1059.17 1568.39L1048.83 1574.36L1046.83 1570.9L1057.17 1564.93L1059.17 1568.39ZM1079.85 1556.46L1069.51 1562.43L1067.51 1558.96L1077.85 1552.99L1079.85 1556.46ZM1100.53 1544.53L1090.19 1550.49L1088.19 1547.03L1098.53 1541.06L1100.53 1544.53ZM1121.22 1532.59L1110.88 1538.56L1108.88 1535.09L1119.22 1529.13L1121.22 1532.59ZM1141.9 1520.66L1131.56 1526.62L1129.56 1523.16L1139.9 1517.19L1141.9 1520.66ZM1162.58 1508.72L1152.24 1514.69L1150.24 1511.23L1160.58 1505.26L1162.58 1508.72ZM1183.27 1496.79L1172.92 1502.76L1170.93 1499.29L1181.27 1493.32L1183.27 1496.79ZM1203.95 1484.86L1193.61 1490.82L1191.61 1487.36L1201.95 1481.39L1203.95 1484.86ZM1224.63 1472.92L1214.29 1478.89L1212.29 1475.42L1222.63 1469.46L1224.63 1472.92ZM1245.32 1460.99L1234.97 1466.95L1232.98 1463.49L1243.32 1457.52L1245.32 1460.99ZM1266 1449.05L1255.66 1455.02L1253.66 1451.56L1264 1445.59L1266 1449.05ZM1286.68 1437.12L1276.34 1443.09L1274.34 1439.62L1284.68 1433.65L1286.68 1437.12ZM1307.37 1425.19L1297.02 1431.15L1295.03 1427.69L1305.37 1421.72L1307.37 1425.19ZM1328.05 1413.25L1317.71 1419.22L1315.71 1415.75L1326.05 1409.79L1328.05 1413.25ZM1348.73 1401.32L1338.39 1407.28L1336.39 1403.82L1346.73 1397.85L1348.73 1401.32ZM1369.42 1389.38L1359.07 1395.35L1357.08 1391.89L1367.42 1385.92L1369.42 1389.38ZM1384.93 1380.43L1379.76 1383.42L1377.76 1379.95L1382.93 1376.97L1384.93 1380.43Z" fill="#5032E4"/>
<path d="M448.989 1920.46L443.789 1923.46L441.791 1920L446.99 1917L448.989 1920.46Z" fill="#5032E4"/>
<path d="M1300.39 1198.02L1295.19 1201.02L1293.19 1197.56L1298.39 1194.56L1300.39 1198.02Z" fill="#5032E4"/>
<path d="M58.7676 1914.43L53.5508 1917.44L51.5508 1913.98L56.7676 1910.97L58.7676 1914.43ZM79.6338 1902.39L69.2002 1908.41L67.2012 1904.95L77.6348 1898.93L79.6338 1902.39ZM100.501 1890.35L90.0674 1896.37L88.0684 1892.91L98.502 1886.89L100.501 1890.35ZM121.368 1878.31L110.935 1884.33L108.936 1880.87L119.369 1874.85L121.368 1878.31ZM142.235 1866.27L131.802 1872.29L129.803 1868.83L140.236 1862.81L142.235 1866.27ZM163.103 1854.23L152.669 1860.25L150.67 1856.79L161.104 1850.77L163.103 1854.23ZM183.97 1842.19L173.536 1848.21L171.537 1844.75L181.971 1838.73L183.97 1842.19ZM204.837 1830.15L194.403 1836.17L192.404 1832.71L202.838 1826.69L204.837 1830.15ZM225.704 1818.11L215.271 1824.13L213.271 1820.67L223.705 1814.65L225.704 1818.11ZM246.571 1806.07L236.138 1812.09L234.139 1808.63L244.572 1802.61L246.571 1806.07ZM267.438 1794.03L257.005 1800.05L255.006 1796.59L265.439 1790.57L267.438 1794.03ZM288.306 1781.99L277.872 1788.01L275.873 1784.55L286.307 1778.53L288.306 1781.99ZM309.173 1769.95L298.739 1775.97L296.74 1772.51L307.174 1766.49L309.173 1769.95ZM330.04 1757.91L319.606 1763.93L317.607 1760.46L328.041 1754.45L330.04 1757.91ZM350.907 1745.87L340.474 1751.89L338.475 1748.42L348.908 1742.41L350.907 1745.87ZM371.774 1733.83L361.341 1739.85L359.342 1736.38L369.775 1730.37L371.774 1733.83ZM392.641 1721.79L382.207 1727.81L380.208 1724.34L390.642 1718.32L392.641 1721.79ZM413.508 1709.75L403.074 1715.77L401.075 1712.3L411.509 1706.28L413.508 1709.75ZM434.375 1697.71L423.941 1703.73L421.942 1700.26L432.376 1694.24L434.375 1697.71ZM455.242 1685.67L444.809 1691.69L442.81 1688.22L453.243 1682.2L455.242 1685.67ZM476.109 1673.63L465.676 1679.65L463.677 1676.18L474.11 1670.16L476.109 1673.63ZM496.977 1661.59L486.543 1667.61L484.544 1664.14L494.978 1658.12L496.977 1661.59ZM517.844 1649.55L507.41 1655.57L505.411 1652.1L515.845 1646.08L517.844 1649.55ZM538.711 1637.51L528.277 1643.53L526.278 1640.06L536.712 1634.04L538.711 1637.51ZM559.578 1625.47L549.145 1631.49L547.146 1628.02L557.579 1622L559.578 1625.47ZM580.445 1613.43L570.012 1619.45L568.013 1615.98L578.446 1609.96L580.445 1613.43ZM601.312 1601.39L590.879 1607.41L588.88 1603.94L599.313 1597.92L601.312 1601.39ZM622.18 1589.35L611.746 1595.37L609.747 1591.9L620.181 1585.88L622.18 1589.35ZM643.047 1577.31L632.613 1583.33L630.614 1579.86L641.048 1573.84L643.047 1577.31ZM663.914 1565.27L653.48 1571.29L651.481 1567.82L661.915 1561.8L663.914 1565.27ZM684.781 1553.23L674.348 1559.25L672.349 1555.78L682.782 1549.76L684.781 1553.23ZM705.648 1541.19L695.215 1547.21L693.216 1543.74L703.649 1537.72L705.648 1541.19ZM726.516 1529.15L716.082 1535.17L714.082 1531.7L724.516 1525.68L726.516 1529.15ZM747.382 1517.11L736.948 1523.13L734.949 1519.66L745.383 1513.64L747.382 1517.11ZM768.249 1505.07L757.815 1511.09L755.816 1507.62L766.25 1501.6L768.249 1505.07ZM789.116 1493.03L778.683 1499.05L776.684 1495.58L787.117 1489.56L789.116 1493.03ZM809.983 1480.99L799.55 1487.01L797.551 1483.54L807.984 1477.52L809.983 1480.99ZM830.851 1468.95L820.417 1474.97L818.418 1471.5L828.852 1465.48L830.851 1468.95ZM851.718 1456.91L841.284 1462.93L839.285 1459.46L849.719 1453.44L851.718 1456.91ZM872.585 1444.87L862.151 1450.89L860.152 1447.42L870.586 1441.4L872.585 1444.87ZM893.452 1432.83L883.019 1438.84L881.02 1435.38L891.453 1429.36L893.452 1432.83ZM914.319 1420.79L903.886 1426.8L901.887 1423.34L912.32 1417.32L914.319 1420.79ZM935.187 1408.75L924.753 1414.76L922.754 1411.3L933.188 1405.28L935.187 1408.75ZM956.054 1396.71L945.62 1402.72L943.621 1399.26L954.055 1393.24L956.054 1396.71ZM976.921 1384.66L966.487 1390.68L964.488 1387.22L974.922 1381.2L976.921 1384.66ZM997.788 1372.62L987.354 1378.64L985.355 1375.18L995.789 1369.16L997.788 1372.62ZM1018.66 1360.58L1008.22 1366.6L1006.22 1363.14L1016.66 1357.12L1018.66 1360.58ZM1039.52 1348.54L1029.09 1354.56L1027.09 1351.1L1037.52 1345.08L1039.52 1348.54ZM1060.39 1336.5L1049.96 1342.52L1047.96 1339.06L1058.39 1333.04L1060.39 1336.5ZM1081.26 1324.46L1070.82 1330.48L1068.82 1327.02L1079.26 1321L1081.26 1324.46ZM1102.12 1312.42L1091.69 1318.44L1089.69 1314.98L1100.12 1308.96L1102.12 1312.42ZM1122.99 1300.38L1112.56 1306.4L1110.56 1302.94L1120.99 1296.92L1122.99 1300.38ZM1143.86 1288.34L1133.42 1294.36L1131.42 1290.9L1141.86 1284.88L1143.86 1288.34ZM1164.72 1276.3L1154.29 1282.32L1152.29 1278.86L1162.73 1272.84L1164.72 1276.3ZM1185.59 1264.26L1175.16 1270.28L1173.16 1266.82L1183.59 1260.8L1185.59 1264.26ZM1206.46 1252.22L1196.03 1258.24L1194.03 1254.78L1204.46 1248.76L1206.46 1252.22ZM1227.33 1240.18L1216.89 1246.2L1214.89 1242.74L1225.33 1236.72L1227.33 1240.18ZM1248.19 1228.14L1237.76 1234.16L1235.76 1230.7L1246.19 1224.68L1248.19 1228.14ZM1269.06 1216.1L1258.63 1222.12L1256.63 1218.66L1267.06 1212.64L1269.06 1216.1ZM1284.71 1207.07L1279.49 1210.08L1277.5 1206.62L1282.71 1203.61L1284.71 1207.07Z" fill="#5032E4"/>
<path d="M48.3096 1920.46L43.1094 1923.46L41.1113 1920L46.3105 1917L48.3096 1920.46Z" fill="#5032E4"/>
<path d="M894.26 683.408L892.26 686.872L887.073 683.878L889.073 680.414L894.26 683.408ZM878.698 674.425L876.698 677.889L866.323 671.9L868.323 668.435L878.698 674.425ZM857.947 662.446L855.948 665.911L845.573 659.922L847.572 656.458L857.947 662.446ZM837.197 650.469L835.197 653.933L824.822 647.943L826.822 644.479L837.197 650.469ZM816.447 638.49L814.447 641.954L804.072 635.966L806.072 632.501L816.447 638.49ZM795.697 626.512L793.697 629.977L783.322 623.987L785.321 620.523L795.697 626.512ZM774.946 614.534L772.947 617.998L762.571 612.009L764.571 608.545L774.946 614.534ZM754.196 602.556L752.196 606.02L741.821 600.031L743.821 596.566L754.196 602.556ZM733.446 590.577L731.446 594.042L721.071 588.053L723.071 584.589L733.446 590.577ZM712.695 578.6L710.696 582.063L700.321 576.074L702.32 572.61L712.695 578.6ZM691.945 566.621L689.945 570.086L679.57 564.097L681.57 560.632L691.945 566.621ZM671.195 554.643L669.195 558.107L658.82 552.118L660.82 548.654L671.195 554.643ZM650.445 542.665L648.445 546.129L638.07 540.14L640.069 536.676L650.445 542.665ZM629.694 530.686L627.695 534.151L617.319 528.162L619.319 524.697L629.694 530.686ZM608.944 518.709L606.944 522.173L596.569 516.184L598.569 512.72L608.944 518.709ZM588.194 506.73L586.194 510.194L575.819 504.206L577.819 500.741L588.194 506.73ZM567.443 494.752L565.444 498.217L555.069 492.227L557.068 488.764L567.443 494.752ZM546.693 482.774L544.693 486.238L534.318 480.249L536.318 476.785L546.693 482.774ZM525.943 470.796L523.943 474.26L513.568 468.271L515.568 464.807L525.943 470.796ZM505.193 458.817L503.193 462.282L492.818 456.293L494.818 452.829L505.193 458.817ZM484.442 446.84L482.443 450.304L472.067 444.314L474.067 440.851L484.442 446.84ZM463.692 434.861L461.692 438.326L451.317 432.337L453.317 428.872L463.692 434.861ZM442.942 422.884L440.942 426.348L430.567 420.358L432.567 416.894L442.942 422.884ZM422.192 410.905L420.192 414.369L409.817 408.381L411.816 404.916L422.192 410.905ZM401.441 398.927L399.442 402.392L389.066 396.402L391.066 392.938L401.441 398.927ZM380.691 386.949L378.691 390.413L368.316 384.424L370.316 380.96L380.691 386.949ZM359.941 374.971L357.941 378.435L347.566 372.446L349.566 368.981L359.941 374.971ZM339.191 362.992L337.191 366.457L326.816 360.468L328.816 357.004L339.191 362.992ZM318.44 351.015L316.441 354.478L306.066 348.489L308.065 345.025L318.44 351.015ZM297.69 339.036L295.69 342.501L285.315 336.512L287.315 333.047L297.69 339.036ZM276.94 327.059L274.94 330.522L264.565 324.533L266.565 321.069L276.94 327.059ZM256.19 315.08L254.19 318.544L243.815 312.556L245.815 309.091L256.19 315.08ZM235.44 303.102L233.44 306.566L223.065 300.577L225.064 297.113L235.44 303.102ZM214.689 291.124L212.69 294.588L202.314 288.599L204.314 285.135L214.689 291.124ZM193.939 279.145L191.939 282.61L181.564 276.621L183.564 273.156L193.939 279.145ZM173.189 267.168L171.189 270.632L160.814 264.643L162.814 261.179L173.189 267.168ZM152.439 255.189L150.439 258.653L140.064 252.665L142.063 249.2L152.439 255.189ZM131.688 243.211L129.689 246.676L119.314 240.686L121.313 237.223L131.688 243.211ZM110.938 231.233L108.938 234.697L98.5635 228.708L100.563 225.244L110.938 231.233ZM90.1885 219.255L88.1885 222.72L77.8135 216.73L79.8135 213.266L90.1885 219.255ZM69.4385 207.277L67.4385 210.741L57.0635 204.752L59.0635 201.288L69.4385 207.277ZM48.6875 195.299L46.6885 198.763L36.3135 192.774L38.3125 189.31L48.6875 195.299ZM27.9375 183.32L25.9375 186.785L15.5625 180.796L17.5625 177.332L27.9375 183.32ZM7.1875 171.343L5.1875 174.807L0 171.812L2 168.348L7.1875 171.343Z" fill="#5032E4"/>
<path d="M994.101 509.998L992.101 513.462L986.965 510.498L988.964 507.033L994.101 509.998ZM978.691 501.103L976.691 504.567L966.418 498.637L968.418 495.172L978.691 501.103ZM958.145 489.243L956.146 492.707L945.872 486.777L947.872 483.312L958.145 489.243ZM937.599 477.382L935.599 480.846L925.325 474.916L927.325 471.452L937.599 477.382ZM917.052 465.521L915.053 468.986L904.779 463.055L906.779 459.591L917.052 465.521ZM896.506 453.661L894.506 457.125L884.233 451.195L886.232 447.731L896.506 453.661ZM875.96 441.8L873.96 445.265L863.687 439.334L865.687 435.871L875.96 441.8ZM855.413 429.94L853.413 433.404L843.141 427.474L845.14 424.009L855.413 429.94ZM834.867 418.08L832.867 421.543L822.594 415.614L824.594 412.149L834.867 418.08ZM814.32 406.219L812.321 409.683L802.048 403.753L804.048 400.289L814.32 406.219ZM793.774 394.359L791.774 397.823L781.501 391.892L783.501 388.428L793.774 394.359ZM773.228 382.498L771.229 385.962L760.955 380.032L762.955 376.568L773.228 382.498ZM752.682 370.637L750.682 374.102L740.409 368.171L742.408 364.708L752.682 370.637ZM732.136 358.777L730.136 362.242L719.862 356.311L721.862 352.847L732.136 358.777ZM711.589 346.917L709.589 350.38L699.316 344.451L701.315 340.986L711.589 346.917ZM691.043 335.056L689.043 338.52L678.77 332.59L680.77 329.125L691.043 335.056ZM670.496 323.196L668.496 326.66L658.224 320.73L660.224 317.265L670.496 323.196ZM649.95 311.335L647.95 314.799L637.677 308.869L639.677 305.405L649.95 311.335ZM629.403 299.474L627.404 302.939L617.131 297.008L619.131 293.544L629.403 299.474ZM608.857 287.614L606.857 291.079L596.584 285.148L598.584 281.684L608.857 287.614ZM588.312 275.753L586.312 279.218L576.038 273.288L578.038 269.824L588.312 275.753ZM567.765 263.893L565.765 267.357L555.492 261.427L557.491 257.962L567.765 263.893ZM547.219 252.033L545.219 255.497L534.945 249.567L536.945 246.102L547.219 252.033ZM526.672 240.172L524.673 243.636L514.399 237.707L516.399 234.242L526.672 240.172ZM506.126 228.312L504.126 231.776L493.854 225.846L495.853 222.381L506.126 228.312ZM485.58 216.452L483.58 219.916L473.307 213.985L475.307 210.521L485.58 216.452ZM465.033 204.59L463.033 208.055L452.761 202.125L454.761 198.661L465.033 204.59ZM444.487 192.73L442.487 196.195L432.214 190.264L434.214 186.8L444.487 192.73ZM423.94 180.87L421.941 184.334L411.668 178.404L413.668 174.94L423.94 180.87ZM403.395 169.009L401.395 172.474L391.122 166.543L393.121 163.08L403.395 169.009ZM382.849 157.149L380.849 160.613L370.575 154.683L372.575 151.218L382.849 157.149ZM362.302 145.289L360.303 148.752L350.029 142.823L352.029 139.358L362.302 145.289ZM341.756 133.428L339.756 136.892L329.483 130.962L331.482 127.498L341.756 133.428ZM321.21 121.568L319.21 125.032L308.937 119.102L310.937 115.637L321.21 121.568ZM300.663 109.708L298.663 113.171L288.391 107.241L290.391 103.777L300.663 109.708ZM280.117 97.8472L278.117 101.311L267.844 95.3804L269.844 91.9165L280.117 97.8472ZM259.57 85.9858L257.571 89.4507L247.298 83.52L249.298 80.0562L259.57 85.9858ZM239.024 74.1255L237.024 77.5903L226.752 71.6597L228.751 68.1958L239.024 74.1255ZM218.479 62.2651L216.479 65.73L206.205 59.7993L208.205 56.3354L218.479 62.2651ZM197.932 50.4048L195.933 53.8687L185.659 47.939L187.659 44.4741L197.932 50.4048ZM177.386 38.5444L175.386 42.0083L165.112 36.0786L167.112 32.6138L177.386 38.5444ZM156.84 26.6841L154.84 30.1479L144.566 24.2183L146.566 20.7534L156.84 26.6841ZM136.293 14.8237L134.293 18.2876L124.021 12.3579L126.02 8.89307L136.293 14.8237ZM115.747 2.96338L113.747 6.42725L108.61 3.4624L110.61 -0.00244141L115.747 2.96338Z" fill="#5032E4"/>
<path d="M993.41 698.21L944.56 670.01C941.61 668.3 939.79 665.15 939.79 661.74C939.79 654.38 947.75 649.79 954.11 653.46L993.24 676.05" fill="white"/>
<path d="M937.79 661.74C937.79 652.842 947.416 647.288 955.109 651.728H955.11L994.24 674.317L992.24 677.782L953.11 655.192C948.084 652.292 941.79 655.919 941.79 661.74C941.79 664.435 943.229 666.926 945.563 668.279H945.562L994.41 696.478L992.41 699.942L943.561 671.742L943.557 671.74C939.992 669.674 937.79 665.865 937.79 661.74Z" fill="white"/>
<path d="M1300.21 1251.07L1332.44 1269.68L1374.36 1293.88C1377.31 1295.59 1379.13 1298.74 1379.13 1302.15C1379.13 1309.5 1371.18 1314.09 1364.81 1310.42L1332.6 1291.83L1300.21 1273.13" fill="white"/>
<path d="M1333.6 1290.1L1365.81 1308.69C1370.85 1311.59 1377.13 1307.96 1377.13 1302.15C1377.13 1299.46 1375.69 1296.97 1373.36 1295.61L1331.44 1271.41L1299.21 1252.8L1301.21 1249.34L1333.44 1267.95L1375.36 1292.15L1375.36 1292.15L1375.69 1292.35C1379.06 1294.45 1381.13 1298.15 1381.13 1302.15C1381.13 1311.04 1371.51 1316.59 1363.81 1312.15L1363.81 1312.15L1331.6 1293.56L1299.21 1274.86L1301.21 1271.4L1333.6 1290.1Z" fill="white"/>
<path d="M1020.68 730.55L1052.91 749.16L1094.83 773.36C1097.78 775.07 1099.6 778.22 1099.6 781.63C1099.6 788.98 1091.65 793.57 1085.28 789.9L1053.07 771.31L1020.68 752.61" fill="white"/>
<path d="M1054.07 769.577L1086.28 788.167C1091.32 791.07 1097.6 787.439 1097.6 781.63C1097.6 778.935 1096.16 776.443 1093.83 775.09L1051.91 750.892L1019.68 732.282L1021.68 728.818L1053.91 747.428L1095.83 771.628L1095.83 771.63L1096.16 771.828C1099.53 773.935 1101.6 777.634 1101.6 781.63C1101.6 790.521 1091.98 796.07 1084.28 791.633L1084.28 791.632L1052.07 773.042L1019.68 754.342L1021.68 750.878L1054.07 769.577Z" fill="white"/>
<path d="M1120.13 801.99C1120.13 794.63 1128.09 790.04 1134.45 793.71L1273.8 873.43C1276.75 875.14 1278.57 878.29 1278.57 881.7C1278.57 889.05 1270.62 893.64 1264.25 889.97L1124.9 810.27C1121.95 808.56 1120.13 805.41 1120.13 802V801.99Z" fill="white"/>
<path d="M1118.13 802V801.99C1118.13 793.094 1127.75 787.542 1135.44 791.975L1135.44 791.974L1274.79 871.694L1274.8 871.699L1275.13 871.898C1278.5 874.005 1280.57 877.704 1280.57 881.7C1280.57 890.591 1270.95 896.14 1263.25 891.703L1123.91 812.006L1123.9 812C1120.33 809.933 1118.13 806.125 1118.13 802ZM1122.13 802C1122.13 804.695 1123.57 807.187 1125.9 808.54L1265.24 888.233L1265.25 888.237L1265.49 888.368C1270.48 891.026 1276.57 887.419 1276.57 881.7C1276.57 879.009 1275.14 876.521 1272.81 875.166L1133.45 795.442C1128.42 792.542 1122.13 796.169 1122.13 801.99V802Z" fill="white"/>
<path d="M939.79 900.83C939.79 893.47 947.75 888.88 954.11 892.55L1376.8 1125.29C1379.75 1127 1381.57 1130.15 1381.57 1133.56C1381.57 1140.91 1373.62 1145.5 1367.25 1141.83L944.56 909.1C941.61 907.39 939.79 904.24 939.79 900.83Z" fill="white"/>
<path d="M937.79 900.83C937.79 891.945 947.386 886.396 955.074 890.799L955.075 890.798L1377.76 1123.54L1377.8 1123.56C1381.37 1125.63 1383.57 1129.43 1383.57 1133.56C1383.57 1142.44 1373.98 1147.98 1366.29 1143.58V1143.58L943.596 910.852C943.583 910.845 943.569 910.838 943.557 910.83C939.992 908.764 937.79 904.955 937.79 900.83ZM941.79 900.83C941.79 903.525 943.229 906.016 945.563 907.369L1368.21 1140.08L1368.25 1140.1L1368.49 1140.23C1373.48 1142.89 1379.57 1139.28 1379.57 1133.56C1379.57 1130.87 1378.14 1128.38 1375.81 1127.03L953.146 894.302L953.11 894.282C948.084 891.382 941.79 895.009 941.79 900.83Z" fill="white"/>
<path d="M1317.93 1174.99L954.11 974.66C947.75 970.99 939.79 975.58 939.79 982.93C939.79 986.35 941.61 989.5 944.56 991.21L1307.67 1191.14L1317.93 1184.58V1175V1174.99Z" fill="white"/>
<path d="M937.79 982.93C937.79 974.053 947.388 968.507 955.074 972.909L955.075 972.908L1318.89 1173.24C1319.53 1173.59 1319.93 1174.26 1319.93 1174.99V1184.58C1319.93 1185.26 1319.58 1185.9 1319.01 1186.27L1308.75 1192.82C1308.13 1193.22 1307.35 1193.25 1306.71 1192.89L943.596 992.962C943.583 992.955 943.569 992.947 943.557 992.94C939.991 990.873 937.79 987.064 937.79 982.93ZM941.79 982.93C941.79 985.629 943.222 988.113 945.545 989.468L1307.59 1188.81L1315.93 1183.49V1176.17L953.146 976.412L953.11 976.392C948.083 973.491 941.79 977.121 941.79 982.93Z" fill="white"/>
<path d="M1228.15 964.2C1228.15 956.84 1236.11 952.25 1242.47 955.92L1381.82 1035.64C1384.77 1037.35 1386.59 1040.5 1386.59 1043.91C1386.59 1051.26 1378.64 1055.85 1372.27 1052.18L1232.92 972.48C1229.97 970.77 1228.15 967.62 1228.15 964.21V964.2Z" fill="white"/>
<path d="M1226.15 964.21V964.2C1226.15 955.304 1235.77 949.752 1243.46 954.185L1243.46 954.184L1382.81 1033.9L1382.82 1033.91L1383.15 1034.11C1386.52 1036.21 1388.59 1039.91 1388.59 1043.91C1388.59 1052.8 1378.97 1058.35 1371.27 1053.91L1231.93 974.216L1231.92 974.21C1228.35 972.143 1226.15 968.335 1226.15 964.21ZM1230.15 964.21C1230.15 966.905 1231.59 969.397 1233.92 970.75L1373.26 1050.44L1373.27 1050.45L1373.51 1050.58C1378.5 1053.24 1384.59 1049.63 1384.59 1043.91C1384.59 1041.22 1383.16 1038.73 1380.83 1037.38L1241.47 957.652C1236.44 954.752 1230.15 958.379 1230.15 964.2V964.21Z" fill="white"/>
<path d="M939.79 810.76C939.79 803.4 947.75 798.81 954.11 802.48L1023.07 841.69C1026.02 843.4 1027.84 846.55 1027.84 849.96C1027.84 857.31 1019.89 861.9 1013.52 858.23L944.56 819.03C941.61 817.32 939.79 814.17 939.79 810.76Z" fill="white"/>
<path d="M937.79 810.76C937.79 801.866 947.407 796.314 955.099 800.742L1024.06 839.952L1024.07 839.959L1024.4 840.159C1027.77 842.265 1029.84 845.964 1029.84 849.96C1029.84 858.851 1020.22 864.4 1012.52 859.963V859.962L943.571 820.769L943.557 820.76C939.992 818.694 937.79 814.885 937.79 810.76ZM941.79 810.76C941.79 813.455 943.229 815.946 945.563 817.299H945.562L1014.51 856.492L1014.52 856.497L1014.76 856.628C1019.75 859.286 1025.84 855.679 1025.84 849.96C1025.84 847.266 1024.4 844.774 1022.07 843.42H1022.07L953.121 804.218L953.11 804.212C948.084 801.312 941.79 804.939 941.79 810.76Z" fill="white"/>
<path d="M1048.41 873.75C1048.41 866.39 1056.37 861.8 1062.73 865.47L1094.82 883.43C1097.77 885.14 1099.59 888.29 1099.59 891.7C1099.59 899.05 1091.64 903.64 1085.27 899.97L1053.18 882.02C1050.23 880.31 1048.41 877.16 1048.41 873.75Z" fill="white"/>
<path d="M1046.41 873.75C1046.41 864.86 1056.02 859.309 1063.71 863.725L1095.8 881.685L1095.82 881.699C1099.39 883.766 1101.59 887.575 1101.59 891.7C1101.59 900.591 1091.97 906.14 1084.27 901.703V901.702L1052.2 883.766L1052.18 883.75C1048.61 881.684 1046.41 877.875 1046.41 873.75ZM1050.41 873.75C1050.41 876.445 1051.85 878.936 1054.18 880.289H1054.18L1086.25 898.225L1086.27 898.237C1091.31 901.139 1097.59 897.509 1097.59 891.7C1097.59 889.006 1096.15 886.514 1093.82 885.16V885.159L1061.75 867.215L1061.73 867.202C1056.7 864.302 1050.41 867.929 1050.41 873.75Z" fill="white"/>
<path d="M1300.21 904.79C1300.21 897.43 1308.17 892.84 1314.53 896.51L1381.82 935.72C1384.77 937.43 1386.59 940.58 1386.59 943.99C1386.59 951.34 1378.64 955.93 1372.27 952.26L1304.98 913.06C1302.03 911.35 1300.21 908.2 1300.21 904.79Z" fill="white"/>
<path d="M1298.21 904.79C1298.21 896.03 1307.54 890.512 1315.17 894.577L1315.53 894.778L1315.54 894.781L1382.83 933.991H1382.83C1386.39 936.059 1388.59 939.866 1388.59 943.99C1388.59 952.881 1378.97 958.43 1371.27 953.993L1371.26 953.989L1303.98 914.79L1303.65 914.591C1300.28 912.485 1298.21 908.786 1298.21 904.79ZM1302.21 904.79C1302.21 907.401 1303.56 909.82 1305.77 911.199L1305.98 911.329L1305.99 911.332L1373.27 950.527H1373.27C1378.31 953.429 1384.59 949.799 1384.59 943.99C1384.59 941.296 1383.15 938.804 1380.82 937.45L1380.81 937.448L1313.53 898.242L1313.29 898.112C1308.31 895.456 1302.21 899.06 1302.21 904.79Z" fill="white"/>
<path opacity="0.05" d="M993.1 511.73L893.26 569.54V685.14L1 170.08V1.72998H109.61L993.1 511.73Z" fill="black"/>
<path d="M975.15 1190.79L1060.56 1139.48L1077.17 1126.9L1055.01 1114.51L975.15 1190.79Z" fill="#5032E4"/>
<path d="M1053.75 1112.96C1054.38 1112.44 1055.27 1112.36 1055.99 1112.76L1078.15 1125.15C1078.74 1125.48 1079.12 1126.09 1079.17 1126.76C1079.21 1127.44 1078.92 1128.09 1078.38 1128.49L1061.77 1141.07C1061.71 1141.12 1061.65 1141.16 1061.59 1141.19L976.181 1192.5C975.307 1193.03 974.179 1192.81 973.56 1192C972.942 1191.19 973.032 1190.05 973.768 1189.34L1053.63 1113.06L1053.75 1112.96ZM989.539 1179.81L1059.44 1137.82L1073.52 1127.15L1055.32 1116.98L989.539 1179.81Z" fill="white"/>
</g>
<defs>
<clipPath id="clip0_938_98855">
<rect width="1519.91" height="1923.73" fill="white"/>
</clipPath>
</defs>
</svg>
