<svg width="1923" height="1889" viewBox="0 0 1923 1889" fill="none" xmlns="http://www.w3.org/2000/svg">
<path d="M229.656 677.546V548.046L341.836 612.826V742.306L229.656 677.546Z" fill="#543CE5"/>
<path d="M228.656 546.313C229.275 545.956 230.038 545.956 230.656 546.313L342.836 611.093L342.949 611.163C343.501 611.533 343.836 612.155 343.836 612.825V742.305C343.836 743.019 343.455 743.68 342.836 744.037C342.217 744.394 341.455 744.395 340.836 744.037L228.656 679.278C228.037 678.92 227.656 678.26 227.656 677.545V548.045C227.656 547.331 228.037 546.67 228.656 546.313ZM231.656 676.39L339.836 738.841V613.979L231.656 551.509V676.39Z" fill="#231F20"/>
<path d="M341.836 612.826L453.676 548.046V677.776L341.836 742.306V612.826Z" fill="#543CE5"/>
<path d="M452.791 546.252C453.387 545.958 454.094 545.979 454.675 546.313C455.294 546.671 455.676 547.331 455.676 548.046V677.776C455.676 678.491 455.294 679.151 454.676 679.508L342.836 744.038C342.217 744.395 341.455 744.395 340.836 744.038C340.217 743.681 339.836 743.02 339.836 742.306V612.826C339.836 612.113 340.217 611.453 340.834 611.096L452.674 546.315L452.791 546.252ZM343.836 613.979V738.842L451.676 676.621V551.516L343.836 613.979Z" fill="#231F20"/>
<path d="M229.656 548.046L341.836 483.096L453.676 548.046L341.836 612.826L229.656 548.046Z" fill="#543CE5"/>
<path d="M340.952 481.302C341.55 481.007 342.259 481.029 342.841 481.366L454.681 546.316C455.297 546.675 455.676 547.334 455.676 548.047C455.675 548.76 455.296 549.419 454.679 549.776L342.839 614.557C342.22 614.915 341.456 614.915 340.836 614.558L228.656 549.777C228.038 549.42 227.657 548.761 227.656 548.047C227.656 547.333 228.036 546.672 228.654 546.314L340.834 481.365L340.952 481.302ZM233.651 548.043L341.834 610.515L449.689 548.043L341.834 485.407L233.651 548.043Z" fill="#231F20"/>
<path d="M868.676 308.296V178.796L980.856 243.566V373.046L868.676 308.296Z" fill="white"/>
<path d="M867.676 177.063C868.295 176.706 869.057 176.706 869.676 177.063L981.855 241.833C982.474 242.19 982.855 242.85 982.855 243.565V373.045C982.855 373.76 982.474 374.42 981.855 374.778C981.237 375.135 980.475 375.134 979.856 374.778L867.676 310.028C867.057 309.67 866.676 309.01 866.676 308.295V178.795C866.676 178.081 867.057 177.42 867.676 177.063ZM870.676 307.14L978.855 369.58V244.719L870.676 182.259V307.14Z" fill="#231F20"/>
<path d="M980.855 243.566L1092.7 178.796V308.516L980.855 373.046V243.566Z" fill="white"/>
<path d="M1091.81 177.002C1092.41 176.708 1093.11 176.729 1093.69 177.063C1094.31 177.421 1094.7 178.081 1094.7 178.796V308.516C1094.7 309.23 1094.31 309.891 1093.7 310.248L981.855 374.778C981.237 375.135 980.474 375.135 979.855 374.777C979.237 374.42 978.855 373.76 978.855 373.046V243.565C978.856 242.852 979.236 242.193 979.854 241.835L1091.69 177.065L1091.81 177.002ZM982.855 244.719V369.582L1090.7 307.36V182.265L982.855 244.719Z" fill="#231F20"/>
<path d="M868.676 178.796L980.856 113.836L1092.7 178.796L980.856 243.566L868.676 178.796Z" fill="white"/>
<path d="M979.972 112.042C980.57 111.747 981.279 111.769 981.86 112.106L1093.7 177.066C1094.32 177.425 1094.7 178.084 1094.7 178.797C1094.69 179.51 1094.32 180.169 1093.7 180.526L981.858 245.297C981.239 245.655 980.475 245.656 979.855 245.298L867.676 180.528C867.057 180.171 866.676 179.511 866.676 178.797C866.675 178.083 867.056 177.423 867.674 177.065L979.854 112.105L979.972 112.042ZM872.671 178.792L980.854 241.255L1088.71 178.793L980.854 116.147L872.671 178.792Z" fill="#231F20"/>
<path d="M456.016 1067.7L452.016 1067.71L452.006 1060.71L456.006 1060.7L456.016 1067.7Z" fill="#4328E0"/>
<path d="M455.995 1046.78L451.995 1046.79L451.989 1039.96L455.989 1039.96L455.995 1046.78ZM455.978 1026.3L451.978 1026.3L451.966 1012.65L455.966 1012.64L455.978 1026.3ZM455.954 998.988L451.954 998.992L451.941 985.336L455.941 985.333L455.954 998.988ZM455.93 971.677L451.93 971.681L451.918 958.024L455.918 958.021L455.93 971.677ZM455.906 944.365L451.906 944.369L451.895 930.713L455.895 930.71L455.906 944.365ZM455.882 917.054L451.882 917.058L451.87 903.401L455.87 903.398L455.882 917.054ZM455.858 889.742L451.858 889.746L451.847 876.09L455.847 876.087L455.858 889.742ZM455.835 862.431L451.835 862.435L451.822 848.778L455.822 848.775L455.835 862.431ZM455.811 835.119L451.811 835.123L451.799 821.467L455.799 821.464L455.811 835.119ZM455.787 807.808L451.787 807.812L451.775 794.155L455.775 794.152L455.787 807.808ZM455.763 780.496L451.763 780.5L451.751 766.844L455.751 766.841L455.763 780.496ZM455.739 753.185L451.739 753.188L451.728 739.532L455.728 739.528L455.739 753.185ZM455.716 725.873L451.716 725.877L451.703 712.221L455.703 712.217L455.716 725.873ZM455.691 698.562L451.691 698.565L451.686 691.737L455.686 691.733L455.691 698.562Z" fill="#4328E0"/>
<path d="M455.686 684.772L451.686 684.778L451.676 677.778L455.676 677.772L455.686 684.772Z" fill="#4328E0"/>
<path d="M1661.76 1137.99V1144.99H1657.76V1137.99H1661.76Z" fill="#4328E0"/>
<path d="M1661.74 1124.26L1657.74 1124.27L1657.73 1117.62L1661.73 1117.62L1661.74 1124.26ZM1661.71 1104.32L1657.71 1104.33L1657.69 1091.03L1661.69 1091.03L1661.71 1104.32ZM1661.67 1077.73L1657.67 1077.74L1657.65 1064.44L1661.65 1064.44L1661.67 1077.73ZM1661.63 1051.14L1657.63 1051.15L1657.61 1037.85L1661.61 1037.85L1661.63 1051.14ZM1661.59 1024.55L1657.59 1024.56L1657.58 1011.26L1661.58 1011.26L1661.59 1024.55ZM1661.56 997.961L1657.56 997.966L1657.54 984.671L1661.54 984.666L1661.56 997.961ZM1661.52 971.37L1657.52 971.376L1657.5 958.081L1661.5 958.075L1661.52 971.37ZM1661.48 944.78L1657.48 944.786L1657.46 931.491L1661.46 931.485L1661.48 944.78ZM1661.45 918.19L1657.45 918.196L1657.44 911.549L1661.44 911.543L1661.45 918.19Z" fill="#4328E0"/>
<path d="M1661.43 904.673L1657.43 904.679L1657.42 897.679L1661.42 897.673L1661.43 904.673Z" fill="#4328E0"/>
<path d="M1136.5 939.303L1134.51 942.768L1128.44 939.268L1130.43 935.803L1136.5 939.303Z" fill="#CCCCCC"/>
<path d="M461.076 549.725L459.075 553.188L453.016 549.688L455.016 546.225L461.076 549.725Z" fill="#CCCCCC"/>
<path d="M1436.58 638.07L1434.55 641.521L1428.51 637.981L1430.54 634.53L1436.58 638.07Z" fill="#CCCCCC"/>
<path d="M1418.58 627.511L1416.56 630.961L1410.65 627.501L1412.68 624.05L1418.58 627.511ZM1400.88 617.13L1398.85 620.58L1387.05 613.659L1389.07 610.209L1400.88 617.13ZM1377.27 603.288L1375.25 606.739L1363.45 599.818L1365.47 596.368L1377.27 603.288ZM1353.67 589.447L1351.65 592.897L1339.84 585.978L1341.87 582.526L1353.67 589.447ZM1330.07 575.606L1328.04 579.057L1316.24 572.136L1318.26 568.686L1330.07 575.606ZM1306.46 561.766L1304.44 565.216L1292.64 558.295L1294.66 554.845L1306.46 561.766ZM1282.86 547.924L1280.84 551.375L1269.03 544.454L1271.06 541.004L1282.86 547.924ZM1259.26 534.083L1257.23 537.533L1245.43 530.613L1247.45 527.162L1259.26 534.083ZM1235.65 520.242L1233.63 523.692L1221.83 516.771L1223.85 513.321L1235.65 520.242ZM1212.05 506.4L1210.03 509.852L1198.22 502.931L1200.25 499.48L1212.05 506.4ZM1188.45 492.56L1186.42 496.01L1174.62 489.09L1176.64 485.639L1188.45 492.56ZM1164.84 478.719L1162.82 482.169L1151.02 475.248L1153.04 471.798L1164.84 478.719ZM1141.24 464.877L1139.22 468.328L1127.41 461.407L1129.44 457.957L1141.24 464.877ZM1117.64 451.036L1115.61 454.486L1103.81 447.566L1105.83 444.116L1117.64 451.036ZM1094.03 437.195L1092.01 440.646L1080.21 433.726L1082.23 430.274L1094.03 437.195ZM1070.43 423.354L1068.41 426.805L1056.6 419.884L1058.63 416.434L1070.43 423.354ZM1046.83 409.513L1044.8 412.964L1033 406.043L1035.02 402.593L1046.83 409.513ZM1023.22 395.672L1021.2 399.122L1009.4 392.202L1011.42 388.751L1023.22 395.672ZM999.619 381.831L997.596 385.281L991.695 381.821L993.719 378.37L999.619 381.831Z" fill="#CCCCCC"/>
<path d="M987.731 374.872L985.702 378.319L979.672 374.77L981.701 371.322L987.731 374.872Z" fill="#CCCCCC"/>
<path d="M1548.76 443.611L1546.73 447.061L1540.7 443.521L1542.73 440.071L1548.76 443.611Z" fill="#CCCCCC"/>
<path d="M1530.75 433.051L1528.72 436.501L1522.82 433.038L1524.85 429.588L1530.75 433.051ZM1513.04 422.661L1511.02 426.111L1499.21 419.185L1501.23 415.734L1513.04 422.661ZM1489.43 408.809L1487.4 412.259L1475.6 405.332L1477.62 401.882L1489.43 408.809ZM1465.82 394.956L1463.79 398.405L1451.99 391.479L1454.01 388.029L1465.82 394.956ZM1442.2 381.103L1440.18 384.553L1428.37 377.627L1430.4 374.177L1442.2 381.103ZM1418.59 367.25L1416.57 370.7L1404.76 363.773L1406.79 360.323L1418.59 367.25ZM1394.98 353.397L1392.95 356.848L1381.15 349.921L1383.17 346.471L1394.98 353.397ZM1371.37 339.545L1369.34 342.994L1357.54 336.068L1359.56 332.618L1371.37 339.545ZM1347.75 325.691L1345.73 329.142L1333.92 322.216L1335.95 318.766L1347.75 325.691ZM1324.14 311.839L1322.12 315.289L1310.31 308.362L1312.34 304.912L1324.14 311.839ZM1300.53 297.986L1298.51 301.437L1286.7 294.51L1288.72 291.06L1300.53 297.986ZM1276.92 284.134L1274.89 287.583L1263.09 280.657L1265.11 277.207L1276.92 284.134ZM1253.31 270.28L1251.28 273.73L1239.47 266.805L1241.5 263.354L1253.31 270.28ZM1229.69 256.428L1227.67 259.878L1215.86 252.951L1217.89 249.501L1229.69 256.428ZM1206.08 242.575L1204.06 246.025L1192.25 239.099L1194.27 235.648L1206.08 242.575ZM1182.47 228.723L1180.44 232.172L1168.64 225.246L1170.66 221.796L1182.47 228.723ZM1158.86 214.869L1156.83 218.319L1145.03 211.394L1147.05 207.943L1158.86 214.869ZM1135.24 201.017L1133.22 204.467L1121.41 197.54L1123.44 194.09L1135.24 201.017ZM1111.63 187.164L1109.61 190.614L1103.71 187.15L1105.73 183.701L1111.63 187.164Z" fill="#CCCCCC"/>
<path d="M1099.74 180.181L1097.71 183.63L1091.68 180.09L1093.71 176.641L1099.74 180.181Z" fill="#CCCCCC"/>
<path d="M1146.65 1478.01L1144.62 1481.46L1138.59 1477.9L1140.62 1474.45L1146.65 1478.01Z" fill="#CCCCCC"/>
<path d="M1128.78 1467.48L1126.75 1470.93L1120.94 1467.5L1122.97 1464.06L1128.78 1467.48ZM1111.34 1457.21L1109.31 1460.65L1097.68 1453.8L1099.71 1450.36L1111.34 1457.21ZM1088.08 1443.5L1086.05 1446.95L1074.42 1440.1L1076.45 1436.65L1088.08 1443.5ZM1064.82 1429.8L1062.79 1433.25L1051.17 1426.4L1053.2 1422.95L1064.82 1429.8ZM1041.57 1416.1L1039.54 1419.55L1027.91 1412.7L1029.94 1409.25L1041.57 1416.1ZM1018.31 1402.4L1016.28 1405.84L1004.65 1398.99L1006.68 1395.55L1018.31 1402.4ZM995.053 1388.7L993.022 1392.14L981.394 1385.29L983.424 1381.84L995.053 1388.7ZM971.796 1374.99L969.765 1378.44L958.137 1371.59L960.167 1368.14L971.796 1374.99ZM948.538 1361.29L946.508 1364.74L934.879 1357.89L936.91 1354.44L948.538 1361.29ZM925.281 1347.59L923.251 1351.04L911.622 1344.18L913.652 1340.74L925.281 1347.59ZM902.024 1333.89L899.994 1337.33L888.365 1330.48L890.396 1327.04L902.024 1333.89ZM878.767 1320.18L876.736 1323.63L865.108 1316.78L867.139 1313.33L878.767 1320.18ZM855.51 1306.48L853.479 1309.93L841.851 1303.08L843.881 1299.63L855.51 1306.48ZM832.253 1292.78L830.223 1296.23L818.594 1289.38L820.624 1285.93L832.253 1292.78ZM808.995 1279.08L806.965 1282.52L801.15 1279.1L803.182 1275.65L808.995 1279.08Z" fill="#CCCCCC"/>
<path d="M797.263 1272.17L795.229 1275.62L789.199 1272.06L791.232 1268.61L797.263 1272.17Z" fill="#CCCCCC"/>
<path d="M342.852 1009.33L340.822 1012.78L334.792 1009.23L336.821 1005.78L342.852 1009.33Z" fill="#4328E0"/>
<path d="M324.651 998.612L322.621 1002.06L316.655 998.544L318.686 995.098L324.651 998.612ZM306.754 988.068L304.724 991.515L292.792 984.485L294.822 981.039L306.754 988.068ZM282.891 974.01L280.86 977.456L268.929 970.427L270.959 966.98L282.891 974.01ZM259.027 959.951L256.997 963.397L245.065 956.368L247.096 952.922L259.027 959.951ZM235.165 945.893L233.134 949.339L221.203 942.31L223.233 938.863L235.165 945.893ZM211.302 931.834L209.271 935.28L197.34 928.251L199.37 924.805L211.302 931.834ZM187.438 917.775L185.408 921.223L173.477 914.193L175.507 910.747L187.438 917.775ZM163.575 903.718L161.545 907.164L149.613 900.135L151.644 896.688L163.575 903.718ZM139.712 889.659L137.682 893.105L125.75 886.076L127.781 882.63L139.712 889.659ZM115.85 875.601L113.819 879.047L101.888 872.018L103.918 868.571L115.85 875.601ZM91.9863 861.542L89.9561 864.988L78.0244 857.959L80.0547 854.513L91.9863 861.542ZM68.123 847.483L66.0928 850.93L54.1611 843.9L56.1914 840.454L68.123 847.483ZM44.2598 833.425L42.2295 836.871L30.2979 829.842L32.3281 826.396L44.2598 833.425ZM20.3965 819.366L18.3662 822.813L12.4004 819.299L14.4316 815.852L20.3965 819.366Z" fill="#4328E0"/>
<path d="M8.34082 812.262L6.31152 815.709L0.28125 812.159L2.31055 808.712L8.34082 812.262Z" fill="#4328E0"/>
<path d="M230.671 1203.79L228.642 1207.24L222.611 1203.69L224.641 1200.24L230.671 1203.79Z" fill="#4328E0"/>
<path d="M211.901 1192.73L209.871 1196.18L203.7 1192.54L205.73 1189.1L211.901 1192.73ZM193.389 1181.83L191.358 1185.27L179.016 1178L181.047 1174.55L193.389 1181.83ZM168.705 1167.28L166.674 1170.73L154.332 1163.46L156.363 1160.01L168.705 1167.28ZM144.021 1152.74L141.99 1156.19L129.648 1148.92L131.679 1145.47L144.021 1152.74ZM119.337 1138.2L117.307 1141.64L104.965 1134.37L106.995 1130.93L119.337 1138.2ZM94.6533 1123.66L92.623 1127.1L80.2812 1119.83L82.3115 1116.38L94.6533 1123.66ZM69.9697 1109.11L67.9395 1112.56L55.5977 1105.29L57.6279 1101.84L69.9697 1109.11ZM45.2861 1094.57L43.2559 1098.02L30.9141 1090.75L32.9443 1087.3L45.2861 1094.57ZM20.6025 1080.03L18.5713 1083.47L12.4004 1079.84L14.4316 1076.39L20.6025 1080.03Z" fill="#4328E0"/>
<path d="M8.05957 1072.64L6.03027 1076.09L0 1072.54L2.0293 1069.09L8.05957 1072.64Z" fill="#4328E0"/>
<path d="M1108.43 1716.12L1106.4 1719.57L1100.37 1716.01L1102.4 1712.56L1108.43 1716.12Z" fill="#CCCCCC"/>
<path d="M1090.49 1705.53L1088.46 1708.98L1082.59 1705.51L1084.62 1702.07L1090.49 1705.53ZM1072.88 1695.14L1070.85 1698.58L1059.11 1691.66L1061.15 1688.21L1072.88 1695.14ZM1049.41 1681.28L1047.38 1684.73L1035.64 1677.8L1037.67 1674.35L1049.41 1681.28ZM1025.93 1667.42L1023.9 1670.87L1012.16 1663.94L1014.19 1660.49L1025.93 1667.42ZM1002.45 1653.57L1000.42 1657.01L988.682 1650.08L990.715 1646.64L1002.45 1653.57ZM978.977 1639.71L976.943 1643.15L965.205 1636.22L967.238 1632.78L978.977 1639.71ZM955.5 1625.85L953.467 1629.29L941.728 1622.36L943.761 1618.92L955.5 1625.85ZM932.022 1611.99L929.989 1615.44L918.251 1608.51L920.284 1605.06L932.022 1611.99ZM908.546 1598.13L906.513 1601.58L894.773 1594.65L896.808 1591.2L908.546 1598.13ZM885.068 1584.27L883.035 1587.72L871.297 1580.79L873.33 1577.34L885.068 1584.27ZM861.592 1570.42L859.559 1573.86L847.819 1566.93L849.853 1563.49L861.592 1570.42ZM838.114 1556.56L836.081 1560L824.343 1553.07L826.376 1549.63L838.114 1556.56ZM814.638 1542.7L812.604 1546.14L800.865 1539.21L802.898 1535.77L814.638 1542.7ZM791.16 1528.84L789.127 1532.29L777.389 1525.36L779.422 1521.91L791.16 1528.84ZM767.684 1514.98L765.65 1518.43L753.911 1511.5L755.944 1508.05L767.684 1514.98ZM744.206 1501.12L742.173 1504.57L730.435 1497.64L732.468 1494.2L744.206 1501.12ZM720.729 1487.27L718.696 1490.71L706.957 1483.78L708.99 1480.34L720.729 1487.27ZM697.252 1473.41L695.219 1476.85L689.35 1473.39L691.383 1469.94L697.252 1473.41Z" fill="#CCCCCC"/>
<path d="M685.423 1466.43L683.389 1469.88L677.359 1466.32L679.393 1462.87L685.423 1466.43Z" fill="#CCCCCC"/>
<path d="M1033.36 1133.76L1031.38 1137.23L1025.29 1133.76L1027.28 1130.29L1033.36 1133.76Z" fill="#CCCCCC"/>
<path d="M348.735 744.027L346.757 747.504L340.677 744.044L342.655 740.567L348.735 744.027Z" fill="#CCCCCC"/>
<path d="M231.656 1060.71V1067.71H227.656V1060.71H231.656Z" fill="#4328E0"/>
<path d="M231.656 1039.94V1046.78H227.656V1039.94H231.656ZM231.656 1012.62V1026.28H227.656V1012.62H231.656ZM231.656 985.288V998.952H227.656V985.288H231.656ZM231.656 957.961V971.624H227.656V957.961H231.656ZM231.656 930.633V944.297H227.656V930.633H231.656ZM231.656 903.306V916.969H227.656V903.306H231.656ZM231.656 875.978V889.642H227.656V875.978H231.656ZM231.656 848.649V862.313H227.656V848.649H231.656ZM231.656 821.322V834.986H227.656V821.322H231.656ZM231.656 793.994V807.658H227.656V793.994H231.656ZM231.656 766.667V780.331H227.656V766.667H231.656ZM231.656 739.339V753.003H227.656V739.339H231.656ZM231.656 712.012V725.675H227.656V712.012H231.656ZM231.656 691.516V698.348H227.656V691.516H231.656Z" fill="#4328E0"/>
<path d="M231.656 677.546V684.546H227.656V677.546H231.656Z" fill="#4328E0"/>
<path d="M1437.57 1138.11V1145.11H1433.57V1138.11H1437.57Z" fill="#4328E0"/>
<path d="M1437.57 1117.71V1124.37H1433.57V1117.71H1437.57ZM1437.57 1091.09V1104.4H1433.57V1091.09H1437.57ZM1437.57 1064.48V1077.79H1433.57V1064.48H1437.57ZM1437.57 1037.86V1051.17H1433.57V1037.86H1437.57ZM1437.57 1011.25V1024.55H1433.57V1011.25H1437.57ZM1437.57 984.63V997.938H1433.57V984.63H1437.57ZM1437.57 958.014V971.322H1433.57V958.014H1437.57ZM1437.57 931.397V944.706H1433.57V931.397H1437.57ZM1437.57 911.436V918.09H1433.57V911.436H1437.57Z" fill="#4328E0"/>
<path d="M1437.57 897.565V904.565H1433.57V897.565H1437.57Z" fill="#4328E0"/>
<path d="M1094.95 644.936V651.936H1090.95V644.936H1094.95Z" fill="#4328E0"/>
<path d="M1094.93 630.443L1090.93 630.447L1090.92 623.366L1094.92 623.362L1094.93 630.443ZM1094.91 609.199L1090.91 609.203L1090.89 595.041L1094.89 595.037L1094.91 609.199ZM1094.88 580.875L1090.88 580.879L1090.87 566.717L1094.87 566.713L1094.88 580.875ZM1094.85 552.551L1090.85 552.555L1090.84 538.393L1094.84 538.389L1094.85 552.551ZM1094.83 524.226L1090.83 524.229L1090.81 510.067L1094.81 510.063L1094.83 524.226ZM1094.8 495.901L1090.8 495.905L1090.78 481.743L1094.78 481.739L1094.8 495.901ZM1094.77 467.577L1090.77 467.581L1090.76 453.419L1094.76 453.415L1094.77 467.577ZM1094.74 439.252L1090.74 439.256L1090.73 425.094L1094.73 425.09L1094.74 439.252ZM1094.72 410.928L1090.72 410.932L1090.7 396.77L1094.7 396.766L1094.72 410.928ZM1094.69 382.604L1090.69 382.607L1090.67 368.445L1094.67 368.441L1094.69 382.604ZM1094.66 354.278L1090.66 354.282L1090.65 340.12L1094.65 340.116L1094.66 354.278ZM1094.63 325.954L1090.63 325.958L1090.63 318.877L1094.63 318.873L1094.63 325.954Z" fill="#4328E0"/>
<path d="M1094.62 311.623L1090.62 311.629L1090.61 304.629L1094.61 304.623L1094.62 311.623Z" fill="#4328E0"/>
<path d="M870.756 645.056V652.056H866.756V645.056H870.756Z" fill="#4328E0"/>
<path d="M870.756 623.47V630.556H866.756V623.47H870.756ZM870.756 595.125V609.297H866.756V595.125H870.756ZM870.756 566.78V580.953H866.756V566.78H870.756ZM870.756 538.436V552.608H866.756V538.436H870.756ZM870.756 510.092V524.264H866.756V510.092H870.756ZM870.756 481.747V495.919H866.756V481.747H870.756ZM870.756 453.402V467.574H866.756V453.402H870.756ZM870.756 425.058V439.229H866.756V425.058H870.756ZM870.756 396.713V410.886H866.756V396.713H870.756ZM870.756 368.368V382.541H866.756V368.368H870.756ZM870.756 340.024V354.196H866.756V340.024H870.756ZM870.756 318.766V325.852H866.756V318.766H870.756Z" fill="#4328E0"/>
<path d="M870.756 304.516V311.516H866.756V304.516H870.756Z" fill="#4328E0"/>
<path opacity="0.25" d="M1030.4 1134.68L1142.58 1199.44L1254.42 1134.91L1254.59 1614.76H1030.57L1030.4 1134.68Z" fill="#D3D3D3"/>
<path d="M1259.31 1598.95V1605.95H1255.31V1598.95H1259.31Z" fill="#CCCCCC"/>
<path d="M1259.31 1577.79V1584.78H1255.31V1577.79H1259.31ZM1259.31 1549.85V1563.82H1255.31V1549.85H1259.31ZM1259.31 1521.9V1535.87H1255.31V1521.9H1259.31ZM1259.31 1493.96V1507.93H1255.31V1493.96H1259.31ZM1259.31 1466.01V1479.99H1255.31V1466.01H1259.31ZM1259.31 1438.07V1452.04H1255.31V1438.07H1259.31ZM1259.31 1410.13V1424.1H1255.31V1410.13H1259.31ZM1259.31 1382.18V1396.15H1255.31V1382.18H1259.31ZM1259.31 1354.24V1368.21H1255.31V1354.24H1259.31ZM1259.31 1326.29V1340.27H1255.31V1326.29H1259.31ZM1259.31 1298.35V1312.32H1255.31V1298.35H1259.31ZM1259.31 1270.41V1284.38H1255.31V1270.41H1259.31ZM1259.31 1242.46V1256.43H1255.31V1242.46H1259.31ZM1259.31 1214.52V1228.49H1255.31V1214.52H1259.31ZM1259.31 1186.58V1200.55H1255.31V1186.58H1259.31ZM1259.31 1158.63V1172.6H1255.31V1158.63H1259.31ZM1259.31 1130.69V1144.66H1255.31V1130.69H1259.31ZM1259.31 1102.74V1116.71H1255.31V1102.74H1259.31ZM1259.31 1081.79V1088.77H1255.31V1081.79H1259.31Z" fill="#CCCCCC"/>
<path d="M1259.31 1067.7V1074.7H1255.31V1067.7H1259.31Z" fill="#CCCCCC"/>
<path d="M1035.29 1575.28V1582.28H1031.29V1575.28H1035.29Z" fill="#CCCCCC"/>
<path d="M1035.29 1553.83V1560.91H1031.29V1553.83H1035.29ZM1035.29 1525.51V1539.67H1031.29V1525.51H1035.29ZM1035.29 1497.19V1511.35H1031.29V1497.19H1035.29ZM1035.29 1468.87V1483.03H1031.29V1468.87H1035.29ZM1035.29 1440.56V1454.71H1031.29V1440.56H1035.29ZM1035.29 1412.24V1426.4H1031.29V1412.24H1035.29ZM1035.29 1383.92V1398.08H1031.29V1383.92H1035.29ZM1035.29 1355.6V1369.76H1031.29V1355.6H1035.29ZM1035.29 1327.29V1341.44H1031.29V1327.29H1035.29ZM1035.29 1298.97V1313.13H1031.29V1298.97H1035.29ZM1035.29 1270.65V1284.81H1031.29V1270.65H1035.29ZM1035.29 1242.33V1256.49H1031.29V1242.33H1035.29ZM1035.29 1214.01V1228.17H1031.29V1214.01H1035.29ZM1035.29 1185.7V1199.86H1031.29V1185.7H1035.29ZM1035.29 1157.38V1171.54H1031.29V1157.38H1035.29ZM1035.29 1129.06V1143.22H1031.29V1129.06H1035.29ZM1035.29 1100.74V1114.9H1031.29V1100.74H1035.29ZM1035.29 1079.51V1086.58H1031.29V1079.51H1035.29Z" fill="#CCCCCC"/>
<path d="M1035.29 1065.32V1072.32H1031.29V1065.32H1035.29Z" fill="#CCCCCC"/>
<path d="M348.826 481.365L342.837 484.827L340.835 481.365L346.823 477.902L348.826 481.365ZM372.781 467.514L360.804 474.439L358.801 470.977L370.778 464.051L372.781 467.514ZM396.735 453.662L384.759 460.588L382.756 457.125L394.733 450.199L396.735 453.662ZM420.69 439.811L408.713 446.736L406.711 443.273L418.688 436.348L420.69 439.811ZM444.646 425.959L432.668 432.885L430.666 429.422L442.644 422.496L444.646 425.959ZM468.601 412.108L456.623 419.033L454.621 415.571L466.599 408.646L468.601 412.108ZM492.556 398.257L480.578 405.183L478.576 401.72L490.554 394.794L492.556 398.257ZM516.511 384.405L504.533 391.331L502.531 387.868L514.509 380.942L516.511 384.405ZM540.466 370.554L528.488 377.479L526.486 374.017L538.464 367.091L540.466 370.554ZM564.421 356.702L552.443 363.628L550.441 360.165L562.419 353.239L564.421 356.702ZM588.376 342.852L576.398 349.776L574.396 346.314L586.374 339.389L588.376 342.852ZM612.331 329L600.354 335.926L598.351 332.463L610.328 325.537L612.331 329ZM636.286 315.148L624.309 322.074L622.306 318.611L634.283 311.686L636.286 315.148ZM660.241 301.297L648.264 308.223L646.261 304.76L658.238 297.834L660.241 301.297ZM684.196 287.445L672.219 294.371L670.216 290.908L682.193 283.982L684.196 287.445ZM708.15 273.595L696.173 280.52L694.171 277.058L706.148 270.132L708.15 273.595ZM732.105 259.743L720.128 266.669L718.126 263.206L730.104 256.28L732.105 259.743ZM756.061 245.892L744.083 252.817L742.081 249.354L754.059 242.429L756.061 245.892ZM780.016 232.04L768.038 238.966L766.036 235.503L778.014 228.577L780.016 232.04ZM803.971 218.188L791.993 225.114L789.991 221.651L801.969 214.727L803.971 218.188ZM827.926 204.338L815.948 211.263L813.946 207.801L825.924 200.875L827.926 204.338ZM851.881 190.486L839.903 197.412L837.901 193.949L849.879 187.023L851.881 190.486ZM869.847 180.098L863.858 183.561L861.856 180.098L867.845 176.635L869.847 180.098Z" fill="#B5B5B5"/>
<path d="M460.666 676.045L454.677 679.508L452.675 676.045L458.663 672.582L460.666 676.045ZM484.621 662.193L472.644 669.119L470.641 665.656L482.618 658.73L484.621 662.193ZM508.575 648.342L496.599 655.268L494.596 651.805L506.573 644.879L508.575 648.342ZM532.53 634.49L520.553 641.416L518.551 637.953L530.528 631.027L532.53 634.49ZM556.485 620.639L544.508 627.564L542.506 624.102L554.483 617.176L556.485 620.639ZM580.44 606.788L568.463 613.713L566.461 610.251L578.438 603.325L580.44 606.788ZM604.396 592.937L592.418 599.862L590.416 596.399L602.394 589.474L604.396 592.937ZM628.351 579.085L616.373 586.011L614.371 582.548L626.349 575.622L628.351 579.085ZM652.306 565.233L640.328 572.159L638.326 568.696L650.304 561.771L652.306 565.233ZM676.261 551.382L664.283 558.308L662.281 554.845L674.259 547.919L676.261 551.382ZM700.216 537.531L688.238 544.456L686.236 540.994L698.214 534.068L700.216 537.531ZM724.171 523.68L712.193 530.605L710.19 527.143L722.168 520.217L724.171 523.68ZM748.126 509.828L736.148 516.754L734.146 513.291L746.123 506.365L748.126 509.828ZM772.081 495.977L760.104 502.902L758.101 499.439L770.078 492.514L772.081 495.977ZM796.036 482.125L784.059 489.051L782.056 485.588L794.033 478.662L796.036 482.125ZM819.99 468.274L808.013 475.199L806.011 471.737L817.988 464.812L819.99 468.274ZM843.945 454.423L831.968 461.349L829.966 457.886L841.943 450.96L843.945 454.423ZM867.9 440.571L855.923 447.497L853.921 444.034L865.898 437.108L867.9 440.571ZM891.855 426.72L879.878 433.646L877.876 430.183L889.854 423.257L891.855 426.72ZM915.811 412.868L903.833 419.794L901.831 416.331L913.809 409.405L915.811 412.868ZM939.766 399.018L927.788 405.942L925.786 402.48L937.764 395.555L939.766 399.018ZM963.721 385.166L951.743 392.092L949.741 388.629L961.719 381.703L963.721 385.166ZM981.687 374.777L975.698 378.24L973.696 374.777L979.685 371.314L981.687 374.777Z" fill="#B5B5B5"/>
<path d="M797.337 1398.21L791.228 1401.79L789.204 1398.34L795.313 1394.76L797.337 1398.21ZM821.773 1383.88L809.555 1391.04L807.531 1387.59L819.75 1380.43L821.773 1383.88ZM846.21 1369.55L833.991 1376.71L831.968 1373.26L844.187 1366.1L846.21 1369.55ZM870.646 1355.22L858.428 1362.38L856.404 1358.93L868.623 1351.77L870.646 1355.22ZM895.082 1340.89L882.864 1348.05L880.841 1344.6L893.059 1337.44L895.082 1340.89ZM919.519 1326.56L907.301 1333.72L905.277 1330.27L917.495 1323.11L919.519 1326.56ZM943.955 1312.23L931.737 1319.39L929.714 1315.94L941.932 1308.78L943.955 1312.23ZM968.392 1297.9L956.174 1305.06L954.15 1301.61L966.368 1294.45L968.392 1297.9ZM992.828 1283.57L980.61 1290.73L978.587 1287.28L990.805 1280.12L992.828 1283.57ZM1017.26 1269.24L1005.05 1276.4L1003.02 1272.95L1015.24 1265.78L1017.26 1269.24ZM1041.7 1254.9L1029.48 1262.07L1027.46 1258.62L1039.68 1251.45L1041.7 1254.9ZM1066.14 1240.57L1053.92 1247.74L1051.9 1244.29L1064.11 1237.12L1066.14 1240.57ZM1090.57 1226.24L1078.36 1233.41L1076.33 1229.96L1088.55 1222.79L1090.57 1226.24ZM1115.01 1211.91L1102.79 1219.08L1100.77 1215.63L1112.99 1208.46L1115.01 1211.91ZM1139.45 1197.58L1127.23 1204.75L1125.21 1201.3L1137.42 1194.13L1139.45 1197.58ZM1163.88 1183.25L1151.67 1190.42L1149.64 1186.97L1161.86 1179.8L1163.88 1183.25ZM1188.32 1168.92L1176.1 1176.09L1174.08 1172.64L1186.3 1165.47L1188.32 1168.92ZM1212.76 1154.59L1200.54 1161.76L1198.51 1158.31L1210.73 1151.14L1212.76 1154.59ZM1237.19 1140.26L1224.97 1147.43L1222.95 1143.98L1235.17 1136.81L1237.19 1140.26ZM1261.63 1125.93L1249.41 1133.1L1247.39 1129.65L1259.61 1122.48L1261.63 1125.93ZM1286.07 1111.6L1273.85 1118.77L1271.82 1115.32L1284.04 1108.15L1286.07 1111.6ZM1310.5 1097.27L1298.28 1104.44L1296.26 1100.99L1308.48 1093.82L1310.5 1097.27ZM1334.94 1082.94L1322.72 1090.11L1320.7 1086.66L1332.92 1079.49L1334.94 1082.94ZM1359.38 1068.61L1347.16 1075.78L1345.13 1072.33L1357.35 1065.16L1359.38 1068.61ZM1383.81 1054.28L1371.59 1061.45L1369.57 1058L1381.79 1050.83L1383.81 1054.28ZM1408.25 1039.95L1396.03 1047.12L1394.01 1043.66L1406.22 1036.5L1408.25 1039.95ZM1432.68 1025.62L1420.47 1032.78L1418.44 1029.33L1430.66 1022.17L1432.68 1025.62ZM1457.12 1011.29L1444.9 1018.45L1442.88 1015L1455.1 1007.84L1457.12 1011.29ZM1481.56 996.959L1469.34 1004.12L1467.32 1000.67L1479.53 993.509L1481.56 996.959ZM1505.99 982.629L1493.78 989.794L1491.75 986.343L1503.97 979.178L1505.99 982.629ZM1530.43 968.298L1518.21 975.463L1516.19 972.013L1528.41 964.848L1530.43 968.298ZM1548.76 957.551L1542.65 961.133L1540.62 957.683L1546.73 954.1L1548.76 957.551Z" fill="#B5B5B5"/>
<path d="M904.472 1884.58L898.438 1888.12L896.414 1884.67L902.448 1881.13L904.472 1884.58ZM928.608 1870.43L916.54 1877.5L914.517 1874.05L926.585 1866.98L928.608 1870.43ZM952.746 1856.27L940.677 1863.35L938.653 1859.9L950.722 1852.82L952.746 1856.27ZM976.883 1842.12L964.814 1849.19L962.791 1845.74L974.859 1838.67L976.883 1842.12ZM1001.02 1827.96L988.951 1835.04L986.928 1831.59L998.996 1824.51L1001.02 1827.96ZM1025.16 1813.81L1013.09 1820.88L1011.06 1817.43L1023.13 1810.36L1025.16 1813.81ZM1049.29 1799.65L1037.22 1806.73L1035.2 1803.28L1047.27 1796.2L1049.29 1799.65ZM1073.43 1785.5L1061.36 1792.57L1059.34 1789.12L1071.41 1782.04L1073.43 1785.5ZM1097.57 1771.34L1085.5 1778.42L1083.48 1774.97L1095.54 1767.89L1097.57 1771.34ZM1121.7 1757.18L1109.64 1764.26L1107.61 1760.81L1119.68 1753.73L1121.7 1757.18ZM1145.84 1743.03L1133.77 1750.11L1131.75 1746.66L1143.82 1739.58L1145.84 1743.03ZM1169.98 1728.87L1157.91 1735.95L1155.89 1732.5L1167.95 1725.42L1169.98 1728.87ZM1194.12 1714.72L1182.05 1721.8L1180.02 1718.34L1192.09 1711.27L1194.12 1714.72ZM1212.22 1704.1L1206.18 1707.64L1204.16 1704.19L1210.19 1700.65L1212.22 1704.1Z" fill="#B5B5B5"/>
<path d="M485.32 1884.52L479.178 1888.12L477.154 1884.67L483.297 1881.07L485.32 1884.52ZM509.891 1870.11L497.605 1877.31L495.582 1873.86L507.867 1866.66L509.891 1870.11ZM534.46 1855.7L522.175 1862.91L520.151 1859.46L532.437 1852.25L534.46 1855.7ZM559.03 1841.29L546.745 1848.5L544.722 1845.05L557.007 1837.84L559.03 1841.29ZM583.601 1826.88L571.315 1834.09L569.292 1830.64L581.577 1823.43L583.601 1826.88ZM608.17 1812.47L595.885 1819.68L593.861 1816.23L606.146 1809.02L608.17 1812.47ZM632.74 1798.07L620.455 1805.27L618.432 1801.82L630.717 1794.62L632.74 1798.07ZM657.311 1783.66L645.025 1790.86L643.002 1787.41L655.287 1780.21L657.311 1783.66ZM681.88 1769.25L669.596 1776.45L667.572 1773L679.856 1765.8L681.88 1769.25ZM706.45 1754.84L694.165 1762.04L692.142 1758.59L704.427 1751.39L706.45 1754.84ZM731.021 1740.43L718.735 1747.64L716.712 1744.19L728.997 1736.98L731.021 1740.43ZM755.59 1726.02L743.306 1733.23L741.282 1729.78L753.566 1722.57L755.59 1726.02ZM780.16 1711.61L767.875 1718.82L765.852 1715.37L778.137 1708.16L780.16 1711.61ZM804.73 1697.21L792.445 1704.41L790.422 1700.96L802.707 1693.75L804.73 1697.21ZM829.301 1682.8L817.016 1690L814.992 1686.55L827.277 1679.35L829.301 1682.8ZM853.87 1668.39L841.585 1675.59L839.562 1672.14L851.847 1664.94L853.87 1668.39ZM878.44 1653.98L866.155 1661.18L864.132 1657.73L876.417 1650.53L878.44 1653.98ZM903.011 1639.57L890.726 1646.77L888.702 1643.32L900.987 1636.12L903.011 1639.57ZM927.58 1625.16L915.296 1632.37L913.271 1628.92L925.557 1621.71L927.58 1625.16ZM952.15 1610.75L939.865 1617.96L937.842 1614.51L950.127 1607.3L952.15 1610.75ZM976.721 1596.34L964.436 1603.55L962.412 1600.1L974.697 1592.89L976.721 1596.34ZM1001.29 1581.94L989.006 1589.14L986.982 1585.69L999.267 1578.49L1001.29 1581.94ZM1025.86 1567.53L1013.58 1574.73L1011.55 1571.28L1023.84 1564.08L1025.86 1567.53ZM1044.29 1556.72L1038.15 1560.32L1036.12 1556.87L1042.26 1553.27L1044.29 1556.72Z" fill="#B5B5B5"/>
<path d="M692.499 1207.99L686.435 1211.48L684.438 1208.01L690.503 1204.52L692.499 1207.99ZM716.756 1194.02L704.628 1201L702.632 1197.54L714.761 1190.55L716.756 1194.02ZM741.014 1180.05L728.885 1187.04L726.889 1183.57L739.018 1176.59L741.014 1180.05ZM765.271 1166.09L753.143 1173.07L751.146 1169.6L763.275 1162.62L765.271 1166.09ZM789.528 1152.12L777.399 1159.1L775.404 1155.64L787.532 1148.65L789.528 1152.12ZM813.786 1138.15L801.657 1145.14L799.661 1141.67L811.79 1134.69L813.786 1138.15ZM838.043 1124.19L825.915 1131.17L823.919 1127.7L836.048 1120.72L838.043 1124.19ZM862.301 1110.22L850.172 1117.2L848.176 1113.74L860.305 1106.75L862.301 1110.22ZM886.559 1096.25L874.43 1103.24L872.434 1099.77L884.562 1092.79L886.559 1096.25ZM910.815 1082.29L898.687 1089.27L896.691 1085.8L908.819 1078.82L910.815 1082.29ZM935.073 1068.32L922.944 1075.3L920.948 1071.84L933.077 1064.85L935.073 1068.32ZM959.33 1054.35L947.202 1061.34L945.206 1057.87L957.335 1050.89L959.33 1054.35ZM983.588 1040.39L971.459 1047.37L969.463 1043.9L981.592 1036.92L983.588 1040.39ZM1007.85 1026.42L995.717 1033.4L993.721 1029.94L1005.85 1022.95L1007.85 1026.42ZM1032.1 1012.45L1019.97 1019.44L1017.98 1015.97L1030.11 1008.99L1032.1 1012.45ZM1056.36 998.485L1044.23 1005.47L1042.24 1002L1054.36 995.019L1056.36 998.485ZM1080.62 984.519L1068.49 991.502L1066.49 988.035L1078.62 981.052L1080.62 984.519ZM1104.88 970.552L1092.75 977.535L1090.75 974.068L1102.88 967.085L1104.88 970.552ZM1129.13 956.585L1117 963.568L1115.01 960.102L1127.14 953.118L1129.13 956.585ZM1153.39 942.618L1141.26 949.602L1139.27 946.135L1151.39 939.151L1153.39 942.618ZM1177.65 928.651L1165.52 935.635L1163.52 932.168L1175.65 925.185L1177.65 928.651ZM1201.91 914.685L1189.78 921.668L1187.78 918.201L1199.91 911.218L1201.91 914.685ZM1226.16 900.718L1214.03 907.701L1212.04 904.234L1224.17 897.251L1226.16 900.718ZM1250.42 886.751L1238.29 893.734L1236.29 890.268L1248.42 883.284L1250.42 886.751ZM1274.68 872.784L1262.55 879.768L1260.55 876.301L1272.68 869.317L1274.68 872.784ZM1298.93 858.817L1286.81 865.801L1284.81 862.334L1296.94 855.351L1298.93 858.817ZM1323.19 844.851L1311.06 851.834L1309.07 848.367L1321.2 841.384L1323.19 844.851ZM1347.45 830.884L1335.32 837.867L1333.33 834.4L1345.45 827.417L1347.45 830.884ZM1371.71 816.917L1359.58 823.9L1357.58 820.434L1369.71 813.45L1371.71 816.917ZM1395.96 802.95L1383.84 809.934L1381.84 806.467L1393.97 799.483L1395.96 802.95ZM1420.22 788.983L1408.09 795.967L1406.1 792.5L1418.23 785.518L1420.22 788.983ZM1438.41 778.509L1432.35 782L1430.35 778.534L1436.42 775.042L1438.41 778.509Z" fill="#B5B5B5"/>
<path opacity="0.25" d="M478.166 1886.4H897.426L1200.58 1708.62L1043.28 1555L478.166 1886.4Z" fill="#D3D3D3"/>
<path opacity="0.25" d="M936.546 579.216L1921.3 1.72559V259.586L1037.67 777.776L936.546 579.216Z" fill="#5B5BC4"/>
<path d="M1033.37 1134.68V1006.9L1144.06 1070.82V1198.58L1033.37 1134.68Z" fill="white"/>
<path d="M1032.37 1005.16C1032.98 1004.81 1033.75 1004.81 1034.37 1005.16L1145.06 1069.08C1145.68 1069.44 1146.06 1070.1 1146.06 1070.82V1198.58C1146.06 1199.29 1145.68 1199.95 1145.06 1200.31C1144.44 1200.67 1143.68 1200.66 1143.06 1200.31L1032.37 1136.41C1031.75 1136.05 1031.37 1135.39 1031.37 1134.68V1006.9L1031.37 1006.76C1031.42 1006.1 1031.79 1005.5 1032.37 1005.16ZM1035.37 1133.52L1142.06 1195.11V1071.97L1035.37 1010.36V1133.52Z" fill="#231F20"/>
<path d="M1144.06 1070.82L1254.42 1006.9V1134.91L1144.06 1198.58V1070.82Z" fill="white"/>
<path d="M1253.53 1005.1C1254.13 1004.81 1254.83 1004.83 1255.42 1005.16C1256.03 1005.52 1256.42 1006.18 1256.42 1006.9V1134.91C1256.42 1135.62 1256.04 1136.28 1255.42 1136.64L1145.06 1200.31C1144.44 1200.66 1143.68 1200.66 1143.06 1200.31C1142.44 1199.95 1142.06 1199.29 1142.06 1198.58V1070.82C1142.06 1070.1 1142.44 1069.44 1143.05 1069.08L1253.41 1005.16L1253.53 1005.1ZM1146.06 1071.97V1195.11L1252.42 1133.75V1010.36L1146.06 1071.97Z" fill="#231F20"/>
<path d="M1033.37 1006.9L1144.06 942.796L1254.42 1006.9L1144.06 1070.82L1033.37 1006.9Z" fill="white"/>
<path d="M1143.17 941.002C1143.77 940.707 1144.48 940.729 1145.06 941.066L1255.42 1005.17C1256.04 1005.52 1256.42 1006.18 1256.42 1006.9C1256.42 1007.61 1256.04 1008.27 1255.42 1008.63L1145.06 1072.55C1144.48 1072.88 1143.77 1072.9 1143.17 1072.61L1143.06 1072.55L1032.37 1008.63C1031.75 1008.27 1031.37 1007.61 1031.37 1006.9C1031.37 1006.18 1031.75 1005.52 1032.36 1005.17L1143.05 941.065L1143.17 941.002ZM1037.36 1006.89L1144.05 1068.5L1250.43 1006.89L1144.05 945.107L1037.36 1006.89Z" fill="#231F20"/>
<path d="M1144.06 1719.2C1206.6 1719.2 1257.31 1668.49 1257.31 1605.95C1257.31 1543.4 1206.6 1492.7 1144.06 1492.7C1081.51 1492.7 1030.81 1543.4 1030.81 1605.95C1030.81 1668.49 1081.51 1719.2 1144.06 1719.2Z" fill="white"/>
<path d="M1255.31 1605.95C1255.31 1544.5 1205.5 1494.7 1144.06 1494.7C1082.61 1494.7 1032.81 1544.5 1032.81 1605.95C1032.81 1667.39 1082.61 1717.2 1144.06 1717.2C1205.5 1717.2 1255.31 1667.39 1255.31 1605.95ZM1259.31 1605.95C1259.31 1669.6 1207.71 1721.2 1144.06 1721.2C1080.41 1721.2 1028.81 1669.6 1028.81 1605.95C1028.81 1542.29 1080.41 1490.7 1144.06 1490.7C1207.71 1490.7 1259.31 1542.29 1259.31 1605.95Z" fill="#231F20"/>
<path d="M1044.65 776L1038.68 779.501L1036.65 776.051L1042.62 772.55L1044.65 776ZM1068.53 761.995L1056.59 768.997L1054.57 765.547L1066.51 758.544L1068.53 761.995ZM1092.41 747.989L1080.47 754.992L1078.45 751.542L1090.39 744.539L1092.41 747.989ZM1116.29 733.984L1104.35 740.987L1102.33 737.537L1114.27 730.534L1116.29 733.984ZM1140.18 719.979L1128.23 726.982L1126.21 723.531L1138.15 716.529L1140.18 719.979ZM1164.06 705.975L1152.12 712.977L1150.09 709.526L1162.03 702.523L1164.06 705.975ZM1187.94 691.969L1176 698.972L1173.98 695.521L1185.92 688.519L1187.94 691.969ZM1211.82 677.964L1199.88 684.967L1197.86 681.516L1209.8 674.514L1211.82 677.964ZM1235.7 663.959L1223.76 670.962L1221.74 667.511L1233.68 660.509L1235.7 663.959ZM1259.58 649.954L1247.64 656.956L1245.62 653.506L1257.56 646.503L1259.58 649.954ZM1283.47 635.948L1271.53 642.951L1269.5 639.501L1281.44 632.498L1283.47 635.948ZM1307.35 621.943L1295.41 628.946L1293.38 625.495L1305.33 618.493L1307.35 621.943ZM1331.23 607.938L1319.29 614.94L1317.27 611.49L1329.21 604.488L1331.23 607.938ZM1355.11 593.934L1343.17 600.936L1341.15 597.485L1353.09 590.482L1355.11 593.934ZM1379 579.928L1367.05 586.931L1365.03 583.48L1376.97 576.478L1379 579.928ZM1402.88 565.923L1390.94 572.926L1388.91 569.475L1400.85 562.473L1402.88 565.923ZM1426.76 551.918L1414.82 558.92L1412.79 555.47L1424.74 548.467L1426.76 551.918ZM1450.64 537.912L1438.7 544.915L1436.68 541.465L1448.62 534.462L1450.64 537.912ZM1474.52 523.907L1462.58 530.91L1460.56 527.46L1472.5 520.457L1474.52 523.907ZM1498.4 509.902L1486.46 516.905L1484.44 513.454L1496.38 506.452L1498.4 509.902ZM1522.29 495.897L1510.34 502.899L1508.32 499.449L1520.26 492.446L1522.29 495.897ZM1546.17 481.892L1534.23 488.895L1532.2 485.444L1544.14 478.441L1546.17 481.892ZM1570.05 467.887L1558.11 474.89L1556.09 471.439L1568.03 464.437L1570.05 467.887ZM1593.93 453.882L1581.99 460.885L1579.97 457.434L1591.91 450.432L1593.93 453.882ZM1617.81 439.877L1605.87 446.879L1603.85 443.429L1615.79 436.426L1617.81 439.877ZM1641.7 425.871L1629.75 432.874L1627.73 429.424L1639.67 422.421L1641.7 425.871ZM1665.58 411.866L1653.64 418.869L1651.61 415.418L1663.55 408.416L1665.58 411.866ZM1689.46 397.861L1677.52 404.863L1675.5 401.413L1687.44 394.411L1689.46 397.861ZM1713.34 383.856L1701.4 390.858L1699.38 387.408L1711.32 380.405L1713.34 383.856ZM1737.22 369.851L1725.28 376.854L1723.26 373.403L1735.2 366.4L1737.22 369.851ZM1761.11 355.846L1749.16 362.849L1747.14 359.397L1759.08 352.396L1761.11 355.846ZM1784.99 341.841L1773.05 348.843L1771.02 345.393L1782.96 338.39L1784.99 341.841ZM1808.87 327.835L1796.93 334.838L1794.9 331.388L1806.85 324.385L1808.87 327.835ZM1832.75 313.83L1820.81 320.833L1818.79 317.383L1830.73 310.38L1832.75 313.83ZM1856.63 299.825L1844.69 306.828L1842.67 303.377L1854.61 296.375L1856.63 299.825ZM1880.51 285.82L1868.57 292.822L1866.55 289.372L1878.49 282.369L1880.51 285.82ZM1904.4 271.814L1892.46 278.817L1890.43 275.367L1902.37 268.364L1904.4 271.814ZM1922.31 261.312L1916.34 264.812L1914.31 261.362L1920.28 257.86L1922.31 261.312Z" fill="#4328E0"/>
<path d="M943.562 577.42L937.558 580.94L935.534 577.49L941.539 573.969L943.562 577.42ZM967.58 563.334L955.571 570.377L953.548 566.927L965.557 559.884L967.58 563.334ZM991.599 549.249L979.59 556.292L977.566 552.842L989.575 545.799L991.599 549.249ZM1015.62 535.164L1003.61 542.207L1001.58 538.756L1013.59 531.714L1015.62 535.164ZM1039.64 521.079L1027.63 528.122L1025.6 524.671L1037.61 517.629L1039.64 521.079ZM1063.65 506.994L1051.64 514.036L1049.62 510.586L1061.63 503.543L1063.65 506.994ZM1087.67 492.909L1075.66 499.951L1073.64 496.501L1085.65 489.458L1087.67 492.909ZM1111.69 478.823L1099.68 485.866L1097.66 482.416L1109.67 475.373L1111.69 478.823ZM1135.71 464.738L1123.7 471.781L1121.68 468.331L1133.69 461.288L1135.71 464.738ZM1159.73 450.653L1147.72 457.696L1145.69 454.245L1157.7 447.203L1159.73 450.653ZM1183.75 436.568L1171.74 443.611L1169.71 440.16L1181.72 433.118L1183.75 436.568ZM1207.76 422.483L1195.75 429.525L1193.73 426.075L1205.74 419.033L1207.76 422.483ZM1231.78 408.398L1219.77 415.44L1217.75 411.99L1229.76 404.947L1231.78 408.398ZM1255.8 394.312L1243.79 401.355L1241.77 397.905L1253.78 390.862L1255.8 394.312ZM1279.82 380.228L1267.81 387.271L1265.79 383.82L1277.79 376.777L1279.82 380.228ZM1303.84 366.143L1291.83 373.186L1289.8 369.735L1301.81 362.692L1303.84 366.143ZM1327.85 352.058L1315.85 359.101L1313.82 355.649L1325.83 348.607L1327.85 352.058ZM1351.87 337.973L1339.86 345.015L1337.84 341.564L1349.85 334.522L1351.87 337.973ZM1375.89 323.888L1363.88 330.93L1361.86 327.479L1373.87 320.437L1375.89 323.888ZM1399.91 309.803L1387.9 316.845L1385.88 313.395L1397.89 306.352L1399.91 309.803ZM1423.93 295.717L1411.92 302.76L1409.9 299.31L1421.9 292.267L1423.93 295.717ZM1447.95 281.632L1435.94 288.675L1433.91 285.225L1445.92 278.182L1447.95 281.632ZM1471.96 267.547L1459.96 274.59L1457.93 271.139L1469.94 264.097L1471.96 267.547ZM1495.98 253.462L1483.97 260.505L1481.95 257.054L1493.96 250.012L1495.98 253.462ZM1520 239.377L1507.99 246.419L1505.97 242.969L1517.98 235.927L1520 239.377ZM1544.02 225.292L1532.01 232.334L1529.99 228.884L1542 221.841L1544.02 225.292ZM1568.04 211.207L1556.03 218.249L1554 214.799L1566.01 207.756L1568.04 211.207ZM1592.06 197.121L1580.05 204.164L1578.02 200.714L1590.03 193.671L1592.06 197.121ZM1616.07 183.036L1604.06 190.079L1602.04 186.629L1614.05 179.586L1616.07 183.036ZM1640.09 168.951L1628.08 175.994L1626.06 172.543L1638.07 165.501L1640.09 168.951ZM1664.11 154.866L1652.1 161.909L1650.08 158.458L1662.09 151.416L1664.11 154.866ZM1688.13 140.781L1676.12 147.823L1674.1 144.373L1686.11 137.331L1688.13 140.781ZM1712.15 126.696L1700.14 133.738L1698.11 130.288L1710.12 123.245L1712.15 126.696ZM1736.17 112.61L1724.16 119.653L1722.13 116.203L1734.14 109.16L1736.17 112.61ZM1760.18 98.5254L1748.17 105.568L1746.15 102.118L1758.16 95.0752L1760.18 98.5254ZM1784.2 84.4404L1772.19 91.4834L1770.17 88.0322L1782.18 80.9902L1784.2 84.4404ZM1808.22 70.3555L1796.21 77.3984L1794.19 73.9473L1806.2 66.9053L1808.22 70.3555ZM1832.24 56.2705L1820.23 63.3125L1818.21 59.8623L1830.21 52.8203L1832.24 56.2705ZM1856.26 42.1855L1844.25 49.2275L1842.22 45.7773L1854.23 38.7344L1856.26 42.1855ZM1880.28 28.0996L1868.27 35.1426L1866.24 31.6924L1878.25 24.6494L1880.28 28.0996ZM1904.29 14.0146L1892.28 21.0576L1890.26 17.6074L1902.27 10.5645L1904.29 14.0146ZM1922.31 3.45117L1916.3 6.97266L1914.28 3.52148L1920.28 0L1922.31 3.45117Z" fill="#4328E0"/>
<path d="M1435.57 510.426V639.906V639.916V893.546L1547.75 958.296V704.676V575.196L1435.57 510.426Z" fill="white"/>
<path d="M1433.57 510.426C1433.57 509.712 1433.95 509.051 1434.57 508.694C1435.19 508.336 1435.95 508.336 1436.57 508.694L1548.75 573.464C1549.36 573.821 1549.75 574.482 1549.75 575.197V958.296C1549.75 959.011 1549.36 959.67 1548.75 960.028C1548.13 960.385 1547.37 960.385 1546.75 960.029L1434.57 895.279C1433.95 894.921 1433.57 894.261 1433.57 893.546V510.426ZM1437.57 892.391L1545.75 954.831V576.35L1437.57 513.89V892.391Z" fill="#231F20"/>
<path d="M1547.75 575.196V704.676V958.296L1659.59 893.766V640.146V639.906V510.426L1547.75 575.196Z" fill="white"/>
<path d="M1657.59 513.895L1549.75 576.349V954.832L1657.59 892.61V513.895ZM1661.59 893.766C1661.59 894.48 1661.2 895.141 1660.59 895.498L1548.75 960.028C1548.13 960.385 1547.36 960.385 1546.75 960.027C1546.13 959.67 1545.75 959.01 1545.75 958.296V575.196C1545.75 574.483 1546.13 573.822 1546.74 573.465L1658.58 508.695L1658.7 508.632C1659.3 508.338 1660 508.359 1660.58 508.693C1661.2 509.05 1661.59 509.711 1661.59 510.426V893.766Z" fill="#231F20"/>
<path d="M1435.57 510.426L1547.75 445.466L1659.59 510.426L1547.75 575.196L1435.57 510.426Z" fill="white"/>
<path d="M1546.86 443.672C1547.46 443.377 1548.17 443.399 1548.75 443.736L1660.59 508.696C1661.21 509.054 1661.59 509.714 1661.59 510.427C1661.59 511.14 1661.21 511.799 1660.59 512.156L1548.75 576.927C1548.13 577.285 1547.37 577.286 1546.75 576.928L1434.57 512.158C1433.95 511.801 1433.57 511.141 1433.57 510.427C1433.57 509.713 1433.95 509.053 1434.56 508.695L1546.74 443.735L1546.86 443.672ZM1439.56 510.422L1547.74 572.885L1655.6 510.423L1547.74 447.777L1439.56 510.422Z" fill="#231F20"/>
<path d="M229.656 1205.52V1076.02L678.376 1335.12V1464.6L229.656 1205.52Z" fill="#543CE5"/>
<path d="M228.656 1074.28C229.275 1073.93 230.038 1073.93 230.656 1074.28L679.376 1333.38C679.995 1333.74 680.376 1334.4 680.376 1335.12V1464.6C680.376 1465.31 679.995 1465.97 679.376 1466.33C678.757 1466.69 677.995 1466.68 677.376 1466.33L228.656 1207.25C228.037 1206.89 227.656 1206.23 227.656 1205.52V1076.02L227.661 1075.88C227.705 1075.22 228.076 1074.62 228.656 1074.28ZM231.656 1204.36L676.376 1461.13V1336.27L231.656 1079.48V1204.36Z" fill="#231F20"/>
<path d="M678.376 1335.12L790.216 1270.34V1400.07L678.376 1464.6V1335.12Z" fill="#543CE5"/>
<path d="M789.331 1268.54C789.927 1268.25 790.634 1268.27 791.215 1268.6C791.834 1268.96 792.216 1269.62 792.216 1270.34V1400.07C792.216 1400.78 791.834 1401.44 791.216 1401.8L679.376 1466.33C678.757 1466.69 677.995 1466.69 677.376 1466.33C676.757 1465.97 676.376 1465.31 676.376 1464.6V1335.12C676.376 1334.4 676.757 1333.74 677.374 1333.39L789.214 1268.61L789.331 1268.54ZM680.376 1336.27V1461.13L788.216 1398.91V1273.81L680.376 1336.27Z" fill="#231F20"/>
<path d="M229.656 1076.02L341.836 1011.06L790.216 1270.34L678.376 1335.12L229.656 1076.02Z" fill="#543CE5"/>
<path d="M340.952 1009.26C341.549 1008.97 342.257 1008.99 342.838 1009.32L791.218 1268.6C791.835 1268.96 792.216 1269.62 792.216 1270.33C792.216 1271.05 791.836 1271.71 791.219 1272.07L679.379 1336.85C678.76 1337.21 677.996 1337.21 677.376 1336.85L228.656 1077.75C228.038 1077.39 227.657 1076.73 227.656 1076.02C227.656 1075.3 228.036 1074.64 228.654 1074.29L340.834 1009.33L340.952 1009.26ZM233.651 1076.01L678.374 1332.8L786.223 1270.34L341.836 1013.37L233.651 1076.01Z" fill="#231F20"/>
<path d="M1435.74 1274.61V1145.11L1547.92 1209.88V1339.36L1435.74 1274.61Z" fill="#543CE5"/>
<path d="M1434.74 1143.37C1435.36 1143.02 1436.12 1143.02 1436.74 1143.37L1548.92 1208.14C1549.53 1208.5 1549.92 1209.16 1549.92 1209.88V1339.36C1549.92 1340.07 1549.53 1340.73 1548.92 1341.09C1548.3 1341.45 1547.54 1341.44 1546.92 1341.09L1434.74 1276.34C1434.12 1275.98 1433.74 1275.32 1433.74 1274.61V1145.11C1433.74 1144.39 1434.12 1143.73 1434.74 1143.37ZM1437.74 1273.45L1545.92 1335.89V1211.03L1437.74 1148.57V1273.45Z" fill="#231F20"/>
<path d="M1547.92 1209.88L1659.76 1145.11V1274.83L1547.92 1339.36V1209.88Z" fill="#543CE5"/>
<path d="M1658.87 1143.31C1659.47 1143.02 1660.17 1143.04 1660.75 1143.37C1661.37 1143.73 1661.76 1144.39 1661.76 1145.11V1274.83C1661.76 1275.54 1661.37 1276.2 1660.76 1276.56L1548.92 1341.09C1548.3 1341.44 1547.53 1341.44 1546.92 1341.09C1546.3 1340.73 1545.92 1340.07 1545.92 1339.36V1209.88C1545.92 1209.16 1546.3 1208.5 1546.91 1208.14L1658.75 1143.38L1658.87 1143.31ZM1549.92 1211.03V1335.89L1657.76 1273.67V1148.57L1549.92 1211.03Z" fill="#231F20"/>
<path d="M1435.74 1145.11L1547.92 1080.15L1659.76 1145.11L1547.92 1209.88L1435.74 1145.11Z" fill="#543CE5"/>
<path d="M1547.03 1078.35C1547.63 1078.06 1548.34 1078.08 1548.92 1078.42L1660.76 1143.38C1661.38 1143.73 1661.76 1144.39 1661.76 1145.11C1661.76 1145.82 1661.38 1146.48 1660.76 1146.84L1548.92 1211.61C1548.3 1211.97 1547.54 1211.97 1546.92 1211.61L1434.74 1146.84C1434.12 1146.48 1433.74 1145.82 1433.74 1145.11C1433.74 1144.39 1434.12 1143.73 1434.73 1143.38L1546.91 1078.42L1547.03 1078.35ZM1439.73 1145.1L1547.91 1207.56L1655.77 1145.1L1547.91 1082.46L1439.73 1145.1Z" fill="#231F20"/>
<path d="M980.686 794.635C1042.55 794.635 1092.7 744.487 1092.7 682.625C1092.7 620.764 1042.55 570.615 980.686 570.615C918.824 570.615 868.676 620.764 868.676 682.625C868.676 744.487 918.824 794.635 980.686 794.635Z" fill="#543CE5"/>
<path d="M1090.7 682.625C1090.7 621.868 1041.44 572.615 980.686 572.615C919.929 572.615 870.676 621.868 870.676 682.625C870.676 743.382 919.929 792.636 980.686 792.636C1041.44 792.636 1090.7 743.382 1090.7 682.625ZM1094.7 682.625C1094.7 745.591 1043.65 796.636 980.686 796.636C917.72 796.636 866.676 745.591 866.676 682.625C866.676 619.659 917.72 568.615 980.686 568.615C1043.65 568.615 1094.7 619.659 1094.7 682.625Z" fill="#231F20"/>
<path opacity="0.25" d="M1.01562 1070.82L231.146 1202.94V1075.16L341.836 1011.06L1.29562 810.436L1.01562 1070.82Z" fill="#5B5BC4"/>
</svg>
