<svg width="1231" height="1524" viewBox="0 0 1231 1524" fill="none" xmlns="http://www.w3.org/2000/svg">
<g clip-path="url(#clip0_938_100216)">
<path opacity="0.1" d="M925.14 6.96997L165.49 5.15997L223.02 488.79L33.4399 595.22L620.34 1483.28L849.3 1350.01L1228.34 1235.69V886.85L1207.39 201.48L925.14 6.96997Z" fill="#594AED"/>
<path d="M896.31 736.22L849.3 43.48C849.3 36.42 899.93 11.02 905.13 7.64997C910.82 3.95997 918.39 3.20997 925.14 6.96997L1213.48 167.9C1222.66 173.02 1228.34 182.71 1228.34 193.22V905.53C1228.34 907.89 1227.35 910.49 1226.04 912.9C1223.33 917.87 1219.24 921.95 1214.39 924.88L1166.94 953.54L911.17 761.54C901.99 756.42 896.3 746.73 896.3 736.22H896.31Z" fill="#594AED"/>
<path d="M1226.34 193.22C1226.34 183.434 1221.05 174.413 1212.51 169.647L1212.5 169.646L924.165 8.71628V8.7153C918.111 5.34417 911.334 6.00954 906.218 9.32761V9.32858C904.83 10.2278 900.573 12.5086 895.165 15.436C889.689 18.4007 882.891 22.1015 876.262 25.9145C869.621 29.7337 863.197 33.6384 858.449 37.0083C856.068 38.6981 854.172 40.2101 852.891 41.4751C852.248 42.1091 851.812 42.6315 851.549 43.0385C851.378 43.3023 851.323 43.4518 851.306 43.5034L898.306 736.084C898.312 736.183 898.308 736.281 898.301 736.377C898.356 745.949 903.479 754.771 911.746 759.567L912.144 759.793L912.26 759.863C912.298 759.887 912.334 759.914 912.37 759.941L1167.06 951.129L1213.36 923.168L1213.78 922.906C1218.17 920.164 1221.84 916.43 1224.28 911.945L1224.51 911.513C1225.63 909.357 1226.34 907.274 1226.34 905.53V193.22ZM1230.34 905.53C1230.34 908.389 1229.16 911.344 1227.8 913.855L1227.8 913.858C1224.99 919.001 1220.82 923.225 1215.9 926.298L1215.42 926.592L1167.97 955.252C1167.28 955.674 1166.39 955.629 1165.74 955.139L910.07 763.215C900.331 757.724 894.3 747.407 894.3 736.22C894.3 736.205 894.301 736.19 894.302 736.174L847.305 43.6157L847.3 43.4799C847.3 42.4767 847.731 41.5729 848.19 40.8637C848.671 40.1215 849.328 39.3711 850.08 38.6284C851.588 37.1399 853.688 35.4833 856.135 33.7466C861.043 30.263 867.6 26.2823 874.268 22.4477C880.945 18.607 887.781 14.8847 893.261 11.9184C898.115 9.29056 901.8 7.31003 903.458 6.32956L904.042 5.97116C910.305 1.90995 918.668 1.07564 926.113 5.22311H926.114L1214.45 166.154L1214.91 166.414C1224.46 171.951 1230.34 182.162 1230.34 193.22V905.53Z" fill="#231F20"/>
<path d="M845.93 766.76V54.44C845.93 39.64 861.84 30.3 874.76 37.51L1163.1 198.44C1172.28 203.56 1177.96 213.25 1177.96 223.76V936.07C1177.96 950.87 1162.05 960.21 1149.13 953L860.79 792.09C851.61 786.97 845.92 777.28 845.92 766.77L845.93 766.76Z" fill="white"/>
<path d="M843.93 54.4399C843.93 38.1136 861.481 27.8094 875.734 35.7631L1164.07 196.694L1164.53 196.954C1174.08 202.491 1179.96 212.702 1179.96 223.76V936.07C1179.96 952.141 1162.95 962.377 1148.83 955.106L1148.16 954.747L859.815 793.836C850.002 788.363 843.92 778.005 843.92 766.77L843.93 766.573V54.4399ZM847.93 766.76C847.93 766.817 847.926 766.873 847.921 766.929C847.978 776.653 853.264 785.602 861.764 790.343H861.765L1150.1 951.253L1150.65 951.545C1162.13 957.456 1175.96 949.136 1175.96 936.07V223.76C1175.96 213.974 1170.67 204.953 1162.13 200.187L1162.12 200.186L873.785 39.2563C862.199 32.7906 847.93 41.1665 847.93 54.4399V766.76Z" fill="#231F20"/>
<path d="M865.6 768.04V67.79L1148.29 225.56C1154.46 229.01 1158.29 235.52 1158.29 242.59V942.82L875.6 785.06C869.43 781.61 865.6 775.1 865.6 768.03V768.04Z" fill="white"/>
<path d="M1156.29 242.59C1156.29 236.246 1152.85 230.403 1147.31 227.306V227.305L867.6 71.1953V768.04C867.603 774.379 871.039 780.217 876.574 783.313L1156.29 939.413V242.59ZM1160.29 942.82C1160.29 943.529 1159.91 944.186 1159.3 944.545C1158.69 944.904 1157.94 944.912 1157.32 944.566L874.625 786.807L874.623 786.806C868.036 783.122 863.867 776.271 863.613 768.759L863.6 768.03V67.79C863.6 67.0807 863.976 66.4245 864.587 66.0654C865.199 65.7063 865.955 65.6982 866.574 66.0439L1149.26 223.813L1149.27 223.814L1149.9 224.181C1156.33 228.066 1160.29 235.037 1160.29 242.59V942.82Z" fill="#231F20"/>
<path d="M1019.19 782.16C1013.64 767.97 1001.31 759.54 991.65 763.33C981.99 767.12 978.66 781.7 984.21 795.9C989.76 810.09 1002.09 818.52 1011.75 814.73C1021.41 810.94 1024.74 796.36 1019.19 782.16Z" fill="#594AED"/>
<path d="M990.919 761.469C996.547 759.261 1002.74 760.696 1008.09 764.351C1013.45 768.014 1018.15 774.012 1021.05 781.432H1021.05L1021.32 782.129C1023.99 789.33 1024.52 796.659 1023.12 802.794C1021.68 809.115 1018.11 814.384 1012.48 816.592C1006.85 818.8 1000.66 817.365 995.31 813.709C990.12 810.161 985.544 804.421 982.624 797.32L982.347 796.629V796.628C979.445 789.204 978.83 781.599 980.277 775.266C981.721 768.945 985.292 763.677 990.919 761.469ZM1005.83 767.653C1001.21 764.494 996.412 763.61 992.38 765.192C988.348 766.774 985.425 770.691 984.176 776.157C982.93 781.611 983.424 788.396 986.073 795.172L986.326 795.802C988.986 802.272 993.101 807.352 997.568 810.406C1002.19 813.565 1006.99 814.45 1011.02 812.868C1015.05 811.286 1017.98 807.37 1019.22 801.903C1020.47 796.449 1019.98 789.664 1017.33 782.889L1017.07 782.258C1014.41 775.788 1010.3 770.707 1005.83 767.653Z" fill="#231F20"/>
<path d="M1015.97 182.52C1013.87 177.14 1009.2 173.95 1005.54 175.39C1001.88 176.83 1000.62 182.35 1002.72 187.73C1004.82 193.11 1009.49 196.3 1013.15 194.86C1016.81 193.42 1018.07 187.9 1015.97 182.52Z" fill="#594AED"/>
<path d="M1004.81 173.529C1007.44 172.495 1010.22 173.207 1012.47 174.746C1014.73 176.292 1016.66 178.778 1017.83 181.792C1019.01 184.806 1019.28 187.941 1018.67 190.613C1018.06 193.273 1016.51 195.688 1013.88 196.721C1011.25 197.755 1008.47 197.042 1006.22 195.503C1003.96 193.958 1002.03 191.472 1000.86 188.457C999.68 185.444 999.41 182.309 1000.02 179.637C1000.63 176.977 1002.18 174.562 1004.81 173.529ZM1010.21 178.048C1008.69 177.007 1007.3 176.845 1006.27 177.251C1005.24 177.658 1004.33 178.723 1003.92 180.528C1003.51 182.321 1003.66 184.636 1004.58 187.002C1005.51 189.367 1006.96 191.167 1008.48 192.201C1010 193.242 1011.39 193.405 1012.42 192.998C1013.45 192.591 1014.36 191.527 1014.77 189.722C1015.18 187.929 1015.03 185.614 1014.11 183.247C1013.18 180.882 1011.73 179.083 1010.21 178.048Z" fill="#231F20"/>
<path d="M156.67 373.58L109.66 40.99C109.66 33.93 160.29 8.52998 165.49 5.15998C171.18 1.46998 178.75 0.719983 185.5 4.47998L602.22 247.32C611.4 252.44 617.08 262.13 617.08 272.64V624.79C617.08 627.15 616.09 629.75 614.78 632.16C612.07 637.13 607.98 641.21 603.13 644.14L555.68 672.8L171.54 398.9C162.36 393.78 156.67 384.09 156.67 373.58Z" fill="#594AED"/>
<path d="M615.08 272.64C615.08 263.007 609.955 254.115 601.644 249.294L601.246 249.067L601.213 249.048L184.518 6.22235C178.466 2.85528 171.693 3.52071 166.578 6.83759V6.83856C165.19 7.7378 160.933 10.0186 155.525 12.946C150.049 15.9106 143.252 19.6114 136.622 23.4245C129.982 27.2436 123.557 31.1484 118.809 34.5183C116.429 36.2081 114.532 37.7201 113.251 38.9851C112.609 39.619 112.173 40.1415 111.909 40.5485C111.768 40.7665 111.705 40.9061 111.678 40.9772L158.65 373.3L158.665 373.44C158.668 373.487 158.67 373.533 158.67 373.58C158.67 383.212 163.803 392.104 172.116 396.926L172.515 397.153L172.701 397.271L555.77 670.408L602.096 642.428L602.522 642.166C606.91 639.423 610.578 635.689 613.024 631.203C614.279 628.895 615.08 626.65 615.08 624.79V272.64ZM619.08 624.79C619.08 627.649 617.902 630.604 616.537 633.115L616.536 633.118C613.731 638.261 609.559 642.485 604.642 645.558L604.164 645.852L556.714 674.512C556.031 674.925 555.168 674.891 554.518 674.428L170.459 400.586C160.752 395.122 154.725 384.867 154.671 373.731L107.68 41.2702C107.673 41.2239 107.668 41.1772 107.665 41.1306L107.66 40.9899C107.66 39.9866 108.092 39.0828 108.551 38.3737C109.031 37.6315 109.688 36.8811 110.44 36.1384C111.948 34.6498 114.048 32.9933 116.495 31.2565C121.403 27.773 127.961 23.7923 134.628 19.9577C141.306 16.117 148.142 12.3947 153.621 9.42841C158.475 6.80054 162.16 4.82001 163.818 3.83954L164.402 3.48114C170.469 -0.453072 178.507 -1.3595 185.772 2.3581L186.474 2.7331L186.507 2.75165L603.194 245.573L603.651 245.834C613.197 251.371 619.08 261.582 619.08 272.64V624.79Z" fill="#231F20"/>
<path d="M106.29 404.12V51.95C106.29 37.15 122.2 27.81 135.12 35.02L551.84 277.86C561.02 282.98 566.7 292.67 566.7 303.18V655.33C566.7 670.13 550.79 679.47 537.87 672.26L121.16 429.44C111.98 424.32 106.29 414.63 106.29 404.12Z" fill="white"/>
<path d="M104.29 404.12V51.9499C104.29 35.8787 121.297 25.6431 135.424 32.9137L136.095 33.2731L136.127 33.2917L552.814 276.113L553.271 276.374C562.817 281.911 568.7 292.122 568.7 303.18V655.33C568.7 671.401 551.693 681.637 537.565 674.366L536.896 674.007C536.885 674 536.874 673.994 536.863 673.988L120.186 431.186L119.729 430.926C110.184 425.389 104.29 415.179 104.29 404.12ZM108.29 404.12C108.29 413.752 113.424 422.644 121.736 427.466L122.134 427.693L122.167 427.712L538.845 670.513L539.39 670.805C550.874 676.716 564.7 668.396 564.7 655.33V303.18C564.7 293.547 559.575 284.655 551.264 279.834L550.866 279.607C550.855 279.601 550.844 279.594 550.833 279.588L134.146 36.7663L133.601 36.4743C122.116 30.5633 108.29 38.8837 108.29 51.9499V404.12Z" fill="#231F20"/>
<path d="M896.31 1302.23L849.3 1085.95C849.3 1078.89 899.93 1053.49 905.13 1050.12C910.82 1046.43 918.39 1045.68 925.14 1049.44L1213.48 1210.37C1222.66 1215.49 1228.34 1225.18 1228.34 1235.69V1471.53C1228.34 1473.89 1227.35 1476.49 1226.04 1478.9C1223.33 1483.87 1219.24 1487.95 1214.39 1490.88L1166.94 1519.54L911.17 1327.54C901.99 1322.42 896.3 1312.73 896.3 1302.22L896.31 1302.23Z" fill="#594AED"/>
<path d="M1226.34 1235.69C1226.34 1225.9 1221.05 1216.88 1212.51 1212.12L1212.5 1212.12L924.165 1051.19V1051.19C918.111 1047.81 911.334 1048.48 906.218 1051.8V1051.8C904.83 1052.7 900.573 1054.98 895.165 1057.91C889.689 1060.87 882.891 1064.57 876.262 1068.38C869.621 1072.2 863.197 1076.11 858.449 1079.48C856.068 1081.17 854.172 1082.68 852.891 1083.95C852.248 1084.58 851.812 1085.1 851.549 1085.51C851.43 1085.69 851.368 1085.82 851.335 1085.9L898.265 1301.81C898.308 1302 898.317 1302.2 898.301 1302.4C898.364 1311.96 903.485 1320.77 911.746 1325.57L912.144 1325.79L912.26 1325.86C912.297 1325.89 912.334 1325.91 912.37 1325.94L1167.06 1517.13L1213.36 1489.17L1213.78 1488.91C1218.17 1486.16 1221.84 1482.43 1224.28 1477.94C1225.54 1475.63 1226.34 1473.39 1226.34 1471.53V1235.69ZM1230.34 1471.53C1230.34 1474.39 1229.16 1477.34 1227.8 1479.86L1227.8 1479.86C1224.99 1485 1220.82 1489.22 1215.9 1492.3L1215.42 1492.59L1167.97 1521.25C1167.28 1521.67 1166.39 1521.63 1165.74 1521.14L910.07 1329.22C900.385 1323.75 894.367 1313.52 894.301 1302.41L847.346 1086.37C847.331 1086.3 847.319 1086.23 847.312 1086.16L847.3 1085.95C847.3 1084.95 847.731 1084.04 848.19 1083.33C848.671 1082.59 849.328 1081.84 850.08 1081.1C851.588 1079.61 853.688 1077.95 856.135 1076.22C861.043 1072.73 867.6 1068.75 874.268 1064.92C880.945 1061.08 887.781 1057.35 893.261 1054.39C898.808 1051.39 902.829 1049.23 904.042 1048.44L904.635 1048.07C910.826 1044.33 918.9 1043.68 926.113 1047.69H926.114L1214.45 1208.62L1214.91 1208.88C1224.46 1214.42 1230.34 1224.63 1230.34 1235.69V1471.53Z" fill="#231F20"/>
<path d="M845.93 1332.77V1096.91C845.93 1082.11 861.84 1072.77 874.76 1079.98L1163.1 1240.91C1172.28 1246.03 1177.96 1255.72 1177.96 1266.23V1502.07C1177.96 1516.87 1162.05 1526.21 1149.13 1519L860.79 1358.09C851.61 1352.97 845.92 1343.28 845.92 1332.77H845.93Z" fill="white"/>
<path d="M843.93 1096.91C843.93 1080.58 861.481 1070.28 875.734 1078.23L1164.07 1239.16L1164.53 1239.42C1174.08 1244.96 1179.96 1255.17 1179.96 1266.23V1502.07C1179.96 1518.14 1162.95 1528.38 1148.83 1521.11L1148.16 1520.75L859.815 1359.84C850.002 1354.36 843.92 1344.01 843.92 1332.77L843.93 1332.58V1096.91ZM847.93 1332.77L847.921 1332.94C847.983 1342.66 853.268 1351.6 861.764 1356.34H861.765L1150.1 1517.25L1150.65 1517.55C1162.13 1523.46 1175.96 1515.14 1175.96 1502.07V1266.23C1175.96 1256.44 1170.67 1247.42 1162.13 1242.66L1162.12 1242.66L873.785 1081.73C862.199 1075.26 847.93 1083.64 847.93 1096.91V1332.77Z" fill="#231F20"/>
<path d="M988.07 1265.62C994.04 1263.27 1000.8 1264.5 1007.03 1268.39L1015.41 1180.6C996.64 1171.74 977.11 1169.84 959.5 1176.76C939.68 1184.55 925.64 1202.19 918.41 1225.13L977.06 1277.51C979.25 1271.9 983 1267.62 988.08 1265.62H988.07Z" fill="#6950E4"/>
<path d="M959.625 1174.57C977.63 1167.8 997.412 1169.89 1016.26 1178.79C1017.03 1179.15 1017.48 1179.95 1017.4 1180.79L1009.02 1268.58C1008.96 1269.27 1008.54 1269.88 1007.92 1270.18C1007.29 1270.49 1006.56 1270.45 1005.97 1270.09C1000.13 1266.44 994.064 1265.43 988.86 1267.46C988.844 1267.47 988.829 1267.47 988.812 1267.48C984.363 1269.23 980.959 1273.02 978.923 1278.24C978.684 1278.85 978.162 1279.3 977.525 1279.45C976.888 1279.61 976.216 1279.44 975.727 1279L917.078 1226.62C916.491 1226.1 916.266 1225.28 916.503 1224.53C923.863 1201.18 938.244 1182.97 958.768 1174.9L959.625 1174.57ZM1013.28 1181.82C995.582 1173.78 977.418 1172.15 961.029 1178.32L960.231 1178.62C941.465 1186 927.919 1202.58 920.713 1224.5L976.355 1274.2C978.772 1269.46 982.423 1265.74 987.229 1263.81C987.265 1263.79 987.301 1263.77 987.338 1263.76C993.138 1261.48 999.464 1262.25 1005.33 1265.15L1013.28 1181.82Z" fill="#231F20"/>
<path d="M1025.03 1322.11C1022.79 1327.23 1019.2 1331.13 1014.42 1333C1004.44 1336.92 992.28 1330.88 984.02 1319.03C976.11 1333.72 962.42 1359.18 953.67 1375.76C982.19 1410.01 1020.34 1426.33 1052.19 1413.82C1074.98 1404.87 1090.13 1382.89 1096.07 1354.79L1025.04 1322.11H1025.03Z" fill="#BEB6E4"/>
<path d="M983.905 1317.03C984.599 1316.99 985.264 1317.32 985.661 1317.89L986.04 1318.42C994.051 1329.58 1005.12 1334.5 1013.69 1331.14L1013.69 1331.14L1014.08 1330.98C1018.08 1329.28 1021.19 1325.9 1023.2 1321.31L1023.26 1321.17C1023.61 1320.52 1024.29 1320.11 1025.03 1320.11H1025.04L1025.26 1320.12C1025.47 1320.15 1025.68 1320.2 1025.88 1320.29L1096.91 1352.97C1097.75 1353.36 1098.22 1354.29 1098.03 1355.2C1092.09 1383.29 1077.01 1405.7 1054.02 1415.24L1052.92 1415.68C1020.43 1428.44 982.13 1412.13 953.489 1378.65L952.133 1377.04C951.614 1376.42 951.523 1375.54 951.901 1374.83C960.656 1358.24 974.349 1332.77 982.259 1318.08L982.324 1317.97C982.666 1317.42 983.255 1317.07 983.905 1317.03ZM984.296 1322.74C976.447 1337.32 964.29 1359.94 956.068 1375.5C984.222 1408.73 1021.08 1423.89 1051.46 1411.96L1052.48 1411.54C1073.48 1402.83 1087.8 1382.42 1093.77 1355.93L1025.98 1324.74C1023.54 1329.37 1019.91 1333 1015.15 1334.86L1015.15 1334.86C1004.71 1338.96 992.743 1333.29 984.296 1322.74Z" fill="#231F20"/>
<path d="M978.32 1308.32C973.97 1297.19 973.79 1285.87 977.05 1277.51L918.4 1225.13C909.38 1253.75 910.96 1290.64 925.17 1326.97C932.46 1345.62 942.3 1362.11 953.66 1375.75C962.41 1359.17 976.1 1333.71 984.01 1319.02C981.79 1315.84 979.85 1312.25 978.31 1308.31L978.32 1308.32Z" fill="#594AED"/>
<path d="M917.87 1223.2C918.524 1223.02 919.226 1223.19 919.732 1223.64L978.382 1276.02C979.005 1276.57 979.216 1277.46 978.913 1278.24C975.869 1286.04 975.978 1296.83 980.182 1307.59C980.195 1307.63 980.205 1307.66 980.216 1307.69C981.692 1311.44 983.542 1314.86 985.65 1317.88C986.082 1318.49 986.129 1319.3 985.771 1319.97C977.86 1334.66 964.174 1360.11 955.428 1376.68C955.117 1377.27 954.531 1377.67 953.868 1377.74C953.204 1377.81 952.55 1377.54 952.123 1377.03C940.98 1363.65 931.296 1347.58 924.005 1329.46L923.307 1327.7C908.959 1291.02 907.313 1253.65 916.492 1224.53L916.534 1224.41C916.761 1223.82 917.256 1223.37 917.87 1223.2ZM919.416 1228.72C911.569 1256.4 913.453 1291.53 927.032 1326.24L927.033 1326.24L927.716 1327.97C934.438 1344.67 943.228 1359.57 953.302 1372.15C961.841 1356.01 974.117 1333.17 981.673 1319.14C979.653 1316.09 977.881 1312.71 976.447 1309.04C976.425 1308.98 976.407 1308.93 976.39 1308.87C972.176 1297.98 971.763 1286.8 974.71 1278.1L919.416 1228.72Z" fill="#231F20"/>
<path d="M1096.88 1301.73C1094.92 1289.21 1091.49 1276.37 1086.5 1263.61C1084.85 1259.39 1083.07 1255.28 1081.17 1251.29L1016.32 1276.75C1019.45 1280.57 1022.15 1285.15 1024.17 1290.32C1025.4 1293.47 1026.29 1296.64 1026.87 1299.75C1028.42 1308.07 1027.71 1315.98 1025.02 1322.12L1096.05 1354.8C1099.45 1338.69 1099.83 1320.57 1096.87 1301.74L1096.88 1301.73Z" fill="#A294E4"/>
<path d="M1080.62 1249.37C1081.55 1249.1 1082.55 1249.54 1082.98 1250.43L1083.69 1251.95C1085.34 1255.5 1086.9 1259.15 1088.36 1262.88L1088.83 1264.09C1093.62 1276.59 1096.94 1289.15 1098.86 1301.42C1098.87 1301.49 1098.87 1301.56 1098.88 1301.63C1101.83 1320.6 1101.45 1338.9 1098.01 1355.21C1097.88 1355.81 1097.49 1356.31 1096.95 1356.59C1096.4 1356.86 1095.77 1356.87 1095.21 1356.62L1024.18 1323.94C1023.19 1323.48 1022.75 1322.32 1023.19 1321.32L1023.42 1320.78C1025.65 1315.33 1026.31 1308.35 1025.04 1300.87L1024.9 1300.12C1024.42 1297.5 1023.7 1294.84 1022.74 1292.18L1022.31 1291.05C1020.48 1286.38 1018.09 1282.22 1015.33 1278.71L1014.77 1278.02C1014.37 1277.52 1014.22 1276.86 1014.38 1276.25C1014.55 1275.63 1014.99 1275.12 1015.59 1274.89L1080.44 1249.43L1080.62 1249.37ZM1019.53 1277.64C1022.09 1281.15 1024.3 1285.17 1026.03 1289.59V1289.59L1026.27 1290.21C1027.42 1293.27 1028.27 1296.35 1028.84 1299.38H1028.84L1028.98 1300.19C1030.26 1307.75 1029.76 1315.05 1027.58 1321.1L1094.58 1351.92C1097.47 1336.7 1097.67 1319.71 1094.89 1302.05C1094.88 1301.99 1094.88 1301.93 1094.88 1301.87C1092.93 1289.55 1089.55 1276.91 1084.64 1264.34V1264.34C1083.24 1260.75 1081.74 1257.25 1080.15 1253.84L1019.53 1277.64Z" fill="#231F20"/>
<path d="M1016.32 1276.74L1081.17 1251.28C1065.26 1217.84 1041.05 1192.72 1015.41 1180.61L1007.03 1268.4C1010.34 1270.47 1013.5 1273.29 1016.32 1276.74Z" fill="#8A78E4"/>
<path d="M1014.42 1178.87C1014.99 1178.55 1015.68 1178.52 1016.26 1178.8C1042.4 1191.15 1066.91 1216.65 1082.98 1250.42C1083.21 1250.92 1083.23 1251.5 1083.03 1252.02C1082.83 1252.53 1082.42 1252.94 1081.9 1253.14L1017.05 1278.6C1016.29 1278.9 1015.44 1278.71 1014.88 1278.13L1014.77 1278.01C1012.07 1274.71 1009.07 1272.04 1005.97 1270.1C1005.33 1269.69 1004.97 1268.96 1005.04 1268.21L1013.42 1180.42L1013.46 1180.18C1013.58 1179.63 1013.93 1179.15 1014.42 1178.87ZM1009.14 1267.39C1011.9 1269.25 1014.52 1271.6 1016.92 1274.36L1078.43 1250.21C1063.22 1219.19 1040.83 1195.74 1017.13 1183.68L1009.14 1267.39Z" fill="#231F20"/>
<path d="M52.38 1145.1L5.37 618.05C5.37 610.99 56 585.59 61.2 582.22C66.89 578.53 74.46 577.78 81.21 581.54L619.43 891.99C628.61 897.11 634.29 906.8 634.29 917.31V1463.92C634.29 1466.28 633.3 1468.88 631.99 1471.29C629.28 1476.26 625.19 1480.34 620.34 1483.27L572.89 1511.93L67.24 1170.41C58.06 1165.29 52.37 1155.6 52.37 1145.09L52.38 1145.1Z" fill="#594AED"/>
<path d="M632.29 917.31C632.29 907.524 627.001 898.503 618.456 893.736C618.448 893.732 618.439 893.728 618.431 893.723L80.2235 583.279C74.1728 579.915 67.4012 580.582 62.288 583.898C60.9004 584.797 56.6427 587.079 51.2352 590.006C45.7589 592.971 38.9616 596.671 32.3319 600.484C25.6916 604.304 19.2672 608.208 14.5194 611.578C12.1387 613.268 10.2421 614.78 8.96082 616.045C8.31864 616.679 7.88257 617.201 7.61902 617.609C7.45788 617.857 7.39912 618.004 7.37878 618.064L54.3719 1144.92C54.3825 1145.04 54.3809 1145.16 54.371 1145.27C54.4354 1154.83 59.5561 1163.64 67.8163 1168.44L68.2137 1168.66L68.3593 1168.75L572.95 1509.56L619.306 1481.56L619.732 1481.3C623.978 1478.64 627.551 1475.06 629.994 1470.76L630.234 1470.33C631.488 1468.02 632.29 1465.78 632.29 1463.92V917.31ZM636.29 1463.92C636.29 1466.78 635.112 1469.73 633.747 1472.25L633.746 1472.25C630.941 1477.39 626.769 1481.61 621.852 1484.69L621.374 1484.98L573.924 1513.64C573.257 1514.04 572.416 1514.02 571.77 1513.59L66.1835 1172.11C56.4187 1166.62 50.37 1156.29 50.37 1145.09C50.37 1145.09 50.37 1145.08 50.37 1145.08L3.37781 618.228L3.37 618.05C3.37001 617.047 3.80147 616.143 4.26062 615.434C4.74122 614.691 5.39799 613.941 6.15027 613.198C7.65804 611.71 9.75808 610.053 12.205 608.317C17.1128 604.833 23.6707 600.852 30.3378 597.018C37.0155 593.177 43.8516 589.455 49.3309 586.488C54.1851 583.861 57.8704 581.88 59.5282 580.9L60.1122 580.541C66.1792 576.607 74.2168 575.7 81.4823 579.418L82.1835 579.793L620.404 890.243L620.861 890.503C630.407 896.041 636.29 906.251 636.29 917.31V1463.92Z" fill="#231F20"/>
<path d="M2 1175.64V629.01C2 614.21 17.91 604.87 30.83 612.08L569.05 922.53C578.23 927.65 583.91 937.34 583.91 947.85V1494.46C583.91 1509.26 568 1518.6 555.08 1511.39L16.87 1200.96C7.69 1195.84 2 1186.15 2 1175.64Z" fill="white"/>
<path d="M0 1175.64V629.01C7.94002e-05 612.939 17.0069 602.703 31.1338 609.974L31.8047 610.333L31.8291 610.348L570.023 920.783C579.838 926.257 585.91 936.616 585.91 947.85V1494.46C585.91 1510.53 568.902 1520.77 554.775 1513.5L554.105 1513.14L554.081 1513.12L15.8711 1202.69C6.07258 1197.22 0 1186.87 0 1175.64ZM4 1175.64C4 1185.27 9.13354 1194.16 17.4463 1198.99L17.8438 1199.21L556.064 1509.65C567.649 1516.1 581.91 1507.73 581.91 1494.46V947.85C581.91 938.064 576.622 929.043 568.076 924.277L568.051 924.263L29.8447 613.82C18.26 607.366 4.00008 615.741 4 629.01V1175.64Z" fill="#231F20"/>
<path d="M193.478 2.48999V6.48999H185.5V2.48999H193.478ZM225.388 2.48999V6.48999H209.433V2.48999H225.388ZM257.298 2.48999V6.48999H241.343V2.48999H257.298ZM289.207 2.48999V6.48999H273.253V2.48999H289.207ZM321.117 2.48999V6.48999H305.162V2.48999H321.117ZM353.027 2.48999V6.48999H337.072V2.48999H353.027ZM384.938 2.48999V6.48999H368.982V2.48999H384.938ZM416.848 2.48999V6.48999H400.893V2.48999H416.848ZM448.758 2.48999V6.48999H432.803V2.48999H448.758ZM480.667 2.48999V6.48999H464.713V2.48999H480.667ZM512.577 2.48999V6.48999H496.622V2.48999H512.577ZM544.487 2.48999V6.48999H528.532V2.48999H544.487ZM576.397 2.48999V6.48999H560.442V2.48999H576.397ZM608.308 2.48999V6.48999H592.353V2.48999H608.308ZM640.218 2.48999V6.48999H624.263V2.48999H640.218ZM672.127 2.48999V6.48999H656.172V2.48999H672.127ZM704.037 2.48999V6.48999H688.082V2.48999H704.037ZM735.947 2.48999V6.48999H719.992V2.48999H735.947ZM767.857 2.48999V6.48999H751.902V2.48999H767.857ZM799.768 2.48999V6.48999H783.812V2.48999H799.768ZM831.678 2.48999V6.48999H815.723V2.48999H831.678ZM863.588 2.48999V6.48999H847.633V2.48999H863.588ZM895.497 2.48999V6.48999H879.542V2.48999H895.497ZM919.43 2.48999V6.48999H911.452V2.48999H919.43Z" fill="#5032E4"/>
<path d="M1230.34 1227.44V1235.69H1226.34V1227.44H1230.34ZM1230.34 1194.42V1210.93H1226.34V1194.42H1230.34ZM1230.34 1161.4V1177.91H1226.34V1161.4H1230.34ZM1230.34 1128.39V1144.9H1226.34V1128.39H1230.34ZM1230.34 1095.37V1111.88H1226.34V1095.37H1230.34ZM1230.34 1062.36V1078.86H1226.34V1062.36H1230.34ZM1230.34 1029.34V1045.85H1226.34V1029.34H1230.34ZM1230.34 996.324V1012.83H1226.34V996.324H1230.34ZM1230.34 963.308V979.816H1226.34V963.308H1230.34ZM1230.34 930.292V946.8H1226.34V930.292H1230.34ZM1230.34 905.53V913.784H1226.34V905.53H1230.34Z" fill="#5032E4"/>
<path d="M850.3 1351.74L632.02 1477.76L630.02 1474.3L848.3 1348.28L850.3 1351.74Z" fill="#231F20"/>
<path d="M224.02 490.522L62.2 583.952L60.2 580.488L222.02 487.058L224.02 490.522Z" fill="#231F20"/>
<path d="M43.8101 1146.8V701.47C43.8101 689.42 56.7701 681.81 67.3001 687.68L129.63 722.92C137.11 727.09 141.74 734.98 141.74 743.55V1188.86C141.74 1200.91 128.78 1208.52 118.25 1202.65L55.9201 1167.43C48.4401 1163.26 43.8101 1155.36 43.8101 1146.8Z" fill="#594AED"/>
<path d="M41.8101 1146.8V701.47C41.8101 688.105 55.9595 679.589 67.7163 685.634L68.2739 685.933L68.2847 685.939L130.615 721.179H130.614C138.722 725.704 143.74 734.26 143.74 743.55V1188.86C143.74 1202.44 129.138 1211.01 117.276 1204.4L117.266 1204.39L54.9458 1169.18V1169.18C47.0847 1164.79 42.1269 1156.62 41.8247 1147.67L41.8101 1146.8ZM45.8101 1146.8L45.8228 1147.53C46.0695 1154.84 49.9968 1161.54 56.2603 1165.32L56.894 1165.68L56.9038 1165.69L119.223 1200.9H119.224C128.422 1206.03 139.74 1199.38 139.74 1188.86V743.55C139.74 735.704 135.501 728.484 128.656 724.667L128.646 724.661L66.3267 689.427L65.894 689.195C56.7777 684.507 45.8101 691.112 45.8101 701.47V1146.8Z" fill="#231F20"/>
<path d="M175.93 1223.01V969.53C175.93 957.48 188.89 949.87 199.42 955.74L261.75 990.98C269.23 995.15 273.86 1003.04 273.86 1011.61V1265.08C273.86 1277.13 260.9 1284.74 250.37 1278.87L188.04 1243.65C180.56 1239.48 175.93 1231.58 175.93 1223.02V1223.01Z" fill="#6950E4"/>
<path d="M173.93 1223.02V969.53C173.93 956.165 188.079 947.649 199.836 953.694L200.394 953.993L200.405 953.999L262.735 989.239H262.734C270.842 993.764 275.86 1002.32 275.86 1011.61V1265.08C275.86 1278.66 261.258 1287.23 249.396 1280.62L249.386 1280.61L187.066 1245.4V1245.4C178.951 1240.87 173.93 1232.3 173.93 1223.02ZM177.93 1223.02C177.93 1230.61 181.908 1237.64 188.38 1241.54L189.014 1241.9L189.024 1241.91L251.343 1277.12H251.344C260.542 1282.25 271.86 1275.6 271.86 1265.08V1011.61C271.86 1003.76 267.621 996.544 260.776 992.727L260.766 992.722L198.447 957.487L198.014 957.255C188.898 952.568 177.93 959.172 177.93 969.53V1223.02Z" fill="#231F20"/>
<path d="M307.32 1298.78V1143.04C307.32 1130.99 320.28 1123.38 330.81 1129.25L393.14 1164.49C400.62 1168.66 405.25 1176.55 405.25 1185.12V1340.85C405.25 1352.9 392.29 1360.51 381.76 1354.64L319.43 1319.42C311.95 1315.25 307.32 1307.35 307.32 1298.79V1298.78Z" fill="#8A78E4"/>
<path d="M305.32 1298.79V1143.04C305.32 1129.67 319.469 1121.16 331.226 1127.2L331.784 1127.5L331.795 1127.51L394.125 1162.75H394.124C402.232 1167.27 407.25 1175.83 407.25 1185.12V1340.85C407.25 1354.43 392.648 1363 380.786 1356.39L380.776 1356.38L318.456 1321.17V1321.17C310.341 1316.64 305.32 1308.07 305.32 1298.79ZM309.32 1298.79C309.32 1306.38 313.298 1313.4 319.77 1317.31L320.404 1317.67L320.414 1317.68L382.744 1352.9H382.743C391.939 1358.02 403.25 1351.37 403.25 1340.85V1185.12C403.25 1177.27 399.011 1170.05 392.166 1166.24L392.156 1166.23L329.837 1131L329.404 1130.76C320.288 1126.08 309.32 1132.68 309.32 1143.04V1298.79Z" fill="#231F20"/>
<path d="M445.18 1378.3V990.02C445.18 977.97 458.14 970.36 468.67 976.23L531 1011.47C538.48 1015.64 543.11 1023.53 543.11 1032.1V1420.37C543.11 1432.42 530.15 1440.03 519.62 1434.16L457.29 1398.94C449.81 1394.77 445.18 1386.87 445.18 1378.31V1378.3Z" fill="#A294E4"/>
<path d="M443.18 1378.31V990.02C443.18 976.655 457.329 968.139 469.086 974.184L469.644 974.483L469.655 974.489L531.985 1009.73H531.984C540.092 1014.25 545.11 1022.81 545.11 1032.1V1420.37C545.11 1433.95 530.508 1442.52 518.646 1435.91L518.636 1435.9L456.316 1400.69V1400.69C448.201 1396.16 443.18 1387.59 443.18 1378.31ZM447.18 1378.31C447.18 1385.9 451.158 1392.92 457.63 1396.83L458.264 1397.19L458.274 1397.2L520.604 1432.42H520.603C529.799 1437.54 541.11 1430.89 541.11 1420.37V1032.1C541.11 1024.25 536.871 1017.03 530.026 1013.22L530.016 1013.21L467.697 977.977L467.264 977.745C458.148 973.058 447.18 979.662 447.18 990.02V1378.31Z" fill="#231F20"/>
<mask id="mask0_938_100216" style="mask-type:luminance" maskUnits="userSpaceOnUse" x="106" y="32" width="461" height="643">
<path d="M106.29 404.12V51.95C106.29 37.15 122.2 27.81 135.12 35.02L551.84 277.86C561.02 282.98 566.7 292.67 566.7 303.18V655.33C566.7 670.13 550.79 679.47 537.87 672.26L121.16 429.44C111.98 424.32 106.29 414.63 106.29 404.12Z" fill="white"/>
</mask>
<g mask="url(#mask0_938_100216)">
<path d="M142.11 251.75V119.82C142.11 110.91 151.69 105.29 159.47 109.63L410.36 255.83C415.89 258.91 419.31 264.75 419.31 271.07V402.99C419.31 411.9 409.73 417.52 401.95 413.18L151.06 266.99C145.53 263.91 142.11 258.07 142.11 251.75Z" fill="#594AED"/>
<path d="M140.11 251.75V119.82C140.11 109.546 150.984 103.007 160.015 107.653L160.444 107.884L160.477 107.902L411.367 254.102H411.366C417.512 257.54 421.31 264.039 421.31 271.07V402.99C421.31 413.265 410.435 419.803 401.404 415.156L400.975 414.927L400.943 414.908L150.087 268.737L149.515 268.406C143.687 264.896 140.11 258.573 140.11 251.75ZM144.11 251.75C144.11 257.172 146.952 262.194 151.58 264.98L152.033 265.243L152.067 265.262L402.925 411.434L403.227 411.596C409.618 414.884 417.31 410.257 417.31 402.99V271.07C417.31 265.649 414.468 260.627 409.841 257.84L409.386 257.577L409.353 257.558L158.496 111.377L158.192 111.214C151.801 107.926 144.11 112.554 144.11 119.82V251.75Z" fill="#231F20"/>
<path d="M249.53 525.85V393.92C249.53 385.01 259.11 379.39 266.89 383.73L517.78 529.93C523.31 533.01 526.73 538.85 526.73 545.17V677.09C526.73 686 517.15 691.62 509.37 687.28L258.48 541.09C252.95 538.01 249.53 532.17 249.53 525.85Z" fill="white"/>
<path d="M247.53 525.85V393.92C247.53 383.646 258.404 377.107 267.435 381.753L267.864 381.984L267.897 382.002L518.787 528.202H518.786C524.932 531.64 528.73 538.139 528.73 545.17V677.09C528.73 687.365 517.855 693.903 508.824 689.256L508.395 689.027L508.363 689.008L257.507 542.837L256.936 542.506C251.107 538.996 247.53 532.674 247.53 525.85ZM251.53 525.85C251.53 531.272 254.372 536.294 259 539.08L259.453 539.343L259.487 539.362L510.344 685.534L510.647 685.696C517.038 688.984 524.73 684.357 524.73 677.09V545.17C524.73 539.574 521.702 534.403 516.807 531.677L516.773 531.658L265.916 385.477L265.612 385.314C259.221 382.026 251.53 386.654 251.53 393.92V525.85Z" fill="#231F20"/>
<path d="M263.49 424.81V421.88C263.49 416.25 269.54 412.7 274.45 415.44L499.11 547.36C502.6 549.31 504.76 552.99 504.76 556.99V559.91C504.76 565.54 498.71 569.09 493.8 566.35L269.14 434.43C265.65 432.48 263.49 428.8 263.49 424.8V424.81Z" fill="#231F20"/>
<path d="M263.49 469.42V466.49C263.49 460.86 269.54 457.31 274.45 460.05L499.11 591.97C502.6 593.92 504.76 597.6 504.76 601.6V604.52C504.76 610.15 498.71 613.7 493.8 610.96L269.14 479.04C265.65 477.09 263.49 473.41 263.49 469.41V469.42Z" fill="#231F20"/>
<path d="M263.49 512.97V510.04C263.49 504.41 269.54 500.86 274.45 503.6L499.11 635.52C502.6 637.47 504.76 641.15 504.76 645.15V648.07C504.76 653.7 498.71 657.25 493.8 654.51L269.14 522.59C265.65 520.64 263.49 516.96 263.49 512.96V512.97Z" fill="#231F20"/>
</g>
<path d="M104.29 404.12V51.9499C104.29 35.8787 121.297 25.6431 135.424 32.9137L136.095 33.2731L136.127 33.2917L552.814 276.113L553.271 276.374C562.817 281.911 568.7 292.122 568.7 303.18V655.33C568.7 671.401 551.693 681.637 537.565 674.366L536.896 674.007C536.885 674 536.874 673.994 536.863 673.988L120.186 431.186L119.729 430.926C110.184 425.389 104.29 415.179 104.29 404.12ZM108.29 404.12C108.29 413.752 113.424 422.644 121.736 427.466L122.134 427.693L122.167 427.712L538.845 670.513L539.39 670.805C550.874 676.716 564.7 668.396 564.7 655.33V303.18C564.7 293.547 559.575 284.655 551.264 279.834L550.866 279.607C550.855 279.601 550.844 279.594 550.833 279.588L134.146 36.7663L133.601 36.4743C122.116 30.5633 108.29 38.8837 108.29 51.9499V404.12Z" fill="#231F20"/>
<path d="M158.46 148.98V146.05C158.46 140.42 164.51 136.87 169.42 139.61L394.08 271.53C397.57 273.48 399.73 277.16 399.73 281.16V284.08C399.73 289.71 393.68 293.26 388.77 290.52L164.11 158.6C160.62 156.65 158.46 152.97 158.46 148.97V148.98Z" fill="#231F20"/>
<path d="M158.46 194.92V191.99C158.46 186.36 164.51 182.81 169.42 185.55L394.08 317.47C397.57 319.42 399.73 323.1 399.73 327.1V330.02C399.73 335.65 393.68 339.2 388.77 336.46L164.11 204.54C160.62 202.59 158.46 198.91 158.46 194.91V194.92Z" fill="#231F20"/>
<path d="M158.46 238.69V235.76C158.46 230.13 164.51 226.58 169.42 229.32L394.08 361.24C397.57 363.19 399.73 366.87 399.73 370.87V373.79C399.73 379.42 393.68 382.97 388.77 380.23L164.11 248.31C160.62 246.36 158.46 242.68 158.46 238.68V238.69Z" fill="#231F20"/>
</g>
<defs>
<clipPath id="clip0_938_100216">
<rect width="1230.34" height="1523.49" fill="white"/>
</clipPath>
</defs>
</svg>
