<?xml version="1.0" encoding="UTF-8"?>
<svg id="Layer_1" xmlns="http://www.w3.org/2000/svg" version="1.1" viewBox="0 0 24 24">
  <!-- Generator: Adobe Illustrator 29.6.1, SVG Export Plug-In . SVG Version: 2.1.1 Build 9)  -->
  <defs>
    <style>
      .st0 {
        fill: #fff;
      }
    </style>
  </defs>
  <path class="st0" d="M19.5,2.6h-1.9v-.4c0-.3-.1-.6-.3-.8-.2-.2-.5-.3-.8-.3s-.6.1-.8.3c-.2.2-.3.5-.3.8v.4h-6.8v-.4c0-.3-.1-.6-.3-.8-.2-.2-.5-.3-.8-.3s-.6.1-.8.3c-.2.2-.3.5-.3.8v.4h-1.9c-.5,0-1,.2-1.3.5-.4.4-.5.8-.5,1.3v15c0,.5.2,1,.5,1.3.4.4.8.5,1.3.5h15c.5,0,1-.2,1.3-.5.4-.4.5-.8.5-1.3V4.5c0-.5-.2-1-.5-1.3-.4-.4-.8-.5-1.3-.5ZM6.4,4.9c0,.3.1.6.3.8.2.2.5.3.8.3s.6-.1.8-.3c.2-.2.3-.5.3-.8h6.8c0,.3.1.6.3.8.2.2.5.3.8.3s.6-.1.8-.3c.2-.2.3-.5.3-.8h1.5v2.2H4.9v-2.2h1.5ZM4.9,19.1v-9.8h14.2v9.8H4.9ZM13.5,12c0,.3,0,.6-.3.8-.2.2-.4.4-.7.6-.3.1-.6.1-.9,0-.3,0-.6-.2-.8-.4-.2-.2-.4-.5-.4-.8,0-.3,0-.6,0-.9.1-.3.3-.5.6-.7.2-.2.5-.3.8-.3s.8.2,1.1.4c.3.3.4.7.4,1.1ZM18,12c0,.3,0,.6-.3.8-.2.2-.4.4-.7.6-.3.1-.6.1-.9,0-.3,0-.6-.2-.8-.4-.2-.2-.4-.5-.4-.8,0-.3,0-.6,0-.9.1-.3.3-.5.6-.7.2-.2.5-.3.8-.3s.8.2,1.1.4c.3.3.4.7.4,1.1ZM9,16.5c0,.3,0,.6-.3.8-.2.2-.4.4-.7.6-.3.1-.6.1-.9,0-.3,0-.6-.2-.8-.4-.2-.2-.4-.5-.4-.8,0-.3,0-.6,0-.9.1-.3.3-.5.6-.7.2-.2.5-.3.8-.3s.8.2,1.1.4c.3.3.4.7.4,1.1ZM13.5,16.5c0,.3,0,.6-.3.8-.2.2-.4.4-.7.6-.3.1-.6.1-.9,0-.3,0-.6-.2-.8-.4-.2-.2-.4-.5-.4-.8,0-.3,0-.6,0-.9.1-.3.3-.5.6-.7.2-.2.5-.3.8-.3s.8.2,1.1.4c.3.3.4.7.4,1.1ZM18,16.5c0,.3,0,.6-.3.8-.2.2-.4.4-.7.6-.3.1-.6.1-.9,0-.3,0-.6-.2-.8-.4-.2-.2-.4-.5-.4-.8,0-.3,0-.6,0-.9.1-.3.3-.5.6-.7.2-.2.5-.3.8-.3s.8.2,1.1.4c.3.3.4.7.4,1.1Z"/>
</svg>