<svg width="24" height="25" viewBox="0 0 24 25" fill="none" xmlns="http://www.w3.org/2000/svg">
<path d="M11 3.39453C11 2.84225 10.5523 2.39453 10 2.39453H3C2.44772 2.39453 2 2.84225 2 3.39453V8.39453C2 8.94682 2.44772 9.39453 3 9.39453H10C10.5523 9.39453 11 8.94682 11 8.39453V3.39453Z" fill="#F0F0FF"/>
<path d="M11 12.3945C11 11.8422 10.5523 11.3945 10 11.3945H3C2.44772 11.3945 2 11.8422 2 12.3945V21.3945C2 21.9468 2.44772 22.3945 3 22.3945H10C10.5523 22.3945 11 21.9468 11 21.3945V12.3945Z" fill="#F0F0FF"/>
<path d="M13 3.39453C13 2.84225 13.4477 2.39453 14 2.39453H21C21.5523 2.39453 22 2.84225 22 3.39453V13.3945C22 13.9468 21.5523 14.3945 21 14.3945H14C13.4477 14.3945 13 13.9468 13 13.3945V3.39453Z" fill="#F0F0FF"/>
<path d="M22 17.3945C22 16.8422 21.5523 16.3945 21 16.3945H14C13.4477 16.3945 13 16.8422 13 17.3945V21.3945C13 21.9468 13.4477 22.3945 14 22.3945H21C21.5523 22.3945 22 21.9468 22 21.3945V17.3945Z" fill="#F0F0FF"/>
</svg>
