<svg width="24" height="25" viewBox="0 0 24 25" fill="none" xmlns="http://www.w3.org/2000/svg">
<path d="M6.71946 9.84118L3.25633 12.7268L6.71946 15.6124C6.83431 15.7066 6.92939 15.8225 6.99922 15.9535C7.06905 16.0846 7.11224 16.2282 7.12631 16.376C7.14037 16.5238 7.12503 16.673 7.08118 16.8148C7.03732 16.9567 6.96581 17.0885 6.87077 17.2026C6.77573 17.3167 6.65904 17.4108 6.52744 17.4796C6.39583 17.5484 6.25191 17.5904 6.10398 17.6033C5.95604 17.6162 5.80702 17.5997 5.66551 17.5547C5.524 17.5097 5.39279 17.4371 5.27946 17.3412L0.779456 13.5912C0.652716 13.4856 0.550745 13.3534 0.480765 13.2041C0.410786 13.0547 0.374512 12.8918 0.374512 12.7268C0.374512 12.5619 0.410786 12.3989 0.480765 12.2495C0.550745 12.1002 0.652716 11.968 0.779456 11.8624L5.27946 8.11243C5.50902 7.92429 5.80364 7.8345 6.09912 7.86262C6.39459 7.89073 6.66698 8.03448 6.85695 8.26254C7.04691 8.49059 7.13906 8.78448 7.1133 9.08017C7.08755 9.37586 6.94599 9.6494 6.71946 9.84118ZM23.2195 11.8624L18.7195 8.11243C18.6061 8.01648 18.4749 7.94392 18.3334 7.89893C18.1919 7.85394 18.0429 7.83741 17.8949 7.85029C17.747 7.86318 17.6031 7.90522 17.4715 7.974C17.3399 8.04278 17.2232 8.13693 17.1281 8.25103C17.0331 8.36512 16.9616 8.49691 16.9177 8.63877C16.8739 8.78064 16.8585 8.92979 16.8726 9.07762C16.8867 9.22544 16.9299 9.36902 16.9997 9.50007C17.0695 9.63113 17.1646 9.74706 17.2795 9.84118L20.7426 12.7268L17.2795 15.6124C17.1646 15.7066 17.0695 15.8225 16.9997 15.9535C16.9299 16.0846 16.8867 16.2282 16.8726 16.376C16.8585 16.5238 16.8739 16.673 16.9177 16.8148C16.9616 16.9567 17.0331 17.0885 17.1281 17.2026C17.2232 17.3167 17.3399 17.4108 17.4715 17.4796C17.6031 17.5484 17.747 17.5904 17.8949 17.6033C18.0429 17.6162 18.1919 17.5997 18.3334 17.5547C18.4749 17.5097 18.6061 17.4371 18.7195 17.3412L23.2195 13.5912C23.3462 13.4856 23.4482 13.3534 23.5181 13.2041C23.5881 13.0547 23.6244 12.8918 23.6244 12.7268C23.6244 12.5619 23.5881 12.3989 23.5181 12.2495C23.4482 12.1002 23.3462 11.968 23.2195 11.8624ZM15.3838 3.4193C15.245 3.3688 15.0975 3.34615 14.9499 3.35265C14.8022 3.35915 14.6573 3.39467 14.5235 3.45717C14.3896 3.51968 14.2693 3.60796 14.1695 3.71696C14.0697 3.82595 13.9924 3.95354 13.942 4.09243L7.94196 20.5924C7.84025 20.8728 7.85402 21.182 7.98025 21.4522C8.10647 21.7224 8.33481 21.9315 8.61508 22.0334C8.73813 22.0788 8.86829 22.102 8.99946 22.1018C9.23044 22.1018 9.45583 22.0308 9.64502 21.8983C9.83422 21.7658 9.97804 21.5783 10.057 21.3612L16.057 4.86118C16.1075 4.72231 16.1301 4.57485 16.1236 4.42722C16.1171 4.2796 16.0816 4.1347 16.0191 4.0008C15.9566 3.8669 15.8683 3.74663 15.7593 3.64686C15.6503 3.54708 15.5227 3.46976 15.3838 3.4193Z" fill="#F0F0FF"/>
</svg>
