<svg width="24" height="25" viewBox="0 0 24 25" fill="none" xmlns="http://www.w3.org/2000/svg">
<path d="M21.7811 5.26643L18.7831 2.26643C18.6787 2.16155 18.5546 2.07834 18.4179 2.02156C18.2813 1.96478 18.1348 1.93555 17.9868 1.93555C17.8388 1.93555 17.6923 1.96478 17.5557 2.02156C17.419 2.07834 17.2949 2.16155 17.1905 2.26643L8.19649 11.2664C7.9864 11.4779 7.86879 11.7642 7.86952 12.0624V15.0624C7.86952 15.3607 7.98797 15.6469 8.19881 15.8579C8.40965 16.0688 8.6956 16.1874 8.99377 16.1874H11.9918C12.1394 16.1875 12.2857 16.1585 12.4222 16.102C12.5587 16.0456 12.6827 15.9627 12.7872 15.8583L21.7811 6.85831C21.8857 6.75383 21.9686 6.62975 22.0252 6.49318C22.0817 6.35661 22.1108 6.21021 22.1108 6.06237C22.1108 5.91453 22.0817 5.76814 22.0252 5.63156C21.9686 5.49499 21.8857 5.37092 21.7811 5.26643ZM17.9877 4.65612L19.393 6.06237L18.3625 7.09362L16.9572 5.68737L17.9877 4.65612ZM11.5233 13.9374H10.118V12.5311L15.3645 7.28112L16.7698 8.68737L11.5233 13.9374ZM21.3605 13.2408V19.5624C21.3605 20.0597 21.1631 20.5366 20.8117 20.8882C20.4603 21.2398 19.9837 21.4374 19.4867 21.4374H4.49679C3.99984 21.4374 3.52325 21.2398 3.17185 20.8882C2.82046 20.5366 2.62305 20.0597 2.62305 19.5624V4.56237C2.62305 4.06509 2.82046 3.58818 3.17185 3.23655C3.52325 2.88492 3.99984 2.68737 4.49679 2.68737H10.8141C11.1123 2.68737 11.3982 2.8059 11.6091 3.01688C11.8199 3.22785 11.9384 3.514 11.9384 3.81237C11.9384 4.11074 11.8199 4.39689 11.6091 4.60787C11.3982 4.81885 11.1123 4.93737 10.8141 4.93737H4.87154V19.1874H19.112V13.2408C19.112 12.9424 19.2304 12.6563 19.4413 12.4453C19.6521 12.2343 19.9381 12.1158 20.2362 12.1158C20.5344 12.1158 20.8203 12.2343 21.0312 12.4453C21.242 12.6563 21.3605 12.9424 21.3605 13.2408Z" fill="#F0F0FF"/>
</svg>
