<svg width="24" height="25" viewBox="0 0 24 25" fill="none" xmlns="http://www.w3.org/2000/svg">
<path fill-rule="evenodd" clip-rule="evenodd" d="M22.249 20.7679V11.5433C22.249 10.4139 21.3335 9.49839 20.2042 9.49839L17.6336 9.49838V2.81916C17.6336 2.41284 17.4722 2.02316 17.1849 1.73584C16.8976 1.44852 16.5079 1.28711 16.1016 1.28711L7.98192 1.28711C7.57559 1.28711 7.1859 1.44852 6.89859 1.73584C6.61127 2.02315 6.44986 2.41284 6.44986 2.81916L6.44986 9.62659H3.7939C2.66454 9.62659 1.74902 10.5421 1.74902 11.6715V20.7679C1.74902 21.8972 2.66455 22.8127 3.79389 22.8127L20.2042 22.8127C21.3335 22.8127 22.249 21.8972 22.249 20.7679ZM20.2106 11.5433V20.7679C20.2106 20.7714 20.2077 20.7743 20.2042 20.7743L3.79389 20.7743C3.79035 20.7743 3.78748 20.7714 3.78748 20.7679L3.78748 11.6715C3.78748 11.6679 3.79036 11.6651 3.7939 11.6651H6.44986V12.5692H5.58877C5.02586 12.5692 4.56954 13.0255 4.56954 13.5884C4.56954 14.1513 5.02586 14.6076 5.58877 14.6076L17.8965 14.6076C18.4594 14.6076 18.9157 14.1513 18.9157 13.5884C18.9157 13.0255 18.4594 12.5692 17.8965 12.5692H17.6336V11.5368L20.2042 11.5368C20.2077 11.5368 20.2106 11.5397 20.2106 11.5433ZM8.48833 3.32557L15.5952 3.32557V12.4318L8.48832 12.4318L8.48833 3.32557Z" fill="#F0F0FF"/>
</svg>
