<svg width="24" height="25" viewBox="0 0 24 25" fill="none" xmlns="http://www.w3.org/2000/svg">
<g clip-path="url(#clip0_898_44631)">
<path d="M23.625 11.6449C23.6235 10.3524 23.1095 9.11328 22.1955 8.19936C21.2816 7.28544 20.0425 6.77135 18.75 6.76986H15.03C14.7075 6.75017 10.0988 6.39486 5.70566 2.71049C5.43238 2.48105 5.09931 2.33436 4.74556 2.28763C4.39181 2.24091 4.03208 2.29609 3.7086 2.44671C3.38512 2.59732 3.11134 2.83711 2.9194 3.13791C2.72747 3.43871 2.62535 3.78804 2.62504 4.14486V19.1449C2.62278 19.5021 2.72366 19.8524 2.91556 20.1537C3.10746 20.455 3.38224 20.6946 3.70691 20.8436C4.0302 20.9962 4.39059 21.0525 4.74503 21.0058C5.09946 20.9591 5.43296 20.8113 5.70566 20.5802C7.95429 18.6899 10.6295 17.3757 13.5 16.7514V19.2077C13.5 19.5163 13.5761 19.8201 13.7217 20.0923C13.8672 20.3644 14.0777 20.5964 14.3344 20.7677C14.376 20.7957 14.4196 20.8208 14.4647 20.8427L15.8185 21.5045C16.0687 21.6543 16.3504 21.7437 16.6412 21.7655C16.932 21.7873 17.2239 21.741 17.4937 21.6303C17.7635 21.5195 18.0037 21.3473 18.1953 21.1274C18.3868 20.9076 18.5245 20.646 18.5972 20.3636L19.6369 16.443C20.7572 16.2344 21.7692 15.6405 22.4976 14.7642C23.2259 13.8879 23.6248 12.7844 23.625 11.6449ZM4.87504 18.3602V4.93236C8.26597 7.56392 11.641 8.50424 13.5 8.83799V14.4574C11.641 14.7874 8.26597 15.7277 4.87504 18.3602ZM16.5366 19.3511L15.75 18.9667V16.5199H17.2875L16.5366 19.3511ZM18.75 14.2699H15.75V9.01986H18.75C19.4462 9.01986 20.1139 9.29642 20.6062 9.78871C21.0985 10.281 21.375 10.9487 21.375 11.6449C21.375 12.3411 21.0985 13.0087 20.6062 13.501C20.1139 13.9933 19.4462 14.2699 18.75 14.2699Z" fill="#F0F0FF"/>
</g>
<defs>
<clipPath id="clip0_898_44631">
<rect width="24" height="24" fill="white" transform="translate(0 0.394531)"/>
</clipPath>
</defs>
</svg>
