<svg width="24" height="25" viewBox="0 0 24 25" fill="none" xmlns="http://www.w3.org/2000/svg">
<path d="M21 15.2406L16.5853 13.2615L16.5684 13.254C16.2815 13.1303 15.9681 13.0805 15.6569 13.1092C15.3458 13.1378 15.0467 13.2441 14.7872 13.4181C14.7508 13.4425 14.7158 13.4687 14.6822 13.4969L12.5906 15.2781C11.3719 14.6172 10.1128 13.3684 9.45094 12.1647L11.2378 10.0403C11.2665 10.006 11.2932 9.97 11.3175 9.93248C11.487 9.67387 11.5899 9.37737 11.617 9.06937C11.6442 8.76137 11.5948 8.45144 11.4731 8.16717C11.4702 8.16172 11.4677 8.15608 11.4656 8.15029L9.48751 3.7281C9.32513 3.35828 9.04801 3.05056 8.69716 2.85048C8.3463 2.6504 7.94035 2.56859 7.53938 2.61717C6.17848 2.79594 4.92918 3.46399 4.02482 4.49653C3.12046 5.52907 2.62288 6.85551 2.62501 8.2281C2.62501 15.879 8.84907 22.1031 16.5 22.1031C17.8726 22.1052 19.199 21.6076 20.2316 20.7033C21.2641 19.7989 21.9322 18.5496 22.1109 17.1887C22.1595 16.7878 22.0777 16.3818 21.8776 16.031C21.6775 15.6801 21.3698 15.403 21 15.2406ZM16.5 19.8531C13.418 19.8494 10.4633 18.6234 8.284 16.4441C6.1047 14.2648 4.87873 11.3101 4.87501 8.2281C4.87286 7.45138 5.13655 6.69731 5.62227 6.09118C6.10799 5.48506 6.78648 5.06339 7.54501 4.89623L9.30938 8.83373L7.51313 10.9731C7.4841 11.0077 7.45717 11.044 7.43251 11.0819C7.25546 11.3524 7.15137 11.6641 7.13034 11.9867C7.10932 12.3093 7.17207 12.6319 7.31251 12.9231C8.19563 14.7306 10.0153 16.5381 11.8416 17.4231C12.1347 17.5621 12.4589 17.6226 12.7825 17.5988C13.106 17.575 13.4179 17.4676 13.6875 17.2872C13.7238 17.2627 13.7585 17.2361 13.7916 17.2075L15.8944 15.4197L19.8319 17.1831C19.6647 17.9416 19.243 18.6201 18.6369 19.1058C18.0308 19.5916 17.2767 19.8553 16.5 19.8531Z" fill="#F0F0FF"/>
</svg>
