<svg width="1357" height="1516" viewBox="0 0 1357 1516" fill="none" xmlns="http://www.w3.org/2000/svg">
<g clip-path="url(#clip0_1058_28601)">
<path opacity="0.1" d="M925.14 6.97003L165.49 5.16003L223.02 488.79L33.4404 595.22L620.34 1483.28L976.17 1275.74L1350.17 1241.74L1351.17 634.74L1207.39 201.48L925.14 6.97003Z" fill="#594AED"/>
<path d="M893.67 376.58L846.66 43.99C846.66 36.93 897.29 11.53 902.49 8.16004C908.18 4.47004 915.75 3.72004 922.5 7.48004L1339.22 250.32C1348.4 255.44 1354.08 265.13 1354.08 275.64V627.79C1354.08 630.15 1353.09 632.75 1351.78 635.16C1349.07 640.13 1344.98 644.21 1340.13 647.14L1292.68 675.8L908.53 401.89C899.35 396.77 893.66 387.08 893.66 376.57L893.67 376.58Z" fill="#231F20"/>
<path d="M1352.08 275.64C1352.08 265.854 1346.79 256.833 1338.25 252.067C1338.24 252.061 1338.22 252.054 1338.21 252.048L921.519 9.22241C915.467 5.85535 908.693 6.52076 903.578 9.83764V9.83862C902.191 10.7379 897.933 13.0187 892.525 15.946C887.049 18.9107 880.252 22.6115 873.622 26.4246C866.982 30.2437 860.557 34.1484 855.81 37.5183C853.429 39.2081 851.532 40.7201 850.251 41.9851C849.609 42.6191 849.173 43.1415 848.909 43.5486C848.768 43.7666 848.705 43.9061 848.678 43.9773L895.65 376.301C895.672 376.456 895.675 376.61 895.661 376.761C895.729 386.32 900.849 395.126 909.106 399.917L909.505 400.143L909.691 400.261L1292.77 673.408L1339.1 645.428C1343.67 642.664 1347.5 638.833 1350.02 634.203C1351.28 631.895 1352.08 629.65 1352.08 627.79V275.64ZM1356.08 627.79C1356.08 630.649 1354.9 633.604 1353.54 636.115L1353.54 636.118C1350.64 641.427 1346.29 645.757 1341.16 648.852L1293.71 677.512C1293.03 677.925 1292.17 677.891 1291.52 677.428L907.453 403.578C897.726 398.104 891.692 387.82 891.66 376.658L844.68 44.2703C844.667 44.1775 844.66 44.0836 844.66 43.99C844.66 42.9867 845.092 42.0829 845.551 41.3738C846.031 40.6315 846.688 39.8811 847.44 39.1384C848.948 37.6499 851.048 35.9934 853.495 34.2566C858.403 30.7731 864.961 26.7923 871.628 22.9578C878.306 19.1171 885.142 15.3947 890.621 12.4285C896.169 9.42506 900.19 7.26693 901.402 6.4812C907.469 2.54698 915.507 1.64057 922.772 5.35815L923.474 5.73315L923.507 5.75171L1340.19 248.573C1350.01 254.047 1356.08 264.407 1356.08 275.64V627.79Z" fill="black"/>
<path d="M843.29 407.12V54.9501C843.29 40.1501 859.2 30.8101 872.12 38.0201L1288.84 280.86C1298.02 285.98 1303.7 295.67 1303.7 306.18V658.33C1303.7 673.13 1287.79 682.47 1274.87 675.26L858.15 432.44C848.97 427.32 843.28 417.63 843.28 407.12H843.29Z" fill="white"/>
<path d="M841.29 54.9499C841.29 38.6236 858.842 28.3194 873.095 36.2731C873.105 36.2791 873.116 36.2855 873.127 36.2917L1289.85 279.132H1289.85C1299.64 284.61 1305.7 294.959 1305.7 306.18V658.33C1305.7 674.656 1288.15 684.961 1273.9 677.007C1273.88 677 1273.87 676.994 1273.86 676.988L857.176 434.186C847.363 428.713 841.28 418.355 841.28 407.12C841.28 407.057 841.284 406.995 841.29 406.934V54.9499ZM845.29 407.12C845.29 407.178 845.286 407.236 845.281 407.294C845.344 417.011 850.628 425.954 859.124 430.693C859.135 430.699 859.146 430.705 859.157 430.712L1275.84 673.513C1287.43 679.979 1301.7 671.603 1301.7 658.33V306.18C1301.7 296.394 1296.41 287.373 1287.87 282.607C1287.86 282.601 1287.84 282.594 1287.83 282.588L871.146 39.7663C859.559 33.3005 845.29 41.6765 845.29 54.9499V407.12Z" fill="#231F20"/>
<path d="M886.86 150.13V141.48C886.86 129.48 899.76 121.91 910.23 127.76L1248.09 324.64C1255.53 328.79 1260.14 336.65 1260.14 345.17V353.81C1260.14 365.81 1247.24 373.38 1236.77 367.53L898.91 170.66C891.47 166.51 886.86 158.65 886.86 150.13Z" fill="#231F20"/>
<path d="M886.86 256.13V247.48C886.86 235.48 899.76 227.91 910.23 233.76L1248.09 430.64C1255.53 434.79 1260.14 442.65 1260.14 451.17V459.81C1260.14 471.81 1247.24 479.38 1236.77 473.53L898.91 276.66C891.47 272.51 886.86 264.65 886.86 256.13Z" fill="#231F20"/>
<path d="M886.86 362.13V353.48C886.86 341.48 899.76 333.91 910.23 339.76L1248.09 536.64C1255.53 540.79 1260.14 548.65 1260.14 557.17V565.81C1260.14 577.81 1247.24 585.38 1236.77 579.53L898.91 382.66C891.47 378.51 886.86 370.65 886.86 362.13Z" fill="#231F20"/>
<path d="M52.3801 1145.1L5.37012 618.05C5.37012 610.99 56.0001 585.59 61.2001 582.22C66.8901 578.53 74.4601 577.78 81.2101 581.54L619.43 891.99C628.61 897.11 634.29 906.8 634.29 917.31V1463.92C634.29 1466.28 633.3 1468.88 631.99 1471.29C629.28 1476.26 625.19 1480.34 620.34 1483.27L572.89 1511.93L67.2401 1170.41C58.0601 1165.29 52.3701 1155.6 52.3701 1145.09L52.3801 1145.1Z" fill="#594AED"/>
<path d="M632.29 917.31C632.29 907.524 627.001 898.503 618.456 893.737C618.448 893.732 618.439 893.728 618.431 893.723L80.2236 583.279C74.1729 579.916 67.4013 580.582 62.2881 583.898C60.9005 584.797 56.6428 587.079 51.2354 590.006C45.7591 592.971 38.9618 596.672 32.332 600.485C25.6917 604.304 19.2673 608.208 14.5195 611.578C12.1388 613.268 10.2422 614.78 8.96094 616.045C8.31876 616.679 7.88269 617.202 7.61914 617.609C7.45801 617.857 7.39924 618.004 7.37891 618.064L54.3721 1144.92C54.3826 1145.04 54.3811 1145.16 54.3711 1145.27C54.4366 1154.99 59.7206 1163.93 68.2139 1168.66C68.2635 1168.69 68.3123 1168.72 68.3594 1168.75L572.95 1509.56L619.306 1481.56C623.739 1478.88 627.47 1475.2 629.994 1470.76L630.234 1470.33C631.488 1468.02 632.29 1465.78 632.29 1463.92V917.31ZM636.29 1463.92C636.29 1466.78 635.112 1469.73 633.747 1472.25L633.746 1472.25C630.851 1477.56 626.498 1481.89 621.374 1484.98L573.924 1513.64C573.257 1514.04 572.416 1514.02 571.771 1513.59L66.1836 1172.11C56.4188 1166.62 50.3701 1156.29 50.3701 1145.09C50.3701 1145.09 50.3701 1145.08 50.3701 1145.08L3.37793 618.228C3.37266 618.169 3.37012 618.109 3.37012 618.05C3.37014 617.047 3.8016 616.143 4.26074 615.434C4.74134 614.692 5.39811 613.941 6.15039 613.198C7.65816 611.71 9.7582 610.053 12.2051 608.317C17.1129 604.833 23.6708 600.852 30.3379 597.018C37.0157 593.177 43.8517 589.455 49.3311 586.488C54.8789 583.485 58.8999 581.327 60.1123 580.541C66.1794 576.607 74.217 575.701 81.4824 579.418L82.1836 579.793L620.404 890.243C630.219 895.717 636.29 906.076 636.29 917.31V1463.92Z" fill="#231F20"/>
<path d="M2 1175.64V629.01C2 614.21 17.91 604.87 30.83 612.08L569.05 922.53C578.23 927.65 583.91 937.34 583.91 947.85V1494.46C583.91 1509.26 568 1518.6 555.08 1511.39L16.87 1200.96C7.69 1195.84 2 1186.15 2 1175.64Z" fill="white"/>
<path d="M0 1175.64V629.01C7.94002e-05 612.939 17.0069 602.703 31.1338 609.974L31.8047 610.333L31.8291 610.348L570.023 920.783C579.838 926.257 585.91 936.616 585.91 947.85V1494.46C585.91 1510.79 568.359 1521.09 554.105 1513.14C554.097 1513.13 554.089 1513.13 554.081 1513.12L15.8711 1202.69V1202.69C6.07258 1197.21 0 1186.87 0 1175.64ZM4 1175.64C4 1185.42 9.29736 1194.45 17.8438 1199.21C17.8521 1199.22 17.8608 1199.22 17.8691 1199.23L556.064 1509.65C567.649 1516.1 581.91 1507.73 581.91 1494.46V947.85C581.91 938.064 576.622 929.043 568.076 924.277C568.068 924.272 568.059 924.268 568.051 924.263L29.8447 613.82C18.26 607.366 4.00008 615.741 4 629.01V1175.64Z" fill="#231F20"/>
<path d="M193.478 2.48999V6.48999H185.5V2.48999H193.478ZM225.388 2.48999V6.48999H209.433V2.48999H225.388ZM257.298 2.48999V6.48999H241.343V2.48999H257.298ZM289.207 2.48999V6.48999H273.253V2.48999H289.207ZM321.117 2.48999V6.48999H305.162V2.48999H321.117ZM353.027 2.48999V6.48999H337.072V2.48999H353.027ZM384.938 2.48999V6.48999H368.982V2.48999H384.938ZM416.848 2.48999V6.48999H400.893V2.48999H416.848ZM448.758 2.48999V6.48999H432.803V2.48999H448.758ZM480.667 2.48999V6.48999H464.713V2.48999H480.667ZM512.577 2.48999V6.48999H496.622V2.48999H512.577ZM544.487 2.48999V6.48999H528.532V2.48999H544.487ZM576.397 2.48999V6.48999H560.442V2.48999H576.397ZM608.308 2.48999V6.48999H592.353V2.48999H608.308ZM640.218 2.48999V6.48999H624.263V2.48999H640.218ZM672.127 2.48999V6.48999H656.172V2.48999H672.127ZM704.037 2.48999V6.48999H688.082V2.48999H704.037ZM735.947 2.48999V6.48999H719.992V2.48999H735.947ZM767.857 2.48999V6.48999H751.902V2.48999H767.857ZM799.768 2.48999V6.48999H783.812V2.48999H799.768ZM831.678 2.48999V6.48999H815.723V2.48999H831.678ZM863.588 2.48999V6.48999H847.633V2.48999H863.588ZM895.497 2.48999V6.48999H879.542V2.48999H895.497ZM919.43 2.48999V6.48999H911.452V2.48999H919.43Z" fill="#5032E4"/>
<path d="M1352.34 1162.78V1170.69H1348.34V1162.78H1352.34ZM1352.34 1131.15V1146.97H1348.34V1131.15H1352.34ZM1352.34 1099.53V1115.34H1348.34V1099.53H1352.34ZM1352.34 1067.9V1083.71H1348.34V1067.9H1352.34ZM1352.34 1036.27V1052.08H1348.34V1036.27H1352.34ZM1352.34 1004.64V1020.45H1348.34V1004.64H1352.34ZM1352.34 973.01V988.824H1348.34V973.01H1352.34ZM1352.34 941.381V957.195H1348.34V941.381H1352.34ZM1352.34 909.751V925.565H1348.34V909.751H1352.34ZM1352.34 878.122V893.936H1348.34V878.122H1352.34ZM1352.34 846.493V862.307H1348.34V846.493H1352.34ZM1352.34 814.864V830.679H1348.34V814.864H1352.34ZM1352.34 783.235V799.05H1348.34V783.235H1352.34ZM1352.34 751.606V767.421H1348.34V751.606H1352.34ZM1352.34 719.977V735.792H1348.34V719.977H1352.34ZM1352.34 688.348V704.163H1348.34V688.348H1352.34ZM1352.34 656.72V672.534H1348.34V656.72H1352.34ZM1352.34 625.091V640.905H1348.34V625.091H1352.34ZM1352.34 593.462V609.276H1348.34V593.462H1352.34ZM1352.34 569.74V577.647H1348.34V569.74H1352.34Z" fill="#5032E4"/>
<path d="M977.173 1277.47L632.023 1477.76L630.016 1474.3L975.166 1274.01L977.173 1277.47Z" fill="#231F20"/>
<path d="M224.021 490.522L62.2002 583.952L60.2002 580.488L222.021 487.058L224.021 490.522Z" fill="#231F20"/>
<path d="M43.8096 1146.8V701.47C43.8096 689.42 56.7696 681.81 67.2996 687.68L129.63 722.92C137.11 727.09 141.74 734.98 141.74 743.55V1188.86C141.74 1200.91 128.78 1208.52 118.25 1202.65L55.9196 1167.43C48.4396 1163.26 43.8096 1155.36 43.8096 1146.8Z" fill="#594AED"/>
<path d="M41.8096 1146.8V701.47C41.8096 688.105 55.959 679.589 67.7158 685.634L68.2734 685.933L68.2842 685.939L130.614 721.179H130.613C138.722 725.704 143.739 734.26 143.739 743.55V1188.86C143.739 1202.44 129.137 1211.01 117.275 1204.4L117.266 1204.39L54.9453 1169.18C47.0845 1164.79 42.1264 1156.62 41.8242 1147.67L41.8096 1146.8ZM45.8096 1146.8L45.8223 1147.53C46.069 1154.84 49.9963 1161.54 56.2598 1165.32L56.8936 1165.68L56.9033 1165.69L119.223 1200.9C128.421 1206.03 139.739 1199.38 139.739 1188.86V743.55C139.739 735.704 135.501 728.484 128.655 724.667L128.646 724.662L66.3262 689.427L65.8936 689.195C56.7773 684.508 45.8096 691.112 45.8096 701.47V1146.8Z" fill="#231F20"/>
<path d="M175.93 1223.01V969.53C175.93 957.48 188.89 949.87 199.42 955.74L261.75 990.98C269.23 995.15 273.86 1003.04 273.86 1011.61V1265.08C273.86 1277.13 260.9 1284.74 250.37 1278.87L188.04 1243.65C180.56 1239.48 175.93 1231.58 175.93 1223.02V1223.01Z" fill="#6950E4"/>
<path d="M173.93 1223.02V969.53C173.93 956.165 188.079 947.649 199.836 953.694L200.394 953.993L200.404 953.999L262.734 989.239H262.733C270.842 993.764 275.859 1002.32 275.859 1011.61V1265.08C275.859 1278.66 261.258 1287.23 249.396 1280.62L249.386 1280.61L187.065 1245.4C178.951 1240.87 173.93 1232.3 173.93 1223.02ZM177.93 1223.02C177.93 1230.61 181.908 1237.64 188.38 1241.54L189.014 1241.9L189.023 1241.91L251.343 1277.12C260.541 1282.25 271.859 1275.6 271.859 1265.08V1011.61C271.859 1003.76 267.621 996.544 260.775 992.727L260.766 992.722L198.446 957.487L198.014 957.255C188.897 952.568 177.93 959.172 177.93 969.53V1223.02Z" fill="#231F20"/>
<path d="M307.32 1298.78V1143.04C307.32 1130.99 320.28 1123.38 330.81 1129.25L393.14 1164.49C400.62 1168.66 405.25 1176.55 405.25 1185.12V1340.85C405.25 1352.9 392.29 1360.51 381.76 1354.64L319.43 1319.42C311.95 1315.25 307.32 1307.35 307.32 1298.79V1298.78Z" fill="#8A78E4"/>
<path d="M305.32 1298.79V1143.04C305.32 1129.67 319.47 1121.16 331.227 1127.2L331.784 1127.5L331.795 1127.51L394.125 1162.75H394.124C402.233 1167.27 407.25 1175.83 407.25 1185.12V1340.85C407.25 1354.43 392.648 1363 380.786 1356.39L380.776 1356.38L318.456 1321.17C310.342 1316.64 305.32 1308.07 305.32 1298.79ZM309.32 1298.79C309.32 1306.38 313.298 1313.4 319.771 1317.31L320.404 1317.67L320.414 1317.68L382.744 1352.9H382.743C391.939 1358.02 403.25 1351.37 403.25 1340.85V1185.12C403.25 1177.27 399.012 1170.05 392.166 1166.24L392.156 1166.23L329.837 1131L329.404 1130.76C320.288 1126.08 309.32 1132.68 309.32 1143.04V1298.79Z" fill="#231F20"/>
<path d="M445.18 1378.3V990.02C445.18 977.97 458.14 970.36 468.67 976.23L531 1011.47C538.48 1015.64 543.11 1023.53 543.11 1032.1V1420.37C543.11 1432.42 530.15 1440.03 519.62 1434.16L457.29 1398.94C449.81 1394.77 445.18 1386.87 445.18 1378.31V1378.3Z" fill="#A294E4"/>
<path d="M443.18 1378.31V990.02C443.18 976.655 457.329 968.139 469.086 974.184L469.644 974.483L469.654 974.489L531.984 1009.73H531.983C540.092 1014.25 545.109 1022.81 545.109 1032.1V1420.37C545.109 1433.95 530.508 1442.52 518.646 1435.91L518.636 1435.9L456.315 1400.69C448.201 1396.16 443.18 1387.59 443.18 1378.31ZM447.18 1378.31C447.18 1385.9 451.158 1392.92 457.63 1396.83L458.264 1397.19L458.273 1397.2L520.604 1432.42H520.603C529.799 1437.54 541.109 1430.89 541.109 1420.37V1032.1C541.109 1024.25 536.871 1017.03 530.025 1013.22L530.016 1013.21L467.696 977.977L467.264 977.745C458.147 973.058 447.18 979.662 447.18 990.02V1378.31Z" fill="#231F20"/>
<path d="M1018.31 1237.23L971.3 1020.95C971.3 1013.89 1021.93 988.49 1027.13 985.12C1032.82 981.43 1040.39 980.68 1047.14 984.44L1335.48 1145.37C1344.66 1150.49 1350.34 1160.18 1350.34 1170.69V1406.53C1350.34 1408.89 1349.35 1411.49 1348.04 1413.9C1345.33 1418.87 1341.24 1422.95 1336.39 1425.88L1288.94 1454.54L1033.17 1262.54C1023.99 1257.42 1018.3 1247.73 1018.3 1237.22L1018.31 1237.23Z" fill="#594AED"/>
<path d="M1348.34 1170.69C1348.34 1160.9 1343.05 1151.88 1334.51 1147.12L1334.5 1147.12L1046.17 986.186V986.185C1040.11 982.814 1033.33 983.48 1028.22 986.798V986.799C1026.83 987.698 1022.57 989.979 1017.17 992.906C1011.69 995.871 1004.89 999.572 998.262 1003.38C991.621 1007.2 985.197 1011.11 980.449 1014.48C978.068 1016.17 976.172 1017.68 974.891 1018.95C974.248 1019.58 973.812 1020.1 973.549 1020.51C973.43 1020.69 973.368 1020.82 973.335 1020.9L1020.26 1236.81C1020.31 1237 1020.32 1237.2 1020.3 1237.4C1020.36 1246.96 1025.48 1255.77 1033.75 1260.57L1034.14 1260.79L1034.26 1260.86C1034.3 1260.89 1034.33 1260.91 1034.37 1260.94L1289.06 1452.13L1335.36 1424.17C1339.93 1421.4 1343.76 1417.57 1346.28 1412.94C1347.54 1410.63 1348.34 1408.39 1348.34 1406.53V1170.69ZM1352.34 1406.53C1352.34 1409.39 1351.16 1412.34 1349.8 1414.86L1349.8 1414.86C1346.9 1420.17 1342.55 1424.5 1337.42 1427.59L1289.97 1456.25C1289.28 1456.67 1288.39 1456.63 1287.74 1456.14L1032.07 1264.22C1022.38 1258.75 1016.37 1248.52 1016.3 1237.41L969.346 1021.37C969.315 1021.24 969.3 1021.09 969.3 1020.95C969.3 1019.95 969.731 1019.04 970.19 1018.33C970.671 1017.59 971.328 1016.84 972.08 1016.1C973.588 1014.61 975.688 1012.95 978.135 1011.22C983.043 1007.73 989.6 1003.75 996.268 999.918C1002.95 996.077 1009.78 992.355 1015.26 989.389C1020.81 986.385 1024.83 984.227 1026.04 983.441C1032.3 979.38 1040.67 978.546 1048.11 982.693H1048.11L1336.45 1143.62L1336.91 1143.88C1346.46 1149.42 1352.34 1159.63 1352.34 1170.69V1406.53Z" fill="#231F20"/>
<path d="M967.93 1267.77V1031.91C967.93 1017.11 983.84 1007.77 996.76 1014.98L1285.1 1175.91C1294.28 1181.03 1299.96 1190.72 1299.96 1201.23V1437.07C1299.96 1451.87 1284.05 1461.21 1271.13 1454L982.79 1293.09C973.61 1287.97 967.92 1278.28 967.92 1267.77H967.93Z" fill="white"/>
<path d="M965.93 1031.91C965.93 1015.58 983.481 1005.28 997.734 1013.23L1286.07 1174.16L1286.53 1174.42C1296.08 1179.96 1301.96 1190.17 1301.96 1201.23V1437.07C1301.96 1453.4 1284.41 1463.7 1270.16 1455.75L981.815 1294.84C972.002 1289.36 965.92 1279.01 965.92 1267.77C965.92 1267.71 965.924 1267.65 965.93 1267.58V1031.91ZM969.93 1267.77C969.93 1267.83 969.926 1267.89 969.921 1267.94C969.983 1277.66 975.268 1286.6 983.764 1291.34H983.765L1272.1 1452.25C1283.69 1458.72 1297.96 1450.34 1297.96 1437.07V1201.23C1297.96 1191.44 1292.67 1182.42 1284.13 1177.66L1284.12 1177.66L995.785 1016.73C984.199 1010.26 969.93 1018.64 969.93 1031.91V1267.77Z" fill="#231F20"/>
<path d="M1110.07 1200.62C1116.04 1198.27 1122.8 1199.5 1129.03 1203.39L1137.41 1115.6C1118.64 1106.74 1099.11 1104.84 1081.5 1111.76C1061.68 1119.55 1047.64 1137.19 1040.41 1160.13L1099.06 1212.51C1101.25 1206.9 1105 1202.62 1110.08 1200.62H1110.07Z" fill="#6950E4"/>
<path d="M1081.62 1109.57C1099.63 1102.8 1119.41 1104.89 1138.26 1113.79C1139.03 1114.15 1139.48 1114.95 1139.4 1115.79L1131.02 1203.58C1130.96 1204.27 1130.54 1204.88 1129.92 1205.18C1129.29 1205.49 1128.56 1205.45 1127.97 1205.09C1122.13 1201.44 1116.06 1200.44 1110.86 1202.46C1110.84 1202.47 1110.83 1202.47 1110.81 1202.48C1106.36 1204.23 1102.96 1208.02 1100.92 1213.24C1100.68 1213.85 1100.16 1214.3 1099.53 1214.45C1098.89 1214.61 1098.22 1214.44 1097.73 1214L1039.08 1161.62C1038.49 1161.1 1038.27 1160.28 1038.5 1159.53C1045.86 1136.18 1060.24 1117.97 1080.77 1109.9L1081.62 1109.57ZM1135.28 1116.82C1117.29 1108.65 1098.83 1107.1 1082.23 1113.62C1063.46 1121 1049.92 1137.58 1042.71 1159.5L1098.36 1209.2C1100.77 1204.46 1104.42 1200.74 1109.23 1198.81C1109.26 1198.79 1109.3 1198.77 1109.34 1198.76C1115.14 1196.48 1121.46 1197.25 1127.33 1200.15L1135.28 1116.82Z" fill="#231F20"/>
<path d="M1147.03 1257.11C1144.79 1262.23 1141.2 1266.13 1136.42 1268C1126.44 1271.92 1114.28 1265.88 1106.02 1254.03C1098.11 1268.72 1084.42 1294.18 1075.67 1310.76C1104.19 1345.01 1142.34 1361.33 1174.19 1348.82C1196.98 1339.87 1212.13 1317.89 1218.07 1289.79L1147.04 1257.11H1147.03Z" fill="#BEB6E4"/>
<path d="M1105.91 1252.03C1106.6 1251.99 1107.26 1252.32 1107.66 1252.89C1115.7 1264.42 1126.99 1269.56 1135.69 1266.14L1135.69 1266.14C1139.87 1264.5 1143.12 1261.05 1145.2 1256.31L1145.26 1256.17C1145.61 1255.52 1146.29 1255.11 1147.03 1255.11H1147.04L1147.26 1255.12C1147.47 1255.15 1147.68 1255.2 1147.88 1255.29L1218.91 1287.97C1219.75 1288.36 1220.22 1289.29 1220.03 1290.2C1214.09 1318.29 1199.01 1340.7 1176.02 1350.24L1174.92 1350.68C1141.91 1363.65 1102.91 1346.6 1074.13 1312.04C1073.61 1311.42 1073.52 1310.54 1073.9 1309.83C1082.66 1293.24 1096.35 1267.77 1104.26 1253.08L1104.32 1252.97C1104.67 1252.42 1105.25 1252.07 1105.91 1252.03ZM1106.3 1257.74C1098.45 1272.32 1086.29 1294.94 1078.07 1310.5C1106.22 1343.73 1143.08 1358.89 1173.46 1346.96C1195.02 1338.49 1209.7 1317.85 1215.77 1290.93L1147.98 1259.74C1145.54 1264.37 1141.91 1268 1137.15 1269.86L1137.15 1269.86C1126.71 1273.96 1114.74 1268.29 1106.3 1257.74Z" fill="#231F20"/>
<path d="M1100.32 1243.32C1095.97 1232.19 1095.79 1220.87 1099.05 1212.51L1040.4 1160.13C1031.38 1188.75 1032.96 1225.64 1047.17 1261.97C1054.46 1280.62 1064.3 1297.11 1075.66 1310.75C1084.41 1294.17 1098.1 1268.71 1106.01 1254.02C1103.79 1250.84 1101.85 1247.25 1100.31 1243.31L1100.32 1243.32Z" fill="#594AED"/>
<path d="M1039.87 1158.2C1040.53 1158.02 1041.23 1158.19 1041.73 1158.64L1100.38 1211.02C1101.01 1211.57 1101.22 1212.46 1100.91 1213.24C1097.87 1221.04 1097.98 1231.84 1102.18 1242.59C1102.2 1242.62 1102.2 1242.66 1102.22 1242.69C1103.69 1246.44 1105.54 1249.85 1107.65 1252.88C1108.08 1253.49 1108.13 1254.3 1107.77 1254.97C1099.86 1269.66 1086.17 1295.11 1077.43 1311.68C1077.12 1312.27 1076.53 1312.67 1075.87 1312.74C1075.21 1312.81 1074.55 1312.54 1074.12 1312.03C1062.98 1298.65 1053.3 1282.58 1046.01 1264.46L1045.31 1262.7C1030.96 1226.02 1029.31 1188.65 1038.49 1159.53L1038.53 1159.41C1038.76 1158.82 1039.26 1158.37 1039.87 1158.2ZM1041.42 1163.72C1033.57 1191.4 1035.45 1226.53 1049.03 1261.24V1261.24C1055.84 1278.65 1064.88 1294.14 1075.3 1307.15C1083.84 1291.01 1096.12 1268.17 1103.67 1254.14C1101.65 1251.09 1099.88 1247.71 1098.45 1244.04C1098.43 1243.99 1098.41 1243.94 1098.4 1243.89C1094.18 1232.99 1093.76 1221.8 1096.71 1213.1L1041.42 1163.72Z" fill="#231F20"/>
<path d="M1218.88 1236.73C1216.92 1224.21 1213.49 1211.37 1208.5 1198.61C1206.85 1194.39 1205.07 1190.28 1203.17 1186.29L1138.32 1211.75C1141.45 1215.57 1144.15 1220.15 1146.17 1225.32C1147.4 1228.47 1148.29 1231.64 1148.87 1234.75C1150.42 1243.07 1149.71 1250.98 1147.02 1257.12L1218.05 1289.8C1221.45 1273.69 1221.83 1255.57 1218.87 1236.74L1218.88 1236.73Z" fill="#A294E4"/>
<path d="M1202.44 1184.43C1203.42 1184.05 1204.53 1184.48 1204.98 1185.43C1206.9 1189.46 1208.7 1193.62 1210.36 1197.88C1215.41 1210.78 1218.87 1223.76 1220.86 1236.42C1220.87 1236.49 1220.87 1236.56 1220.88 1236.63C1223.84 1255.6 1223.45 1273.9 1220.01 1290.21C1219.88 1290.81 1219.49 1291.31 1218.95 1291.59C1218.41 1291.86 1217.77 1291.87 1217.22 1291.62L1146.18 1258.94C1145.19 1258.48 1144.75 1257.32 1145.19 1256.32C1147.69 1250.62 1148.4 1243.13 1146.9 1235.12C1146.35 1232.13 1145.49 1229.08 1144.31 1226.05C1142.36 1221.07 1139.77 1216.67 1136.77 1213.02C1136.37 1212.52 1136.22 1211.86 1136.38 1211.25C1136.55 1210.63 1136.99 1210.12 1137.59 1209.89L1202.44 1184.43ZM1141.53 1212.64C1144.09 1216.15 1146.3 1220.17 1148.03 1224.59V1224.59C1149.31 1227.86 1150.23 1231.15 1150.84 1234.38C1152.3 1242.23 1151.84 1249.83 1149.58 1256.1L1216.58 1286.92C1219.47 1271.7 1219.67 1254.71 1216.89 1237.05C1216.89 1236.99 1216.88 1236.93 1216.88 1236.87C1214.94 1224.55 1211.55 1211.91 1206.64 1199.34V1199.34C1205.24 1195.75 1203.74 1192.25 1202.16 1188.84L1141.53 1212.64Z" fill="#231F20"/>
<path d="M1138.32 1211.74L1203.17 1186.28C1187.26 1152.84 1163.05 1127.72 1137.41 1115.61L1129.03 1203.4C1132.34 1205.47 1135.5 1208.29 1138.32 1211.74Z" fill="#8A78E4"/>
<path d="M1136.42 1113.87C1136.99 1113.55 1137.68 1113.52 1138.26 1113.8C1164.4 1126.15 1188.91 1151.65 1204.98 1185.42C1205.22 1185.92 1205.23 1186.5 1205.03 1187.02C1204.83 1187.53 1204.42 1187.94 1203.9 1188.14L1139.05 1213.6C1138.24 1213.92 1137.32 1213.68 1136.77 1213.01C1134.07 1209.71 1131.08 1207.04 1127.97 1205.1C1127.33 1204.69 1126.97 1203.96 1127.04 1203.21L1135.42 1115.42L1135.46 1115.18C1135.58 1114.63 1135.93 1114.15 1136.42 1113.87ZM1131.14 1202.39C1133.9 1204.25 1136.52 1206.6 1138.92 1209.36L1200.43 1185.21C1185.22 1154.19 1162.83 1130.74 1139.13 1118.68L1131.14 1202.39Z" fill="#231F20"/>
<path d="M156.67 373.58L109.66 40.99C109.66 33.93 160.29 8.53004 165.49 5.16004C171.18 1.47004 178.75 0.720044 185.5 4.48004L602.22 247.32C611.4 252.44 617.08 262.13 617.08 272.64V624.79C617.08 627.15 616.09 629.75 614.78 632.16C612.07 637.13 607.98 641.21 603.13 644.14L555.68 672.8L171.54 398.9C162.36 393.78 156.67 384.09 156.67 373.58Z" fill="#594AED"/>
<path d="M615.08 272.64C615.08 262.854 609.791 253.833 601.246 249.067C601.235 249.061 601.224 249.054 601.213 249.048L184.519 6.22241C178.467 2.85534 171.693 3.52077 166.578 6.83765V6.83863C165.191 7.73786 160.933 10.0187 155.525 12.946C150.049 15.9107 143.252 19.6115 136.622 23.4246C129.982 27.2437 123.557 31.1484 118.81 34.5183C116.429 36.2082 114.532 37.7202 113.251 38.9851C112.609 39.6191 112.173 40.1416 111.909 40.5486C111.768 40.7666 111.705 40.9061 111.678 40.9773L158.65 373.301C158.663 373.393 158.67 373.486 158.67 373.58C158.67 383.212 163.804 392.104 172.116 396.927L172.515 397.153L172.701 397.271L555.771 670.408L602.096 642.428C606.672 639.664 610.5 635.833 613.024 631.203C614.279 628.895 615.08 626.65 615.08 624.79V272.64ZM619.08 624.79C619.08 627.649 617.902 630.604 616.537 633.115L616.536 633.118C613.641 638.427 609.288 642.757 604.164 645.852L556.714 674.512C556.031 674.925 555.168 674.892 554.519 674.428L170.459 400.586C160.753 395.122 154.725 384.867 154.671 373.731L107.68 41.2703C107.667 41.1775 107.66 41.0836 107.66 40.99C107.66 39.9867 108.092 39.0829 108.551 38.3738C109.031 37.6316 109.688 36.8811 110.44 36.1384C111.948 34.6499 114.048 32.9934 116.495 31.2566C121.403 27.7731 127.961 23.7923 134.628 19.9578C141.306 16.1171 148.142 12.3948 153.621 9.42847C159.169 6.42507 163.19 4.26694 164.402 3.4812C170.469 -0.453011 178.507 -1.35944 185.772 2.35816L186.474 2.73316L186.507 2.75171L603.194 245.573L603.651 245.834C613.197 251.371 619.08 261.582 619.08 272.64V624.79Z" fill="#231F20"/>
<path d="M106.29 404.12V51.9501C106.29 37.1501 122.2 27.8101 135.12 35.0201L551.84 277.86C561.02 282.98 566.7 292.67 566.7 303.18V655.33C566.7 670.13 550.79 679.47 537.87 672.26L121.16 429.44C111.98 424.32 106.29 414.63 106.29 404.12Z" fill="white"/>
<path d="M104.29 404.12V51.95C104.29 35.8788 121.297 25.6432 135.424 32.9139L136.095 33.2732L136.127 33.2918L552.814 276.113L553.271 276.374C562.817 281.911 568.7 292.122 568.7 303.18V655.33C568.7 671.656 551.149 681.961 536.896 674.007C536.885 674.001 536.874 673.994 536.863 673.988L120.186 431.186C110.372 425.713 104.29 415.355 104.29 404.12ZM108.29 404.12C108.29 413.905 113.587 422.926 122.134 427.693C122.145 427.699 122.156 427.705 122.167 427.712L538.845 670.513L539.39 670.805C550.874 676.716 564.7 668.396 564.7 655.33V303.18C564.7 293.394 559.411 284.373 550.866 279.607C550.855 279.601 550.844 279.594 550.833 279.588L134.146 36.7664L133.601 36.4744C122.116 30.5635 108.29 38.8838 108.29 51.95V404.12Z" fill="#231F20"/>
<path d="M104.29 404.12V51.95C104.29 35.8788 121.297 25.6432 135.424 32.9139L136.095 33.2732L136.127 33.2918L552.814 276.113L553.271 276.374C562.817 281.911 568.7 292.122 568.7 303.18V655.33C568.7 671.656 551.149 681.961 536.896 674.007C536.885 674.001 536.874 673.994 536.863 673.988L120.186 431.186C110.372 425.713 104.29 415.355 104.29 404.12ZM108.29 404.12C108.29 413.905 113.587 422.926 122.134 427.693C122.145 427.699 122.156 427.705 122.167 427.712L538.845 670.513L539.39 670.805C550.874 676.716 564.7 668.396 564.7 655.33V303.18C564.7 293.394 559.411 284.373 550.866 279.607C550.855 279.601 550.844 279.594 550.833 279.588L134.146 36.7664L133.601 36.4744C122.116 30.5635 108.29 38.8838 108.29 51.95V404.12Z" fill="#231F20"/>
<path d="M217.606 256.708C218.195 256.629 218.788 256.816 219.225 257.218L313.225 343.718L313.316 343.808C313.405 343.901 313.485 344.003 313.555 344.112L408.745 492.835L500.12 327.721L503.62 329.659L410.62 497.709C410.279 498.325 409.638 498.716 408.934 498.739C408.229 498.761 407.565 498.411 407.186 497.818L310.325 346.486L218.282 261.788L151.522 367.756L148.138 365.624L216.178 257.624L216.306 257.444C216.626 257.042 217.091 256.776 217.606 256.708Z" fill="#231F20"/>
<path d="M165.82 367.82C165.48 365.63 164.88 363.38 164 361.14C163.71 360.4 163.4 359.68 163.07 358.98C160.28 353.12 156.04 348.72 151.55 346.6C148.26 345.05 144.84 344.71 141.75 345.93C138.28 347.29 135.82 350.39 134.55 354.41C132.97 359.43 133.25 365.89 135.74 372.25C137.02 375.52 138.74 378.41 140.73 380.8C145.73 386.8 152.41 389.66 157.99 387.47C161.98 385.9 164.64 382.05 165.68 377.13C166.28 374.31 166.34 371.13 165.82 367.83V367.82Z" fill="#8A78E4"/>
<path d="M141.02 344.069C144.619 342.649 148.487 343.037 152.058 344.632L152.403 344.791L152.404 344.792C157.236 347.073 161.646 351.635 164.595 357.545L164.875 358.121L164.879 358.128C165.229 358.868 165.555 359.629 165.861 360.409H165.862C166.795 362.784 167.434 365.177 167.796 367.513C167.799 367.532 167.8 367.551 167.802 367.57C168.347 371.063 168.289 374.472 167.636 377.543L167.637 377.544C166.506 382.894 163.527 387.44 158.722 389.331L158.721 389.332C151.984 391.976 144.453 388.392 139.194 382.081L139.193 382.08C137.193 379.678 135.462 376.823 134.137 373.624L133.877 372.979C131.249 366.266 130.904 359.333 132.642 353.809L132.643 353.807C134.042 349.38 136.842 345.706 141.02 344.068V344.069ZM150.153 348.166C147.432 347.014 144.794 346.879 142.485 347.791L142.48 347.793C139.718 348.875 137.599 351.401 136.457 355.012L136.456 355.011C135.035 359.528 135.25 365.515 137.602 371.521C138.807 374.6 140.42 377.302 142.267 379.52H142.266C147.007 385.209 152.837 387.344 157.259 385.608C160.434 384.358 162.774 381.205 163.723 376.716L163.724 376.714C164.267 374.16 164.331 371.229 163.844 368.141C163.842 368.127 163.84 368.112 163.838 368.097C163.52 366.063 162.961 363.966 162.138 361.872V361.87C161.865 361.173 161.573 360.496 161.264 359.84C158.631 354.309 154.689 350.295 150.698 348.41L150.153 348.166Z" fill="#231F20"/>
<path d="M233.82 259.82C233.48 257.63 232.88 255.38 232 253.14C231.71 252.4 231.4 251.68 231.07 250.98C228.28 245.12 224.04 240.72 219.55 238.6C216.26 237.05 212.84 236.71 209.75 237.93C206.28 239.29 203.82 242.39 202.55 246.41C200.97 251.43 201.25 257.89 203.74 264.25C205.02 267.52 206.74 270.41 208.73 272.8C213.73 278.8 220.41 281.66 225.99 279.47C229.98 277.9 232.64 274.05 233.68 269.13C234.28 266.31 234.34 263.13 233.82 259.83V259.82Z" fill="#8A78E4"/>
<path d="M209.02 236.069C212.619 234.649 216.487 235.036 220.058 236.632L220.403 236.791L220.404 236.792C225.236 239.073 229.646 243.635 232.595 249.545L232.875 250.121L232.879 250.128C233.229 250.868 233.555 251.629 233.861 252.409H233.862C234.795 254.784 235.434 257.177 235.796 259.513C235.799 259.532 235.8 259.551 235.802 259.57C236.347 263.063 236.289 266.472 235.636 269.543L235.637 269.544C234.506 274.894 231.527 279.44 226.722 281.331L226.721 281.332C219.984 283.976 212.453 280.392 207.194 274.081L207.193 274.08C205.193 271.678 203.462 268.823 202.137 265.624L201.877 264.979C199.249 258.266 198.904 251.333 200.642 245.809L200.643 245.807C202.042 241.379 204.842 237.706 209.02 236.068V236.069ZM218.153 240.166C215.432 239.014 212.794 238.879 210.485 239.791L210.48 239.793C207.718 240.875 205.599 243.4 204.457 247.012L204.456 247.011C203.035 251.528 203.25 257.515 205.602 263.521C206.807 266.599 208.42 269.302 210.267 271.52H210.266C215.007 277.209 220.837 279.344 225.259 277.608C228.434 276.358 230.774 273.205 231.723 268.716L231.724 268.713C232.267 266.16 232.331 263.229 231.844 260.141C231.842 260.127 231.84 260.112 231.838 260.097C231.52 258.063 230.961 255.966 230.138 253.872V253.87C229.865 253.173 229.573 252.496 229.264 251.839C226.631 246.309 222.689 242.295 218.698 240.41L218.153 240.166Z" fill="#231F20"/>
<path d="M327.82 345.82C327.48 343.63 326.88 341.38 326 339.14C325.71 338.4 325.4 337.68 325.07 336.98C322.28 331.12 318.04 326.72 313.55 324.6C310.26 323.05 306.84 322.71 303.75 323.93C300.28 325.29 297.82 328.39 296.55 332.41C294.97 337.43 295.25 343.89 297.74 350.25C299.02 353.52 300.74 356.41 302.73 358.8C307.73 364.8 314.41 367.66 319.99 365.47C323.98 363.9 326.64 360.05 327.68 355.13C328.28 352.31 328.34 349.13 327.82 345.83V345.82Z" fill="#8A78E4"/>
<path d="M303.02 322.069C306.619 320.649 310.487 321.036 314.058 322.632L314.403 322.791L314.404 322.792C319.236 325.073 323.646 329.635 326.595 335.545L326.875 336.121L326.879 336.128C327.229 336.868 327.555 337.629 327.861 338.409H327.862C328.795 340.784 329.434 343.177 329.796 345.513C329.799 345.532 329.8 345.551 329.802 345.57C330.347 349.063 330.289 352.472 329.636 355.543L329.637 355.544C328.506 360.894 325.527 365.44 320.722 367.331L320.721 367.332C313.984 369.976 306.453 366.392 301.194 360.081L301.193 360.08C299.193 357.678 297.462 354.823 296.137 351.624L295.877 350.979C293.249 344.266 292.904 337.333 294.642 331.809L294.643 331.807C296.042 327.379 298.842 323.706 303.02 322.068V322.069ZM312.153 326.166C309.432 325.014 306.794 324.879 304.485 325.791L304.48 325.793C301.719 326.875 299.599 329.4 298.457 333.012L298.456 333.011C297.035 337.528 297.25 343.515 299.602 349.521C300.807 352.599 302.42 355.302 304.267 357.52H304.266C309.007 363.209 314.837 365.344 319.259 363.608C322.434 362.358 324.774 359.205 325.723 354.716L325.724 354.713C326.267 352.16 326.331 349.229 325.844 346.141C325.842 346.127 325.84 346.112 325.838 346.097C325.52 344.063 324.961 341.966 324.138 339.872V339.87C323.865 339.173 323.573 338.496 323.264 337.839C320.631 332.309 316.689 328.295 312.698 326.41L312.153 326.166Z" fill="#231F20"/>
<path d="M424.82 496.82C424.48 494.63 423.88 492.38 423 490.14C422.71 489.4 422.4 488.68 422.07 487.98C419.28 482.12 415.04 477.72 410.55 475.6C407.26 474.05 403.84 473.71 400.75 474.93C397.28 476.29 394.82 479.39 393.55 483.41C391.97 488.43 392.25 494.89 394.74 501.25C396.02 504.52 397.74 507.41 399.73 509.8C404.73 515.8 411.41 518.66 416.99 516.47C420.98 514.9 423.64 511.05 424.68 506.13C425.28 503.31 425.34 500.13 424.82 496.83V496.82Z" fill="#8A78E4"/>
<path d="M400.02 473.069C403.619 471.649 407.487 472.036 411.058 473.632L411.403 473.791L411.404 473.792C416.236 476.073 420.646 480.635 423.595 486.545L423.875 487.121L423.879 487.128C424.229 487.868 424.555 488.629 424.861 489.409H424.862C425.795 491.784 426.434 494.177 426.796 496.513C426.799 496.532 426.8 496.551 426.802 496.57C427.347 500.063 427.289 503.472 426.636 506.543L426.637 506.544C425.506 511.894 422.527 516.44 417.722 518.331L417.721 518.332C410.984 520.976 403.453 517.392 398.194 511.081L398.193 511.08C396.193 508.678 394.462 505.823 393.137 502.624L392.877 501.979C390.249 495.266 389.904 488.333 391.642 482.809L391.643 482.807C393.042 478.379 395.842 474.706 400.02 473.068V473.069ZM409.153 477.166C406.432 476.014 403.794 475.879 401.485 476.791L401.48 476.793C398.719 477.875 396.599 480.4 395.457 484.012L395.456 484.011C394.035 488.528 394.25 494.515 396.602 500.521C397.807 503.599 399.42 506.302 401.267 508.52H401.266C406.007 514.209 411.837 516.344 416.259 514.608C419.434 513.358 421.774 510.205 422.723 505.716L422.724 505.713C423.267 503.16 423.331 500.229 422.844 497.141C422.842 497.127 422.84 497.112 422.838 497.097C422.52 495.063 421.961 492.966 421.138 490.872V490.87C420.865 490.173 420.573 489.496 420.264 488.839C417.631 483.309 413.689 479.295 409.698 477.41L409.153 477.166Z" fill="#231F20"/>
<path d="M517.82 329.82C517.48 327.63 516.88 325.38 516 323.14C515.71 322.4 515.4 321.68 515.07 320.98C512.28 315.12 508.04 310.72 503.55 308.6C500.26 307.05 496.84 306.71 493.75 307.93C490.28 309.29 487.82 312.39 486.55 316.41C484.97 321.43 485.25 327.89 487.74 334.25C489.02 337.52 490.74 340.41 492.73 342.8C497.73 348.8 504.41 351.66 509.99 349.47C513.98 347.9 516.64 344.05 517.68 339.13C518.28 336.31 518.34 333.13 517.82 329.83V329.82Z" fill="#8A78E4"/>
<path d="M493.02 306.069C496.619 304.649 500.487 305.036 504.058 306.632L504.403 306.791L504.404 306.792C509.236 309.073 513.646 313.635 516.595 319.545L516.875 320.121L516.879 320.128C517.229 320.868 517.555 321.629 517.861 322.409H517.862C518.795 324.784 519.434 327.177 519.796 329.513C519.799 329.532 519.8 329.551 519.802 329.57C520.347 333.063 520.289 336.472 519.636 339.543L519.637 339.544C518.506 344.894 515.527 349.44 510.722 351.331L510.721 351.332C503.984 353.976 496.453 350.392 491.194 344.081L491.193 344.08C489.193 341.678 487.462 338.823 486.137 335.624L485.877 334.979C483.249 328.266 482.904 321.333 484.642 315.809L484.643 315.807C486.042 311.379 488.842 307.706 493.02 306.068V306.069ZM502.153 310.166C499.432 309.014 496.794 308.879 494.485 309.791L494.48 309.793C491.719 310.875 489.599 313.4 488.457 317.012L488.456 317.011C487.035 321.528 487.25 327.515 489.602 333.521C490.807 336.599 492.42 339.302 494.267 341.52H494.266C499.007 347.209 504.837 349.344 509.259 347.608C512.434 346.358 514.774 343.205 515.723 338.716L515.724 338.713C516.267 336.16 516.331 333.229 515.844 330.141C515.842 330.127 515.84 330.112 515.838 330.097C515.52 328.063 514.961 325.966 514.138 323.872V323.87C513.865 323.173 513.573 322.496 513.264 321.839C510.631 316.309 506.689 312.295 502.698 310.41L502.153 310.166Z" fill="#231F20"/>
</g>
<defs>
<clipPath id="clip0_1058_28601">
<rect width="1356.09" height="1515.87" fill="white"/>
</clipPath>
</defs>
</svg>
