<svg width="1920" height="1920" viewBox="0 0 1920 1920" fill="none" xmlns="http://www.w3.org/2000/svg">
<mask id="mask0_1058_22730" style="mask-type:luminance" maskUnits="userSpaceOnUse" x="0" y="0" width="1920" height="1920">
<path d="M1920 0H0V1920H1920V0Z" fill="white"/>
</mask>
<g mask="url(#mask0_1058_22730)">
<path d="M859.51 1205.8V1090.2L959.65 1148.02V1263.61L859.51 1205.8Z" fill="white"/>
<path d="M858.51 1088.47C859.128 1088.11 859.891 1088.11 860.51 1088.47L960.649 1146.29C961.268 1146.65 961.649 1147.31 961.649 1148.02V1263.61C961.649 1264.32 961.268 1264.98 960.649 1265.34C960.031 1265.7 959.268 1265.7 958.649 1265.34L858.51 1207.53C857.891 1207.17 857.51 1206.51 857.51 1205.8V1090.2C857.51 1089.49 857.891 1088.82 858.51 1088.47ZM861.51 1204.65L957.649 1260.15V1149.17L861.51 1093.66V1204.65Z" fill="#231F20"/>
<path d="M959.65 1148.02L1059.49 1090.2V1206L959.65 1263.61V1148.02Z" fill="white"/>
<path d="M1058.49 1088.47C1059.11 1088.11 1059.87 1088.11 1060.49 1088.47C1061.11 1088.82 1061.49 1089.49 1061.49 1090.2V1206C1061.49 1206.71 1061.11 1207.38 1060.49 1207.73L960.65 1265.34C960.031 1265.7 959.269 1265.7 958.65 1265.34C958.031 1264.98 957.65 1264.32 957.65 1263.61V1148.02C957.65 1147.31 958.03 1146.65 958.648 1146.29L1058.49 1088.47ZM961.65 1149.17V1260.15L1057.49 1204.84V1093.67L961.65 1149.17Z" fill="#231F20"/>
<path d="M859.51 1090.2L959.35 1032.39L1059.49 1090.2L959.65 1148.02L859.51 1090.2Z" fill="white"/>
<path d="M958.465 1030.6C959.061 1030.3 959.769 1030.32 960.35 1030.66L1060.49 1088.47C1061.11 1088.83 1061.49 1089.48 1061.49 1090.2C1061.49 1090.91 1061.11 1091.57 1060.49 1091.93L960.652 1149.75C960.033 1150.11 959.269 1150.11 958.649 1149.75L858.51 1091.93C857.891 1091.57 857.51 1090.92 857.51 1090.2C857.509 1089.49 857.89 1088.83 858.508 1088.47L958.348 1030.66L958.465 1030.6ZM863.505 1090.2L959.647 1145.71L1055.49 1090.2L959.35 1034.7L863.505 1090.2Z" fill="#231F20"/>
<path d="M609.51 829.8V714.2L709.65 772.02V887.61L609.51 829.8Z" fill="white"/>
<path d="M608.51 712.468C609.128 712.11 609.891 712.11 610.51 712.468L710.649 770.288C711.268 770.645 711.649 771.306 711.649 772.02V887.61C711.649 888.325 711.268 888.984 710.649 889.342C710.031 889.699 709.268 889.699 708.649 889.342L608.51 831.532C607.891 831.175 607.51 830.514 607.51 829.8V714.2C607.51 713.485 607.891 712.825 608.51 712.468ZM611.51 828.645L707.649 884.145V773.174L611.51 717.664V828.645Z" fill="#231F20"/>
<path d="M709.65 772.02L809.49 714.2V830L709.65 887.61V772.02Z" fill="white"/>
<path d="M808.488 712.47C809.107 712.111 809.869 712.111 810.489 712.468C811.108 712.825 811.49 713.485 811.49 714.2V830C811.49 830.714 811.109 831.375 810.49 831.732L710.65 889.343C710.031 889.7 709.269 889.699 708.65 889.342C708.031 888.984 707.65 888.325 707.65 887.61V772.02L707.655 771.887C707.699 771.225 708.069 770.624 708.648 770.289L808.488 712.47ZM711.65 773.173V884.146L807.49 828.845V717.669L711.65 773.173Z" fill="#231F20"/>
<path d="M609.51 714.2L709.35 656.39L809.49 714.2L709.65 772.02L609.51 714.2Z" fill="white"/>
<path d="M708.465 654.596C709.061 654.302 709.769 654.322 710.35 654.658L810.489 712.468C811.108 712.825 811.489 713.485 811.489 714.199C811.49 714.913 811.11 715.573 810.492 715.931L710.652 773.75C710.033 774.109 709.269 774.11 708.649 773.752L608.51 715.932C607.891 715.575 607.51 714.916 607.51 714.202C607.509 713.487 607.89 712.827 608.508 712.469L708.348 654.66L708.465 654.596ZM613.505 714.198L709.647 769.709L805.494 714.202L709.35 658.7L613.505 714.198Z" fill="#231F20"/>
<path d="M1110.51 829.8V714.2L1210.65 772.02V887.61L1110.51 829.8Z" fill="white"/>
<path d="M1109.51 712.468C1110.13 712.11 1110.89 712.11 1111.51 712.468L1211.65 770.288C1212.27 770.645 1212.65 771.306 1212.65 772.02V887.61C1212.65 888.325 1212.27 888.984 1211.65 889.342C1211.03 889.699 1210.27 889.699 1209.65 889.342L1109.51 831.532C1108.89 831.175 1108.51 830.514 1108.51 829.8V714.2C1108.51 713.485 1108.89 712.825 1109.51 712.468ZM1112.51 828.645L1208.65 884.145V773.174L1112.51 717.664V828.645Z" fill="#231F20"/>
<path d="M1210.65 772.02L1310.49 714.2V830L1210.65 887.61V772.02Z" fill="white"/>
<path d="M1309.49 712.47C1310.11 712.111 1310.87 712.111 1311.49 712.468C1312.11 712.825 1312.49 713.485 1312.49 714.2V830C1312.49 830.714 1312.11 831.375 1311.49 831.732L1211.65 889.343C1211.03 889.7 1210.27 889.699 1209.65 889.342C1209.03 888.984 1208.65 888.325 1208.65 887.61V772.02L1208.65 771.887C1208.7 771.225 1209.07 770.624 1209.65 770.289L1309.49 712.47ZM1212.65 773.173V884.146L1308.49 828.845V717.669L1212.65 773.173Z" fill="#231F20"/>
<path d="M1110.51 714.2L1210.35 656.39L1310.49 714.2L1210.65 772.02L1110.51 714.2Z" fill="white"/>
<path d="M1209.46 654.596C1210.06 654.302 1210.77 654.322 1211.35 654.658L1311.49 712.468C1312.11 712.825 1312.49 713.485 1312.49 714.199C1312.49 714.913 1312.11 715.573 1311.49 715.931L1211.65 773.75C1211.03 774.109 1210.27 774.11 1209.65 773.752L1109.51 715.932C1108.89 715.575 1108.51 714.916 1108.51 714.202C1108.51 713.487 1108.89 712.827 1109.51 712.469L1209.35 654.66L1209.46 654.596ZM1114.5 714.198L1210.65 769.709L1306.49 714.202L1210.35 658.7L1114.5 714.198Z" fill="#231F20"/>
<path d="M961.17 954C984.366 954 1003.17 935.196 1003.17 912C1003.17 888.804 984.366 870 961.17 870C937.974 870 919.17 888.804 919.17 912C919.17 935.196 937.974 954 961.17 954Z" fill="#231F20"/>
<path d="M942.96 925.37C945.1 921.93 947.93 918.84 951.54 917C952.36 916.58 952.56 915.49 951.96 914.79C946.78 908.71 947.02 899.23 954.33 894.73C968.06 886.27 980.72 903.83 970.91 914.77C970.29 915.47 970.48 916.56 971.3 917C974.82 918.92 979.89 923.57 979.71 926.27C979.64 927.27 979.19 927.51 978.59 927.97C978.33 928.17 978.02 928.28 977.7 928.28C977.3 928.28 976.91 928.11 976.63 927.82C975.62 926.76 975.01 925.39 974.02 924.26C968.03 917.43 957.04 916.78 950.24 922.79C948.51 924.32 947.57 926.18 946.11 927.82C945.84 928.12 945.45 928.28 945.04 928.28H944.2C943.4 928.28 942.75 927.63 942.75 926.83V926.14C942.75 925.87 942.82 925.6 942.97 925.37H942.96ZM959.1 896.94C950.52 898.4 950.11 913.08 959.77 914.36C973.87 916.24 973.73 894.45 959.1 896.94Z" fill="white"/>
<path d="M961.17 954V1032H957.17V954H961.17Z" fill="#231F20"/>
<path d="M924.987 895.022L922.972 898.478L808.482 831.728L810.498 828.272L924.987 895.022Z" fill="#231F20"/>
<path d="M1111.51 831.532L995.349 898.483L993.351 895.017L1109.51 828.068L1111.51 831.532Z" fill="#231F20"/>
<path d="M260.51 1743.8V1628.2L360.65 1686.02V1801.61L260.51 1743.8Z" fill="white"/>
<path d="M259.51 1626.47C260.128 1626.11 260.891 1626.11 261.51 1626.47L361.649 1684.29C362.268 1684.65 362.649 1685.31 362.649 1686.02V1801.61C362.649 1802.32 362.268 1802.98 361.649 1803.34C361.031 1803.7 360.268 1803.7 359.649 1803.34L259.51 1745.53C258.891 1745.17 258.51 1744.51 258.51 1743.8V1628.2C258.51 1627.49 258.891 1626.82 259.51 1626.47ZM262.51 1742.65L358.649 1798.15V1687.17L262.51 1631.66V1742.65Z" fill="#231F20"/>
<path d="M360.65 1686.02L460.49 1628.2V1744L360.65 1801.61V1686.02Z" fill="white"/>
<path d="M459.488 1626.47C460.107 1626.11 460.869 1626.11 461.489 1626.47C462.108 1626.82 462.49 1627.49 462.49 1628.2V1744C462.49 1744.71 462.109 1745.38 461.49 1745.73L361.65 1803.34C361.031 1803.7 360.269 1803.7 359.65 1803.34C359.031 1802.98 358.65 1802.32 358.65 1801.61V1686.02C358.65 1685.31 359.03 1684.65 359.648 1684.29L459.488 1626.47ZM362.65 1687.17V1798.15L458.49 1742.84V1631.67L362.65 1687.17Z" fill="#231F20"/>
<path d="M260.51 1628.2L360.35 1570.39L460.49 1628.2L360.65 1686.02L260.51 1628.2Z" fill="white"/>
<path d="M359.465 1568.6C360.061 1568.3 360.769 1568.32 361.35 1568.66L461.489 1626.47C462.108 1626.83 462.489 1627.48 462.489 1628.2C462.49 1628.91 462.11 1629.57 461.492 1629.93L361.652 1687.75C361.033 1688.11 360.269 1688.11 359.649 1687.75L259.51 1629.93C258.891 1629.58 258.51 1628.92 258.51 1628.2C258.509 1627.49 258.89 1626.83 259.508 1626.47L359.348 1568.66L359.465 1568.6ZM264.505 1628.2L360.647 1683.71L456.494 1628.2L360.35 1572.7L264.505 1628.2Z" fill="#231F20"/>
<path d="M111.17 1868C134.366 1868 153.17 1849.2 153.17 1826C153.17 1802.8 134.366 1784 111.17 1784C87.974 1784 69.1699 1802.8 69.1699 1826C69.1699 1849.2 87.974 1868 111.17 1868Z" fill="#231F20"/>
<path d="M92.96 1839.37C95.1 1835.93 97.93 1832.84 101.54 1831C102.36 1830.58 102.56 1829.49 101.96 1828.79C96.78 1822.71 97.02 1813.23 104.33 1808.73C118.06 1800.27 130.72 1817.83 120.91 1828.77C120.29 1829.47 120.48 1830.56 121.3 1831C124.82 1832.92 129.89 1837.57 129.71 1840.27C129.64 1841.27 129.19 1841.51 128.59 1841.97C128.33 1842.17 128.02 1842.28 127.7 1842.28C127.3 1842.28 126.91 1842.11 126.63 1841.82C125.62 1840.76 125.01 1839.39 124.02 1838.26C118.03 1831.43 107.04 1830.78 100.24 1836.79C98.51 1838.32 97.57 1840.18 96.11 1841.82C95.84 1842.12 95.45 1842.28 95.04 1842.28H94.2C93.4 1842.28 92.75 1841.63 92.75 1840.83V1840.14C92.75 1839.87 92.82 1839.6 92.97 1839.37H92.96ZM109.1 1810.94C100.52 1812.4 100.11 1827.08 109.77 1828.36C123.87 1830.24 123.73 1808.45 109.1 1810.94Z" fill="white"/>
<path d="M111.17 1868V1946H107.17V1868H111.17Z" fill="#231F20"/>
<path d="M74.9868 1809.02L72.9722 1812.48L-41.5181 1745.73L-39.5024 1742.27L74.9868 1809.02Z" fill="#231F20"/>
<path d="M261.509 1745.53L145.349 1812.48L143.351 1809.02L259.511 1742.07L261.509 1745.53Z" fill="#231F20"/>
<path d="M1745.51 1931.8V1816.2L1845.65 1874.02V1989.61L1745.51 1931.8Z" fill="white"/>
<path d="M1744.51 1814.47C1745.13 1814.11 1745.89 1814.11 1746.51 1814.47L1846.65 1872.29C1847.27 1872.65 1847.65 1873.31 1847.65 1874.02V1989.61C1847.65 1990.32 1847.27 1990.98 1846.65 1991.34C1846.03 1991.7 1845.27 1991.7 1844.65 1991.34L1744.51 1933.53C1743.89 1933.17 1743.51 1932.51 1743.51 1931.8V1816.2L1743.51 1816.07C1743.56 1815.4 1743.93 1814.8 1744.51 1814.47ZM1747.51 1930.65L1843.65 1986.15V1875.17L1747.51 1819.66V1930.65Z" fill="#231F20"/>
<path d="M1845.65 1874.02L1945.49 1816.2V1932L1845.65 1989.61V1874.02Z" fill="white"/>
<path d="M1944.49 1814.47C1945.11 1814.11 1945.87 1814.11 1946.49 1814.47C1947.11 1814.82 1947.49 1815.49 1947.49 1816.2V1932C1947.49 1932.71 1947.11 1933.38 1946.49 1933.73L1846.65 1991.34C1846.03 1991.7 1845.27 1991.7 1844.65 1991.34C1844.03 1990.98 1843.65 1990.32 1843.65 1989.61V1874.02C1843.65 1873.31 1844.03 1872.65 1844.65 1872.29L1944.49 1814.47ZM1847.65 1875.17V1986.15L1943.49 1930.84V1819.67L1847.65 1875.17Z" fill="#231F20"/>
<path d="M1745.51 1816.2L1845.35 1758.39L1945.49 1816.2L1845.65 1874.02L1745.51 1816.2Z" fill="white"/>
<path d="M1844.35 1756.66C1844.97 1756.3 1845.73 1756.3 1846.35 1756.66L1946.49 1814.47C1947.11 1814.83 1947.49 1815.48 1947.49 1816.2C1947.49 1816.91 1947.11 1817.57 1946.49 1817.93L1846.65 1875.75C1846.03 1876.11 1845.27 1876.11 1844.65 1875.75L1744.51 1817.93C1743.89 1817.57 1743.51 1816.92 1743.51 1816.2C1743.51 1815.49 1743.89 1814.83 1744.51 1814.47L1844.35 1756.66ZM1749.5 1816.2L1845.65 1871.71L1941.49 1816.2L1845.35 1760.7L1749.5 1816.2Z" fill="#231F20"/>
<path d="M1495.51 1555.8V1440.2L1595.65 1498.02V1613.61L1495.51 1555.8Z" fill="white"/>
<path d="M1494.51 1438.47C1495.13 1438.11 1495.89 1438.11 1496.51 1438.47L1596.65 1496.29C1597.27 1496.65 1597.65 1497.31 1597.65 1498.02V1613.61C1597.65 1614.32 1597.27 1614.98 1596.65 1615.34C1596.03 1615.7 1595.27 1615.7 1594.65 1615.34L1494.51 1557.53C1493.89 1557.17 1493.51 1556.51 1493.51 1555.8V1440.2C1493.51 1439.49 1493.89 1438.82 1494.51 1438.47ZM1497.51 1554.65L1593.65 1610.15V1499.17L1497.51 1443.66V1554.65Z" fill="#231F20"/>
<path d="M1595.65 1498.02L1695.49 1440.2V1556L1595.65 1613.61V1498.02Z" fill="white"/>
<path d="M1694.49 1438.47C1695.11 1438.11 1695.87 1438.11 1696.49 1438.47C1697.11 1438.82 1697.49 1439.49 1697.49 1440.2V1556C1697.49 1556.71 1697.11 1557.38 1696.49 1557.73L1596.65 1615.34C1596.03 1615.7 1595.27 1615.7 1594.65 1615.34C1594.03 1614.98 1593.65 1614.32 1593.65 1613.61V1498.02C1593.65 1497.31 1594.03 1496.65 1594.65 1496.29L1694.49 1438.47ZM1597.65 1499.17V1610.15L1693.49 1554.84V1443.67L1597.65 1499.17Z" fill="#231F20"/>
<path d="M1495.51 1440.2L1595.35 1382.39L1695.49 1440.2L1595.65 1498.02L1495.51 1440.2Z" fill="white"/>
<path d="M1594.46 1380.6C1595.06 1380.3 1595.77 1380.32 1596.35 1380.66L1696.49 1438.47C1697.11 1438.83 1697.49 1439.48 1697.49 1440.2C1697.49 1440.91 1697.11 1441.57 1696.49 1441.93L1596.65 1499.75C1596.03 1500.11 1595.27 1500.11 1594.65 1499.75L1494.51 1441.93C1493.89 1441.58 1493.51 1440.92 1493.51 1440.2C1493.51 1439.49 1493.89 1438.83 1494.51 1438.47L1594.35 1380.66L1594.46 1380.6ZM1499.5 1440.2L1595.65 1495.71L1691.49 1440.2L1595.35 1384.7L1499.5 1440.2Z" fill="#231F20"/>
<path d="M1847.17 1680C1870.37 1680 1889.17 1661.2 1889.17 1638C1889.17 1614.8 1870.37 1596 1847.17 1596C1823.97 1596 1805.17 1614.8 1805.17 1638C1805.17 1661.2 1823.97 1680 1847.17 1680Z" fill="#231F20"/>
<path d="M1828.96 1651.37C1831.1 1647.93 1833.93 1644.84 1837.54 1643C1838.36 1642.58 1838.56 1641.49 1837.96 1640.79C1832.78 1634.71 1833.02 1625.23 1840.33 1620.73C1854.06 1612.27 1866.72 1629.83 1856.91 1640.77C1856.29 1641.47 1856.48 1642.56 1857.3 1643C1860.82 1644.92 1865.89 1649.57 1865.71 1652.27C1865.64 1653.27 1865.19 1653.51 1864.59 1653.97C1864.33 1654.17 1864.02 1654.28 1863.7 1654.28C1863.3 1654.28 1862.91 1654.11 1862.63 1653.82C1861.62 1652.76 1861.01 1651.39 1860.02 1650.26C1854.03 1643.43 1843.04 1642.78 1836.24 1648.79C1834.51 1650.32 1833.57 1652.18 1832.11 1653.82C1831.84 1654.12 1831.45 1654.28 1831.04 1654.28H1830.2C1829.4 1654.28 1828.75 1653.63 1828.75 1652.83V1652.14C1828.75 1651.87 1828.82 1651.6 1828.97 1651.37H1828.96ZM1845.1 1622.94C1836.52 1624.4 1836.11 1639.08 1845.77 1640.36C1859.87 1642.24 1859.73 1620.45 1845.1 1622.94Z" fill="white"/>
<path d="M1847.17 1680V1758H1843.17V1680H1847.17Z" fill="#231F20"/>
<path d="M1810.99 1621.02L1808.97 1624.48L1694.48 1557.73L1696.5 1554.27L1810.99 1621.02Z" fill="#231F20"/>
<path d="M1997.51 1557.53L1881.35 1624.48L1879.35 1621.02L1995.51 1554.07L1997.51 1557.53Z" fill="#231F20"/>
<path d="M610.395 828.391L608.385 831.85L601.46 827.825L603.47 824.367L610.395 828.391ZM589.62 816.318L587.61 819.777L573.761 811.729L575.771 808.271L589.62 816.318ZM561.921 800.222L559.911 803.681L546.062 795.633L548.071 792.174L561.921 800.222ZM534.221 784.126L532.211 787.584L518.361 779.536L520.371 776.077L534.221 784.126ZM506.521 768.029L504.512 771.488L490.662 763.439L492.672 759.981L506.521 768.029ZM478.822 751.933L476.812 755.392L462.963 747.343L464.972 743.885L478.822 751.933ZM451.122 735.837L449.112 739.295L435.263 731.247L437.272 727.788L451.122 735.837ZM423.423 719.74L421.413 723.198L407.563 715.15L409.573 711.692L423.423 719.74ZM395.724 703.644L393.714 707.103L379.864 699.054L381.873 695.596L395.724 703.644ZM368.023 687.548L366.014 691.006L352.164 682.958L354.174 679.499L368.023 687.548ZM340.324 671.451L338.314 674.909L324.465 666.861L326.475 663.403L340.324 671.451ZM312.625 655.354L310.615 658.813L296.766 650.765L298.775 647.307L312.625 655.354ZM284.925 639.259L282.915 642.717L269.065 634.669L271.075 631.21L284.925 639.259ZM257.226 623.162L255.216 626.62L241.366 618.572L243.376 615.114L257.226 623.162ZM229.526 607.065L227.517 610.524L213.667 602.476L215.677 599.018L229.526 607.065ZM201.826 590.97L199.816 594.428L185.967 586.38L187.977 582.921L201.826 590.97ZM174.127 574.873L172.117 578.331L158.268 570.283L160.277 566.825L174.127 574.873ZM146.428 558.776L144.418 562.235L130.568 554.187L132.578 550.729L146.428 558.776ZM118.728 542.681L116.718 546.139L102.868 538.091L104.878 534.632L118.728 542.681ZM91.0283 526.584L89.0186 530.042L75.1689 521.994L77.1787 518.536L91.0283 526.584ZM63.3291 510.487L61.3193 513.946L47.4697 505.897L49.4795 502.439L63.3291 510.487ZM35.6289 494.392L33.6191 497.85L19.7695 489.802L21.7793 486.343L35.6289 494.392ZM7.92969 478.295L5.91992 481.753L-1.00488 477.729L1.00488 474.271L7.92969 478.295Z" fill="#5032E4"/>
<path d="M971.395 2154.39L969.385 2157.85L962.46 2153.83L964.47 2150.37L971.395 2154.39ZM950.62 2142.32L948.61 2145.78L934.761 2137.73L936.771 2134.27L950.62 2142.32ZM922.921 2126.22L920.911 2129.68L907.062 2121.63L909.071 2118.17L922.921 2126.22ZM895.221 2110.13L893.211 2113.58L879.361 2105.54L881.371 2102.08L895.221 2110.13ZM867.521 2094.03L865.512 2097.49L851.662 2089.44L853.672 2085.98L867.521 2094.03ZM839.822 2077.93L837.812 2081.39L823.962 2073.34L825.972 2069.88L839.822 2077.93ZM812.122 2061.84L810.112 2065.29L796.263 2057.25L798.272 2053.79L812.122 2061.84ZM784.423 2045.74L782.413 2049.2L768.563 2041.15L770.573 2037.69L784.423 2045.74ZM756.724 2029.64L754.714 2033.1L740.863 2025.05L742.873 2021.6L756.724 2029.64ZM729.023 2013.55L727.014 2017.01L713.164 2008.96L715.174 2005.5L729.023 2013.55ZM701.324 1997.45L699.314 2000.91L685.465 1992.86L687.475 1989.4L701.324 1997.45ZM673.625 1981.35L671.615 1984.81L657.766 1976.77L659.775 1973.31L673.625 1981.35ZM645.925 1965.26L643.915 1968.72L630.065 1960.67L632.075 1957.21L645.925 1965.26ZM618.226 1949.16L616.216 1952.62L602.366 1944.57L604.376 1941.11L618.226 1949.16ZM590.526 1933.07L588.517 1936.52L574.667 1928.48L576.677 1925.02L590.526 1933.07ZM562.826 1916.97L560.816 1920.43L546.967 1912.38L548.977 1908.92L562.826 1916.97ZM535.127 1900.87L533.117 1904.33L519.268 1896.28L521.277 1892.83L535.127 1900.87ZM507.428 1884.78L505.418 1888.24L491.568 1880.19L493.578 1876.73L507.428 1884.78ZM479.728 1868.68L477.718 1872.14L463.868 1864.09L465.878 1860.63L479.728 1868.68ZM452.028 1852.58L450.019 1856.04L436.169 1847.99L438.179 1844.54L452.028 1852.58ZM424.329 1836.49L422.319 1839.95L408.47 1831.9L410.479 1828.44L424.329 1836.49ZM396.629 1820.39L394.619 1823.85L380.77 1815.8L382.779 1812.34L396.629 1820.39ZM368.93 1804.29L366.92 1807.75L359.995 1803.73L362.005 1800.27L368.93 1804.29Z" fill="#5032E4"/>
<path d="M1070.39 1980.39L1068.38 1983.85L1061.46 1979.83L1063.47 1976.37L1070.39 1980.39ZM1049.62 1968.32L1047.61 1971.78L1033.76 1963.73L1035.77 1960.27L1049.62 1968.32ZM1021.92 1952.22L1019.91 1955.68L1006.06 1947.63L1008.07 1944.17L1021.92 1952.22ZM994.221 1936.13L992.211 1939.58L978.361 1931.54L980.371 1928.08L994.221 1936.13ZM966.521 1920.03L964.512 1923.49L950.662 1915.44L952.672 1911.98L966.521 1920.03ZM938.822 1903.93L936.812 1907.39L922.962 1899.34L924.972 1895.88L938.822 1903.93ZM911.122 1887.84L909.112 1891.29L895.263 1883.25L897.272 1879.79L911.122 1887.84ZM883.423 1871.74L881.413 1875.2L867.563 1867.15L869.573 1863.69L883.423 1871.74ZM855.724 1855.64L853.714 1859.1L839.863 1851.05L841.873 1847.6L855.724 1855.64ZM828.023 1839.55L826.014 1843.01L812.164 1834.96L814.174 1831.5L828.023 1839.55ZM800.324 1823.45L798.314 1826.91L784.465 1818.86L786.475 1815.4L800.324 1823.45ZM772.625 1807.35L770.615 1810.81L756.766 1802.77L758.775 1799.31L772.625 1807.35ZM744.925 1791.26L742.915 1794.72L729.065 1786.67L731.075 1783.21L744.925 1791.26ZM717.226 1775.16L715.216 1778.62L701.366 1770.57L703.376 1767.11L717.226 1775.16ZM689.526 1759.07L687.517 1762.52L673.667 1754.48L675.677 1751.02L689.526 1759.07ZM661.826 1742.97L659.816 1746.43L645.967 1738.38L647.977 1734.92L661.826 1742.97ZM634.127 1726.87L632.117 1730.33L618.268 1722.28L620.277 1718.83L634.127 1726.87ZM606.428 1710.78L604.418 1714.24L590.568 1706.19L592.578 1702.73L606.428 1710.78ZM578.728 1694.68L576.718 1698.14L562.868 1690.09L564.878 1686.63L578.728 1694.68ZM551.028 1678.58L549.019 1682.04L535.169 1673.99L537.179 1670.54L551.028 1678.58ZM523.329 1662.49L521.319 1665.95L507.47 1657.9L509.479 1654.44L523.329 1662.49ZM495.629 1646.39L493.619 1649.85L479.77 1641.8L481.779 1638.34L495.629 1646.39ZM467.93 1630.29L465.92 1633.75L458.995 1629.73L461.005 1626.27L467.93 1630.29Z" fill="#5032E4"/>
<path d="M710.395 654.391L708.386 657.85L701.564 653.887L703.573 650.428L710.395 654.391ZM689.932 642.502L687.922 645.961L674.28 638.036L676.289 634.577L689.932 642.502ZM662.647 626.651L660.638 630.11L646.996 622.185L649.005 618.727L662.647 626.651ZM635.363 610.801L633.354 614.26L619.711 606.334L621.721 602.876L635.363 610.801ZM608.079 594.95L606.069 598.409L592.427 590.483L594.437 587.024L608.079 594.95ZM580.794 579.1L578.785 582.558L565.143 574.633L567.152 571.174L580.794 579.1ZM553.51 563.249L551.501 566.707L537.858 558.782L539.868 555.323L553.51 563.249ZM526.226 547.397L524.217 550.856L510.574 542.931L512.584 539.473L526.226 547.397ZM498.941 531.547L496.933 535.006L483.29 527.08L485.3 523.622L498.941 531.547ZM471.657 515.696L469.648 519.155L456.006 511.229L458.016 507.771L471.657 515.696ZM444.373 499.846L442.364 503.305L428.722 495.379L430.731 491.92L444.373 499.846ZM417.089 483.995L415.08 487.453L401.438 479.528L403.447 476.069L417.089 483.995ZM389.805 468.144L387.796 471.603L374.153 463.678L376.163 460.219L389.805 468.144ZM362.521 452.293L360.512 455.752L346.869 447.826L348.879 444.368L362.521 452.293ZM335.236 436.442L333.228 439.901L319.585 431.976L321.595 428.518L335.236 436.442ZM307.952 420.592L305.942 424.051L292.301 416.125L294.311 412.666L307.952 420.592ZM280.668 404.741L278.658 408.199L265.017 400.274L267.025 396.815L280.668 404.741ZM253.384 388.891L251.374 392.349L237.732 384.424L239.741 380.965L253.384 388.891ZM226.1 373.039L224.09 376.498L210.448 368.573L212.457 365.114L226.1 373.039ZM198.815 357.188L196.806 360.647L183.164 352.722L185.173 349.264L198.815 357.188ZM171.531 341.338L169.521 344.797L155.88 336.871L157.889 333.412L171.531 341.338ZM144.247 325.487L142.237 328.946L128.596 321.021L130.604 317.562L144.247 325.487ZM116.963 309.637L114.953 313.095L101.312 305.17L103.32 301.711L116.963 309.637ZM89.6787 293.786L87.6689 297.244L74.0273 289.319L76.0361 285.86L89.6787 293.786ZM62.3945 277.935L60.3848 281.394L46.7432 273.468L48.752 270.01L62.3945 277.935ZM35.1104 262.084L33.1006 265.543L19.459 257.617L21.4678 254.159L35.1104 262.084ZM7.82617 246.233L5.81641 249.692L-1.00488 245.729L1.00488 242.271L7.82617 246.233Z" fill="#5032E4"/>
<path d="M1110.51 301.8V186.2L1210.65 244.02V359.61L1110.51 301.8Z" fill="white"/>
<path d="M1109.51 184.468C1110.13 184.11 1110.89 184.11 1111.51 184.468L1211.65 242.288C1212.27 242.645 1212.65 243.306 1212.65 244.02V359.61C1212.65 360.325 1212.27 360.984 1211.65 361.342C1211.03 361.699 1210.27 361.7 1209.65 361.343L1109.51 303.532C1108.89 303.175 1108.51 302.514 1108.51 301.8V186.2C1108.51 185.485 1108.89 184.825 1109.51 184.468ZM1112.51 300.645L1208.65 356.145V245.174L1112.51 189.664V300.645Z" fill="#231F20"/>
<path d="M1210.65 244.02L1310.49 186.2V302L1210.65 359.61V244.02Z" fill="white"/>
<path d="M1309.49 184.47C1310.11 184.111 1310.87 184.111 1311.49 184.468C1312.11 184.825 1312.49 185.485 1312.49 186.2V302C1312.49 302.714 1312.11 303.375 1311.49 303.732L1211.65 361.343C1211.03 361.7 1210.27 361.699 1209.65 361.342C1209.03 360.984 1208.65 360.325 1208.65 359.61V244.02C1208.65 243.307 1209.03 242.647 1209.65 242.289L1309.49 184.47ZM1212.65 245.173V356.146L1308.49 300.845V189.669L1212.65 245.173Z" fill="#231F20"/>
<path d="M1110.51 186.2L1210.35 128.39L1310.49 186.2L1210.65 244.02L1110.51 186.2Z" fill="white"/>
<path d="M1209.46 126.596C1210.06 126.302 1210.77 126.322 1211.35 126.658L1311.49 184.468C1312.11 184.825 1312.49 185.485 1312.49 186.199C1312.49 186.913 1312.11 187.573 1311.49 187.931L1211.65 245.75C1211.03 246.109 1210.27 246.11 1209.65 245.752L1109.51 187.932C1108.89 187.575 1108.51 186.916 1108.51 186.202C1108.51 185.487 1108.89 184.827 1109.51 184.469L1209.35 126.66L1209.46 126.596ZM1114.5 186.198L1210.65 241.709L1306.49 186.202L1210.35 130.7L1114.5 186.198Z" fill="#231F20"/>
<path d="M1113 706.077V714H1109V706.077H1113ZM1113 674.385V690.23H1109V674.385H1113ZM1113 642.692V658.538H1109V642.692H1113ZM1113 611V626.846H1109V611H1113ZM1113 579.308V595.153H1109V579.308H1113ZM1113 547.615V563.462H1109V547.615H1113ZM1113 515.923V531.77H1109V515.923H1113ZM1113 484.23V500.077H1109V484.23H1113ZM1113 452.538V468.385H1109V452.538H1113ZM1113 420.846V436.692H1109V420.846H1113ZM1113 389.154V405H1109V389.154H1113ZM1113 357.462V373.308H1109V357.462H1113ZM1113 325.77V341.615H1109V325.77H1113ZM1113 302V309.923H1109V302H1113Z" fill="#5032E4"/>
<path d="M1312 706.077V714H1308V706.077H1312ZM1312 674.385V690.23H1308V674.385H1312ZM1312 642.692V658.538H1308V642.692H1312ZM1312 611V626.846H1308V611H1312ZM1312 579.308V595.153H1308V579.308H1312ZM1312 547.615V563.462H1308V547.615H1312ZM1312 515.923V531.77H1308V515.923H1312ZM1312 484.23V500.077H1308V484.23H1312ZM1312 452.538V468.385H1308V452.538H1312ZM1312 420.846V436.692H1308V420.846H1312ZM1312 389.154V405H1308V389.154H1312ZM1312 357.462V373.308H1308V357.462H1312ZM1312 325.77V341.615H1308V325.77H1312ZM1312 302V309.923H1308V302H1312Z" fill="#5032E4"/>
<path opacity="0.1" d="M460 1628V1744L361 1802L752 2029L1003 1944L460 1628Z" fill="#5032E4"/>
<path opacity="0.1" d="M610 830V714L709 656L0 244V476L610 830Z" fill="#5032E4"/>
<path d="M1920 1065.39L1917.99 1068.85L1911.07 1064.83L1913.08 1061.37L1920 1065.39ZM1899.23 1053.32L1897.22 1056.78L1883.37 1048.73L1885.38 1045.27L1899.23 1053.32ZM1871.53 1037.22L1869.52 1040.68L1855.67 1032.63L1857.68 1029.17L1871.53 1037.22ZM1843.83 1021.13L1841.82 1024.58L1827.97 1016.54L1829.98 1013.08L1843.83 1021.13ZM1816.13 1005.03L1814.12 1008.49L1800.27 1000.44L1802.28 996.981L1816.13 1005.03ZM1788.43 988.933L1786.42 992.392L1772.57 984.343L1774.58 980.885L1788.43 988.933ZM1760.73 972.837L1758.72 976.295L1744.87 968.247L1746.88 964.788L1760.73 972.837ZM1733.03 956.74L1731.02 960.198L1717.17 952.15L1719.18 948.692L1733.03 956.74ZM1705.33 940.644L1703.32 944.103L1689.47 936.054L1691.48 932.596L1705.33 940.644ZM1677.63 924.548L1675.62 928.006L1661.77 919.958L1663.78 916.499L1677.63 924.548ZM1649.93 908.451L1647.92 911.909L1634.07 903.861L1636.08 900.403L1649.93 908.451ZM1622.23 892.354L1620.23 895.813L1606.38 887.765L1608.39 884.307L1622.23 892.354ZM1594.53 876.259L1592.52 879.717L1578.68 871.669L1580.69 868.21L1594.53 876.259ZM1566.84 860.162L1564.83 863.62L1550.98 855.572L1552.99 852.114L1566.84 860.162ZM1539.14 844.065L1537.13 847.524L1523.28 839.476L1525.29 836.018L1539.14 844.065ZM1511.44 827.97L1509.43 831.428L1495.58 823.38L1497.59 819.921L1511.44 827.97ZM1483.74 811.873L1481.73 815.331L1467.88 807.283L1469.89 803.825L1483.74 811.873ZM1456.04 795.776L1454.03 799.235L1440.18 791.187L1442.19 787.729L1456.04 795.776ZM1428.34 779.681L1426.33 783.139L1412.48 775.091L1414.49 771.632L1428.34 779.681ZM1400.64 763.584L1398.63 767.042L1384.78 758.994L1386.79 755.536L1400.64 763.584ZM1372.94 747.487L1370.93 750.946L1357.08 742.897L1359.09 739.439L1372.94 747.487ZM1345.24 731.392L1343.23 734.85L1329.38 726.802L1331.39 723.343L1345.24 731.392ZM1317.54 715.295L1315.53 718.753L1308.6 714.729L1310.61 711.271L1317.54 715.295Z" fill="#5032E4"/>
<path d="M1920 1297.39L1918 1300.85L1911.17 1296.89L1913.18 1293.43L1920 1297.39ZM1899.54 1285.5L1897.53 1288.96L1883.89 1281.04L1885.9 1277.58L1899.54 1285.5ZM1872.26 1269.65L1870.25 1273.11L1856.61 1265.18L1858.61 1261.73L1872.26 1269.65ZM1844.97 1253.8L1842.96 1257.26L1829.32 1249.33L1831.33 1245.88L1844.97 1253.8ZM1817.69 1237.95L1815.68 1241.41L1802.04 1233.48L1804.05 1230.02L1817.69 1237.95ZM1790.4 1222.1L1788.4 1225.56L1774.75 1217.63L1776.76 1214.17L1790.4 1222.1ZM1763.12 1206.25L1761.11 1209.71L1747.47 1201.78L1749.48 1198.32L1763.12 1206.25ZM1735.84 1190.4L1733.83 1193.86L1720.18 1185.93L1722.19 1182.47L1735.84 1190.4ZM1708.55 1174.55L1706.54 1178.01L1692.9 1170.08L1694.91 1166.62L1708.55 1174.55ZM1681.27 1158.7L1679.26 1162.16L1665.62 1154.23L1667.63 1150.77L1681.27 1158.7ZM1653.98 1142.85L1651.97 1146.3L1638.33 1138.38L1640.34 1134.92L1653.98 1142.85ZM1626.7 1127L1624.69 1130.45L1611.05 1122.53L1613.06 1119.07L1626.7 1127ZM1599.41 1111.14L1597.41 1114.6L1583.76 1106.68L1585.77 1103.22L1599.41 1111.14ZM1572.13 1095.29L1570.12 1098.75L1556.48 1090.83L1558.49 1087.37L1572.13 1095.29ZM1544.85 1079.44L1542.84 1082.9L1529.19 1074.98L1531.2 1071.52L1544.85 1079.44ZM1517.56 1063.59L1515.55 1067.05L1501.91 1059.12L1503.92 1055.67L1517.56 1063.59ZM1490.28 1047.74L1488.27 1051.2L1474.63 1043.27L1476.64 1039.82L1490.28 1047.74ZM1462.99 1031.89L1460.98 1035.35L1447.34 1027.42L1449.35 1023.96L1462.99 1031.89ZM1435.71 1016.04L1433.7 1019.5L1420.06 1011.57L1422.07 1008.11L1435.71 1016.04ZM1408.43 1000.19L1406.42 1003.65L1392.77 995.722L1394.78 992.264L1408.43 1000.19ZM1381.14 984.338L1379.13 987.797L1365.49 979.871L1367.5 976.412L1381.14 984.338ZM1353.86 968.487L1351.85 971.946L1338.21 964.021L1340.21 960.562L1353.86 968.487ZM1326.57 952.637L1324.56 956.095L1310.92 948.17L1312.93 944.711L1326.57 952.637ZM1299.29 936.786L1297.28 940.244L1283.64 932.319L1285.65 928.86L1299.29 936.786ZM1272 920.935L1269.99 924.394L1256.35 916.468L1258.36 913.01L1272 920.935ZM1244.72 905.084L1242.71 908.543L1229.07 900.617L1231.08 897.159L1244.72 905.084ZM1217.44 889.233L1215.43 892.692L1208.6 888.729L1210.61 885.271L1217.44 889.233Z" fill="#5032E4"/>
<path opacity="0.1" d="M1309 713.12V829.12L1210 887.12L1919 1299.12V1067.12L1309 713.12Z" fill="#5032E4"/>
<path opacity="0.1" d="M1111 302L1211 360L1311 302L1310 714L1211 656L1111 714V302Z" fill="#5032E4"/>
<path d="M861 2227.95V2236H857V2227.95H861ZM861 2195.77V2211.86H857V2195.77H861ZM861 2163.58V2179.67H857V2163.58H861ZM861 2131.39V2147.48H857V2131.39H861ZM861 2099.2V2115.3H857V2099.2H861ZM861 2067.02V2083.11H857V2067.02H861ZM861 2034.83V2050.92H857V2034.83H861ZM861 2002.64V2018.73H857V2002.64H861ZM861 1970.45V1986.55H857V1970.45H861ZM861 1938.27V1954.36H857V1938.27H861ZM861 1906.08V1922.17H857V1906.08H861ZM861 1873.89V1889.98H857V1873.89H861ZM861 1841.7V1857.8H857V1841.7H861ZM861 1809.52V1825.61H857V1809.52H861ZM861 1777.33V1793.42H857V1777.33H861ZM861 1745.14V1761.23H857V1745.14H861ZM861 1712.95V1729.05H857V1712.95H861ZM861 1680.77V1696.86H857V1680.77H861ZM861 1648.58V1664.67H857V1648.58H861ZM861 1616.39V1632.48H857V1616.39H861ZM861 1584.2V1600.3H857V1584.2H861ZM861 1552.02V1568.11H857V1552.02H861ZM861 1519.83V1535.92H857V1519.83H861ZM861 1487.64V1503.73H857V1487.64H861ZM861 1455.45V1471.55H857V1455.45H861ZM861 1423.27V1439.36H857V1423.27H861ZM861 1391.08V1407.17H857V1391.08H861ZM861 1358.89V1374.98H857V1358.89H861ZM861 1326.7V1342.8H857V1326.7H861ZM861 1294.52V1310.61H857V1294.52H861ZM861 1262.33V1278.42H857V1262.33H861ZM861 1230.14V1246.23H857V1230.14H861ZM861 1206V1214.05H857V1206H861Z" fill="#5032E4"/>
<path d="M1060 2227.95V2236H1056V2227.95H1060ZM1060 2195.77V2211.86H1056V2195.77H1060ZM1060 2163.58V2179.67H1056V2163.58H1060ZM1060 2131.39V2147.48H1056V2131.39H1060ZM1060 2099.2V2115.3H1056V2099.2H1060ZM1060 2067.02V2083.11H1056V2067.02H1060ZM1060 2034.83V2050.92H1056V2034.83H1060ZM1060 2002.64V2018.73H1056V2002.64H1060ZM1060 1970.45V1986.55H1056V1970.45H1060ZM1060 1938.27V1954.36H1056V1938.27H1060ZM1060 1906.08V1922.17H1056V1906.08H1060ZM1060 1873.89V1889.98H1056V1873.89H1060ZM1060 1841.7V1857.8H1056V1841.7H1060ZM1060 1809.52V1825.61H1056V1809.52H1060ZM1060 1777.33V1793.42H1056V1777.33H1060ZM1060 1745.14V1761.23H1056V1745.14H1060ZM1060 1712.95V1729.05H1056V1712.95H1060ZM1060 1680.77V1696.86H1056V1680.77H1060ZM1060 1648.58V1664.67H1056V1648.58H1060ZM1060 1616.39V1632.48H1056V1616.39H1060ZM1060 1584.2V1600.3H1056V1584.2H1060ZM1060 1552.02V1568.11H1056V1552.02H1060ZM1060 1519.83V1535.92H1056V1519.83H1060ZM1060 1487.64V1503.73H1056V1487.64H1060ZM1060 1455.45V1471.55H1056V1455.45H1060ZM1060 1423.27V1439.36H1056V1423.27H1060ZM1060 1391.08V1407.17H1056V1391.08H1060ZM1060 1358.89V1374.98H1056V1358.89H1060ZM1060 1326.7V1342.8H1056V1326.7H1060ZM1060 1294.52V1310.61H1056V1294.52H1060ZM1060 1262.33V1278.42H1056V1262.33H1060ZM1060 1230.14V1246.23H1056V1230.14H1060ZM1060 1206V1214.05H1056V1206H1060Z" fill="#5032E4"/>
<path opacity="0.1" d="M859 1206L959 1264L1059 1206L1058 2236L959 2178L859 2236V1206Z" fill="#5032E4"/>
<path d="M1218.47 126.233L1211.42 130.32L1209.42 126.86L1216.46 122.773L1218.47 126.233ZM1246.66 109.887L1232.56 118.06L1230.56 114.6L1244.65 106.427L1246.66 109.887ZM1274.85 93.54L1260.75 101.713L1258.75 98.2529L1272.84 90.0791L1274.85 93.54ZM1303.04 77.1934L1288.94 85.3662L1286.93 81.9062L1301.03 73.7324L1303.04 77.1934ZM1331.22 60.8457L1317.13 69.0195L1315.12 65.5596L1329.22 57.3857L1331.22 60.8457ZM1359.41 44.499L1345.32 52.6729L1343.31 49.2119L1357.41 41.0391L1359.41 44.499ZM1387.6 28.1523L1373.51 36.3262L1371.5 32.8652L1385.59 24.6924L1387.6 28.1523ZM1415.79 11.8057L1401.7 19.9785L1399.69 16.5186L1413.78 8.3457L1415.79 11.8057ZM1443.98 -4.54102L1429.88 3.63184L1427.88 0.171875L1441.97 -8.00195L1443.98 -4.54102ZM1472.17 -20.8877L1458.07 -12.7148L1456.07 -16.1748L1470.16 -24.3486L1472.17 -20.8877ZM1500.35 -37.2354L1486.26 -29.0615L1484.25 -32.5215L1498.35 -40.6953L1500.35 -37.2354ZM1528.54 -53.582L1514.45 -45.4082L1512.44 -48.8691L1526.54 -57.042L1528.54 -53.582ZM1556.73 -69.9287L1542.64 -61.7549L1540.63 -65.2158L1554.72 -73.3887L1556.73 -69.9287ZM1584.92 -86.2754L1570.83 -78.1025L1568.82 -81.5625L1582.91 -89.7354L1584.92 -86.2754ZM1613.11 -102.622L1599.01 -94.4492L1597.01 -97.9092L1611.1 -106.083L1613.11 -102.622ZM1641.3 -118.97L1627.2 -110.796L1625.2 -114.256L1639.29 -122.43L1641.3 -118.97ZM1669.49 -135.316L1655.39 -127.143L1653.38 -130.603L1667.48 -138.776L1669.49 -135.316ZM1697.67 -151.663L1683.58 -143.489L1681.57 -146.95L1695.67 -155.123L1697.67 -151.663ZM1725.86 -168.01L1711.77 -159.836L1709.76 -163.297L1723.86 -171.47L1725.86 -168.01ZM1747 -180.27L1739.96 -176.184L1737.95 -179.644L1745 -183.73L1747 -180.27Z" fill="#5032E4"/>
<path opacity="0.1" d="M1210 129L1311 186V302L1823 0H1432L1210 129Z" fill="#5032E4"/>
<path opacity="0.1" d="M711 887L610 830V714L0 1068V1306L711 887Z" fill="#5032E4"/>
<path d="M1318.18 299.346L1311.43 303.313L1309.41 299.866L1316.15 295.898L1318.18 299.346ZM1345.16 283.473L1331.67 291.409L1329.64 287.961L1343.13 280.024L1345.16 283.473ZM1372.13 267.6L1358.65 275.536L1356.62 272.088L1370.11 264.151L1372.13 267.6ZM1399.11 251.726L1385.62 259.663L1383.59 256.215L1397.08 248.278L1399.11 251.726ZM1426.09 235.853L1412.6 243.789L1410.57 240.342L1424.06 232.405L1426.09 235.853ZM1453.07 219.979L1439.58 227.916L1437.55 224.469L1451.04 216.532L1453.07 219.979ZM1480.05 204.106L1466.56 212.043L1464.53 208.596L1478.02 200.659L1480.05 204.106ZM1507.02 188.233L1493.54 196.17L1491.51 192.723L1505 184.786L1507.02 188.233ZM1534 172.36L1520.51 180.297L1518.48 176.85L1531.97 168.913L1534 172.36ZM1560.98 156.487L1547.49 164.424L1545.46 160.977L1558.95 153.039L1560.98 156.487ZM1587.96 140.614L1574.47 148.551L1572.44 145.103L1585.93 137.166L1587.96 140.614ZM1614.94 124.74L1601.45 132.678L1599.42 129.229L1612.91 121.293L1614.94 124.74ZM1641.91 108.867L1628.42 116.804L1626.4 113.356L1639.88 105.42L1641.91 108.867ZM1668.89 92.9941L1655.4 100.931L1653.37 97.4834L1666.86 89.5469L1668.89 92.9941ZM1695.87 77.1211L1682.38 85.0576L1680.35 81.6104L1693.84 73.6738L1695.87 77.1211ZM1722.85 61.248L1709.36 69.1846L1707.33 65.7373L1720.82 57.8008L1722.85 61.248ZM1749.83 45.375L1736.34 53.3115L1734.31 49.8643L1747.8 41.9277L1749.83 45.375ZM1776.8 29.502L1763.31 37.4385L1761.29 33.9912L1774.77 26.0537L1776.8 29.502ZM1803.78 13.6289L1790.29 21.5654L1788.26 18.1172L1801.75 10.1807L1803.78 13.6289ZM1824.01 1.72363L1817.27 5.69238L1815.24 2.24414L1821.99 -1.72363L1824.01 1.72363Z" fill="#5032E4"/>
<path d="M7.93555 1065.71L1.00391 1069.73L-1.00391 1066.27L5.92773 1062.25L7.93555 1065.71ZM35.6631 1049.62L21.7988 1057.66L19.792 1054.2L33.6553 1046.16L35.6631 1049.62ZM63.3906 1033.53L49.5264 1041.57L47.5186 1038.11L61.3828 1030.07L63.3906 1033.53ZM91.1172 1017.43L77.2539 1025.48L75.2461 1022.02L89.1094 1013.97L91.1172 1017.43ZM118.845 1001.34L104.981 1009.39L102.974 1005.93L116.837 997.884L118.845 1001.34ZM146.572 985.253L132.708 993.298L130.701 989.838L144.564 981.793L146.572 985.253ZM174.299 969.162L160.436 977.207L158.428 973.747L172.292 965.702L174.299 969.162ZM202.026 953.07L188.163 961.116L186.155 957.656L200.019 949.611L202.026 953.07ZM229.754 936.979L215.891 945.025L213.883 941.565L227.746 933.521L229.754 936.979ZM257.481 920.889L243.617 928.935L241.609 925.475L255.474 917.43L257.481 920.889ZM285.208 904.798L271.345 912.844L269.337 909.384L283.2 901.339L285.208 904.798ZM312.936 888.707L299.072 896.753L297.064 893.293L310.928 885.247L312.936 888.707ZM340.663 872.616L326.799 880.662L324.792 877.202L338.655 869.156L340.663 872.616ZM368.391 856.525L354.526 864.57L352.519 861.111L366.383 853.065L368.391 856.525ZM396.117 840.435L382.254 848.479L380.246 845.021L394.109 836.975L396.117 840.435ZM423.845 824.344L409.981 832.389L407.974 828.93L421.837 820.884L423.845 824.344ZM451.572 808.253L437.708 816.298L435.7 812.839L449.564 804.793L451.572 808.253ZM479.299 792.162L465.436 800.207L463.428 796.747L477.292 788.702L479.299 792.162ZM507.026 776.07L493.163 784.116L491.155 780.656L505.019 772.611L507.026 776.07ZM534.754 759.979L520.891 768.025L518.883 764.565L532.746 756.521L534.754 759.979ZM562.481 743.889L548.617 751.935L546.609 748.475L560.474 740.43L562.481 743.889ZM590.209 727.798L576.345 735.844L574.337 732.384L588.201 724.338L590.209 727.798ZM611.004 715.729L604.072 719.753L602.064 716.293L608.996 712.271L611.004 715.729Z" fill="#5032E4"/>
<path d="M7.8418 1303.7L1.01465 1307.72L-1.01465 1304.28L5.8125 1300.26L7.8418 1303.7ZM35.1494 1287.63L21.4951 1295.67L19.4658 1292.22L33.1201 1284.18L35.1494 1287.63ZM62.457 1271.55L48.8027 1279.59L46.7734 1276.14L60.4277 1268.1L62.457 1271.55ZM89.7646 1255.47L76.1104 1263.51L74.0811 1260.07L87.7354 1252.03L89.7646 1255.47ZM117.072 1239.4L103.419 1247.43L101.39 1243.99L115.043 1235.95L117.072 1239.4ZM144.38 1223.32L130.727 1231.36L128.697 1227.91L142.351 1219.87L144.38 1223.32ZM171.688 1207.24L158.034 1215.28L156.005 1211.83L169.658 1203.8L171.688 1207.24ZM198.995 1191.17L185.342 1199.2L183.312 1195.76L196.966 1187.72L198.995 1191.17ZM226.303 1175.09L212.649 1183.13L210.62 1179.68L224.273 1171.64L226.303 1175.09ZM253.61 1159.01L239.957 1167.05L237.928 1163.6L251.581 1155.57L253.61 1159.01ZM280.919 1142.93L267.265 1150.97L265.235 1147.53L278.89 1139.49L280.919 1142.93ZM308.227 1126.86L294.572 1134.9L292.543 1131.45L306.197 1123.41L308.227 1126.86ZM335.534 1110.78L321.88 1118.82L319.851 1115.37L333.505 1107.33L335.534 1110.78ZM362.842 1094.7L349.188 1102.74L347.158 1099.3L360.812 1091.26L362.842 1094.7ZM390.149 1078.63L376.495 1086.67L374.466 1083.22L388.12 1075.18L390.149 1078.63ZM417.457 1062.55L403.804 1070.59L401.773 1067.14L415.428 1059.1L417.457 1062.55ZM444.765 1046.47L431.111 1054.51L429.082 1051.06L442.735 1043.03L444.765 1046.47ZM472.072 1030.4L458.419 1038.43L456.39 1034.99L470.043 1026.95L472.072 1030.4ZM499.38 1014.32L485.727 1022.36L483.697 1018.91L497.351 1010.87L499.38 1014.32ZM526.688 998.243L513.034 1006.28L511.005 1002.83L524.658 994.796L526.688 998.243ZM553.995 982.166L540.342 990.204L538.312 986.757L551.966 978.719L553.995 982.166ZM581.303 966.089L567.649 974.127L565.62 970.681L579.273 962.642L581.303 966.089ZM608.61 950.012L594.957 958.051L592.928 954.604L606.581 946.565L608.61 950.012ZM635.918 933.936L622.265 941.974L620.235 938.526L633.889 930.488L635.918 933.936ZM663.227 917.858L649.572 925.896L647.543 922.449L661.196 914.411L663.227 917.858ZM690.534 901.781L676.88 909.819L674.851 906.373L688.504 898.334L690.534 901.781ZM711.015 889.724L704.188 893.743L702.158 890.296L708.985 886.276L711.015 889.724Z" fill="#5032E4"/>
<path opacity="0.1" d="M1597 1613L1496 1556V1440L546 1991L886 2032L1597 1613Z" fill="#5032E4"/>
<path d="M553.988 1988.68L547.004 1992.73L544.996 1989.27L551.981 1985.22L553.988 1988.68ZM581.93 1972.47L567.959 1980.58L565.952 1977.12L579.923 1969.01L581.93 1972.47ZM609.871 1956.27L595.9 1964.37L593.894 1960.91L607.864 1952.81L609.871 1956.27ZM637.812 1940.06L623.842 1948.16L621.835 1944.7L635.806 1936.6L637.812 1940.06ZM665.754 1923.86L651.783 1931.96L649.776 1928.5L663.746 1920.39L665.754 1923.86ZM693.694 1907.65L679.724 1915.75L677.717 1912.29L691.688 1904.19L693.694 1907.65ZM721.636 1891.44L707.665 1899.55L705.658 1896.09L719.629 1887.98L721.636 1891.44ZM749.577 1875.24L735.606 1883.34L733.6 1879.88L747.57 1871.78L749.577 1875.24ZM777.519 1859.03L763.548 1867.13L761.541 1863.67L775.512 1855.57L777.519 1859.03ZM805.459 1842.83L791.488 1850.93L789.481 1847.47L803.452 1839.37L805.459 1842.83ZM833.4 1826.62L819.43 1834.72L817.423 1831.26L831.394 1823.16L833.4 1826.62ZM861.342 1810.41L847.371 1818.52L845.364 1815.06L859.335 1806.95L861.342 1810.41ZM889.283 1794.21L875.312 1802.31L873.306 1798.85L887.276 1790.75L889.283 1794.21ZM917.224 1778L903.254 1786.11L901.247 1782.64L915.217 1774.54L917.224 1778ZM945.165 1761.8L931.194 1769.9L929.188 1766.44L943.158 1758.34L945.165 1761.8ZM973.106 1745.59L959.136 1753.69L957.129 1750.23L971.1 1742.13L973.106 1745.59ZM1001.05 1729.38L987.077 1737.49L985.07 1734.03L999.041 1725.92L1001.05 1729.38ZM1028.99 1713.18L1015.02 1721.28L1013.01 1717.82L1026.98 1709.72L1028.99 1713.18ZM1056.93 1696.97L1042.96 1705.08L1040.95 1701.62L1054.92 1693.51L1056.93 1696.97ZM1084.87 1680.77L1070.9 1688.87L1068.89 1685.41L1082.86 1677.31L1084.87 1680.77ZM1112.81 1664.56L1098.84 1672.66L1096.83 1669.2L1110.81 1661.1L1112.81 1664.56ZM1140.75 1648.36L1126.78 1656.46L1124.78 1653L1138.75 1644.89L1140.75 1648.36ZM1168.69 1632.15L1154.72 1640.25L1152.72 1636.79L1166.69 1628.69L1168.69 1632.15ZM1196.64 1615.94L1182.67 1624.05L1180.66 1620.59L1194.63 1612.48L1196.64 1615.94ZM1224.58 1599.74L1210.61 1607.84L1208.6 1604.38L1222.57 1596.28L1224.58 1599.74ZM1252.52 1583.53L1238.55 1591.63L1236.54 1588.17L1250.51 1580.07L1252.52 1583.53ZM1280.46 1567.33L1266.49 1575.43L1264.48 1571.97L1278.45 1563.87L1280.46 1567.33ZM1308.4 1551.12L1294.43 1559.22L1292.42 1555.76L1306.39 1547.66L1308.4 1551.12ZM1336.34 1534.91L1322.37 1543.02L1320.36 1539.56L1334.33 1531.45L1336.34 1534.91ZM1364.28 1518.71L1350.31 1526.81L1348.31 1523.35L1362.28 1515.25L1364.28 1518.71ZM1392.22 1502.5L1378.25 1510.61L1376.25 1507.14L1390.22 1499.04L1392.22 1502.5ZM1420.17 1486.3L1406.19 1494.4L1404.19 1490.94L1418.16 1482.84L1420.17 1486.3ZM1448.11 1470.09L1434.14 1478.19L1432.13 1474.73L1446.1 1466.63L1448.11 1470.09ZM1476.05 1453.88L1462.08 1461.99L1460.07 1458.53L1474.04 1450.42L1476.05 1453.88ZM1497 1441.73L1490.02 1445.78L1488.01 1442.32L1495 1438.27L1497 1441.73Z" fill="#5032E4"/>
<path d="M893.842 2029.7L887.015 2033.72L884.985 2030.28L891.812 2026.26L893.842 2029.7ZM921.149 2013.63L907.495 2021.67L905.466 2018.22L919.12 2010.18L921.149 2013.63ZM948.457 1997.55L934.803 2005.59L932.773 2002.14L946.428 1994.1L948.457 1997.55ZM975.765 1981.47L962.11 1989.51L960.081 1986.07L973.735 1978.03L975.765 1981.47ZM1003.07 1965.4L989.419 1973.43L987.39 1969.99L1001.04 1961.95L1003.07 1965.4ZM1030.38 1949.32L1016.73 1957.36L1014.7 1953.91L1028.35 1945.87L1030.38 1949.32ZM1057.69 1933.24L1044.03 1941.28L1042 1937.83L1055.66 1929.8L1057.69 1933.24ZM1085 1917.17L1071.34 1925.2L1069.31 1921.76L1082.97 1913.72L1085 1917.17ZM1112.3 1901.09L1098.65 1909.13L1096.62 1905.68L1110.27 1897.64L1112.3 1901.09ZM1139.61 1885.01L1125.96 1893.05L1123.93 1889.6L1137.58 1881.57L1139.61 1885.01ZM1166.92 1868.93L1153.26 1876.97L1151.24 1873.53L1164.89 1865.49L1166.92 1868.93ZM1194.23 1852.86L1180.57 1860.9L1178.54 1857.45L1192.2 1849.41L1194.23 1852.86ZM1221.53 1836.78L1207.88 1844.82L1205.85 1841.37L1219.5 1833.33L1221.53 1836.78ZM1248.84 1820.7L1235.19 1828.74L1233.16 1825.3L1246.81 1817.26L1248.84 1820.7ZM1276.15 1804.63L1262.5 1812.67L1260.47 1809.22L1274.12 1801.18L1276.15 1804.63ZM1303.46 1788.55L1289.8 1796.59L1287.77 1793.14L1301.43 1785.1L1303.46 1788.55ZM1330.76 1772.47L1317.11 1780.51L1315.08 1777.06L1328.74 1769.03L1330.76 1772.47ZM1358.07 1756.4L1344.42 1764.43L1342.39 1760.99L1356.04 1752.95L1358.07 1756.4ZM1385.38 1740.32L1371.73 1748.36L1369.7 1744.91L1383.35 1736.87L1385.38 1740.32ZM1412.69 1724.24L1399.03 1732.28L1397 1728.83L1410.66 1720.8L1412.69 1724.24ZM1440 1708.17L1426.34 1716.2L1424.31 1712.76L1437.97 1704.72L1440 1708.17ZM1467.3 1692.09L1453.65 1700.13L1451.62 1696.68L1465.27 1688.64L1467.3 1692.09ZM1494.61 1676.01L1480.96 1684.05L1478.93 1680.6L1492.58 1672.57L1494.61 1676.01ZM1521.92 1659.94L1508.26 1667.97L1506.24 1664.53L1519.89 1656.49L1521.92 1659.94ZM1549.23 1643.86L1535.57 1651.9L1533.54 1648.45L1547.2 1640.41L1549.23 1643.86ZM1576.53 1627.78L1562.88 1635.82L1560.85 1632.37L1574.5 1624.33L1576.53 1627.78ZM1597.01 1615.72L1590.19 1619.74L1588.16 1616.3L1594.99 1612.28L1597.01 1615.72Z" fill="#5032E4"/>
<path opacity="0.1" d="M1594 1383L1695 1440V1556L2645 1005L2305 964L1594 1383Z" fill="#5032E4"/>
<path d="M1702.99 1553.68L1696 1557.73L1694 1554.27L1700.98 1550.22L1702.99 1553.68ZM1730.93 1537.47L1716.96 1545.58L1714.95 1542.12L1728.92 1534.01L1730.93 1537.47ZM1758.87 1521.27L1744.9 1529.37L1742.89 1525.91L1756.86 1517.81L1758.87 1521.27ZM1786.81 1505.06L1772.84 1513.16L1770.83 1509.7L1784.81 1501.6L1786.81 1505.06ZM1814.75 1488.86L1800.78 1496.96L1798.78 1493.5L1812.75 1485.39L1814.75 1488.86ZM1842.69 1472.65L1828.72 1480.75L1826.72 1477.29L1840.69 1469.19L1842.69 1472.65ZM1870.64 1456.44L1856.67 1464.55L1854.66 1461.09L1868.63 1452.98L1870.64 1456.44ZM1898.58 1440.24L1884.61 1448.34L1882.6 1444.88L1896.57 1436.78L1898.58 1440.24ZM1926.52 1424.03L1912.55 1432.13L1910.54 1428.67L1924.51 1420.57L1926.52 1424.03ZM1954.46 1407.83L1940.49 1415.93L1938.48 1412.47L1952.45 1404.37L1954.46 1407.83ZM1982.4 1391.62L1968.43 1399.72L1966.42 1396.26L1980.39 1388.16L1982.4 1391.62ZM2010.34 1375.41L1996.37 1383.52L1994.36 1380.06L2008.33 1371.95L2010.34 1375.41ZM2038.28 1359.21L2024.31 1367.31L2022.31 1363.85L2036.28 1355.75L2038.28 1359.21ZM2066.22 1343L2052.25 1351.11L2050.25 1347.64L2064.22 1339.54L2066.22 1343ZM2094.17 1326.8L2080.19 1334.9L2078.19 1331.44L2092.16 1323.34L2094.17 1326.8ZM2122.11 1310.59L2108.14 1318.69L2106.13 1315.23L2120.1 1307.13L2122.11 1310.59ZM2150.05 1294.38L2136.08 1302.49L2134.07 1299.03L2148.04 1290.92L2150.05 1294.38ZM2177.99 1278.18L2164.02 1286.28L2162.01 1282.82L2175.98 1274.72L2177.99 1278.18ZM2205.93 1261.97L2191.96 1270.08L2189.95 1266.62L2203.92 1258.51L2205.93 1261.97ZM2233.87 1245.77L2219.9 1253.87L2217.89 1250.41L2231.86 1242.31L2233.87 1245.77ZM2261.81 1229.56L2247.84 1237.66L2245.83 1234.2L2259.81 1226.1L2261.81 1229.56ZM2289.75 1213.36L2275.78 1221.46L2273.78 1218L2287.75 1209.89L2289.75 1213.36ZM2317.69 1197.15L2303.72 1205.25L2301.72 1201.79L2315.69 1193.69L2317.69 1197.15ZM2345.64 1180.94L2331.67 1189.05L2329.66 1185.59L2343.63 1177.48L2345.64 1180.94ZM2373.58 1164.74L2359.61 1172.84L2357.6 1169.38L2371.57 1161.28L2373.58 1164.74ZM2401.52 1148.53L2387.55 1156.63L2385.54 1153.17L2399.51 1145.07L2401.52 1148.53ZM2429.46 1132.33L2415.49 1140.43L2413.48 1136.97L2427.45 1128.87L2429.46 1132.33ZM2457.4 1116.12L2443.43 1124.22L2441.42 1120.76L2455.39 1112.66L2457.4 1116.12ZM2485.34 1099.91L2471.37 1108.02L2469.36 1104.56L2483.33 1096.45L2485.34 1099.91ZM2513.28 1083.71L2499.31 1091.81L2497.31 1088.35L2511.28 1080.25L2513.28 1083.71ZM2541.22 1067.5L2527.25 1075.61L2525.25 1072.14L2539.22 1064.04L2541.22 1067.5ZM2569.17 1051.3L2555.19 1059.4L2553.19 1055.94L2567.16 1047.84L2569.17 1051.3ZM2597.11 1035.09L2583.14 1043.19L2581.13 1039.73L2595.1 1031.63L2597.11 1035.09ZM2625.05 1018.88L2611.08 1026.99L2609.07 1023.53L2623.04 1015.42L2625.05 1018.88ZM2646 1006.73L2639.02 1010.78L2637.01 1007.32L2644 1003.27L2646 1006.73Z" fill="#5032E4"/>
<path d="M1602.84 1379.7L1596.01 1383.72L1593.99 1380.28L1600.81 1376.26L1602.84 1379.7ZM1630.15 1363.63L1616.5 1371.67L1614.47 1368.22L1628.12 1360.18L1630.15 1363.63ZM1657.46 1347.55L1643.8 1355.59L1641.77 1352.14L1655.43 1344.1L1657.46 1347.55ZM1684.76 1331.47L1671.11 1339.51L1669.08 1336.07L1682.74 1328.03L1684.76 1331.47ZM1712.07 1315.4L1698.42 1323.43L1696.39 1319.99L1710.04 1311.95L1712.07 1315.4ZM1739.38 1299.32L1725.73 1307.36L1723.7 1303.91L1737.35 1295.87L1739.38 1299.32ZM1766.69 1283.24L1753.03 1291.28L1751 1287.83L1764.66 1279.8L1766.69 1283.24ZM1794 1267.17L1780.34 1275.2L1778.31 1271.76L1791.97 1263.72L1794 1267.17ZM1821.3 1251.09L1807.65 1259.13L1805.62 1255.68L1819.27 1247.64L1821.3 1251.09ZM1848.61 1235.01L1834.96 1243.05L1832.93 1239.6L1846.58 1231.57L1848.61 1235.01ZM1875.92 1218.93L1862.26 1226.97L1860.24 1223.53L1873.89 1215.49L1875.92 1218.93ZM1903.23 1202.86L1889.57 1210.9L1887.54 1207.45L1901.2 1199.41L1903.23 1202.86ZM1930.53 1186.78L1916.88 1194.82L1914.85 1191.37L1928.5 1183.33L1930.53 1186.78ZM1957.84 1170.7L1944.19 1178.74L1942.16 1175.3L1955.81 1167.26L1957.84 1170.7ZM1985.15 1154.63L1971.5 1162.67L1969.47 1159.22L1983.12 1151.18L1985.15 1154.63ZM2012.46 1138.55L1998.8 1146.59L1996.77 1143.14L2010.43 1135.1L2012.46 1138.55ZM2039.76 1122.47L2026.11 1130.51L2024.08 1127.06L2037.74 1119.03L2039.76 1122.47ZM2067.07 1106.4L2053.42 1114.43L2051.39 1110.99L2065.04 1102.95L2067.07 1106.4ZM2094.38 1090.32L2080.73 1098.36L2078.7 1094.91L2092.35 1086.87L2094.38 1090.32ZM2121.69 1074.24L2108.03 1082.28L2106 1078.83L2119.66 1070.8L2121.69 1074.24ZM2149 1058.17L2135.34 1066.2L2133.31 1062.76L2146.97 1054.72L2149 1058.17ZM2176.3 1042.09L2162.65 1050.13L2160.62 1046.68L2174.27 1038.64L2176.3 1042.09ZM2203.61 1026.01L2189.96 1034.05L2187.93 1030.6L2201.58 1022.57L2203.61 1026.01ZM2230.92 1009.94L2217.26 1017.97L2215.24 1014.53L2228.89 1006.49L2230.92 1009.94ZM2258.23 993.858L2244.57 1001.9L2242.54 998.449L2256.2 990.411L2258.23 993.858ZM2285.53 977.781L2271.88 985.819L2269.85 982.373L2283.5 974.334L2285.53 977.781ZM2306.01 965.724L2299.19 969.743L2297.16 966.296L2303.99 962.276L2306.01 965.724Z" fill="#5032E4"/>
</g>
</svg>
