<svg width="24" height="25" viewBox="0 0 24 25" fill="none" xmlns="http://www.w3.org/2000/svg">
<path d="M14.999 19.9355C15.2974 19.9355 15.5839 20.0537 15.7949 20.2646C16.0059 20.4756 16.124 20.7622 16.124 21.0605C16.124 21.3589 16.0059 21.6455 15.7949 21.8564C15.5839 22.0674 15.2974 22.1855 14.999 22.1855H8.99902C8.70065 22.1855 8.4141 22.0674 8.20312 21.8564C7.99215 21.6455 7.87402 21.3589 7.87402 21.0605C7.87402 20.7622 7.99215 20.4756 8.20312 20.2646C8.4141 20.0537 8.70065 19.9355 8.99902 19.9355H14.999ZM19.499 3.06055C19.8437 3.06055 20.1854 3.12882 20.5039 3.26074C20.8222 3.39266 21.1118 3.58546 21.3555 3.8291C21.5991 4.07275 21.7919 4.36235 21.9238 4.68066C22.0557 4.99914 22.124 5.34083 22.124 5.68555V16.1855C22.124 16.5303 22.0557 16.872 21.9238 17.1904C21.7919 17.5087 21.5991 17.7983 21.3555 18.042C21.1118 18.2856 20.8222 18.4784 20.5039 18.6104C20.1854 18.7423 19.8437 18.8105 19.499 18.8105H4.49902C3.80283 18.8105 3.13486 18.5343 2.64258 18.042C2.1503 17.5497 1.87402 16.8817 1.87402 16.1855V5.68555C1.87402 4.98935 2.1503 4.32138 2.64258 3.8291C3.13486 3.33682 3.80283 3.06055 4.49902 3.06055H19.499ZM4.49902 5.31055C4.39957 5.31055 4.30372 5.3496 4.2334 5.41992C4.16307 5.49025 4.12402 5.58609 4.12402 5.68555V16.1855C4.12402 16.285 4.16307 16.3808 4.2334 16.4512C4.30372 16.5215 4.39957 16.5605 4.49902 16.5605H19.499C19.5985 16.5605 19.6943 16.5215 19.7646 16.4512C19.835 16.3808 19.874 16.285 19.874 16.1855V5.68555C19.874 5.58609 19.835 5.49025 19.7646 5.41992C19.6943 5.3496 19.5985 5.31055 19.499 5.31055H4.49902ZM12.25 6.81152C15.5769 6.81152 17.6286 8.8667 18.3125 10.1016L18.8076 10.9951L18.2617 11.8574C17.5604 12.9654 15.6168 15.0615 12.25 15.0615C8.92342 15.0615 6.87163 13.0064 6.1875 11.7715L5.69238 10.8779L6.23828 10.0156C6.93959 8.90769 8.88314 6.81152 12.25 6.81152ZM10.7178 9.29004C9.53345 9.65912 8.74842 10.4013 8.3291 10.9482C8.71966 11.4789 9.52145 12.2192 10.7236 12.5859C10.2797 12.175 10.0001 11.5891 10 10.9365C10 10.2862 10.2767 9.70082 10.7178 9.29004ZM13.7764 9.28613C14.2205 9.69714 14.5 10.2837 14.5 10.9365C14.4999 11.5869 14.2216 12.1703 13.7803 12.5811C14.9654 12.2121 15.7514 11.471 16.1709 10.9238C15.7803 10.3932 14.9785 9.65279 13.7764 9.28613Z" fill="#F0F0FF"/>
</svg>
