<?xml version="1.0" encoding="UTF-8"?>
<svg id="Layer_1" xmlns="http://www.w3.org/2000/svg" version="1.1" viewBox="0 0 24 25">
  <!-- Generator: Adobe Illustrator 29.6.1, SVG Export Plug-In . SVG Version: 2.1.1 Build 9)  -->
  <path d="M15,19.9c.3,0,.6.1.8.3.2.2.3.5.3.8s-.1.6-.3.8c-.2.2-.5.3-.8.3h-6c-.3,0-.6-.1-.8-.3-.2-.2-.3-.5-.3-.8s.1-.6.3-.8c.2-.2.5-.3.8-.3h6ZM19.5,3.1c.3,0,.7,0,1,.2.3.1.6.3.9.6.2.2.4.5.6.9.1.3.2.7.2,1v10.5c0,.3,0,.7-.2,1-.1.3-.3.6-.6.9-.2.2-.5.4-.9.6-.3.1-.7.2-1,.2H4.5c-.7,0-1.4-.3-1.9-.8s-.8-1.2-.8-1.9V5.7c0-.7.3-1.4.8-1.9.5-.5,1.2-.8,1.9-.8h15ZM4.5,5.3c0,0-.2,0-.3.1,0,0-.1.2-.1.3v10.5c0,0,0,.2.1.3,0,0,.2.1.3.1h15c0,0,.2,0,.3-.1,0,0,.1-.2.1-.3V5.7c0,0,0-.2-.1-.3,0,0-.2-.1-.3-.1H4.5ZM12.2,6.8c3.3,0,5.4,2.1,6.1,3.3l.5.9-.5.9c-.7,1.1-2.6,3.2-6,3.2s-5.4-2.1-6.1-3.3l-.5-.9.5-.9c.7-1.1,2.6-3.2,6-3.2ZM10.7,9.3c-1.2.4-2,1.1-2.4,1.7.4.5,1.2,1.3,2.4,1.6-.4-.4-.7-1-.7-1.6,0-.7.3-1.2.7-1.6ZM13.8,9.3c.4.4.7,1,.7,1.7,0,.7-.3,1.2-.7,1.6,1.2-.4,2-1.1,2.4-1.7-.4-.5-1.2-1.3-2.4-1.6Z"/>
</svg>